G04 CAM350 V9.1.1 (Build 181) Date:  Wed Mar 14 15:58:32 2007 *
G04 Database: C:\Documents and Settings\George\My Documents\PADS Projects\Files\J5458-01-Visi-Trak\CAM350\J5458-01-CHECK.cam *
G04 Layer 13: J5458-SP2.PHO *
%FSLAX35Y35*%
%MOIN*%
%SFA1.000B1.000*%

%MIA0B0*%
%IPPOS*%
%ADD11C,0.01000*%
%ADD32C,0.01500*%
%ADD57R,0.03750X0.03750*%
%ADD58R,0.04550X0.04550*%
%ADD64R,0.03550X0.03550*%
%ADD65R,0.02750X0.02750*%
%ADD66R,0.02000X0.02000*%
%ADD67R,0.04150X0.04150*%
%LNJ5458-SP2.PHO*%
%LPD*%
G36*
X552571Y168000D02*
G01X552714Y168143D01*
X552857Y168429*
X553143Y168714*
X553571Y168429*
X553857Y168000*
X553571Y167571*
X553429Y167286*
X553000*
X552857Y167571*
X552571Y168000*
G37*
G36*
X535000Y160143D02*
G01Y160571D01*
X535286Y161143*
X535571Y161429*
X536000Y161571*
X536143*
X536429Y161143*
X536714Y161000*
X536857Y160714*
X536714Y160429*
X536000Y160000*
X535857Y159286*
X536143Y158714*
X536571Y158143*
X536714Y158000*
X536571Y157857*
X536143Y158000*
X535714Y158429*
X535143Y159286*
X535000Y160143*
G37*
G36*
X551571D02*
G01X551857Y160286D01*
X552143*
X552571Y160571*
X552714Y160714*
Y165857*
X552857Y166000*
X553286Y165857*
X554286Y165429*
X554429Y165286*
X554571*
Y165143*
X554000*
X553857Y165000*
X553714Y164714*
Y161143*
X553857Y160571*
X554143Y160286*
X554286*
X554429Y160143*
X554286Y160000*
X551714*
X551571Y160143*
G37*
G36*
X555714Y161714D02*
G01X555857Y162286D01*
X556000Y162714*
X556571Y163143*
X558000Y163714*
X558571Y164000*
X558714Y164286*
X558857Y164714*
X558571Y165286*
X557857Y165571*
X557000Y165286*
X556429Y164429*
X556143Y164286*
X556000*
Y165429*
X556143Y165571*
X556571Y165714*
X557429Y165857*
X558286Y165714*
X558857Y165429*
X559286Y164857*
X559429Y164286*
X559286Y163714*
X559000Y163286*
X558571Y163000*
X557857Y162571*
X557286Y162286*
X556571Y161857*
X556286Y161286*
X556571Y160429*
X557000Y160143*
X557429*
X558000Y160286*
X558571Y160571*
X559286Y162000*
X559571Y161857*
Y160429*
X559429Y160286*
X559143*
X559000Y160143*
X558286Y160000*
X557714Y159857*
X557000Y160000*
X556286Y160429*
X555857Y161000*
X555714Y161714*
G37*
G36*
X630286Y165143D02*
G01X630714Y165571D01*
X631286Y165857*
X631571Y165714*
X632000Y165571*
X632286Y165143*
X632714Y164571*
Y165714*
X632857Y166000*
X633000*
X633857Y165429*
X634571Y165286*
X634714*
X634857Y165143*
X634714Y165000*
X634429*
X633857Y164857*
X633714Y164286*
Y160857*
X633857Y160571*
X634143Y160286*
X634429Y160143*
X634286Y160000*
X631571*
X631429Y160143*
X631714Y160286*
X632000*
X632571Y160571*
X632714Y160857*
Y163714*
X632429Y164571*
X632143Y164714*
X631714Y164857*
X631143Y164714*
X630857Y164571*
X630286Y165143*
G37*
G36*
X645571D02*
G01X646000Y165571D01*
X646571Y165857*
X646857Y165714*
X647286Y165571*
X647571Y165143*
X648000Y164571*
Y165714*
X648143Y166000*
X648286*
X649143Y165429*
X649857Y165286*
X650000*
X650143Y165143*
X650000Y165000*
X649714*
X649143Y164857*
X649000Y164286*
Y160857*
X649143Y160571*
X649429Y160286*
X649714Y160143*
X649571Y160000*
X646857*
X646714Y160143*
X647000Y160286*
X647286*
X647857Y160571*
X648000Y160857*
Y163714*
X647714Y164571*
X647429Y164714*
X647000Y164857*
X646429Y164714*
X646143Y164571*
X645571Y165143*
G37*
G36*
X585857D02*
G01X586286Y165571D01*
X586857Y165857*
X587143Y165714*
X587571Y165571*
X587857Y165143*
X588286Y164571*
Y165714*
X588429Y166000*
X588571*
X589429Y165429*
X590143Y165286*
X590286*
X590429Y165143*
X590286Y165000*
X590000*
X589429Y164857*
X589286Y164286*
Y160857*
X589429Y160571*
X589714Y160286*
X590000Y160143*
X589857Y160000*
X587143*
X587000Y160143*
X587286Y160286*
X587571*
X588143Y160571*
X588286Y160857*
Y163714*
X588000Y164571*
X587714Y164714*
X587286Y164857*
X586714Y164714*
X586429Y164571*
X585857Y165143*
G37*
G36*
X641143Y160429D02*
G01X641286Y160571D01*
X641571Y160429*
X642286Y160286*
X642714*
X643143Y160571*
X643286Y160857*
Y165000*
X641714*
X641429Y165143*
X641286Y165571*
X641143Y165714*
X641286Y165857*
X641429Y165714*
X643286*
Y167143*
X643571Y166857*
X644143Y166143*
X645000Y165429*
X645143Y165143*
X645000Y165000*
X644286*
Y161571*
X644143Y160714*
X643857Y160286*
X643429Y160000*
X642714Y159857*
X641714Y160143*
X641286Y160286*
X641143Y160429*
G37*
G36*
X598286D02*
G01X598429Y160571D01*
X598714Y160429*
X599429Y160286*
X599857*
X600286Y160571*
X600429Y160857*
Y165000*
X598857*
X598571Y165143*
X598429Y165571*
X598286Y165714*
X598429Y165857*
X598571Y165714*
X600429*
Y167143*
X600714Y166857*
X601286Y166143*
X602143Y165429*
X602286Y165143*
X602143Y165000*
X601429*
Y161571*
X601286Y160714*
X601000Y160286*
X600571Y160000*
X599857Y159857*
X598857Y160143*
X598429Y160286*
X598286Y160429*
G37*
G36*
X635714Y161000D02*
G01X635857Y161143D01*
X636714Y160571*
X637571Y160429*
X638429Y160571*
X639143Y161286*
X639571Y162143*
X639714Y163286*
Y163429*
X635857*
X635714Y163571*
X635857Y164143*
X636286Y164857*
X636714Y165286*
X637000Y165571*
X638143Y165857*
X639000Y165571*
X639857Y165000*
X640571Y164000*
X640714Y162857*
X640571Y161714*
X640000Y160714*
X639143Y160000*
X638143Y159857*
X637143Y160000*
X636143Y160429*
X635857Y160857*
X635714Y161000*
G37*
G36*
X611000D02*
G01X611143Y161143D01*
X612000Y160571*
X612857Y160429*
X613714Y160571*
X614429Y161286*
X614857Y162143*
X615000Y163286*
Y163429*
X611143*
X611000Y163571*
X611143Y164143*
X611571Y164857*
X612000Y165286*
X612286Y165571*
X613429Y165857*
X614286Y165571*
X615143Y165000*
X615857Y164000*
X616000Y162857*
X615857Y161714*
X615286Y160714*
X614429Y160000*
X613429Y159857*
X612429Y160000*
X611429Y160429*
X611143Y160857*
X611000Y161000*
G37*
G36*
X560571D02*
G01X560714Y161143D01*
X561571Y160571*
X562429Y160429*
X563286Y160571*
X564000Y161286*
X564429Y162143*
X564571Y163286*
Y163429*
X560714*
X560571Y163571*
X560714Y164143*
X561143Y164857*
X561571Y165286*
X561857Y165571*
X563000Y165857*
X563857Y165571*
X564714Y165000*
X565429Y164000*
X565571Y162857*
X565429Y161714*
X564857Y160714*
X564000Y160000*
X563000Y159857*
X562000Y160000*
X561000Y160429*
X560714Y160857*
X560571Y161000*
G37*
G36*
X650571Y160286D02*
G01X650714Y160429D01*
X651000Y160143*
X651286*
X651571Y160429*
X651714Y160857*
Y164143*
X651857Y164857*
X652286Y165429*
X652714Y165643*
X652857Y165714*
X653714Y165857*
X654714Y165714*
X655429Y165143*
X655714Y164714*
X655857Y164286*
X655571Y164000*
X655000Y163857*
X654857Y164000*
Y164143*
X655000Y164714*
X654714Y165429*
X654143Y165571*
X653429Y165429*
X653000Y165143*
X652714Y164714*
Y163143*
X654143Y162857*
X655143Y162429*
X655714Y161857*
X655857Y161143*
X655714Y160571*
X655429Y160143*
X655000Y160000*
X654429Y159857*
X653571Y160000*
X652571Y160571*
X652143Y160000*
X651571Y159857*
X650857Y160000*
X650571Y160286*
G37*
G36*
X660857Y159857D02*
G01X659714Y160143D01*
X658857Y160857*
Y160143*
X658571Y160000*
X658143*
X657714Y160143*
X657000*
X656857Y160286*
X657000Y160429*
X657286*
X657714Y160571*
X657857Y160857*
Y165714*
X658000Y166000*
X658143*
X658714Y165857*
X659429*
X659714Y165714*
X659429Y165571*
X659000Y165429*
X658857Y164857*
Y161429*
X659000Y161000*
X659286Y160571*
X660429Y160286*
X660857*
X661286Y160571*
X661714Y161286*
X661857Y162143*
Y165857*
X662000Y166000*
X662143*
X662714Y165857*
X663571*
X663714Y165714*
X663571Y165571*
X663000Y165429*
X662857Y164857*
Y162143*
X662714Y161143*
X662286Y160429*
X661714Y160000*
X660857Y159857*
G37*
G36*
X595143D02*
G01X594000Y160143D01*
X593143Y160857*
Y160143*
X592857Y160000*
X592429*
X592000Y160143*
X591286*
X591143Y160286*
X591286Y160429*
X591571*
X592000Y160571*
X592143Y160857*
Y165714*
X592286Y166000*
X592429*
X593000Y165857*
X593714*
X594000Y165714*
X593714Y165571*
X593286Y165429*
X593143Y164857*
Y161429*
X593286Y161000*
X593571Y160571*
X594714Y160286*
X595143*
X595571Y160571*
X596000Y161286*
X596143Y162143*
Y165857*
X596286Y166000*
X596429*
X597000Y165857*
X597857*
X598000Y165714*
X597857Y165571*
X597286Y165429*
X597143Y164857*
Y162143*
X597000Y161143*
X596571Y160429*
X596000Y160000*
X595143Y159857*
G37*
G36*
X609571Y160000D02*
G01X607000D01*
X606857Y160143*
X607143Y160286*
X607714Y160429*
X608000Y160857*
Y164143*
X607857Y164571*
X607571Y164857*
X607143Y165143*
X606571Y165286*
X605857Y165143*
X605286Y164714*
X605000Y164143*
X604857Y163286*
Y160429*
X605143Y160286*
X605286*
X605429Y160143*
Y160000*
X603000*
X602714Y160143*
X602857Y160286*
X603286*
X603571Y160429*
X603857Y160857*
Y163000*
X604000Y164143*
X604286Y165000*
X605000Y165571*
X606000Y165857*
X607000Y165571*
X608000Y164714*
Y165714*
X608143Y166000*
X608286*
X608571Y165857*
X608857Y165571*
X609857Y165286*
X610000Y165143*
Y165000*
X609571*
X609143Y164857*
X609000Y164571*
Y161143*
X609143Y160571*
X609571Y160286*
X609714Y160143*
X609571Y160000*
G37*
G36*
X544571D02*
G01X542000D01*
X541857Y160143*
X542143Y160286*
X542714Y160429*
X543000Y160857*
Y164143*
X542857Y164571*
X542571Y164857*
X542143Y165143*
X541571Y165286*
X540857Y165143*
X540286Y164714*
X540000Y164143*
X539857Y163286*
Y160429*
X540143Y160286*
X540286*
X540429Y160143*
Y160000*
X538000*
X537714Y160143*
X537857Y160286*
X538286*
X538571Y160429*
X538857Y160857*
Y163000*
X539000Y164143*
X539286Y165000*
X540000Y165571*
X541000Y165857*
X542000Y165571*
X543000Y164714*
Y165714*
X543143Y166000*
X543286*
X543571Y165857*
X543857Y165571*
X544857Y165286*
X545000Y165143*
Y165000*
X544571*
X544143Y164857*
X544000Y164571*
Y161143*
X544143Y160571*
X544571Y160286*
X544714Y160143*
X544571Y160000*
G37*
G36*
X545571Y166000D02*
G01X545714Y166143D01*
Y166000*
X545857Y165857*
X546143Y165429*
X546714Y165286*
X547143Y165429*
X547286Y165486*
X547857Y165714*
X548571Y165857*
X549429Y165714*
X550143Y165286*
X550571Y164571*
X550714Y163714*
X550429Y162714*
X549714Y162000*
X550286Y161286*
X550571Y160571*
X550429Y160143*
X550143Y159714*
X550857Y159286*
X551143Y158571*
X551000Y158143*
X550429Y157714*
X549571Y157429*
X548571Y157286*
X547571Y157429*
X546714Y157857*
X546000Y158429*
X545857Y159143*
X546000Y159714*
X546429Y160143*
X547286Y160286*
X548429Y160429*
X549286*
X549714Y160571*
X550000Y160714*
X550143Y161143*
X549857Y161571*
X549429Y161857*
X549143*
X548429Y161714*
X547571Y161857*
X546857Y162286*
X546429Y163000*
X546286Y163714*
Y164286*
X546429Y164429*
X546286Y164571*
X545857Y164857*
X545714Y165143*
Y165429*
X545571Y166000*
G37*
G36*
X579857Y165571D02*
G01X580000Y165714D01*
X581714*
X581857Y165571*
X581714Y165429*
X581143Y165143*
X581000Y164714*
X581143Y163857*
X582429Y161143*
X583714Y164286*
X584000Y165143*
X583857Y165286*
X583571Y165429*
X583286*
X583143Y165571*
X583286Y165714*
X585714*
X585857Y165571*
X585714Y165429*
X585286Y165143*
X585000Y164714*
X583286Y160714*
X583000Y160143*
Y159857*
X583143Y159429*
X583429Y158714*
X584143Y157571*
X584286Y157429*
X584143Y157286*
X583429*
X583286Y157571*
X583143Y157714*
X580571Y164714*
X580286Y165143*
X579857Y165571*
G37*
G36*
X522714Y161571D02*
G01X522857Y161714D01*
X523000Y161571*
X523429Y161000*
X524286Y160714*
X525286Y160429*
X527143*
X527571Y160571*
X527714Y160857*
Y168000*
X527571Y168857*
X527143Y169286*
X526857*
X526714Y169429*
X526857Y169571*
X529714*
X530000Y169429*
X529857Y169286*
X529429*
X528857Y168857*
X528714Y168143*
Y161143*
X528857Y160714*
X529143Y160429*
X529571Y160286*
X529857Y160143*
X529714Y160000*
X525143*
X524000Y160143*
X523143Y160714*
X522857Y161143*
X522714Y161571*
G37*
G36*
X515000D02*
G01X515143Y161714D01*
X515286Y161571*
X515714Y161000*
X516571Y160714*
X517571Y160429*
X519429*
X519857Y160571*
X520000Y160857*
Y168000*
X519857Y168857*
X519429Y169286*
X519143*
X519000Y169429*
X519143Y169571*
X522000*
X522286Y169429*
X522143Y169286*
X521714*
X521143Y168857*
X521000Y168143*
Y161143*
X521143Y160714*
X521429Y160429*
X521857Y160286*
X522143Y160143*
X522000Y160000*
X517429*
X516286Y160143*
X515429Y160714*
X515143Y161143*
X515000Y161571*
G37*
G36*
X616714Y162286D02*
G01Y162571D01*
X616857Y162714*
X617000Y162571*
X617143Y162286*
X617714Y161429*
X618571Y160714*
X619571Y160286*
X620714Y160143*
X621571Y160286*
X622286Y160429*
X623000Y160857*
X623714Y161571*
X624143Y162286*
X624571Y163143*
X624714Y164143*
X624857Y165286*
X624571Y167000*
X623857Y168286*
X622571Y169143*
X620857Y169429*
X619857Y169286*
X618857Y168857*
X618000Y168000*
X617286Y167000*
X617143Y166714*
X616857*
Y167000*
X617143Y168714*
X617286Y169000*
X617429Y168857*
X617857*
X618143Y169000*
X619429Y169571*
X620857Y169714*
X621857Y169571*
X622857Y169286*
X623714Y168857*
X624429Y168286*
X625000Y167429*
X625429Y166571*
X625714Y165714*
X625857Y164714*
X625714Y163571*
X625571Y162714*
X625143Y161857*
X624429Y161143*
X623714Y160571*
X622857Y160143*
X622000Y160000*
X620857Y159857*
X619000Y160143*
X617286Y160857*
X617143Y161143*
X617000Y161286*
Y161429*
X616714Y162286*
G37*
G36*
X505286D02*
G01Y162571D01*
X505429Y162714*
X505571Y162571*
X505714Y162286*
X506286Y161429*
X507143Y160714*
X508143Y160286*
X509286Y160143*
X510143Y160286*
X510857Y160429*
X511571Y160857*
X512286Y161571*
X512714Y162286*
X513143Y163143*
X513286Y164143*
X513429Y165286*
X513143Y167000*
X512429Y168286*
X511143Y169143*
X509429Y169429*
X508429Y169286*
X507429Y168857*
X506571Y168000*
X505857Y167000*
X505714Y166714*
X505429*
Y167000*
X505714Y168714*
X505857Y169000*
X506000Y168857*
X506429*
X506714Y169000*
X508000Y169571*
X509429Y169714*
X510429Y169571*
X511429Y169286*
X512286Y168857*
X513000Y168286*
X513571Y167429*
X514000Y166571*
X514286Y165714*
X514429Y164714*
X514286Y163571*
X514143Y162714*
X513714Y161857*
X513000Y161143*
X512286Y160571*
X511429Y160143*
X510571Y160000*
X509429Y159857*
X507571Y160143*
X505857Y160857*
X505714Y161143*
X505571Y161286*
Y161429*
X505286Y162286*
G37*
G36*
X566429Y164857D02*
G01X566571Y165857D01*
X566714Y166714*
X567143Y167429*
X567429Y167786*
X567714Y168143*
X568571Y168714*
X569571Y169143*
X570714Y169429*
X572143Y169571*
X575857*
X576000Y169429*
X575714Y169286*
X575286Y169143*
X575000Y168857*
X574714Y168429*
Y161000*
X574857Y160571*
X575143Y160429*
X575571Y160286*
X575714Y160143*
X575429Y160000*
X571429*
X570000Y160143*
X568571Y160714*
X567714Y161571*
X567000Y162429*
X566571Y163571*
X566429Y164857*
G37*
G36*
X664143Y158286D02*
G01X664286Y158429D01*
X664429Y158286*
X665429Y158143*
X665857Y158286*
X667000Y158857*
X667714Y159286*
X668000Y159571*
X668571Y159857*
X667000Y160429*
X666000Y161143*
X665143Y162143*
X664714Y163429*
X664571Y164714*
X664714Y165857*
X664857Y166714*
X665286Y167571*
X665571Y167857*
X666714Y169000*
X667571Y169429*
X668429Y169571*
X669429Y169714*
X670714Y169571*
X671714Y169286*
X672571Y168714*
X673286Y168000*
X674143Y166571*
X674286Y165571*
X674429Y164714*
X674286Y163429*
X674000Y162429*
X673286Y161429*
X672429Y160571*
X672857Y160286*
X673143Y159857*
X673286Y159286*
X673429Y158857*
X673143Y158571*
X673000Y158857*
X672857Y159286*
X672571Y159714*
X672143Y159857*
X671857Y160000*
X671143Y159857*
X669143Y158857*
X668714Y158714*
X668000Y158143*
X667000Y157714*
X666000Y157571*
X665429*
X664714Y157857*
X664286Y158143*
X664143Y158286*
G37*
%LPC*%
G36*
X636857Y163714D02*
G01X639714D01*
X639571Y164429*
X639286Y165000*
X638714Y165429*
X638286Y165571*
X637714Y165429*
X637143Y165000*
X636857Y164571*
X636714Y164000*
X636857Y163714*
G37*
G36*
X612143D02*
G01X615000D01*
X614857Y164429*
X614571Y165000*
X614000Y165429*
X613571Y165571*
X613000Y165429*
X612429Y165000*
X612143Y164571*
X612000Y164000*
X612143Y163714*
G37*
G36*
X561714D02*
G01X564571D01*
X564429Y164429*
X564143Y165000*
X563571Y165429*
X563143Y165571*
X562571Y165429*
X562000Y165000*
X561714Y164571*
X561571Y164000*
X561714Y163714*
G37*
G36*
X652714Y160857D02*
G01X653000Y160571D01*
X653429Y160286*
X653857Y160143*
X654286*
X654571Y160429*
X654857Y161286*
X654714Y161857*
X654286Y162286*
X653571Y162714*
X652714Y162857*
Y160857*
G37*
G36*
X547571Y162429D02*
G01X548000Y162143D01*
X548429Y162000*
X549000Y162143*
X549286Y162571*
X549571Y163143*
X549714Y164000*
X549429Y165143*
X549000Y165429*
X548571Y165571*
X548000Y165429*
X547714Y165000*
X547429Y164429*
X547286Y163571*
X547571Y162429*
G37*
G36*
X546571Y158286D02*
G01X547143Y157857D01*
X547857Y157714*
X548714Y157571*
X549571*
X550143Y157857*
X550429Y158286*
X550571Y158714*
X550286Y159286*
X549714Y159571*
X548857Y159429*
X547429*
X546714Y159286*
X546429Y158714*
X546571Y158286*
G37*
G36*
X567571Y163143D02*
G01X567857Y162286D01*
X568429Y161429*
X569143Y160857*
X570143Y160429*
X571286Y160286*
X573286Y160571*
X573571Y160857*
X573714Y161286*
Y168857*
X573571Y169000*
X573000Y169143*
X572143Y169286*
X570571Y169143*
X569429Y168429*
X568571Y167714*
X568000Y166714*
X567571Y165571*
X567429Y164286*
X567571Y163143*
G37*
G36*
X665857Y162429D02*
G01X666571Y161286D01*
X667571Y160429*
X669000Y160143*
X669857*
X670429Y160429*
X671857Y161286*
X672571Y162000*
X673000Y163000*
X673286Y164143*
X673429Y165429*
X673143Y167000*
X672429Y168286*
X671286Y169143*
X670000Y169429*
X669143Y169286*
X668286Y169000*
X667571Y168571*
X666857Y167857*
X666286Y167000*
X665857Y166143*
X665571Y164143*
X665857Y162429*
G37*
%LPD*%
G54D11*
X555000Y200000D02*
G01Y175000D01*
X480000D02*
G01Y145000D01*
X432500Y200000D02*
G01Y145000D01*
X680000Y175000D02*
G01X370000D01*
Y212500D02*
G01X680000D01*
Y200000D02*
G01X370000D01*
X680000Y145000D02*
G01X370000D01*
Y230000*
X680000*
Y145000*
X674500Y154219D02*
G01X674136Y154438D01*
Y154438D02*
G01X673591Y155094D01*
Y150500*
X669409Y155094D02*
G01X671227Y150500D01*
X671955Y155094D02*
G01X669409D01*
X666682D02*
G01X667227Y154875D01*
X667591Y154219*
X667773Y153125*
Y152469*
X667591Y151375*
X667227Y150719*
X666682Y150500*
X666318*
X665773Y150719*
X665409Y151375*
X665227Y152469*
Y153125*
X665409Y154219*
X665773Y154875*
X666318Y155094*
X666682*
X662500D02*
G01X663045Y154875D01*
X663409Y154219*
X663591Y153125*
Y152469*
X663409Y151375*
X663045Y150719*
X662500Y150500*
X662136*
X661591Y150719*
X661227Y151375*
X661045Y152469*
Y153125*
X661227Y154219*
X661591Y154875*
X662136Y155094*
X662500*
X653955D02*
G01Y150500D01*
X655227Y155094D02*
G01X652682D01*
X651045D02*
G01Y150500D01*
X648500Y155094D02*
G01Y150500D01*
X651045Y152906D02*
G01X648500D01*
X645773Y155094D02*
G01X646136Y154875D01*
X646500Y154438*
Y154438D02*
G01X646682Y154000D01*
X646864Y153344*
Y152250*
X646682Y151594*
X646500Y151156*
X646136Y150719*
X645773Y150500*
X645045*
X644682Y150719*
X644318Y151156*
X644136Y151594*
X643955Y152250*
Y153344*
X644136Y154000*
X644318Y154438*
Y154438D02*
G01X644682Y154875D01*
X645045Y155094*
X645773*
X642318D02*
G01Y150500D01*
Y155094D02*
G01X640864Y150500D01*
X639409Y155094D02*
G01X640864Y150500D01*
X639409Y155094D02*
G01Y150500D01*
X636318Y155094D02*
G01X637773Y150500D01*
X636318Y155094D02*
G01X634864Y150500D01*
X637227Y152031D02*
G01X635409D01*
X630682Y154438D02*
G01X631045Y154875D01*
X631591Y155094*
X632318*
X632864Y154875*
X633227Y154438*
Y154438D02*
G01Y154000D01*
X633045Y153563*
Y153563D02*
G01X632864Y153344D01*
X632500Y153125*
X631409Y152688*
Y152688D02*
G01X631045Y152469D01*
X630864Y152250*
X630682Y151813*
Y151813D02*
G01Y151156D01*
X631045Y150719*
X631591Y150500*
X632318*
X632864Y150719*
X633227Y151156*
X624864Y155094D02*
G01Y150500D01*
Y155094D02*
G01X623227D01*
X622682Y154875*
X622500Y154656*
X622318Y154219*
Y153563*
Y153563D02*
G01X622500Y153125D01*
X622682Y152906*
X623227Y152688*
Y152688D02*
G01X624864D01*
X619227Y155094D02*
G01X620682Y150500D01*
X619227Y155094D02*
G01X617773Y150500D01*
X620136Y152031D02*
G01X618318D01*
X616136Y155094D02*
G01Y150500D01*
X614500Y155094D02*
G01Y150500D01*
Y155094D02*
G01X611955Y150500D01*
Y155094D02*
G01Y150500D01*
X610318Y155094D02*
G01Y150500D01*
Y155094D02*
G01X607955D01*
X610318Y152906D02*
G01X608864D01*
X610318Y150500D02*
G01X607955D01*
X602136Y155094D02*
G01Y150500D01*
Y155094D02*
G01X600500D01*
X599955Y154875*
X599773Y154656*
X599591Y154219*
Y153563*
Y153563D02*
G01X599773Y153125D01*
X599955Y152906*
X600500Y152688*
Y152688D02*
G01X602136D01*
X596500Y155094D02*
G01X597955Y150500D01*
X596500Y155094D02*
G01X595045Y150500D01*
X597409Y152031D02*
G01X595591D01*
X593409Y155094D02*
G01Y150500D01*
Y155094D02*
G01X591773D01*
X591227Y154875*
X591045Y154656*
X590864Y154219*
Y153781*
X591045Y153344*
X591227Y153125*
X591773Y152906*
X593409*
X592136D02*
G01X590864Y150500D01*
X589227Y155094D02*
G01Y150500D01*
X586682Y155094D02*
G01X589227Y152031D01*
X588318Y153125D02*
G01X586682Y150500D01*
X585045Y155094D02*
G01X584136Y150500D01*
X583227Y155094D02*
G01X584136Y150500D01*
X583227Y155094D02*
G01X582318Y150500D01*
X581409Y155094D02*
G01X582318Y150500D01*
X578318Y155094D02*
G01X579773Y150500D01*
X578318Y155094D02*
G01X576864Y150500D01*
X579227Y152031D02*
G01X577409D01*
X575227Y155094D02*
G01X573773Y152906D01*
Y150500*
X572318Y155094D02*
G01X573773Y152906D01*
X563773Y154000D02*
G01X563955Y154438D01*
Y154438D02*
G01X564318Y154875D01*
X564682Y155094*
X565409*
X565773Y154875*
X566136Y154438*
Y154438D02*
G01X566318Y154000D01*
X566500Y153344*
Y152250*
X566318Y151594*
X566136Y151156*
X565773Y150719*
X565409Y150500*
X564682*
X564318Y150719*
X563955Y151156*
X563773Y151594*
X562136Y155094D02*
G01Y150500D01*
Y155094D02*
G01X559773D01*
X562136Y152906D02*
G01X560682D01*
X562136Y150500D02*
G01X559773D01*
X558136Y155094D02*
G01Y150500D01*
Y155094D02*
G01X555591Y150500D01*
Y155094D02*
G01Y150500D01*
X552682Y155094D02*
G01Y150500D01*
X553955Y155094D02*
G01X551409D01*
X549773D02*
G01Y150500D01*
Y155094D02*
G01X547409D01*
X549773Y152906D02*
G01X548318D01*
X549773Y150500D02*
G01X547409D01*
X545773Y155094D02*
G01Y150500D01*
Y155094D02*
G01X544136D01*
X543591Y154875*
X543409Y154656*
X543227Y154219*
Y153781*
X543409Y153344*
X543591Y153125*
X544136Y152906*
X545773*
X544500D02*
G01X543227Y150500D01*
X541591Y155094D02*
G01X540136Y150500D01*
X538682Y155094D02*
G01X540136Y150500D01*
X537045Y155094D02*
G01Y150500D01*
X535409Y155094D02*
G01Y150500D01*
X533227*
X531591Y155094D02*
G01Y150500D01*
X529409*
X527773Y155094D02*
G01Y150500D01*
Y155094D02*
G01X525409D01*
X527773Y152906D02*
G01X526318D01*
X527773Y150500D02*
G01X525409D01*
X523409Y150719D02*
G01X523591Y150500D01*
X523773Y150719*
X523591Y150938*
Y150938D02*
G01X523409Y150719D01*
Y150281*
X523591Y149844*
X523773Y149625*
X516500Y155094D02*
G01X516864Y154875D01*
X517227Y154438*
Y154438D02*
G01X517409Y154000D01*
X517591Y153344*
Y152250*
X517409Y151594*
X517227Y151156*
X516864Y150719*
X516500Y150500*
X515773*
X515409Y150719*
X515045Y151156*
X514864Y151594*
X514682Y152250*
Y153344*
X514864Y154000*
X515045Y154438*
Y154438D02*
G01X515409Y154875D01*
X515773Y155094*
X516500*
X513045D02*
G01Y150500D01*
X510500Y155094D02*
G01Y150500D01*
X513045Y152906D02*
G01X510500D01*
X502864Y155094D02*
G01X504682Y152031D01*
X501955*
X502864Y155094D02*
G01Y150500D01*
X497955Y155094D02*
G01X499773D01*
X499955Y153125*
X499773Y153344*
X499227Y153563*
Y153563D02*
G01X498682D01*
Y153563D02*
G01X498136Y153344D01*
X497773Y152906*
X497591Y152250*
X497773Y151813*
Y151813D02*
G01X497955Y151156D01*
X498318Y150719*
X498864Y150500*
X499409*
X499955Y150719*
X500136Y150938*
Y150938D02*
G01X500318Y151375D01*
X494136Y155094D02*
G01X495955Y152031D01*
X493227*
X494136Y155094D02*
G01Y150500D01*
X489227Y155094D02*
G01X491045D01*
X491227Y153125*
X491045Y153344*
X490500Y153563*
Y153563D02*
G01X489955D01*
Y153563D02*
G01X489409Y153344D01*
X489045Y152906*
X488864Y152250*
X489045Y151813*
Y151813D02*
G01X489227Y151156D01*
X489591Y150719*
X490136Y150500*
X490682*
X491227Y150719*
X491409Y150938*
Y150938D02*
G01X491591Y151375D01*
X484864Y153563D02*
G01X485045Y152906D01*
X485409Y152469*
X485955Y152250*
X486136*
X486682Y152469*
X487045Y152906*
X487227Y153563*
Y153563D02*
G01Y153781D01*
X487045Y154438*
Y154438D02*
G01X486682Y154875D01*
X486136Y155094*
X485955*
X485409Y154875*
X485045Y154438*
Y154438D02*
G01X484864Y153563D01*
Y153563D02*
G01Y152469D01*
X485045Y151375*
X485409Y150719*
X485955Y150500*
X486318*
X486864Y150719*
X487045Y151156*
X423136Y171406D02*
G01X423591Y171125D01*
X424045Y170563*
Y170563D02*
G01X424273Y170000D01*
X424500Y169156*
Y167750*
X424273Y166906*
X424045Y166344*
X423591Y165781*
X423136Y165500*
X422227*
X421773Y165781*
X421318Y166344*
X421091Y166906*
X420864Y167750*
Y169156*
X421091Y170000*
X421318Y170563*
Y170563D02*
G01X421773Y171125D01*
X422227Y171406*
X423136*
X422455Y166625D02*
G01X421091Y164937D01*
X415409Y170000D02*
G01X415636Y170563D01*
Y170563D02*
G01X416091Y171125D01*
X416545Y171406*
X417455*
X417909Y171125*
X418364Y170563*
Y170563D02*
G01X418591Y170000D01*
X418818Y169156*
Y167750*
X418591Y166906*
X418364Y166344*
X417909Y165781*
X417455Y165500*
X416545*
X416091Y165781*
X415636Y166344*
X415409Y166906*
X413364Y171406D02*
G01Y165500D01*
Y171406D02*
G01X411773D01*
X411091Y171125*
X410636Y170563*
Y170563D02*
G01X410409Y170000D01*
X410182Y169156*
Y167750*
X410409Y166906*
X410636Y166344*
X411091Y165781*
X411773Y165500*
X413364*
X400636Y171406D02*
G01Y166906D01*
X400864Y166063*
Y166063D02*
G01X401091Y165781D01*
X401545Y165500*
X402000*
X402455Y165781*
X402682Y166063*
Y166063D02*
G01X402909Y166906D01*
Y167469*
X397227Y171406D02*
G01X397682Y171125D01*
X398136Y170563*
Y170563D02*
G01X398364Y170000D01*
X398591Y169156*
Y167750*
X398364Y166906*
X398136Y166344*
X397682Y165781*
X397227Y165500*
X396318*
X395864Y165781*
X395409Y166344*
X395182Y166906*
X394955Y167750*
Y169156*
X395182Y170000*
X395409Y170563*
Y170563D02*
G01X395864Y171125D01*
X396318Y171406*
X397227*
X392909D02*
G01Y165500D01*
Y171406D02*
G01X390864D01*
X390182Y171125*
X389955Y170844*
X389727Y170281*
Y169719*
X389955Y169156*
X390182Y168875*
X390864Y168594*
X392909D02*
G01X390864D01*
X390182Y168313*
Y168313D02*
G01X389955Y168031D01*
X389727Y167469*
Y166625*
X389955Y166063*
Y166063D02*
G01X390182Y165781D01*
X390864Y165500*
X392909*
X380636Y172531D02*
G01X382227Y163531D01*
X379273Y172531D02*
G01X380864Y163531D01*
X382227Y168875D02*
G01X379045D01*
X382455Y167188D02*
G01X379273D01*
X367318Y138906D02*
G01X365500Y133000D01*
X367318Y138906D02*
G01X369136Y133000D01*
X366182Y134969D02*
G01X368455D01*
X371182Y138906D02*
G01Y133000D01*
X373909*
X375955Y138906D02*
G01Y133000D01*
X378682*
X389364Y137500D02*
G01X389136Y138063D01*
Y138063D02*
G01X388682Y138625D01*
X388227Y138906*
X387318*
X386864Y138625*
X386409Y138063*
Y138063D02*
G01X386182Y137500D01*
X385955Y136656*
Y135250*
X386182Y134406*
X386409Y133844*
X386864Y133281*
X387318Y133000*
X388227*
X388682Y133281*
X389136Y133844*
X389364Y134406*
Y135250*
X388227D02*
G01X389364D01*
X391409Y138906D02*
G01Y133000D01*
Y138906D02*
G01X394364D01*
X391409Y136094D02*
G01X393227D01*
X391409Y133000D02*
G01X394364D01*
X396409Y138906D02*
G01Y133000D01*
Y138906D02*
G01X398455D01*
X399136Y138625*
X399364Y138344*
X399591Y137781*
Y137219*
X399364Y136656*
X399136Y136375*
X398455Y136094*
X396409*
X398000D02*
G01X399591Y133000D01*
X401636Y138906D02*
G01Y133000D01*
Y138906D02*
G01X403682D01*
X404364Y138625*
X404591Y138344*
X404818Y137781*
Y137219*
X404591Y136656*
X404364Y136375*
X403682Y136094*
X401636D02*
G01X403682D01*
X404364Y135813*
Y135813D02*
G01X404591Y135531D01*
X404818Y134969*
Y134125*
X404591Y133563*
Y133563D02*
G01X404364Y133281D01*
X403682Y133000*
X401636*
X406864Y138906D02*
G01Y133000D01*
Y138906D02*
G01X409818D01*
X406864Y136094D02*
G01X408682D01*
X406864Y133000D02*
G01X409818D01*
X411864Y138906D02*
G01Y133000D01*
Y138906D02*
G01X413909D01*
X414591Y138625*
X414818Y138344*
X415045Y137781*
Y137219*
X414818Y136656*
X414591Y136375*
X413909Y136094*
X411864*
X413455D02*
G01X415045Y133000D01*
X420273Y138063D02*
G01X419818Y138625D01*
X419136Y138906*
X418227*
X417545Y138625*
X417091Y138063*
Y138063D02*
G01Y137500D01*
X417318Y136938*
Y136938D02*
G01X417545Y136656D01*
X418000Y136375*
X419364Y135813*
Y135813D02*
G01X419818Y135531D01*
X420045Y135250*
X420273Y134688*
Y134688D02*
G01Y133844D01*
X419818Y133281*
X419136Y133000*
X418227*
X417545Y133281*
X417091Y133844*
X429364Y138906D02*
G01X427545Y133000D01*
X429364Y138906D02*
G01X431182Y133000D01*
X428227Y134969D02*
G01X430500D01*
X433227Y138906D02*
G01Y133000D01*
Y138906D02*
G01X435273D01*
X435955Y138625*
X436182Y138344*
X436409Y137781*
Y137219*
X436182Y136656*
X435955Y136375*
X435273Y136094*
X433227*
X434818D02*
G01X436409Y133000D01*
X438455Y138906D02*
G01Y133000D01*
Y138906D02*
G01X441409D01*
X438455Y136094D02*
G01X440273D01*
X438455Y133000D02*
G01X441409D01*
X448682Y138906D02*
G01X450500Y133000D01*
X452318Y138906D02*
G01X450500Y133000D01*
X454364Y138906D02*
G01Y133000D01*
X456409Y138906D02*
G01Y133000D01*
Y138906D02*
G01X459364D01*
X456409Y136094D02*
G01X458227D01*
X456409Y133000D02*
G01X459364D01*
X461409Y138906D02*
G01X462545Y133000D01*
X463682Y138906D02*
G01X462545Y133000D01*
X463682Y138906D02*
G01X464818Y133000D01*
X465955Y138906D02*
G01X464818Y133000D01*
X468000Y138906D02*
G01Y133000D01*
Y138906D02*
G01X470955D01*
X468000Y136094D02*
G01X469818D01*
X468000Y133000D02*
G01X470955D01*
X473000Y138906D02*
G01Y133000D01*
Y138906D02*
G01X474591D01*
X475273Y138625*
X475727Y138063*
Y138063D02*
G01X475955Y137500D01*
X476182Y136656*
Y135250*
X475955Y134406*
X475727Y133844*
X475273Y133281*
X474591Y133000*
X473000*
X483455Y138906D02*
G01Y133000D01*
Y138906D02*
G01X486409D01*
X483455Y136094D02*
G01X485273D01*
X488455Y138906D02*
G01Y133000D01*
Y138906D02*
G01X490500D01*
X491182Y138625*
X491409Y138344*
X491636Y137781*
Y137219*
X491409Y136656*
X491182Y136375*
X490500Y136094*
X488455*
X490045D02*
G01X491636Y133000D01*
X495045Y138906D02*
G01X494591Y138625D01*
X494136Y138063*
Y138063D02*
G01X493909Y137500D01*
X493682Y136656*
Y135250*
X493909Y134406*
X494136Y133844*
X494591Y133281*
X495045Y133000*
X495955*
X496409Y133281*
X496864Y133844*
X497091Y134406*
X497318Y135250*
Y136656*
X497091Y137500*
X496864Y138063*
Y138063D02*
G01X496409Y138625D01*
X495955Y138906*
X495045*
X499364D02*
G01Y133000D01*
Y138906D02*
G01X501182Y133000D01*
X503000Y138906D02*
G01X501182Y133000D01*
X503000Y138906D02*
G01Y133000D01*
X511864Y138906D02*
G01Y133000D01*
X510273Y138906D02*
G01X513455D01*
X515500D02*
G01Y133000D01*
X518682Y138906D02*
G01Y133000D01*
X515500Y136094D02*
G01X518682D01*
X520727Y138906D02*
G01Y133000D01*
Y138906D02*
G01X523682D01*
X520727Y136094D02*
G01X522545D01*
X520727Y133000D02*
G01X523682D01*
X530955Y138906D02*
G01Y133000D01*
Y138906D02*
G01X533000D01*
X533682Y138625*
X533909Y138344*
X534136Y137781*
Y136938*
Y136938D02*
G01X533909Y136375D01*
X533682Y136094*
X533000Y135813*
Y135813D02*
G01X530955D01*
X536182Y138906D02*
G01Y133000D01*
Y138906D02*
G01X538227D01*
X538909Y138625*
X539136Y138344*
X539364Y137781*
Y137219*
X539136Y136656*
X538909Y136375*
X538227Y136094*
X536182*
X537773D02*
G01X539364Y133000D01*
X541409Y138906D02*
G01Y133000D01*
X543455Y138906D02*
G01Y133000D01*
Y138906D02*
G01X545273Y133000D01*
X547091Y138906D02*
G01X545273Y133000D01*
X547091Y138906D02*
G01Y133000D01*
X550955Y138906D02*
G01X549136Y133000D01*
X550955Y138906D02*
G01X552773Y133000D01*
X549818Y134969D02*
G01X552091D01*
X554818Y138906D02*
G01Y133000D01*
Y138906D02*
G01X556864D01*
X557545Y138625*
X557773Y138344*
X558000Y137781*
Y137219*
X557773Y136656*
X557545Y136375*
X556864Y136094*
X554818*
X556409D02*
G01X558000Y133000D01*
X560045Y138906D02*
G01X561864Y136094D01*
Y133000*
X563682Y138906D02*
G01X561864Y136094D01*
X574136Y138063D02*
G01X573682Y138625D01*
X573000Y138906*
X572091*
X571409Y138625*
X570955Y138063*
Y138063D02*
G01Y137500D01*
X571182Y136938*
Y136938D02*
G01X571409Y136656D01*
X571864Y136375*
X573227Y135813*
Y135813D02*
G01X573682Y135531D01*
X573909Y135250*
X574136Y134688*
Y134688D02*
G01Y133844D01*
X573682Y133281*
X573000Y133000*
X572091*
X571409Y133281*
X570955Y133844*
X576182Y138906D02*
G01Y133000D01*
X578227Y138906D02*
G01Y133000D01*
Y138906D02*
G01X579818D01*
X580500Y138625*
X580955Y138063*
Y138063D02*
G01X581182Y137500D01*
X581409Y136656*
Y135250*
X581182Y134406*
X580955Y133844*
X580500Y133281*
X579818Y133000*
X578227*
X583455Y138906D02*
G01Y133000D01*
Y138906D02*
G01X586409D01*
X583455Y136094D02*
G01X585273D01*
X583455Y133000D02*
G01X586409D01*
X595273Y140031D02*
G01X594818Y139469D01*
X594364Y138625*
X593909Y137500*
X593682Y136094*
Y134969*
X593909Y133563*
Y133563D02*
G01X594364Y132437D01*
Y132437D02*
G01X594818Y131594D01*
X595273Y131031*
X598909Y138906D02*
G01Y133000D01*
X597318Y138906D02*
G01X600500D01*
X602545D02*
G01Y133000D01*
X605727Y138906D02*
G01Y133000D01*
X602545Y136094D02*
G01X605727D01*
X607773Y138906D02*
G01Y133000D01*
Y138906D02*
G01X609818D01*
X610500Y138625*
X610727Y138344*
X610955Y137781*
Y137219*
X610727Y136656*
X610500Y136375*
X609818Y136094*
X607773*
X609364D02*
G01X610955Y133000D01*
X614364Y138906D02*
G01X613909Y138625D01*
X613455Y138063*
Y138063D02*
G01X613227Y137500D01*
X613000Y136656*
Y135250*
X613227Y134406*
X613455Y133844*
X613909Y133281*
X614364Y133000*
X615273*
X615727Y133281*
X616182Y133844*
X616409Y134406*
X616636Y135250*
Y136656*
X616409Y137500*
X616182Y138063*
Y138063D02*
G01X615727Y138625D01*
X615273Y138906*
X614364*
X618682D02*
G01Y134688D01*
Y134688D02*
G01X618909Y133844D01*
X619364Y133281*
X620045Y133000*
X620500*
X621182Y133281*
X621636Y133844*
X621864Y134688*
Y134688D02*
G01Y138906D01*
X627318Y137500D02*
G01X627091Y138063D01*
Y138063D02*
G01X626636Y138625D01*
X626182Y138906*
X625273*
X624818Y138625*
X624364Y138063*
Y138063D02*
G01X624136Y137500D01*
X623909Y136656*
Y135250*
X624136Y134406*
X624364Y133844*
X624818Y133281*
X625273Y133000*
X626182*
X626636Y133281*
X627091Y133844*
X627318Y134406*
Y135250*
X626182D02*
G01X627318D01*
X629364Y138906D02*
G01Y133000D01*
X632545Y138906D02*
G01Y133000D01*
X629364Y136094D02*
G01X632545D01*
X641409Y138906D02*
G01Y133000D01*
X639818Y138906D02*
G01X643000D01*
X645045D02*
G01Y133000D01*
X648227Y138906D02*
G01Y133000D01*
X645045Y136094D02*
G01X648227D01*
X650273Y138906D02*
G01Y133000D01*
Y138906D02*
G01X653227D01*
X650273Y136094D02*
G01X652091D01*
X650273Y133000D02*
G01X653227D01*
X660500Y138906D02*
G01Y133000D01*
Y138906D02*
G01X662545D01*
X663227Y138625*
X663455Y138344*
X663682Y137781*
Y137219*
X663455Y136656*
X663227Y136375*
X662545Y136094*
X660500D02*
G01X662545D01*
X663227Y135813*
Y135813D02*
G01X663455Y135531D01*
X663682Y134969*
Y134125*
X663455Y133563*
Y133563D02*
G01X663227Y133281D01*
X662545Y133000*
X660500*
X667091Y138906D02*
G01X666636Y138625D01*
X666182Y138063*
Y138063D02*
G01X665955Y137500D01*
X665727Y136656*
Y135250*
X665955Y134406*
X666182Y133844*
X666636Y133281*
X667091Y133000*
X668000*
X668455Y133281*
X668909Y133844*
X669136Y134406*
X669364Y135250*
Y136656*
X669136Y137500*
X668909Y138063*
Y138063D02*
G01X668455Y138625D01*
X668000Y138906*
X667091*
X673227D02*
G01X671409Y133000D01*
X673227Y138906D02*
G01X675045Y133000D01*
X672091Y134969D02*
G01X674364D01*
X677091Y138906D02*
G01Y133000D01*
Y138906D02*
G01X679136D01*
X679818Y138625*
X680045Y138344*
X680273Y137781*
Y137219*
X680045Y136656*
X679818Y136375*
X679136Y136094*
X677091*
X678682D02*
G01X680273Y133000D01*
X682318Y138906D02*
G01Y133000D01*
Y138906D02*
G01X683909D01*
X684591Y138625*
X685045Y138063*
Y138063D02*
G01X685273Y137500D01*
X685500Y136656*
Y135250*
X685273Y134406*
X685045Y133844*
X684591Y133281*
X683909Y133000*
X682318*
X687545Y140031D02*
G01X688000Y139469D01*
X688455Y138625*
X688909Y137500*
X689136Y136094*
Y134969*
X688909Y133563*
Y133563D02*
G01X688455Y132437D01*
Y132437D02*
G01X688000Y131594D01*
X687545Y131031*
X674500Y198047D02*
G01Y190500D01*
Y198047D02*
G01X670807D01*
X674500Y194453D02*
G01X672227D01*
X674500Y190500D02*
G01X670807D01*
X666261Y198047D02*
G01Y190500D01*
X668250Y198047D02*
G01X664273D01*
X661716D02*
G01Y190500D01*
X657739Y198047D02*
G01Y190500D01*
X661716Y194453D02*
G01X657739D01*
X655182Y198047D02*
G01Y190500D01*
Y198047D02*
G01X651489D01*
X655182Y194453D02*
G01X652909D01*
X655182Y190500D02*
G01X651489D01*
X648932Y198047D02*
G01Y190500D01*
Y198047D02*
G01X646375D01*
X645523Y197688*
Y197688D02*
G01X645239Y197328D01*
X644955Y196609*
Y195891*
X645239Y195172*
X645523Y194813*
Y194813D02*
G01X646375Y194453D01*
X648932*
X646943D02*
G01X644955Y190500D01*
X642398Y198047D02*
G01Y190500D01*
Y198047D02*
G01X638420Y190500D01*
Y198047D02*
G01Y190500D01*
X635864Y198047D02*
G01Y190500D01*
Y198047D02*
G01X632170D01*
X635864Y194453D02*
G01X633591D01*
X635864Y190500D02*
G01X632170D01*
X627625Y198047D02*
G01Y190500D01*
X629614Y198047D02*
G01X625636D01*
X616545D02*
G01Y190500D01*
Y198047D02*
G01X614273Y190500D01*
X612000Y198047D02*
G01X614273Y190500D01*
X612000Y198047D02*
G01Y190500D01*
X607739Y198047D02*
G01X608307Y197688D01*
Y197688D02*
G01X608875Y196969D01*
X609159Y196250*
X609443Y195172*
Y193375*
X609159Y192297*
X608875Y191578*
X608307Y190859*
X607739Y190500*
X606602*
X606034Y190859*
X605466Y191578*
X605182Y192297*
X604898Y193375*
Y195172*
X605182Y196250*
X605466Y196969*
X606034Y197688*
Y197688D02*
G01X606602Y198047D01*
X607739*
X602341D02*
G01Y190500D01*
Y198047D02*
G01X598364Y190500D01*
Y198047D02*
G01Y190500D01*
X595807Y198047D02*
G01Y190500D01*
X591261Y198047D02*
G01Y190500D01*
X593250Y198047D02*
G01X589273D01*
X585011D02*
G01X585580Y197688D01*
Y197688D02*
G01X586148Y196969D01*
X586432Y196250*
X586716Y195172*
Y193375*
X586432Y192297*
X586148Y191578*
X585580Y190859*
X585011Y190500*
X583875*
X583307Y190859*
X582739Y191578*
X582455Y192297*
X582170Y193375*
Y195172*
X582455Y196250*
X582739Y196969*
X583307Y197688*
Y197688D02*
G01X583875Y198047D01*
X585011*
X579614D02*
G01Y190500D01*
Y198047D02*
G01X577057D01*
X576205Y197688*
Y197688D02*
G01X575920Y197328D01*
X575636Y196609*
Y195891*
X575920Y195172*
X576205Y194813*
Y194813D02*
G01X577057Y194453D01*
X579614*
X577625D02*
G01X575636Y190500D01*
X560864Y194813D02*
G01Y195172D01*
X561148Y195531*
X561432*
X561716Y195172*
X562000Y194453*
X562568Y192656*
X563136Y191578*
X563705Y190859*
X564273Y190500*
X565409*
X565977Y190859*
X566261Y191219*
X566545Y191938*
Y191938D02*
G01Y192656D01*
X566261Y193375*
X565977Y193734*
X563989Y195172*
X563705Y195531*
X563420Y196250*
Y196969*
X563705Y197688*
Y197688D02*
G01X564273Y198047D01*
X564841Y197688*
Y197688D02*
G01X565125Y196969D01*
Y196250*
X564841Y195172*
X564273Y194094*
X562852Y191578*
X562284Y190859*
X561716Y190500*
X561148*
X560864Y190859*
Y191219*
X670239Y183750D02*
G01X670523Y184469D01*
X671091Y185188*
Y185188D02*
G01X671659Y185547D01*
X672795*
X673364Y185188*
Y185188D02*
G01X673932Y184469D01*
X674216Y183750*
X674500Y182672*
Y180875*
X674216Y179797*
X673932Y179078*
X673364Y178359*
X672795Y178000*
X671659*
X671091Y178359*
X670523Y179078*
X670239Y179797*
X665977Y185547D02*
G01X666545Y185188D01*
Y185188D02*
G01X667114Y184469D01*
X667398Y183750*
X667682Y182672*
Y180875*
X667398Y179797*
X667114Y179078*
X666545Y178359*
X665977Y178000*
X664841*
X664273Y178359*
X663705Y179078*
X663420Y179797*
X663136Y180875*
Y182672*
X663420Y183750*
X663705Y184469*
X664273Y185188*
Y185188D02*
G01X664841Y185547D01*
X665977*
X660580D02*
G01Y178000D01*
Y185547D02*
G01X656602Y178000D01*
Y185547D02*
G01Y178000D01*
X652057Y185547D02*
G01Y178000D01*
X654045Y185547D02*
G01X650068D01*
X647511D02*
G01Y178000D01*
Y185547D02*
G01X644955D01*
X644102Y185188*
Y185188D02*
G01X643818Y184828D01*
X643534Y184109*
Y183391*
X643818Y182672*
X644102Y182313*
Y182313D02*
G01X644955Y181953D01*
X647511*
X645523D02*
G01X643534Y178000D01*
X639273Y185547D02*
G01X639841Y185188D01*
Y185188D02*
G01X640409Y184469D01*
X640693Y183750*
X640977Y182672*
Y180875*
X640693Y179797*
X640409Y179078*
X639841Y178359*
X639273Y178000*
X638136*
X637568Y178359*
X637000Y179078*
X636716Y179797*
X636432Y180875*
Y182672*
X636716Y183750*
X637000Y184469*
X637568Y185188*
Y185188D02*
G01X638136Y185547D01*
X639273*
X633875D02*
G01Y178000D01*
X630466*
X621375Y185547D02*
G01Y178000D01*
Y185547D02*
G01X618818D01*
X617966Y185188*
Y185188D02*
G01X617682Y184828D01*
X617398Y184109*
Y183391*
X617682Y182672*
X617966Y182313*
Y182313D02*
G01X618818Y181953D01*
X621375D02*
G01X618818D01*
X617966Y181594*
X617682Y181234*
X617398Y180516*
Y179438*
Y179438D02*
G01X617682Y178719D01*
X617966Y178359*
X618818Y178000*
X621375*
X614841Y185547D02*
G01Y178000D01*
Y185547D02*
G01X612852D01*
X612000Y185188*
Y185188D02*
G01X611432Y184469D01*
X611148Y183750*
X610864Y182672*
Y180875*
X611148Y179797*
X611432Y179078*
X612000Y178359*
X612852Y178000*
X614841*
X424500Y196406D02*
G01Y190500D01*
Y196406D02*
G01X422909D01*
X422227Y196125*
X421773Y195563*
Y195563D02*
G01X421545Y195000D01*
X421318Y194156*
Y192750*
X421545Y191906*
X421773Y191344*
X422227Y190781*
X422909Y190500*
X424500*
X417455Y196406D02*
G01X419273Y190500D01*
X417455Y196406D02*
G01X415636Y190500D01*
X418591Y192469D02*
G01X416318D01*
X412000Y196406D02*
G01Y190500D01*
X413591Y196406D02*
G01X410409D01*
X408364D02*
G01Y190500D01*
Y196406D02*
G01X405409D01*
X408364Y193594D02*
G01X406545D01*
X408364Y190500D02*
G01X405409D01*
X403136Y194438D02*
G01X403364Y194156D01*
X403136Y193875*
X402909Y194156*
X403136Y194438*
Y191063D02*
G01X403364Y190781D01*
X403136Y190500*
X402909Y190781*
X403136Y191063*
X425295Y185547D02*
G01X426148Y185188D01*
Y185188D02*
G01X426716Y184109D01*
X427000Y182313*
Y182313D02*
G01Y181234D01*
X426716Y179438*
Y179438D02*
G01X426148Y178359D01*
X425295Y178000*
X424727*
X423875Y178359*
X423307Y179438*
Y179438D02*
G01X423023Y181234D01*
Y182313*
Y182313D02*
G01X423307Y184109D01*
X423875Y185188*
Y185188D02*
G01X424727Y185547D01*
X425295*
X419898D02*
G01X416773D01*
X418477Y182672*
X417625*
X417057Y182313*
Y182313D02*
G01X416773Y181953D01*
X416489Y180875*
Y180156*
X416773Y179078*
X417341Y178359*
X418193Y178000*
X419045*
X419898Y178359*
X420182Y178719*
X420466Y179438*
X408818Y186984D02*
G01X413932Y175484D01*
X406261Y184109D02*
G01X405693Y184469D01*
X404841Y185547*
Y178000*
X399443Y185547D02*
G01X402284Y180516D01*
X398023*
X399443Y185547D02*
G01Y178000D01*
X390352Y186984D02*
G01X395466Y175484D01*
X386091Y185547D02*
G01X386943Y185188D01*
Y185188D02*
G01X387511Y184109D01*
X387795Y182313*
Y182313D02*
G01Y181234D01*
X387511Y179438*
Y179438D02*
G01X386943Y178359D01*
X386091Y178000*
X385523*
X384670Y178359*
X384102Y179438*
Y179438D02*
G01X383818Y181234D01*
Y182313*
Y182313D02*
G01X384102Y184109D01*
X384670Y185188*
Y185188D02*
G01X385523Y185547D01*
X386091*
X377284D02*
G01X380125Y178000D01*
X381261Y185547D02*
G01X377284D01*
X424159Y160547D02*
G01Y154797D01*
X424443Y153719*
X424727Y153359*
X425295Y153000*
X425864*
X426432Y153359*
X426716Y153719*
X427000Y154797*
Y155516*
X417909Y160547D02*
G01X420750D01*
X421034Y157313*
Y157313D02*
G01X420750Y157672D01*
X419898Y158031*
X419045*
X418193Y157672*
X417625Y156953*
X417341Y155875*
X417625Y155156*
X417909Y154078*
X418477Y153359*
X419330Y153000*
X420182*
X421034Y153359*
X421318Y153719*
X421602Y154438*
X411943Y160547D02*
G01X414784Y155516D01*
X410523*
X411943Y160547D02*
G01Y153000D01*
X404273Y160547D02*
G01X407114D01*
X407398Y157313*
Y157313D02*
G01X407114Y157672D01*
X406261Y158031*
X405409*
X404557Y157672*
X403989Y156953*
X403705Y155875*
X403989Y155156*
X404273Y154078*
X404841Y153359*
X405693Y153000*
X406545*
X407398Y153359*
X407682Y153719*
X407966Y154438*
X399727Y160547D02*
G01X400580Y160188D01*
Y160188D02*
G01X400864Y159469D01*
Y158750*
X400580Y158031*
X400011Y157672*
X398875Y157313*
Y157313D02*
G01X398023Y156953D01*
X397455Y156234*
X397170Y155516*
Y154438*
Y154438D02*
G01X397455Y153719D01*
X397739Y153359*
X398591Y153000*
X399727*
X400580Y153359*
X400864Y153719*
X401148Y154438*
Y154438D02*
G01Y155516D01*
X400864Y156234*
X400295Y156953*
X399443Y157313*
Y157313D02*
G01X398307Y157672D01*
X397739Y158031*
X397455Y158750*
Y159469*
X397739Y160188*
Y160188D02*
G01X398591Y160547D01*
X399727*
X394614Y156234D02*
G01X389500D01*
X385239Y160547D02*
G01X386091Y160188D01*
Y160188D02*
G01X386659Y159109D01*
X386943Y157313*
Y157313D02*
G01Y156234D01*
X386659Y154438*
Y154438D02*
G01X386091Y153359D01*
X385239Y153000*
X384670*
X383818Y153359*
X383250Y154438*
Y154438D02*
G01X382966Y156234D01*
Y157313*
Y157313D02*
G01X383250Y159109D01*
X383818Y160188*
Y160188D02*
G01X384670Y160547D01*
X385239*
X380409Y159109D02*
G01X379841Y159469D01*
X378989Y160547*
Y153000*
X474500Y171406D02*
G01Y165500D01*
Y171406D02*
G01X472909D01*
X472227Y171125*
X471773Y170563*
Y170563D02*
G01X471545Y170000D01*
X471318Y169156*
Y167750*
X471545Y166906*
X471773Y166344*
X472227Y165781*
X472909Y165500*
X474500*
X469273Y171406D02*
G01Y165500D01*
Y171406D02*
G01X466318D01*
X469273Y168594D02*
G01X467455D01*
X469273Y165500D02*
G01X466318D01*
X461091Y170563D02*
G01X461545Y171125D01*
X462227Y171406*
X463136*
X463818Y171125*
X464273Y170563*
Y170563D02*
G01Y170000D01*
X464045Y169438*
Y169438D02*
G01X463818Y169156D01*
X463364Y168875*
X462000Y168313*
Y168313D02*
G01X461545Y168031D01*
X461318Y167750*
X461091Y167188*
Y167188D02*
G01Y166344D01*
X461545Y165781*
X462227Y165500*
X463136*
X463818Y165781*
X464273Y166344*
X459045Y171406D02*
G01Y165500D01*
X453591Y170000D02*
G01X453818Y170563D01*
Y170563D02*
G01X454273Y171125D01*
X454727Y171406*
X455636*
X456091Y171125*
X456545Y170563*
Y170563D02*
G01X456773Y170000D01*
X457000Y169156*
Y167750*
X456773Y166906*
X456545Y166344*
X456091Y165781*
X455636Y165500*
X454727*
X454273Y165781*
X453818Y166344*
X453591Y166906*
Y167750*
X454727D02*
G01X453591D01*
X451545Y171406D02*
G01Y165500D01*
Y171406D02*
G01X448364Y165500D01*
Y171406D02*
G01Y165500D01*
X446318Y171406D02*
G01Y165500D01*
Y171406D02*
G01X443364D01*
X446318Y168594D02*
G01X444500D01*
X446318Y165500D02*
G01X443364D01*
X441318Y171406D02*
G01Y165500D01*
Y171406D02*
G01X439273D01*
X438591Y171125*
X438364Y170844*
X438136Y170281*
Y169719*
X438364Y169156*
X438591Y168875*
X439273Y168594*
X441318*
X439727D02*
G01X438136Y165500D01*
X435864Y169438D02*
G01X436091Y169156D01*
X435864Y168875*
X435636Y169156*
X435864Y169438*
Y166063D02*
G01X436091Y165781D01*
X435864Y165500*
X435636Y165781*
X435864Y166063*
X457739Y158750D02*
G01X458023Y159469D01*
X458591Y160188*
Y160188D02*
G01X459159Y160547D01*
X460295*
X460864Y160188*
Y160188D02*
G01X461432Y159469D01*
X461716Y158750*
X462000Y157672*
Y155875*
X461716Y154797*
X461432Y154078*
X460864Y153359*
X460295Y153000*
X459159*
X458591Y153359*
X458023Y154078*
X457739Y154797*
Y155875*
X459159D02*
G01X457739D01*
X455182Y160547D02*
G01Y153000D01*
X451205Y160547D02*
G01Y153000D01*
X455182Y156953D02*
G01X451205D01*
X444670Y159469D02*
G01X445239Y160188D01*
Y160188D02*
G01X446091Y160547D01*
X447227*
X448080Y160188*
Y160188D02*
G01X448648Y159469D01*
Y158750*
X448364Y158031*
X448080Y157672*
X447511Y157313*
Y157313D02*
G01X445807Y156594D01*
X445239Y156234*
X444955Y155875*
X444670Y155156*
Y154078*
X445239Y153359*
X446091Y153000*
X447227*
X448080Y153359*
X448648Y154078*
X549500Y198047D02*
G01X545523Y190500D01*
Y198047D02*
G01X549500Y190500D01*
X540125Y198047D02*
G01X542966Y193016D01*
X538705*
X540125Y198047D02*
G01Y190500D01*
X536148Y196609D02*
G01X535580Y196969D01*
X534727Y198047*
Y190500*
X532170Y193734D02*
G01X527057D01*
X524216Y196250D02*
G01Y196609D01*
X523932Y197328*
X523648Y197688*
Y197688D02*
G01X523080Y198047D01*
X521943*
X521375Y197688*
Y197688D02*
G01X521091Y197328D01*
X520807Y196609*
Y195891*
X521091Y195172*
X521659Y194094*
X524500Y190500*
X520523*
X516261Y198047D02*
G01X517114Y197688D01*
Y197688D02*
G01X517682Y196609D01*
X517966Y194813*
Y194813D02*
G01Y193734D01*
X517682Y191938*
Y191938D02*
G01X517114Y190859D01*
X516261Y190500*
X515693*
X514841Y190859*
X514273Y191938*
Y191938D02*
G01X513989Y193734D01*
Y194813*
Y194813D02*
G01X514273Y196609D01*
X514841Y197688*
Y197688D02*
G01X515693Y198047D01*
X516261*
X509727D02*
G01X510580Y197688D01*
Y197688D02*
G01X511148Y196609D01*
X511432Y194813*
Y194813D02*
G01Y193734D01*
X511148Y191938*
Y191938D02*
G01X510580Y190859D01*
X509727Y190500*
X509159*
X508307Y190859*
X507739Y191938*
Y191938D02*
G01X507455Y193734D01*
Y194813*
Y194813D02*
G01X507739Y196609D01*
X508307Y197688*
Y197688D02*
G01X509159Y198047D01*
X509727*
X504898Y196609D02*
G01X504330Y196969D01*
X503477Y198047*
Y190500*
X499216Y198047D02*
G01X500068Y197688D01*
Y197688D02*
G01X500636Y196609D01*
X500920Y194813*
Y194813D02*
G01Y193734D01*
X500636Y191938*
Y191938D02*
G01X500068Y190859D01*
X499216Y190500*
X498648*
X497795Y190859*
X497227Y191938*
Y191938D02*
G01X496943Y193734D01*
Y194813*
Y194813D02*
G01X497227Y196609D01*
X497795Y197688*
Y197688D02*
G01X498648Y198047D01*
X499216*
X549500Y185547D02*
G01Y178000D01*
Y185547D02*
G01X546943D01*
X546091Y185188*
Y185188D02*
G01X545807Y184828D01*
X545523Y184109*
Y183391*
X545807Y182672*
X546091Y182313*
Y182313D02*
G01X546943Y181953D01*
X549500*
X547511D02*
G01X545523Y178000D01*
X542966Y185547D02*
G01Y178000D01*
Y185547D02*
G01X539273D01*
X542966Y181953D02*
G01X540693D01*
X542966Y178000D02*
G01X539273D01*
X536716Y185547D02*
G01X534443Y178000D01*
X532170Y185547D02*
G01X534443Y178000D01*
X523080Y185547D02*
G01Y178000D01*
Y185547D02*
G01X520523D01*
X519670Y185188*
Y185188D02*
G01X519386Y184828D01*
X519102Y184109*
Y183391*
X519386Y182672*
X519670Y182313*
Y182313D02*
G01X520523Y181953D01*
X523080D02*
G01X520523D01*
X519670Y181594*
X519386Y181234*
X519102Y180516*
Y179438*
Y179438D02*
G01X519386Y178719D01*
X519670Y178359*
X520523Y178000*
X523080*
X672682Y208906D02*
G01X674500Y203000D01*
X672682Y208906D02*
G01X670864Y203000D01*
X673818Y204969D02*
G01X671545D01*
X668818Y208906D02*
G01Y203000D01*
Y208906D02*
G01X666773D01*
X666091Y208625*
X665864Y208344*
X665636Y207781*
Y207219*
X665864Y206656*
X666091Y206375*
X666773Y206094*
X668818*
X667227D02*
G01X665636Y203000D01*
X662000Y208906D02*
G01Y203000D01*
X663591Y208906D02*
G01X660409D01*
X658364D02*
G01X657227Y203000D01*
X656091Y208906D02*
G01X657227Y203000D01*
X656091Y208906D02*
G01X654955Y203000D01*
X653818Y208906D02*
G01X654955Y203000D01*
X650409Y208906D02*
G01X650864Y208625D01*
X651318Y208063*
Y208063D02*
G01X651545Y207500D01*
X651773Y206656*
Y205250*
X651545Y204406*
X651318Y203844*
X650864Y203281*
X650409Y203000*
X649500*
X649045Y203281*
X648591Y203844*
X648364Y204406*
X648136Y205250*
Y206656*
X648364Y207500*
X648591Y208063*
Y208063D02*
G01X649045Y208625D01*
X649500Y208906*
X650409*
X646091D02*
G01Y203000D01*
Y208906D02*
G01X644045D01*
X643364Y208625*
X643136Y208344*
X642909Y207781*
Y207219*
X643136Y206656*
X643364Y206375*
X644045Y206094*
X646091*
X644500D02*
G01X642909Y203000D01*
X640864Y208906D02*
G01Y203000D01*
X637682Y208906D02*
G01X640864Y204969D01*
X639727Y206375D02*
G01X637682Y203000D01*
X635409Y206938D02*
G01X635636Y206656D01*
X635409Y206375*
X635182Y206656*
X635409Y206938*
Y203563D02*
G01X635636Y203281D01*
X635409Y203000*
X635182Y203281*
X635409Y203563*
X623341Y208906D02*
G01X623864Y209563D01*
Y209563D02*
G01X624648Y209891D01*
X625693*
X626477Y209563*
Y209563D02*
G01X627000Y208906D01*
Y208250*
X626739Y207594*
X626477Y207266*
X625955Y206938*
Y206938D02*
G01X624386Y206281D01*
X623864Y205953*
X623602Y205625*
X623341Y204969*
Y203984*
X623864Y203328*
X624648Y203000*
X625693*
X626477Y203328*
X627000Y203984*
X619420Y209891D02*
G01X619943Y209563D01*
Y209563D02*
G01X620466Y208906D01*
X620727Y208250*
X620989Y207266*
Y205625*
X620727Y204641*
X620466Y203984*
X619943Y203328*
X619420Y203000*
X618375*
X617852Y203328*
X617330Y203984*
X617068Y204641*
X616807Y205625*
Y207266*
X617068Y208250*
X617330Y208906*
X617852Y209563*
Y209563D02*
G01X618375Y209891D01*
X619420*
X614455D02*
G01Y203000D01*
X611318*
X608966Y209891D02*
G01Y203000D01*
Y209891D02*
G01X607136D01*
X606352Y209563*
Y209563D02*
G01X605830Y208906D01*
X605568Y208250*
X605307Y207266*
Y205625*
X605568Y204641*
X605830Y203984*
X606352Y203328*
X607136Y203000*
X608966*
X602955Y209891D02*
G01Y203000D01*
Y209891D02*
G01X599557D01*
X602955Y206609D02*
G01X600864D01*
X602955Y203000D02*
G01X599557D01*
X597205Y209891D02*
G01Y203000D01*
Y209891D02*
G01X594852D01*
X594068Y209563*
Y209563D02*
G01X593807Y209234D01*
X593545Y208578*
Y207922*
X593807Y207266*
X594068Y206938*
Y206938D02*
G01X594852Y206609D01*
X597205*
X595375D02*
G01X593545Y203000D01*
X585182Y209891D02*
G01Y203000D01*
Y209891D02*
G01X582830D01*
X582045Y209563*
Y209563D02*
G01X581784Y209234D01*
X581523Y208578*
Y207594*
X581784Y206938*
Y206938D02*
G01X582045Y206609D01*
X582830Y206281*
X585182*
X577080Y209891D02*
G01X579170Y203000D01*
X577080Y209891D02*
G01X574989Y203000D01*
X578386Y205297D02*
G01X575773D01*
X568977Y208906D02*
G01X569500Y209563D01*
Y209563D02*
G01X570284Y209891D01*
X571330*
X572114Y209563*
Y209563D02*
G01X572636Y208906D01*
Y208250*
X572375Y207594*
X572114Y207266*
X571591Y206938*
Y206938D02*
G01X570023Y206281D01*
X569500Y205953*
X569239Y205625*
X568977Y204969*
Y203984*
X569500Y203328*
X570284Y203000*
X571330*
X572114Y203328*
X572636Y203984*
X564795Y209891D02*
G01Y203000D01*
X566625Y209891D02*
G01X562966D01*
X560614D02*
G01Y203000D01*
Y209891D02*
G01X557216D01*
X560614Y206609D02*
G01X558523D01*
X560614Y203000D02*
G01X557216D01*
X554864Y205953D02*
G01X550159D01*
X544148Y208906D02*
G01X544670Y209563D01*
Y209563D02*
G01X545455Y209891D01*
X546500*
X547284Y209563*
Y209563D02*
G01X547807Y208906D01*
Y208250*
X547545Y207594*
X547284Y207266*
X546761Y206938*
Y206938D02*
G01X545193Y206281D01*
X544670Y205953*
X544409Y205625*
X544148Y204969*
Y203984*
X544670Y203328*
X545455Y203000*
X546500*
X547284Y203328*
X547807Y203984*
X541795Y209891D02*
G01Y203000D01*
Y209891D02*
G01X538398D01*
X541795Y206609D02*
G01X539705D01*
X541795Y203000D02*
G01X538398D01*
X532125Y208250D02*
G01X532386Y208906D01*
X532909Y209563*
Y209563D02*
G01X533432Y209891D01*
X534477*
X535000Y209563*
Y209563D02*
G01X535523Y208906D01*
X535784Y208250*
X536045Y207266*
Y205625*
X535784Y204641*
X535523Y203984*
X535000Y203328*
X534477Y203000*
X533432*
X532909Y203328*
X532386Y203984*
X532125Y204641*
X528205Y209891D02*
G01X528727Y209563D01*
Y209563D02*
G01X529250Y208906D01*
X529511Y208250*
X529773Y207266*
Y205625*
X529511Y204641*
X529250Y203984*
X528727Y203328*
X528205Y203000*
X527159*
X526636Y203328*
X526114Y203984*
X525852Y204641*
X525591Y205625*
Y207266*
X525852Y208250*
X526114Y208906*
X526636Y209563*
Y209563D02*
G01X527159Y209891D01*
X528205*
X523239D02*
G01Y203000D01*
Y209891D02*
G01X519580Y203000D01*
Y209891D02*
G01Y203000D01*
X517227Y209891D02*
G01Y203000D01*
Y209891D02*
G01X515398D01*
X514614Y209563*
Y209563D02*
G01X514091Y208906D01*
X513830Y208250*
X513568Y207266*
Y205625*
X513830Y204641*
X514091Y203984*
X514614Y203328*
X515398Y203000*
X517227*
X509125Y209891D02*
G01X511216Y203000D01*
X509125Y209891D02*
G01X507034Y203000D01*
X510432Y205297D02*
G01X507818D01*
X504682Y209891D02*
G01Y203000D01*
Y209891D02*
G01X502330D01*
X501545Y209563*
Y209563D02*
G01X501284Y209234D01*
X501023Y208578*
Y207922*
X501284Y207266*
X501545Y206938*
Y206938D02*
G01X502330Y206609D01*
X504682*
X502852D02*
G01X501023Y203000D01*
X498670Y209891D02*
G01X496580Y206609D01*
Y203000*
X494489Y209891D02*
G01X496580Y206609D01*
X482466Y208906D02*
G01X482989Y209563D01*
Y209563D02*
G01X483773Y209891D01*
X484818*
X485602Y209563*
Y209563D02*
G01X486125Y208906D01*
Y208250*
X485864Y207594*
X485602Y207266*
X485080Y206938*
Y206938D02*
G01X483511Y206281D01*
X482989Y205953*
X482727Y205625*
X482466Y204969*
Y203984*
X482989Y203328*
X483773Y203000*
X484818*
X485602Y203328*
X486125Y203984*
X480114Y209891D02*
G01Y203000D01*
X477761Y209891D02*
G01Y203000D01*
Y209891D02*
G01X475932D01*
X475148Y209563*
Y209563D02*
G01X474625Y208906D01*
X474364Y208250*
X474102Y207266*
Y205625*
X474364Y204641*
X474625Y203984*
X475148Y203328*
X475932Y203000*
X477761*
X471750Y209891D02*
G01Y203000D01*
Y209891D02*
G01X468352D01*
X471750Y206609D02*
G01X469659D01*
X471750Y203000D02*
G01X468352D01*
G54D32*
X603835Y226750D02*
G01X600653Y216250D01*
X597472Y226750D02*
G01X600653Y216250D01*
X593892Y226750D02*
G01Y216250D01*
X584744Y225250D02*
G01X585540Y226250D01*
X586733Y226750*
X588324*
X589517Y226250*
X590312Y225250*
Y225250D02*
G01Y224250D01*
Y224250D02*
G01X589915Y223250D01*
X589517Y222750*
X588722Y222250*
X586335Y221250*
X585540Y220750*
X585142Y220250*
X584744Y219250*
Y217750*
X585540Y216750*
X586733Y216250*
X588324*
X589517Y216750*
X590312Y217750*
X581165Y226750D02*
G01Y216250D01*
X577585Y220750D02*
G01X570426D01*
X564062Y226750D02*
G01Y216250D01*
X566847Y226750D02*
G01X561278D01*
X557699D02*
G01Y216250D01*
Y226750D02*
G01X554119D01*
X552926Y226250*
X552528Y225750*
X552131Y224750*
Y223750*
X552528Y222750*
X552926Y222250*
X554119Y221750*
X557699*
X554915D02*
G01X552131Y216250D01*
X545369Y226750D02*
G01X548551Y216250D01*
X545369Y226750D02*
G01X542187Y216250D01*
X547358Y219750D02*
G01X543381D01*
X538608Y226750D02*
G01Y216250D01*
X533040Y226750D02*
G01X538608Y219750D01*
X536619Y222250D02*
G01X533040Y216250D01*
X520312Y226750D02*
G01X518324Y216250D01*
X516335Y226750D02*
G01X518324Y216250D01*
X516335Y226750D02*
G01X514347Y216250D01*
X512358Y226750D02*
G01X514347Y216250D01*
X506392Y226750D02*
G01X507187Y226250D01*
Y226250D02*
G01X507983Y225250D01*
X508381Y224250*
X508778Y222750*
Y220250*
X508381Y218750*
X507983Y217750*
X507187Y216750*
Y216750D02*
G01X506392Y216250D01*
X504801*
X504006Y216750*
X503210Y217750*
X502812Y218750*
Y218750D02*
G01X502415Y220250D01*
Y222750*
X502812Y224250*
Y224250D02*
G01X503210Y225250D01*
X504006Y226250*
X504801Y226750*
X506392*
X498835D02*
G01Y216250D01*
Y226750D02*
G01X495256D01*
X494062Y226250*
Y226250D02*
G01X493665Y225750D01*
X493267Y224750*
Y223750*
X493665Y222750*
X494062Y222250*
Y222250D02*
G01X495256Y221750D01*
X498835*
X496051D02*
G01X493267Y216250D01*
X489687Y226750D02*
G01Y216250D01*
Y216250D02*
G01X484915D01*
X481335Y226750D02*
G01Y216250D01*
Y226750D02*
G01X478551D01*
X477358Y226250*
X476562Y225250*
Y225250D02*
G01X476165Y224250D01*
X475767Y222750*
Y220250*
X476165Y218750*
X476562Y217750*
Y217750D02*
G01X477358Y216750D01*
X478551Y216250*
X481335*
X472187Y226750D02*
G01X470199Y216250D01*
X468210Y226750D02*
G01X470199Y216250D01*
X468210Y226750D02*
G01X466222Y216250D01*
X464233Y226750D02*
G01X466222Y216250D01*
X460653Y226750D02*
G01Y216250D01*
X457074Y226750D02*
G01Y216250D01*
Y226750D02*
G01X454290D01*
X453097Y226250*
X452301Y225250*
X451903Y224250*
X451506Y222750*
Y220250*
X451903Y218750*
X452301Y217750*
X453097Y216750*
X454290Y216250*
X457074*
X447926Y226750D02*
G01Y216250D01*
Y226750D02*
G01X442756D01*
X447926Y221750D02*
G01X444744D01*
X447926Y216250D02*
G01X442756D01*
G54D57*
X605100Y393150D02*
G01X604900D01*
X605100Y386850D02*
G01X604900D01*
X350650Y397400D02*
G01Y397600D01*
X344350Y397400D02*
G01Y397600D01*
X444900Y496850D02*
G01X445100D01*
X444900Y503150D02*
G01X445100D01*
X454900Y496850D02*
G01X455100D01*
X454900Y503150D02*
G01X455100D01*
X469350Y470100D02*
G01Y469900D01*
X475650Y470100D02*
G01Y469900D01*
X469350Y480100D02*
G01Y479900D01*
X475650Y480100D02*
G01Y479900D01*
X584900Y386850D02*
G01X585100D01*
X584900Y393150D02*
G01X585100D01*
X574900Y331850D02*
G01X575100D01*
X574900Y338150D02*
G01X575100D01*
X452600Y558150D02*
G01X452400D01*
X452600Y551850D02*
G01X452400D01*
X462600Y558150D02*
G01X462400D01*
X462600Y551850D02*
G01X462400D01*
X489900Y586850D02*
G01X490100D01*
X489900Y593150D02*
G01X490100D01*
X519900Y594350D02*
G01X520100D01*
X519900Y600650D02*
G01X520100D01*
X565100D02*
G01X564900D01*
X565100Y594350D02*
G01X564900D01*
X604900D02*
G01X605100D01*
X604900Y600650D02*
G01X605100D01*
X604900Y574350D02*
G01X605100D01*
X604900Y580650D02*
G01X605100D01*
X515100Y480650D02*
G01X514900D01*
X515100Y474350D02*
G01X514900D01*
X505100Y403150D02*
G01X504900D01*
X505100Y396850D02*
G01X504900D01*
Y376850D02*
G01X505100D01*
X504900Y383150D02*
G01X505100D01*
X425100Y358150D02*
G01X424900D01*
X425100Y351850D02*
G01X424900D01*
X364900Y496850D02*
G01X365100D01*
X364900Y503150D02*
G01X365100D01*
X350650Y482400D02*
G01Y482600D01*
X344350Y482400D02*
G01Y482600D01*
X466850Y392600D02*
G01Y392400D01*
X473150Y392600D02*
G01Y392400D01*
X457600Y378150D02*
G01X457400D01*
X457600Y371850D02*
G01X457400D01*
X447600Y645650D02*
G01X447400D01*
X447600Y639350D02*
G01X447400D01*
X377600Y378150D02*
G01X377400D01*
X377600Y371850D02*
G01X377400D01*
X404900Y496850D02*
G01X405100D01*
X404900Y503150D02*
G01X405100D01*
X350650Y447400D02*
G01Y447600D01*
X344350Y447400D02*
G01Y447600D01*
X437600Y378150D02*
G01X437400D01*
X437600Y371850D02*
G01X437400D01*
X469350Y410100D02*
G01Y409900D01*
X475650Y410100D02*
G01Y409900D01*
X417600Y378150D02*
G01X417400D01*
X417600Y371850D02*
G01X417400D01*
X469350Y430100D02*
G01Y429900D01*
X475650Y430100D02*
G01Y429900D01*
X367600Y378150D02*
G01X367400D01*
X367600Y371850D02*
G01X367400D01*
X350650Y467400D02*
G01Y467600D01*
X344350Y467400D02*
G01Y467600D01*
X384900Y496850D02*
G01X385100D01*
X384900Y503150D02*
G01X385100D01*
X350650Y427400D02*
G01Y427600D01*
X344350Y427400D02*
G01Y427600D01*
X350650Y437400D02*
G01Y437600D01*
X344350Y437400D02*
G01Y437600D01*
X397600Y378150D02*
G01X397400D01*
X397600Y371850D02*
G01X397400D01*
X407600Y378150D02*
G01X407400D01*
X407600Y371850D02*
G01X407400D01*
X469350Y440100D02*
G01Y439900D01*
X475650Y440100D02*
G01Y439900D01*
X469350Y450100D02*
G01Y449900D01*
X475650Y450100D02*
G01Y449900D01*
X414900Y496850D02*
G01X415100D01*
X414900Y503150D02*
G01X415100D01*
X424900Y496850D02*
G01X425100D01*
X424900Y503150D02*
G01X425100D01*
X480100Y538150D02*
G01X479900D01*
X480100Y531850D02*
G01X479900D01*
X694900Y604350D02*
G01X695100D01*
X694900Y610650D02*
G01X695100D01*
X350650Y407400D02*
G01Y407600D01*
X344350Y407400D02*
G01Y407600D01*
X519900Y574350D02*
G01X520100D01*
X519900Y580650D02*
G01X520100D01*
X650100Y600650D02*
G01X649900D01*
X650100Y594350D02*
G01X649900D01*
X565100Y580650D02*
G01X564900D01*
X565100Y574350D02*
G01X564900D01*
X650100Y580650D02*
G01X649900D01*
X650100Y574350D02*
G01X649900D01*
X482600Y593150D02*
G01X482400D01*
X482600Y586850D02*
G01X482400D01*
X472600Y558150D02*
G01X472400D01*
X472600Y551850D02*
G01X472400D01*
X482400Y569350D02*
G01X482600D01*
X482400Y575650D02*
G01X482600D01*
X517400Y396850D02*
G01X517600D01*
X517400Y403150D02*
G01X517600D01*
Y383150D02*
G01X517400D01*
X517600Y376850D02*
G01X517400D01*
X615100Y393150D02*
G01X614900D01*
X615100Y386850D02*
G01X614900D01*
X574900D02*
G01X575100D01*
X574900Y393150D02*
G01X575100D01*
X452520Y398030D02*
G01Y398230D01*
X446220Y398030D02*
G01Y398230D01*
X367480D02*
G01Y398030D01*
X373780Y398230D02*
G01Y398030D01*
X452520Y476770D02*
G01Y476970D01*
X446220Y476770D02*
G01Y476970D01*
X367480D02*
G01Y476770D01*
X373780Y476970D02*
G01Y476770D01*
X406850Y447443D02*
G01Y447243D01*
X413150Y447443D02*
G01Y447243D01*
X406850Y427757D02*
G01Y427557D01*
X413150Y427757D02*
G01Y427557D01*
X400057Y434350D02*
G01X400257D01*
X400057Y440650D02*
G01X400257D01*
X419743Y434350D02*
G01X419943D01*
X419743Y440650D02*
G01X419943D01*
G54D58*
X434425Y521457D02*
G01X435575D01*
X434425Y528543D02*
G01X435575D01*
X434425Y497457D02*
G01X435575D01*
X434425Y504543D02*
G01X435575D01*
X493957Y460575D02*
G01Y459425D01*
X501043Y460575D02*
G01Y459425D01*
X469957Y460575D02*
G01Y459425D01*
X477043Y460575D02*
G01Y459425D01*
X471925Y568957D02*
G01X473075D01*
X471925Y576043D02*
G01X473075D01*
X628075Y591043D02*
G01X626925D01*
X628075Y583957D02*
G01X626925D01*
X535575Y481043D02*
G01X534425D01*
X535575Y473957D02*
G01X534425D01*
X388075Y353543D02*
G01X386925D01*
X388075Y346457D02*
G01X386925D01*
X448075Y378543D02*
G01X446925D01*
X448075Y371457D02*
G01X446925D01*
X374425Y497457D02*
G01X375575D01*
X374425Y504543D02*
G01X375575D01*
X388075Y377543D02*
G01X386925D01*
X388075Y370457D02*
G01X386925D01*
X550575Y328543D02*
G01X549425D01*
X550575Y321457D02*
G01X549425D01*
X394425Y497457D02*
G01X395575D01*
X394425Y504543D02*
G01X395575D01*
X428075Y377543D02*
G01X426925D01*
X428075Y370457D02*
G01X426925D01*
X469957Y420575D02*
G01Y419425D01*
X477043Y420575D02*
G01Y419425D01*
X350043Y456925D02*
G01Y458075D01*
X342957Y456925D02*
G01Y458075D01*
X321925Y415457D02*
G01X323075D01*
X321925Y422543D02*
G01X323075D01*
X434425Y331457D02*
G01X435575D01*
X434425Y338543D02*
G01X435575D01*
X444425Y331457D02*
G01X445575D01*
X444425Y338543D02*
G01X445575D01*
X424425Y331457D02*
G01X425575D01*
X424425Y338543D02*
G01X425575D01*
X454425Y331457D02*
G01X455575D01*
X454425Y338543D02*
G01X455575D01*
X350043Y416925D02*
G01Y418075D01*
X342957Y416925D02*
G01Y418075D01*
X543075Y591043D02*
G01X541925D01*
X543075Y583957D02*
G01X541925D01*
G54D64*
X595200Y393150D02*
G01X594800D01*
X595200Y386850D02*
G01X594800D01*
X390650Y362300D02*
G01Y362700D01*
X384350Y362300D02*
G01Y362700D01*
X335200Y420650D02*
G01X334800D01*
X335200Y414350D02*
G01X334800D01*
X431850Y512700D02*
G01Y512300D01*
X438150Y512700D02*
G01Y512300D01*
X484800Y456850D02*
G01X485200D01*
X484800Y463150D02*
G01X485200D01*
G54D65*
X751054Y490276D02*
G01X752254D01*
X751054Y499724D02*
G01X752254D01*
X757746D02*
G01X758946D01*
X757746Y490276D02*
G01X758946D01*
X731054D02*
G01X732254D01*
X731054Y499724D02*
G01X732254D01*
X737746D02*
G01X738946D01*
X737746Y490276D02*
G01X738946D01*
X751054Y450276D02*
G01X752254D01*
X751054Y459724D02*
G01X752254D01*
X757746D02*
G01X758946D01*
X757746Y450276D02*
G01X758946D01*
X731054D02*
G01X732254D01*
X731054Y459724D02*
G01X732254D01*
X737746D02*
G01X738946D01*
X737746Y450276D02*
G01X738946D01*
G54D66*
X750679Y493425D02*
G01X752629D01*
X750679Y496575D02*
G01X752629D01*
X757371D02*
G01X759321D01*
X757371Y493425D02*
G01X759321D01*
X730679D02*
G01X732629D01*
X730679Y496575D02*
G01X732629D01*
X737371D02*
G01X739321D01*
X737371Y493425D02*
G01X739321D01*
X750679Y453425D02*
G01X752629D01*
X750679Y456575D02*
G01X752629D01*
X757371D02*
G01X759321D01*
X757371Y453425D02*
G01X759321D01*
X730679D02*
G01X732629D01*
X730679Y456575D02*
G01X732629D01*
X737371D02*
G01X739321D01*
X737371Y453425D02*
G01X739321D01*
G54D67*
X444225Y351457D02*
G01X445775D01*
X444225Y358543D02*
G01X445775D01*
X454225Y351457D02*
G01X455775D01*
X454225Y358543D02*
G01X455775D01*
X398275Y668543D02*
G01X396725D01*
X398275Y661457D02*
G01X396725D01*
X615775Y461043D02*
G01X614225D01*
X615775Y453957D02*
G01X614225D01*
X605775Y616043D02*
G01X604225D01*
X605775Y608957D02*
G01X604225D01*
X520775Y616043D02*
G01X519225D01*
X520775Y608957D02*
G01X519225D01*
X714225Y441457D02*
G01X715775D01*
X714225Y448543D02*
G01X715775D01*
X695775Y631043D02*
G01X694225D01*
X695775Y623957D02*
G01X694225D01*
X726725Y566457D02*
G01X728275D01*
X726725Y573543D02*
G01X728275D01*
M02*
