*
*
G04 PADS Layout (Build Number 2006.45.1) generated Gerber (RS-274-X) file*
G04 PC Version=2.1*
*
%IN "J5458-00.pcb"*%
*
%MOIN*%
*
%FSLAX35Y35*%
*
*
*
*
G04 PC Standard Apertures*
*
*
G04 Thermal Relief Aperture macro.*
%AMTER*
1,1,$1,0,0*
1,0,$1-$2,0,0*
21,0,$3,$4,0,0,45*
21,0,$3,$4,0,0,135*
%
*
*
G04 Annular Aperture macro.*
%AMANN*
1,1,$1,0,0*
1,0,$2,0,0*
%
*
*
G04 Odd Aperture macro.*
%AMODD*
1,1,$1,0,0*
1,0,$1-0.005,0,0*
%
*
*
G04 PC Custom Aperture Macros*
*
*
*
*
*
*
G04 PC Aperture Table*
*
%ADD011C,0.01*%
%ADD031C,0.008*%
%ADD032C,0.015*%
%ADD076C,0.001*%
*
*
*
*
G04 PC Copper Outlines (0)*
G04 Layer Name J5458-00.pcb - dark (0)*
%LPD*%
*
*
G04 PC Area=System Text*
G75*
G36*
G01*
X672429Y160571D02*
X672429D01*
X672857Y160286D01*
X673143Y159857D01*
X673286Y159286D01*
X673429Y158857D01*
X673143Y158571D01*
X673000Y158857D01*
X672857Y159286D01*
X672571Y159714D01*
X672143Y159857D01*
X671857Y160000D01*
X671143Y159857D01*
X670286Y159429D01*
X669143Y158857D01*
X668714Y158714D01*
X668000Y158143D01*
X667000Y157714D01*
X666000Y157571D01*
X665429D01*
X664714Y157857D01*
X664286Y158143D01*
X664143Y158286D01*
X664286Y158429D01*
X664429Y158286D01*
X665429Y158143D01*
X665857Y158286D01*
X666429Y158571D01*
X667000Y158857D01*
X667714Y159286D01*
X668000Y159571D01*
X668571Y159857D01*
X667000Y160429D01*
X666000Y161143D01*
X665143Y162143D01*
X664714Y163429D01*
X664571Y164714D01*
X664714Y165857D01*
X664857Y166714D01*
X665286Y167571D01*
X666000Y168286D01*
X666714Y169000D01*
X667571Y169429D01*
X668429Y169571D01*
X669429Y169714D01*
X670714Y169571D01*
X671714Y169286D01*
X672571Y168714D01*
X673286Y168000D01*
X674143Y166571D01*
X674286Y165571D01*
X674429Y164714D01*
X674286Y163429D01*
X674000Y162429D01*
X673286Y161429D01*
X672429Y160571D01*
G37*
G74*
*
G75*
G36*
G01*
X658857Y160857D02*
Y160571D01*
Y160143D01*
X658571Y160000D01*
X658286D01*
X658143D01*
X657714Y160143D01*
X657286D01*
X657000D01*
X656857Y160286D01*
X657000Y160429D01*
X657143D01*
X657286D01*
X657714Y160571D01*
X657857Y160857D01*
Y161286D01*
Y165714D01*
X658000Y166000D01*
X658143D01*
X658714Y165857D01*
X659286D01*
X659429D01*
X659714Y165714D01*
X659429Y165571D01*
X659000Y165429D01*
X658857Y164857D01*
Y161429D01*
X659000Y161000D01*
X659286Y160571D01*
X659857Y160429D01*
X660429Y160286D01*
X660857D01*
X661286Y160571D01*
X661714Y161286D01*
X661857Y162143D01*
Y162429D01*
Y165571D01*
Y165714D01*
Y165857D01*
X662000Y166000D01*
X662143D01*
X662714Y165857D01*
X663286D01*
X663571D01*
X663714Y165714D01*
X663571Y165571D01*
X663000Y165429D01*
X662857Y164857D01*
Y162571D01*
Y162143D01*
X662714Y161143D01*
X662286Y160429D01*
X661714Y160000D01*
X660857Y159857D01*
X659714Y160143D01*
X658857Y160857D01*
G37*
G74*
*
G75*
G36*
G01*
X652714Y163143D02*
X652714D01*
X654143Y162857D01*
X655143Y162429D01*
X655714Y161857D01*
X655857Y161143D01*
X655714Y160571D01*
X655429Y160143D01*
X655000Y160000D01*
X654429Y159857D01*
X653571Y160000D01*
X652571Y160571D01*
X652143Y160000D01*
X651571Y159857D01*
X650857Y160000D01*
X650714Y160143D01*
X650571Y160286D01*
X650714Y160429D01*
X650857Y160286D01*
X651000Y160143D01*
X651286D01*
X651571Y160429D01*
X651714Y160857D01*
Y161429D01*
Y164143D01*
X651857Y164857D01*
X652286Y165429D01*
X652857Y165714D01*
X653714Y165857D01*
X654714Y165714D01*
X655429Y165143D01*
X655714Y164714D01*
X655857Y164286D01*
X655571Y164000D01*
X655000Y163857D01*
X654857Y164000D01*
Y164143D01*
X655000Y164714D01*
X654714Y165429D01*
X654143Y165571D01*
X653429Y165429D01*
X653000Y165143D01*
X652714Y164714D01*
Y164000D01*
Y163143D01*
G37*
G74*
*
G75*
G36*
G01*
X648000Y164571D02*
Y165571D01*
Y165714D01*
X648143Y166000D01*
X648286D01*
X649143Y165429D01*
X649857Y165286D01*
X650000D01*
X650143Y165143D01*
X650000Y165000D01*
X649714D01*
X649143Y164857D01*
X649000Y164286D01*
Y161286D01*
Y160857D01*
X649143Y160571D01*
X649429Y160286D01*
X649714Y160143D01*
X649571Y160000D01*
X649286D01*
X649000D01*
X648429D01*
X648143D01*
X647714D01*
X647286D01*
X646857D01*
X646714Y160143D01*
X647000Y160286D01*
X647286D01*
X647857Y160571D01*
X648000Y160857D01*
Y161429D01*
Y163714D01*
X647857Y164143D01*
X647714Y164571D01*
X647429Y164714D01*
X647000Y164857D01*
X646429Y164714D01*
X646143Y164571D01*
X645857Y164857D01*
X645571Y165143D01*
X645714Y165286D01*
X646000Y165571D01*
X646571Y165857D01*
X646857Y165714D01*
X647286Y165571D01*
X647571Y165143D01*
X648000Y164571D01*
G37*
G74*
*
G75*
G36*
G01*
X643286Y165000D02*
X641714D01*
X641429Y165143D01*
X641286Y165571D01*
X641143Y165714D01*
X641286Y165857D01*
X641429Y165714D01*
X641857D01*
X643286D01*
Y167000D01*
Y167143D01*
X643429Y167000D01*
X643571Y166857D01*
X644143Y166143D01*
X645000Y165429D01*
X645143Y165143D01*
X645000Y165000D01*
X644286D01*
Y161571D01*
X644143Y160714D01*
X643857Y160286D01*
X643429Y160000D01*
X642714Y159857D01*
X641714Y160143D01*
X641286Y160286D01*
X641143Y160429D01*
X641286Y160571D01*
X641286D01*
X641571Y160429D01*
X642286Y160286D01*
X642714D01*
X643143Y160571D01*
X643286Y160857D01*
Y161429D01*
Y165000D01*
G37*
G74*
*
G75*
G36*
G01*
X639714Y163429D02*
X637143D01*
X636714D01*
X636143D01*
X635857D01*
X635714Y163571D01*
X635857Y164143D01*
X636286Y164857D01*
X637000Y165571D01*
X638143Y165857D01*
X639000Y165571D01*
X639857Y165000D01*
X640571Y164000D01*
X640714Y162857D01*
X640571Y161714D01*
X640000Y160714D01*
X639143Y160000D01*
X638143Y159857D01*
X637143Y160000D01*
X636143Y160429D01*
X635857Y160857D01*
X635714Y161000D01*
X635857Y161143D01*
X635857D01*
X636714Y160571D01*
X637571Y160429D01*
X638429Y160571D01*
X639143Y161286D01*
X639571Y162143D01*
X639714Y163286D01*
Y163429D01*
G37*
G74*
*
G75*
G36*
G01*
X632714Y164571D02*
Y165571D01*
Y165714D01*
X632857Y166000D01*
X633000D01*
X633857Y165429D01*
X634571Y165286D01*
X634714D01*
X634857Y165143D01*
X634714Y165000D01*
X634429D01*
X633857Y164857D01*
X633714Y164286D01*
Y161286D01*
Y160857D01*
X633857Y160571D01*
X634143Y160286D01*
X634429Y160143D01*
X634286Y160000D01*
X634000D01*
X633714D01*
X633143D01*
X632857D01*
X632429D01*
X632000D01*
X631571D01*
X631429Y160143D01*
X631714Y160286D01*
X632000D01*
X632571Y160571D01*
X632714Y160857D01*
Y161429D01*
Y163714D01*
X632571Y164143D01*
X632429Y164571D01*
X632143Y164714D01*
X631714Y164857D01*
X631143Y164714D01*
X630857Y164571D01*
X630571Y164857D01*
X630286Y165143D01*
X630429Y165286D01*
X630714Y165571D01*
X631286Y165857D01*
X631571Y165714D01*
X632000Y165571D01*
X632286Y165143D01*
X632714Y164571D01*
G37*
G74*
*
G75*
G36*
G01*
X617143Y168714D02*
X617143D01*
X617286Y169000D01*
X617429Y168857D01*
X617571D01*
X617714D01*
X617857D01*
X618143Y169000D01*
X619429Y169571D01*
X620857Y169714D01*
X621857Y169571D01*
X622857Y169286D01*
X623714Y168857D01*
X624429Y168286D01*
X625000Y167429D01*
X625429Y166571D01*
X625714Y165714D01*
X625857Y164714D01*
X625714Y163571D01*
X625571Y162714D01*
X625143Y161857D01*
X624429Y161143D01*
X623714Y160571D01*
X622857Y160143D01*
X622000Y160000D01*
X620857Y159857D01*
X619000Y160143D01*
X617286Y160857D01*
X617143Y161143D01*
X617000Y161286D01*
Y161429D01*
X616714Y162286D01*
Y162429D01*
Y162571D01*
X616857Y162714D01*
X617000Y162571D01*
X617143Y162286D01*
X617714Y161429D01*
X618571Y160714D01*
X619571Y160286D01*
X620714Y160143D01*
X621571Y160286D01*
X622286Y160429D01*
X623000Y160857D01*
X623714Y161571D01*
X624143Y162286D01*
X624571Y163143D01*
X624714Y164143D01*
X624857Y165286D01*
X624571Y167000D01*
X623857Y168286D01*
X622571Y169143D01*
X620857Y169429D01*
X619857Y169286D01*
X618857Y168857D01*
X618000Y168000D01*
X617286Y167000D01*
X617143Y166714D01*
X617000D01*
X616857D01*
Y166857D01*
Y167000D01*
X617143Y168714D01*
G37*
G74*
*
G75*
G36*
G01*
X615000Y163429D02*
X612429D01*
X612000D01*
X611429D01*
X611143D01*
X611000Y163571D01*
X611143Y164143D01*
X611571Y164857D01*
X612286Y165571D01*
X613429Y165857D01*
X614286Y165571D01*
X615143Y165000D01*
X615857Y164000D01*
X616000Y162857D01*
X615857Y161714D01*
X615286Y160714D01*
X614429Y160000D01*
X613429Y159857D01*
X612429Y160000D01*
X611429Y160429D01*
X611143Y160857D01*
X611000Y161000D01*
X611143Y161143D01*
X611143D01*
X612000Y160571D01*
X612857Y160429D01*
X613714Y160571D01*
X614429Y161286D01*
X614857Y162143D01*
X615000Y163286D01*
Y163429D01*
G37*
G74*
*
G75*
G36*
G01*
X608000Y164714D02*
Y165571D01*
Y165714D01*
X608143Y166000D01*
X608286D01*
X608571Y165857D01*
X608857Y165571D01*
X609857Y165286D01*
X610000Y165143D01*
Y165000D01*
X609857D01*
X609571D01*
X609143Y164857D01*
X609000Y164571D01*
Y164143D01*
Y161143D01*
X609143Y160571D01*
X609571Y160286D01*
X609714Y160143D01*
X609571Y160000D01*
X609286D01*
X608857D01*
X608000D01*
X607571D01*
X607429D01*
X607000D01*
X606857Y160143D01*
X607143Y160286D01*
X607714Y160429D01*
X608000Y160857D01*
Y161286D01*
Y161429D01*
Y164143D01*
X607857Y164571D01*
X607571Y164857D01*
X607143Y165143D01*
X606571Y165286D01*
X605857Y165143D01*
X605286Y164714D01*
X605000Y164143D01*
X604857Y163286D01*
Y160857D01*
Y160429D01*
X605143Y160286D01*
X605286D01*
X605429Y160143D01*
Y160000D01*
X605286D01*
X605000D01*
X604857D01*
X604143D01*
X603571D01*
X603286D01*
X603000D01*
X602714Y160143D01*
X602857Y160286D01*
X603286D01*
X603571Y160429D01*
X603857Y160857D01*
Y161143D01*
Y161286D01*
Y163000D01*
X604000Y164143D01*
X604286Y165000D01*
X605000Y165571D01*
X606000Y165857D01*
X607000Y165571D01*
X608000Y164714D01*
G37*
G74*
*
G75*
G36*
G01*
X600429Y165000D02*
X598857D01*
X598571Y165143D01*
X598429Y165571D01*
X598286Y165714D01*
X598429Y165857D01*
X598571Y165714D01*
X599000D01*
X600429D01*
Y167000D01*
Y167143D01*
X600571Y167000D01*
X600714Y166857D01*
X601286Y166143D01*
X602143Y165429D01*
X602286Y165143D01*
X602143Y165000D01*
X601429D01*
Y161571D01*
X601286Y160714D01*
X601000Y160286D01*
X600571Y160000D01*
X599857Y159857D01*
X598857Y160143D01*
X598429Y160286D01*
X598286Y160429D01*
X598429Y160571D01*
X598429D01*
X598714Y160429D01*
X599429Y160286D01*
X599857D01*
X600286Y160571D01*
X600429Y160857D01*
Y161429D01*
Y165000D01*
G37*
G74*
*
G75*
G36*
G01*
X593143Y160857D02*
Y160571D01*
Y160143D01*
X592857Y160000D01*
X592571D01*
X592429D01*
X592000Y160143D01*
X591571D01*
X591286D01*
X591143Y160286D01*
X591286Y160429D01*
X591429D01*
X591571D01*
X592000Y160571D01*
X592143Y160857D01*
Y161286D01*
Y165714D01*
X592286Y166000D01*
X592429D01*
X593000Y165857D01*
X593571D01*
X593714D01*
X594000Y165714D01*
X593714Y165571D01*
X593286Y165429D01*
X593143Y164857D01*
Y161429D01*
X593286Y161000D01*
X593571Y160571D01*
X594143Y160429D01*
X594714Y160286D01*
X595143D01*
X595571Y160571D01*
X596000Y161286D01*
X596143Y162143D01*
Y162429D01*
Y165571D01*
Y165714D01*
Y165857D01*
X596286Y166000D01*
X596429D01*
X597000Y165857D01*
X597571D01*
X597857D01*
X598000Y165714D01*
X597857Y165571D01*
X597286Y165429D01*
X597143Y164857D01*
Y162571D01*
Y162143D01*
X597000Y161143D01*
X596571Y160429D01*
X596000Y160000D01*
X595143Y159857D01*
X594000Y160143D01*
X593143Y160857D01*
G37*
G74*
*
G75*
G36*
G01*
X588286Y164571D02*
Y165571D01*
Y165714D01*
X588429Y166000D01*
X588571D01*
X589429Y165429D01*
X590143Y165286D01*
X590286D01*
X590429Y165143D01*
X590286Y165000D01*
X590000D01*
X589429Y164857D01*
X589286Y164286D01*
Y161286D01*
Y160857D01*
X589429Y160571D01*
X589714Y160286D01*
X590000Y160143D01*
X589857Y160000D01*
X589571D01*
X589286D01*
X588714D01*
X588429D01*
X588000D01*
X587571D01*
X587143D01*
X587000Y160143D01*
X587286Y160286D01*
X587571D01*
X588143Y160571D01*
X588286Y160857D01*
Y161429D01*
Y163714D01*
X588143Y164143D01*
X588000Y164571D01*
X587714Y164714D01*
X587286Y164857D01*
X586714Y164714D01*
X586429Y164571D01*
X586143Y164857D01*
X585857Y165143D01*
X586000Y165286D01*
X586286Y165571D01*
X586857Y165857D01*
X587143Y165714D01*
X587571Y165571D01*
X587857Y165143D01*
X588286Y164571D01*
G37*
G74*
*
G75*
G36*
G01*
X582429Y161143D02*
X583714Y164286D01*
X584000Y165143D01*
X583857Y165286D01*
X583571Y165429D01*
X583286D01*
X583143Y165571D01*
X583286Y165714D01*
X583571D01*
X584000D01*
X584571D01*
X585000D01*
X585286D01*
X585714D01*
X585857Y165571D01*
X585714Y165429D01*
X585286Y165143D01*
X585000Y164714D01*
X583286Y160714D01*
X583000Y160143D01*
Y159857D01*
X583143Y159429D01*
X583429Y158714D01*
X584143Y157571D01*
X584286Y157429D01*
X584143Y157286D01*
X583857D01*
X583571D01*
X583429D01*
X583286Y157571D01*
X583143Y157714D01*
X580571Y164714D01*
X580286Y165143D01*
X580000Y165429D01*
X579857Y165571D01*
X580000Y165714D01*
X580286D01*
X580571D01*
X580857D01*
X581429D01*
X581714D01*
X581857Y165571D01*
X581714Y165429D01*
X581143Y165143D01*
X581000Y164714D01*
X581143Y163857D01*
X582429Y161143D01*
G37*
G74*
*
G75*
G36*
G01*
X574714Y167857D02*
Y161571D01*
Y161000D01*
X574857Y160571D01*
X575143Y160429D01*
X575571Y160286D01*
X575714Y160143D01*
X575429Y160000D01*
X575000D01*
X573714D01*
X572143D01*
X571714D01*
X571429D01*
X570000Y160143D01*
X568571Y160714D01*
X567714Y161571D01*
X567000Y162429D01*
X566571Y163571D01*
X566429Y164857D01*
X566571Y165857D01*
X566714Y166714D01*
X567143Y167429D01*
X567714Y168143D01*
X568571Y168714D01*
X569571Y169143D01*
X570714Y169429D01*
X572143Y169571D01*
X573000D01*
X573714D01*
X574143D01*
X574714D01*
X575143D01*
X575286D01*
X575857D01*
X576000Y169429D01*
X575714Y169286D01*
X575286Y169143D01*
X575000Y168857D01*
X574714Y168429D01*
Y167857D01*
G37*
G74*
*
G75*
G36*
G01*
X564571Y163429D02*
X562000D01*
X561571D01*
X561000D01*
X560714D01*
X560571Y163571D01*
X560714Y164143D01*
X561143Y164857D01*
X561857Y165571D01*
X563000Y165857D01*
X563857Y165571D01*
X564714Y165000D01*
X565429Y164000D01*
X565571Y162857D01*
X565429Y161714D01*
X564857Y160714D01*
X564000Y160000D01*
X563000Y159857D01*
X562000Y160000D01*
X561000Y160429D01*
X560714Y160857D01*
X560571Y161000D01*
X560714Y161143D01*
X560714D01*
X561571Y160571D01*
X562429Y160429D01*
X563286Y160571D01*
X564000Y161286D01*
X564429Y162143D01*
X564571Y163286D01*
Y163429D01*
G37*
G74*
*
G75*
G36*
G01*
X557429Y165857D02*
X557429D01*
X558286Y165714D01*
X558857Y165429D01*
X559286Y164857D01*
X559429Y164286D01*
X559286Y163714D01*
X559000Y163286D01*
X558571Y163000D01*
X557857Y162571D01*
X557286Y162286D01*
X556571Y161857D01*
X556286Y161286D01*
X556429Y160857D01*
X556571Y160429D01*
X557000Y160143D01*
X557429D01*
X558000Y160286D01*
X558571Y160571D01*
X558857Y161143D01*
X559143Y161714D01*
X559286Y162000D01*
X559571Y161857D01*
Y161571D01*
Y160714D01*
Y160429D01*
X559429Y160286D01*
X559143D01*
X559000Y160143D01*
X558286Y160000D01*
X557714Y159857D01*
X557000Y160000D01*
X556286Y160429D01*
X555857Y161000D01*
X555714Y161714D01*
X555857Y162286D01*
X556000Y162714D01*
X556571Y163143D01*
X557286Y163429D01*
X558000Y163714D01*
X558571Y164000D01*
X558714Y164286D01*
X558857Y164714D01*
X558714Y165000D01*
X558571Y165286D01*
X557857Y165571D01*
X557000Y165286D01*
X556429Y164429D01*
X556143Y164286D01*
X556000D01*
Y164571D01*
Y164857D01*
Y165143D01*
Y165286D01*
Y165429D01*
X556143Y165571D01*
X556571Y165714D01*
X557429Y165857D01*
G37*
G74*
*
G75*
G36*
G01*
X553143Y168714D02*
X553143D01*
X553571Y168429D01*
X553857Y168000D01*
X553571Y167571D01*
X553429Y167286D01*
X553286D01*
X553000D01*
X552857Y167571D01*
X552571Y168000D01*
X552714Y168143D01*
X552857Y168429D01*
X553143Y168714D01*
G37*
G74*
*
G75*
G36*
G01*
X552714Y161143D02*
Y165857D01*
X552857Y166000D01*
X553286Y165857D01*
X554286Y165429D01*
X554429Y165286D01*
X554571D01*
Y165143D01*
X554286D01*
X554000D01*
X553857Y165000D01*
X553714Y164714D01*
Y164143D01*
Y161143D01*
X553857Y160571D01*
X554143Y160286D01*
X554286D01*
X554429Y160143D01*
X554286Y160000D01*
X554000D01*
X553714D01*
X553143D01*
X552714D01*
X552286D01*
X551714D01*
X551571Y160143D01*
X551857Y160286D01*
X552143D01*
X552571Y160571D01*
X552714Y160714D01*
Y161143D01*
G37*
G74*
*
G75*
G36*
G01*
X550143Y159714D02*
X550143D01*
X550857Y159286D01*
X551143Y158571D01*
X551000Y158143D01*
X550429Y157714D01*
X549571Y157429D01*
X548571Y157286D01*
X547571Y157429D01*
X546714Y157857D01*
X546000Y158429D01*
X545857Y159143D01*
X546000Y159714D01*
X546429Y160143D01*
X547286Y160286D01*
X548429Y160429D01*
X549286D01*
X549714Y160571D01*
X550000Y160714D01*
X550143Y161143D01*
X549857Y161571D01*
X549429Y161857D01*
X549143D01*
X548429Y161714D01*
X547571Y161857D01*
X546857Y162286D01*
X546429Y163000D01*
X546286Y163714D01*
Y164286D01*
X546429Y164429D01*
X546286Y164571D01*
X545857Y164857D01*
X545714Y165143D01*
Y165429D01*
X545571Y166000D01*
X545714Y166143D01*
Y166000D01*
X545857Y165857D01*
X546143Y165429D01*
X546714Y165286D01*
X547143Y165429D01*
X547857Y165714D01*
X548571Y165857D01*
X549429Y165714D01*
X550143Y165286D01*
X550571Y164571D01*
X550714Y163714D01*
X550429Y162714D01*
X549714Y162000D01*
X550286Y161286D01*
X550571Y160571D01*
X550429Y160143D01*
X550143Y159714D01*
X550143D01*
G37*
G74*
*
G75*
G36*
G01*
X543000Y164714D02*
Y165571D01*
Y165714D01*
X543143Y166000D01*
X543286D01*
X543571Y165857D01*
X543857Y165571D01*
X544857Y165286D01*
X545000Y165143D01*
Y165000D01*
X544857D01*
X544571D01*
X544143Y164857D01*
X544000Y164571D01*
Y164143D01*
Y161143D01*
X544143Y160571D01*
X544571Y160286D01*
X544714Y160143D01*
X544571Y160000D01*
X544286D01*
X543857D01*
X543000D01*
X542571D01*
X542429D01*
X542000D01*
X541857Y160143D01*
X542143Y160286D01*
X542714Y160429D01*
X543000Y160857D01*
Y161286D01*
Y161429D01*
Y164143D01*
X542857Y164571D01*
X542571Y164857D01*
X542143Y165143D01*
X541571Y165286D01*
X540857Y165143D01*
X540286Y164714D01*
X540000Y164143D01*
X539857Y163286D01*
Y160857D01*
Y160429D01*
X540143Y160286D01*
X540286D01*
X540429Y160143D01*
Y160000D01*
X540286D01*
X540000D01*
X539857D01*
X539143D01*
X538571D01*
X538286D01*
X538000D01*
X537714Y160143D01*
X537857Y160286D01*
X538286D01*
X538571Y160429D01*
X538857Y160857D01*
Y161143D01*
Y161286D01*
Y163000D01*
X539000Y164143D01*
X539286Y165000D01*
X540000Y165571D01*
X541000Y165857D01*
X542000Y165571D01*
X543000Y164714D01*
G37*
G74*
*
G75*
G36*
G01*
X536000Y161571D02*
X536000D01*
X536143D01*
X536429Y161143D01*
X536714Y161000D01*
X536857Y160714D01*
X536714Y160429D01*
X536000Y160000D01*
X535857Y159286D01*
X536143Y158714D01*
X536571Y158143D01*
X536714Y158000D01*
X536571Y157857D01*
X536143Y158000D01*
X535714Y158429D01*
X535143Y159286D01*
X535000Y160143D01*
Y160571D01*
X535286Y161143D01*
X535571Y161429D01*
X536000Y161571D01*
G37*
G74*
*
G75*
G36*
G01*
X527714Y161857D02*
Y168000D01*
X527571Y168857D01*
X527143Y169286D01*
X526857D01*
X526714Y169429D01*
X526857Y169571D01*
X527143D01*
X528286D01*
X529286D01*
X529714D01*
X530000Y169429D01*
X529857Y169286D01*
X529429D01*
X528857Y168857D01*
X528714Y168143D01*
Y162000D01*
Y161714D01*
Y161143D01*
X528857Y160714D01*
X529143Y160429D01*
X529571Y160286D01*
X529857Y160143D01*
X529714Y160000D01*
X529286D01*
X527857D01*
X526429D01*
X525714D01*
X525143D01*
X524000Y160143D01*
X523143Y160714D01*
X522857Y161143D01*
X522714Y161571D01*
X522857Y161714D01*
X523000Y161571D01*
X523429Y161000D01*
X524286Y160714D01*
X525286Y160429D01*
X526571D01*
X527143D01*
X527571Y160571D01*
X527714Y160857D01*
Y161571D01*
Y161857D01*
G37*
G74*
*
G75*
G36*
G01*
X520000D02*
Y168000D01*
X519857Y168857D01*
X519429Y169286D01*
X519143D01*
X519000Y169429D01*
X519143Y169571D01*
X519429D01*
X520571D01*
X521571D01*
X522000D01*
X522286Y169429D01*
X522143Y169286D01*
X521714D01*
X521143Y168857D01*
X521000Y168143D01*
Y162000D01*
Y161714D01*
Y161143D01*
X521143Y160714D01*
X521429Y160429D01*
X521857Y160286D01*
X522143Y160143D01*
X522000Y160000D01*
X521571D01*
X520143D01*
X518714D01*
X518000D01*
X517429D01*
X516286Y160143D01*
X515429Y160714D01*
X515143Y161143D01*
X515000Y161571D01*
X515143Y161714D01*
X515286Y161571D01*
X515714Y161000D01*
X516571Y160714D01*
X517571Y160429D01*
X518857D01*
X519429D01*
X519857Y160571D01*
X520000Y160857D01*
Y161571D01*
Y161857D01*
G37*
G74*
*
G75*
G36*
G01*
X505714Y168714D02*
X505714D01*
X505857Y169000D01*
X506000Y168857D01*
X506143D01*
X506286D01*
X506429D01*
X506714Y169000D01*
X508000Y169571D01*
X509429Y169714D01*
X510429Y169571D01*
X511429Y169286D01*
X512286Y168857D01*
X513000Y168286D01*
X513571Y167429D01*
X514000Y166571D01*
X514286Y165714D01*
X514429Y164714D01*
X514286Y163571D01*
X514143Y162714D01*
X513714Y161857D01*
X513000Y161143D01*
X512286Y160571D01*
X511429Y160143D01*
X510571Y160000D01*
X509429Y159857D01*
X507571Y160143D01*
X505857Y160857D01*
X505714Y161143D01*
X505571Y161286D01*
Y161429D01*
X505286Y162286D01*
Y162429D01*
Y162571D01*
X505429Y162714D01*
X505571Y162571D01*
X505714Y162286D01*
X506286Y161429D01*
X507143Y160714D01*
X508143Y160286D01*
X509286Y160143D01*
X510143Y160286D01*
X510857Y160429D01*
X511571Y160857D01*
X512286Y161571D01*
X512714Y162286D01*
X513143Y163143D01*
X513286Y164143D01*
X513429Y165286D01*
X513143Y167000D01*
X512429Y168286D01*
X511143Y169143D01*
X509429Y169429D01*
X508429Y169286D01*
X507429Y168857D01*
X506571Y168000D01*
X505857Y167000D01*
X505714Y166714D01*
X505571D01*
X505429D01*
Y166857D01*
Y167000D01*
X505714Y168714D01*
G37*
G74*
*
*
G04 PC Void Outlines (0)*
G04 Layer Name J5458-00.pcb - clear (0)*
%LPC*%
*
*
G04 PC Area=System Text*
G75*
G36*
G01*
X670000Y169429D02*
X670000D01*
X669143Y169286D01*
X668286Y169000D01*
X667571Y168571D01*
X666857Y167857D01*
X666286Y167000D01*
X665857Y166143D01*
X665714Y165143D01*
X665571Y164143D01*
X665857Y162429D01*
X666571Y161286D01*
X667571Y160429D01*
X669000Y160143D01*
X669857D01*
X670429Y160429D01*
X671857Y161286D01*
X672571Y162000D01*
X673000Y163000D01*
X673286Y164143D01*
X673429Y165429D01*
X673143Y167000D01*
X672429Y168286D01*
X671286Y169143D01*
X670000Y169429D01*
G37*
G74*
*
G75*
G36*
G01*
X652714Y162857D02*
Y161429D01*
Y160857D01*
X653000Y160571D01*
X653429Y160286D01*
X653857Y160143D01*
X654286D01*
X654571Y160429D01*
X654857Y161286D01*
X654714Y161857D01*
X654286Y162286D01*
X653571Y162714D01*
X652714Y162857D01*
G37*
G74*
*
G75*
G36*
G01*
X639714Y163714D02*
X639714D01*
X639571Y164429D01*
X639286Y165000D01*
X638714Y165429D01*
X638286Y165571D01*
X637714Y165429D01*
X637143Y165000D01*
X636857Y164571D01*
X636714Y164000D01*
X636857Y163714D01*
X637286D01*
X639714D01*
G37*
G74*
*
G75*
G36*
G01*
X615000D02*
X615000D01*
X614857Y164429D01*
X614571Y165000D01*
X614000Y165429D01*
X613571Y165571D01*
X613000Y165429D01*
X612429Y165000D01*
X612143Y164571D01*
X612000Y164000D01*
X612143Y163714D01*
X612571D01*
X615000D01*
G37*
G74*
*
G75*
G36*
G01*
X573714Y168429D02*
X573714D01*
Y168857D01*
X573571Y169000D01*
X573000Y169143D01*
X572143Y169286D01*
X570571Y169143D01*
X569429Y168429D01*
X568571Y167714D01*
X568000Y166714D01*
X567571Y165571D01*
X567429Y164286D01*
X567571Y163143D01*
X567857Y162286D01*
X568429Y161429D01*
X569143Y160857D01*
X570143Y160429D01*
X571286Y160286D01*
X572286Y160429D01*
X573286Y160571D01*
X573571Y160857D01*
X573714Y161286D01*
Y168429D01*
G37*
G74*
*
G75*
G36*
G01*
X564571Y163714D02*
X564571D01*
X564429Y164429D01*
X564143Y165000D01*
X563571Y165429D01*
X563143Y165571D01*
X562571Y165429D01*
X562000Y165000D01*
X561714Y164571D01*
X561571Y164000D01*
X561714Y163714D01*
X562143D01*
X564571D01*
G37*
G74*
*
G75*
G36*
G01*
X548571Y165571D02*
X548571D01*
X548000Y165429D01*
X547714Y165000D01*
X547429Y164429D01*
X547286Y163571D01*
X547429Y163000D01*
X547571Y162429D01*
X548000Y162143D01*
X548429Y162000D01*
X549000Y162143D01*
X549286Y162571D01*
X549571Y163143D01*
X549714Y164000D01*
X549571Y164571D01*
X549429Y165143D01*
X549000Y165429D01*
X548571Y165571D01*
G37*
G74*
*
G75*
G36*
G01*
X549714Y159571D02*
X549714D01*
X548857Y159429D01*
X548143D01*
X547714D01*
X547429D01*
X546714Y159286D01*
X546429Y158714D01*
X546571Y158286D01*
X547143Y157857D01*
X547857Y157714D01*
X548714Y157571D01*
X549571D01*
X550143Y157857D01*
X550429Y158286D01*
X550571Y158714D01*
X550286Y159286D01*
X549714Y159571D01*
G37*
G74*
*
*
G04 PC Custom Flashes*
G04 Layer Name J5458-00.pcb - flashes*
%LPD*%
*
*
G04 PC Circuitry*
G04 Layer Name J5458-00.pcb - circuitry*
%LPD*%
*
G54D11*
G01X750300Y487300D02*
G75*
G03X750300I-500J0D01*
G01X730300D02*
G03X730300I-500J0D01*
G01X750300Y447300D02*
G03X750300I-500J0D01*
G01X730300D02*
G03X730300I-500J0D01*
G01X750300Y487300D02*
G03X750300I-500J0D01*
G01X730300D02*
G03X730300I-500J0D01*
G01X750300Y447300D02*
G03X750300I-500J0D01*
G01X730300D02*
G03X730300I-500J0D01*
G01X749498Y487699D02*
X750102D01*
X729498D02*
X730102D01*
X749498Y447699D02*
X750102D01*
X729498D02*
X730102D01*
X555000Y200000D02*
Y175000D01*
X480000D02*
Y145000D01*
X432500Y200000D02*
Y145000D01*
X680000Y175000D02*
X370000D01*
Y212500D02*
X680000D01*
Y200000D02*
X370000D01*
X680000Y145000D02*
X370000D01*
Y230000*
X680000*
Y145000*
X674500Y154219D02*
X674136Y154437D01*
X674136D02*
X673591Y155094D01*
Y150500*
X669409Y155094D02*
X671227Y150500D01*
X671955Y155094D02*
X669409D01*
X666682D02*
X667227Y154875D01*
X667591Y154219*
X667773Y153125*
Y152469*
X667591Y151375*
X667227Y150719*
X666682Y150500*
X666318*
X665773Y150719*
X665409Y151375*
X665227Y152469*
Y153125*
X665409Y154219*
X665773Y154875*
X666318Y155094*
X666682*
X662500D02*
X663045Y154875D01*
X663409Y154219*
X663591Y153125*
Y152469*
X663409Y151375*
X663045Y150719*
X662500Y150500*
X662136*
X661591Y150719*
X661227Y151375*
X661045Y152469*
Y153125*
X661227Y154219*
X661591Y154875*
X662136Y155094*
X662500*
X653955D02*
Y150500D01*
X655227Y155094D02*
X652682D01*
X651045D02*
Y150500D01*
X648500Y155094D02*
Y150500D01*
X651045Y152906D02*
X648500D01*
X645773Y155094D02*
X646136Y154875D01*
X646500Y154437*
X646500D02*
X646682Y154000D01*
X646864Y153344*
Y152250*
X646682Y151594*
X646500Y151156*
X646136Y150719*
X645773Y150500*
X645045*
X644682Y150719*
X644318Y151156*
X644136Y151594*
X643955Y152250*
Y153344*
X644136Y154000*
X644318Y154437*
X644318D02*
X644682Y154875D01*
X645045Y155094*
X645773*
X642318D02*
Y150500D01*
Y155094D02*
X640864Y150500D01*
X639409Y155094D02*
X640864Y150500D01*
X639409Y155094D02*
Y150500D01*
X636318Y155094D02*
X637773Y150500D01*
X636318Y155094D02*
X634864Y150500D01*
X637227Y152031D02*
X635409D01*
X630682Y154437D02*
X631045Y154875D01*
X631591Y155094*
X632318*
X632864Y154875*
X633227Y154437*
X633227D02*
Y154000D01*
X633045Y153562*
X633045D02*
X632864Y153344D01*
X632500Y153125*
X631409Y152687*
X631409D02*
X631045Y152469D01*
X630864Y152250*
X630682Y151812*
X630682D02*
Y151156D01*
X631045Y150719*
X631591Y150500*
X632318*
X632864Y150719*
X633227Y151156*
X624864Y155094D02*
Y150500D01*
Y155094D02*
X623227D01*
X622682Y154875*
X622500Y154656*
X622318Y154219*
Y153562*
X622318D02*
X622500Y153125D01*
X622682Y152906*
X623227Y152687*
X623227D02*
X624864D01*
X619227Y155094D02*
X620682Y150500D01*
X619227Y155094D02*
X617773Y150500D01*
X620136Y152031D02*
X618318D01*
X616136Y155094D02*
Y150500D01*
X614500Y155094D02*
Y150500D01*
Y155094D02*
X611955Y150500D01*
Y155094D02*
Y150500D01*
X610318Y155094D02*
Y150500D01*
Y155094D02*
X607955D01*
X610318Y152906D02*
X608864D01*
X610318Y150500D02*
X607955D01*
X602136Y155094D02*
Y150500D01*
Y155094D02*
X600500D01*
X599955Y154875*
X599773Y154656*
X599591Y154219*
Y153562*
X599591D02*
X599773Y153125D01*
X599955Y152906*
X600500Y152687*
X600500D02*
X602136D01*
X596500Y155094D02*
X597955Y150500D01*
X596500Y155094D02*
X595045Y150500D01*
X597409Y152031D02*
X595591D01*
X593409Y155094D02*
Y150500D01*
Y155094D02*
X591773D01*
X591227Y154875*
X591045Y154656*
X590864Y154219*
Y153781*
X591045Y153344*
X591227Y153125*
X591773Y152906*
X593409*
X592136D02*
X590864Y150500D01*
X589227Y155094D02*
Y150500D01*
X586682Y155094D02*
X589227Y152031D01*
X588318Y153125D02*
X586682Y150500D01*
X585045Y155094D02*
X584136Y150500D01*
X583227Y155094D02*
X584136Y150500D01*
X583227Y155094D02*
X582318Y150500D01*
X581409Y155094D02*
X582318Y150500D01*
X578318Y155094D02*
X579773Y150500D01*
X578318Y155094D02*
X576864Y150500D01*
X579227Y152031D02*
X577409D01*
X575227Y155094D02*
X573773Y152906D01*
Y150500*
X572318Y155094D02*
X573773Y152906D01*
X563773Y154000D02*
X563955Y154437D01*
X563955D02*
X564318Y154875D01*
X564682Y155094*
X565409*
X565773Y154875*
X566136Y154437*
X566136D02*
X566318Y154000D01*
X566500Y153344*
Y152250*
X566318Y151594*
X566136Y151156*
X565773Y150719*
X565409Y150500*
X564682*
X564318Y150719*
X563955Y151156*
X563773Y151594*
X562136Y155094D02*
Y150500D01*
Y155094D02*
X559773D01*
X562136Y152906D02*
X560682D01*
X562136Y150500D02*
X559773D01*
X558136Y155094D02*
Y150500D01*
Y155094D02*
X555591Y150500D01*
Y155094D02*
Y150500D01*
X552682Y155094D02*
Y150500D01*
X553955Y155094D02*
X551409D01*
X549773D02*
Y150500D01*
Y155094D02*
X547409D01*
X549773Y152906D02*
X548318D01*
X549773Y150500D02*
X547409D01*
X545773Y155094D02*
Y150500D01*
Y155094D02*
X544136D01*
X543591Y154875*
X543409Y154656*
X543227Y154219*
Y153781*
X543409Y153344*
X543591Y153125*
X544136Y152906*
X545773*
X544500D02*
X543227Y150500D01*
X541591Y155094D02*
X540136Y150500D01*
X538682Y155094D02*
X540136Y150500D01*
X537045Y155094D02*
Y150500D01*
X535409Y155094D02*
Y150500D01*
X533227*
X531591Y155094D02*
Y150500D01*
X529409*
X527773Y155094D02*
Y150500D01*
Y155094D02*
X525409D01*
X527773Y152906D02*
X526318D01*
X527773Y150500D02*
X525409D01*
X523409Y150719D02*
X523591Y150500D01*
X523773Y150719*
X523591Y150937*
X523591D02*
X523409Y150719D01*
Y150281*
X523591Y149844*
X523773Y149625*
X516500Y155094D02*
X516864Y154875D01*
X517227Y154437*
X517227D02*
X517409Y154000D01*
X517591Y153344*
Y152250*
X517409Y151594*
X517227Y151156*
X516864Y150719*
X516500Y150500*
X515773*
X515409Y150719*
X515045Y151156*
X514864Y151594*
X514682Y152250*
Y153344*
X514864Y154000*
X515045Y154437*
X515045D02*
X515409Y154875D01*
X515773Y155094*
X516500*
X513045D02*
Y150500D01*
X510500Y155094D02*
Y150500D01*
X513045Y152906D02*
X510500D01*
X502864Y155094D02*
X504682Y152031D01*
X501955*
X502864Y155094D02*
Y150500D01*
X497955Y155094D02*
X499773D01*
X499955Y153125*
X499773Y153344*
X499227Y153562*
X499227D02*
X498682D01*
X498682D02*
X498136Y153344D01*
X497773Y152906*
X497591Y152250*
X497773Y151812*
X497773D02*
X497955Y151156D01*
X498318Y150719*
X498864Y150500*
X499409*
X499955Y150719*
X500136Y150937*
X500136D02*
X500318Y151375D01*
X494136Y155094D02*
X495955Y152031D01*
X493227*
X494136Y155094D02*
Y150500D01*
X489227Y155094D02*
X491045D01*
X491227Y153125*
X491045Y153344*
X490500Y153562*
X490500D02*
X489955D01*
X489955D02*
X489409Y153344D01*
X489045Y152906*
X488864Y152250*
X489045Y151812*
X489045D02*
X489227Y151156D01*
X489591Y150719*
X490136Y150500*
X490682*
X491227Y150719*
X491409Y150937*
X491409D02*
X491591Y151375D01*
X484864Y153562D02*
X485045Y152906D01*
X485409Y152469*
X485955Y152250*
X486136*
X486682Y152469*
X487045Y152906*
X487227Y153562*
X487227D02*
Y153781D01*
X487045Y154437*
X487045D02*
X486682Y154875D01*
X486136Y155094*
X485955*
X485409Y154875*
X485045Y154437*
X485045D02*
X484864Y153562D01*
X484864D02*
Y152469D01*
X485045Y151375*
X485409Y150719*
X485955Y150500*
X486318*
X486864Y150719*
X487045Y151156*
X423136Y171406D02*
X423591Y171125D01*
X424045Y170562*
X424045D02*
X424273Y170000D01*
X424500Y169156*
Y167750*
X424273Y166906*
X424045Y166344*
X423591Y165781*
X423136Y165500*
X422227*
X421773Y165781*
X421318Y166344*
X421091Y166906*
X420864Y167750*
Y169156*
X421091Y170000*
X421318Y170562*
X421318D02*
X421773Y171125D01*
X422227Y171406*
X423136*
X422455Y166625D02*
X421091Y164937D01*
X415409Y170000D02*
X415636Y170562D01*
X415636D02*
X416091Y171125D01*
X416545Y171406*
X417455*
X417909Y171125*
X418364Y170562*
X418364D02*
X418591Y170000D01*
X418818Y169156*
Y167750*
X418591Y166906*
X418364Y166344*
X417909Y165781*
X417455Y165500*
X416545*
X416091Y165781*
X415636Y166344*
X415409Y166906*
X413364Y171406D02*
Y165500D01*
Y171406D02*
X411773D01*
X411091Y171125*
X410636Y170562*
X410636D02*
X410409Y170000D01*
X410182Y169156*
Y167750*
X410409Y166906*
X410636Y166344*
X411091Y165781*
X411773Y165500*
X413364*
X400636Y171406D02*
Y166906D01*
X400864Y166062*
X400864D02*
X401091Y165781D01*
X401545Y165500*
X402000*
X402455Y165781*
X402682Y166062*
X402682D02*
X402909Y166906D01*
Y167469*
X397227Y171406D02*
X397682Y171125D01*
X398136Y170562*
X398136D02*
X398364Y170000D01*
X398591Y169156*
Y167750*
X398364Y166906*
X398136Y166344*
X397682Y165781*
X397227Y165500*
X396318*
X395864Y165781*
X395409Y166344*
X395182Y166906*
X394955Y167750*
Y169156*
X395182Y170000*
X395409Y170562*
X395409D02*
X395864Y171125D01*
X396318Y171406*
X397227*
X392909D02*
Y165500D01*
Y171406D02*
X390864D01*
X390182Y171125*
X389955Y170844*
X389727Y170281*
Y169719*
X389955Y169156*
X390182Y168875*
X390864Y168594*
X392909D02*
X390864D01*
X390182Y168312*
X390182D02*
X389955Y168031D01*
X389727Y167469*
Y166625*
X389955Y166062*
X389955D02*
X390182Y165781D01*
X390864Y165500*
X392909*
X380636Y172531D02*
X382227Y163531D01*
X379273Y172531D02*
X380864Y163531D01*
X382227Y168875D02*
X379045D01*
X382455Y167187D02*
X379273D01*
X367318Y138906D02*
X365500Y133000D01*
X367318Y138906D02*
X369136Y133000D01*
X366182Y134969D02*
X368455D01*
X371182Y138906D02*
Y133000D01*
X373909*
X375955Y138906D02*
Y133000D01*
X378682*
X389364Y137500D02*
X389136Y138062D01*
X389136D02*
X388682Y138625D01*
X388227Y138906*
X387318*
X386864Y138625*
X386409Y138062*
X386409D02*
X386182Y137500D01*
X385955Y136656*
Y135250*
X386182Y134406*
X386409Y133844*
X386864Y133281*
X387318Y133000*
X388227*
X388682Y133281*
X389136Y133844*
X389364Y134406*
Y135250*
X388227D02*
X389364D01*
X391409Y138906D02*
Y133000D01*
Y138906D02*
X394364D01*
X391409Y136094D02*
X393227D01*
X391409Y133000D02*
X394364D01*
X396409Y138906D02*
Y133000D01*
Y138906D02*
X398455D01*
X399136Y138625*
X399364Y138344*
X399591Y137781*
Y137219*
X399364Y136656*
X399136Y136375*
X398455Y136094*
X396409*
X398000D02*
X399591Y133000D01*
X401636Y138906D02*
Y133000D01*
Y138906D02*
X403682D01*
X404364Y138625*
X404591Y138344*
X404818Y137781*
Y137219*
X404591Y136656*
X404364Y136375*
X403682Y136094*
X401636D02*
X403682D01*
X404364Y135812*
X404364D02*
X404591Y135531D01*
X404818Y134969*
Y134125*
X404591Y133562*
X404591D02*
X404364Y133281D01*
X403682Y133000*
X401636*
X406864Y138906D02*
Y133000D01*
Y138906D02*
X409818D01*
X406864Y136094D02*
X408682D01*
X406864Y133000D02*
X409818D01*
X411864Y138906D02*
Y133000D01*
Y138906D02*
X413909D01*
X414591Y138625*
X414818Y138344*
X415045Y137781*
Y137219*
X414818Y136656*
X414591Y136375*
X413909Y136094*
X411864*
X413455D02*
X415045Y133000D01*
X420273Y138062D02*
X419818Y138625D01*
X419136Y138906*
X418227*
X417545Y138625*
X417091Y138062*
X417091D02*
Y137500D01*
X417318Y136937*
X417318D02*
X417545Y136656D01*
X418000Y136375*
X419364Y135812*
X419364D02*
X419818Y135531D01*
X420045Y135250*
X420273Y134687*
X420273D02*
Y133844D01*
X419818Y133281*
X419136Y133000*
X418227*
X417545Y133281*
X417091Y133844*
X429364Y138906D02*
X427545Y133000D01*
X429364Y138906D02*
X431182Y133000D01*
X428227Y134969D02*
X430500D01*
X433227Y138906D02*
Y133000D01*
Y138906D02*
X435273D01*
X435955Y138625*
X436182Y138344*
X436409Y137781*
Y137219*
X436182Y136656*
X435955Y136375*
X435273Y136094*
X433227*
X434818D02*
X436409Y133000D01*
X438455Y138906D02*
Y133000D01*
Y138906D02*
X441409D01*
X438455Y136094D02*
X440273D01*
X438455Y133000D02*
X441409D01*
X448682Y138906D02*
X450500Y133000D01*
X452318Y138906D02*
X450500Y133000D01*
X454364Y138906D02*
Y133000D01*
X456409Y138906D02*
Y133000D01*
Y138906D02*
X459364D01*
X456409Y136094D02*
X458227D01*
X456409Y133000D02*
X459364D01*
X461409Y138906D02*
X462545Y133000D01*
X463682Y138906D02*
X462545Y133000D01*
X463682Y138906D02*
X464818Y133000D01*
X465955Y138906D02*
X464818Y133000D01*
X468000Y138906D02*
Y133000D01*
Y138906D02*
X470955D01*
X468000Y136094D02*
X469818D01*
X468000Y133000D02*
X470955D01*
X473000Y138906D02*
Y133000D01*
Y138906D02*
X474591D01*
X475273Y138625*
X475727Y138062*
X475727D02*
X475955Y137500D01*
X476182Y136656*
Y135250*
X475955Y134406*
X475727Y133844*
X475273Y133281*
X474591Y133000*
X473000*
X483455Y138906D02*
Y133000D01*
Y138906D02*
X486409D01*
X483455Y136094D02*
X485273D01*
X488455Y138906D02*
Y133000D01*
Y138906D02*
X490500D01*
X491182Y138625*
X491409Y138344*
X491636Y137781*
Y137219*
X491409Y136656*
X491182Y136375*
X490500Y136094*
X488455*
X490045D02*
X491636Y133000D01*
X495045Y138906D02*
X494591Y138625D01*
X494136Y138062*
X494136D02*
X493909Y137500D01*
X493682Y136656*
Y135250*
X493909Y134406*
X494136Y133844*
X494591Y133281*
X495045Y133000*
X495955*
X496409Y133281*
X496864Y133844*
X497091Y134406*
X497318Y135250*
Y136656*
X497091Y137500*
X496864Y138062*
X496864D02*
X496409Y138625D01*
X495955Y138906*
X495045*
X499364D02*
Y133000D01*
Y138906D02*
X501182Y133000D01*
X503000Y138906D02*
X501182Y133000D01*
X503000Y138906D02*
Y133000D01*
X511864Y138906D02*
Y133000D01*
X510273Y138906D02*
X513455D01*
X515500D02*
Y133000D01*
X518682Y138906D02*
Y133000D01*
X515500Y136094D02*
X518682D01*
X520727Y138906D02*
Y133000D01*
Y138906D02*
X523682D01*
X520727Y136094D02*
X522545D01*
X520727Y133000D02*
X523682D01*
X530955Y138906D02*
Y133000D01*
Y138906D02*
X533000D01*
X533682Y138625*
X533909Y138344*
X534136Y137781*
Y136937*
X534136D02*
X533909Y136375D01*
X533682Y136094*
X533000Y135812*
X533000D02*
X530955D01*
X536182Y138906D02*
Y133000D01*
Y138906D02*
X538227D01*
X538909Y138625*
X539136Y138344*
X539364Y137781*
Y137219*
X539136Y136656*
X538909Y136375*
X538227Y136094*
X536182*
X537773D02*
X539364Y133000D01*
X541409Y138906D02*
Y133000D01*
X543455Y138906D02*
Y133000D01*
Y138906D02*
X545273Y133000D01*
X547091Y138906D02*
X545273Y133000D01*
X547091Y138906D02*
Y133000D01*
X550955Y138906D02*
X549136Y133000D01*
X550955Y138906D02*
X552773Y133000D01*
X549818Y134969D02*
X552091D01*
X554818Y138906D02*
Y133000D01*
Y138906D02*
X556864D01*
X557545Y138625*
X557773Y138344*
X558000Y137781*
Y137219*
X557773Y136656*
X557545Y136375*
X556864Y136094*
X554818*
X556409D02*
X558000Y133000D01*
X560045Y138906D02*
X561864Y136094D01*
Y133000*
X563682Y138906D02*
X561864Y136094D01*
X574136Y138062D02*
X573682Y138625D01*
X573000Y138906*
X572091*
X571409Y138625*
X570955Y138062*
X570955D02*
Y137500D01*
X571182Y136937*
X571182D02*
X571409Y136656D01*
X571864Y136375*
X573227Y135812*
X573227D02*
X573682Y135531D01*
X573909Y135250*
X574136Y134687*
X574136D02*
Y133844D01*
X573682Y133281*
X573000Y133000*
X572091*
X571409Y133281*
X570955Y133844*
X576182Y138906D02*
Y133000D01*
X578227Y138906D02*
Y133000D01*
Y138906D02*
X579818D01*
X580500Y138625*
X580955Y138062*
X580955D02*
X581182Y137500D01*
X581409Y136656*
Y135250*
X581182Y134406*
X580955Y133844*
X580500Y133281*
X579818Y133000*
X578227*
X583455Y138906D02*
Y133000D01*
Y138906D02*
X586409D01*
X583455Y136094D02*
X585273D01*
X583455Y133000D02*
X586409D01*
X595273Y140031D02*
X594818Y139469D01*
X594364Y138625*
X593909Y137500*
X593682Y136094*
Y134969*
X593909Y133562*
X593909D02*
X594364Y132437D01*
X594364D02*
X594818Y131594D01*
X595273Y131031*
X598909Y138906D02*
Y133000D01*
X597318Y138906D02*
X600500D01*
X602545D02*
Y133000D01*
X605727Y138906D02*
Y133000D01*
X602545Y136094D02*
X605727D01*
X607773Y138906D02*
Y133000D01*
Y138906D02*
X609818D01*
X610500Y138625*
X610727Y138344*
X610955Y137781*
Y137219*
X610727Y136656*
X610500Y136375*
X609818Y136094*
X607773*
X609364D02*
X610955Y133000D01*
X614364Y138906D02*
X613909Y138625D01*
X613455Y138062*
X613455D02*
X613227Y137500D01*
X613000Y136656*
Y135250*
X613227Y134406*
X613455Y133844*
X613909Y133281*
X614364Y133000*
X615273*
X615727Y133281*
X616182Y133844*
X616409Y134406*
X616636Y135250*
Y136656*
X616409Y137500*
X616182Y138062*
X616182D02*
X615727Y138625D01*
X615273Y138906*
X614364*
X618682D02*
Y134687D01*
X618682D02*
X618909Y133844D01*
X619364Y133281*
X620045Y133000*
X620500*
X621182Y133281*
X621636Y133844*
X621864Y134687*
X621864D02*
Y138906D01*
X627318Y137500D02*
X627091Y138062D01*
X627091D02*
X626636Y138625D01*
X626182Y138906*
X625273*
X624818Y138625*
X624364Y138062*
X624364D02*
X624136Y137500D01*
X623909Y136656*
Y135250*
X624136Y134406*
X624364Y133844*
X624818Y133281*
X625273Y133000*
X626182*
X626636Y133281*
X627091Y133844*
X627318Y134406*
Y135250*
X626182D02*
X627318D01*
X629364Y138906D02*
Y133000D01*
X632545Y138906D02*
Y133000D01*
X629364Y136094D02*
X632545D01*
X641409Y138906D02*
Y133000D01*
X639818Y138906D02*
X643000D01*
X645045D02*
Y133000D01*
X648227Y138906D02*
Y133000D01*
X645045Y136094D02*
X648227D01*
X650273Y138906D02*
Y133000D01*
Y138906D02*
X653227D01*
X650273Y136094D02*
X652091D01*
X650273Y133000D02*
X653227D01*
X660500Y138906D02*
Y133000D01*
Y138906D02*
X662545D01*
X663227Y138625*
X663455Y138344*
X663682Y137781*
Y137219*
X663455Y136656*
X663227Y136375*
X662545Y136094*
X660500D02*
X662545D01*
X663227Y135812*
X663227D02*
X663455Y135531D01*
X663682Y134969*
Y134125*
X663455Y133562*
X663455D02*
X663227Y133281D01*
X662545Y133000*
X660500*
X667091Y138906D02*
X666636Y138625D01*
X666182Y138062*
X666182D02*
X665955Y137500D01*
X665727Y136656*
Y135250*
X665955Y134406*
X666182Y133844*
X666636Y133281*
X667091Y133000*
X668000*
X668455Y133281*
X668909Y133844*
X669136Y134406*
X669364Y135250*
Y136656*
X669136Y137500*
X668909Y138062*
X668909D02*
X668455Y138625D01*
X668000Y138906*
X667091*
X673227D02*
X671409Y133000D01*
X673227Y138906D02*
X675045Y133000D01*
X672091Y134969D02*
X674364D01*
X677091Y138906D02*
Y133000D01*
Y138906D02*
X679136D01*
X679818Y138625*
X680045Y138344*
X680273Y137781*
Y137219*
X680045Y136656*
X679818Y136375*
X679136Y136094*
X677091*
X678682D02*
X680273Y133000D01*
X682318Y138906D02*
Y133000D01*
Y138906D02*
X683909D01*
X684591Y138625*
X685045Y138062*
X685045D02*
X685273Y137500D01*
X685500Y136656*
Y135250*
X685273Y134406*
X685045Y133844*
X684591Y133281*
X683909Y133000*
X682318*
X687545Y140031D02*
X688000Y139469D01*
X688455Y138625*
X688909Y137500*
X689136Y136094*
Y134969*
X688909Y133562*
X688909D02*
X688455Y132437D01*
X688455D02*
X688000Y131594D01*
X687545Y131031*
X674500Y198047D02*
Y190500D01*
Y198047D02*
X670807D01*
X674500Y194453D02*
X672227D01*
X674500Y190500D02*
X670807D01*
X666261Y198047D02*
Y190500D01*
X668250Y198047D02*
X664273D01*
X661716D02*
Y190500D01*
X657739Y198047D02*
Y190500D01*
X661716Y194453D02*
X657739D01*
X655182Y198047D02*
Y190500D01*
Y198047D02*
X651489D01*
X655182Y194453D02*
X652909D01*
X655182Y190500D02*
X651489D01*
X648932Y198047D02*
Y190500D01*
Y198047D02*
X646375D01*
X645523Y197687*
X645523D02*
X645239Y197328D01*
X644955Y196609*
Y195891*
X645239Y195172*
X645523Y194812*
X645523D02*
X646375Y194453D01*
X648932*
X646943D02*
X644955Y190500D01*
X642398Y198047D02*
Y190500D01*
Y198047D02*
X638420Y190500D01*
Y198047D02*
Y190500D01*
X635864Y198047D02*
Y190500D01*
Y198047D02*
X632170D01*
X635864Y194453D02*
X633591D01*
X635864Y190500D02*
X632170D01*
X627625Y198047D02*
Y190500D01*
X629614Y198047D02*
X625636D01*
X616545D02*
Y190500D01*
Y198047D02*
X614273Y190500D01*
X612000Y198047D02*
X614273Y190500D01*
X612000Y198047D02*
Y190500D01*
X607739Y198047D02*
X608307Y197687D01*
X608307D02*
X608875Y196969D01*
X609159Y196250*
X609443Y195172*
Y193375*
X609159Y192297*
X608875Y191578*
X608307Y190859*
X607739Y190500*
X606602*
X606034Y190859*
X605466Y191578*
X605182Y192297*
X604898Y193375*
Y195172*
X605182Y196250*
X605466Y196969*
X606034Y197687*
X606034D02*
X606602Y198047D01*
X607739*
X602341D02*
Y190500D01*
Y198047D02*
X598364Y190500D01*
Y198047D02*
Y190500D01*
X595807Y198047D02*
Y190500D01*
X591261Y198047D02*
Y190500D01*
X593250Y198047D02*
X589273D01*
X585011D02*
X585580Y197687D01*
X585580D02*
X586148Y196969D01*
X586432Y196250*
X586716Y195172*
Y193375*
X586432Y192297*
X586148Y191578*
X585580Y190859*
X585011Y190500*
X583875*
X583307Y190859*
X582739Y191578*
X582455Y192297*
X582170Y193375*
Y195172*
X582455Y196250*
X582739Y196969*
X583307Y197687*
X583307D02*
X583875Y198047D01*
X585011*
X579614D02*
Y190500D01*
Y198047D02*
X577057D01*
X576205Y197687*
X576205D02*
X575920Y197328D01*
X575636Y196609*
Y195891*
X575920Y195172*
X576205Y194812*
X576205D02*
X577057Y194453D01*
X579614*
X577625D02*
X575636Y190500D01*
X560864Y194812D02*
Y195172D01*
X561148Y195531*
X561432*
X561716Y195172*
X562000Y194453*
X562568Y192656*
X563136Y191578*
X563705Y190859*
X564273Y190500*
X565409*
X565977Y190859*
X566261Y191219*
X566545Y191937*
X566545D02*
Y192656D01*
X566261Y193375*
X565977Y193734*
X563989Y195172*
X563705Y195531*
X563420Y196250*
Y196969*
X563705Y197687*
X563705D02*
X564273Y198047D01*
X564841Y197687*
X564841D02*
X565125Y196969D01*
Y196250*
X564841Y195172*
X564273Y194094*
X562852Y191578*
X562284Y190859*
X561716Y190500*
X561148*
X560864Y190859*
Y191219*
X670239Y183750D02*
X670523Y184469D01*
X671091Y185187*
X671091D02*
X671659Y185547D01*
X672795*
X673364Y185187*
X673364D02*
X673932Y184469D01*
X674216Y183750*
X674500Y182672*
Y180875*
X674216Y179797*
X673932Y179078*
X673364Y178359*
X672795Y178000*
X671659*
X671091Y178359*
X670523Y179078*
X670239Y179797*
X665977Y185547D02*
X666545Y185187D01*
X666545D02*
X667114Y184469D01*
X667398Y183750*
X667682Y182672*
Y180875*
X667398Y179797*
X667114Y179078*
X666545Y178359*
X665977Y178000*
X664841*
X664273Y178359*
X663705Y179078*
X663420Y179797*
X663136Y180875*
Y182672*
X663420Y183750*
X663705Y184469*
X664273Y185187*
X664273D02*
X664841Y185547D01*
X665977*
X660580D02*
Y178000D01*
Y185547D02*
X656602Y178000D01*
Y185547D02*
Y178000D01*
X652057Y185547D02*
Y178000D01*
X654045Y185547D02*
X650068D01*
X647511D02*
Y178000D01*
Y185547D02*
X644955D01*
X644102Y185187*
X644102D02*
X643818Y184828D01*
X643534Y184109*
Y183391*
X643818Y182672*
X644102Y182312*
X644102D02*
X644955Y181953D01*
X647511*
X645523D02*
X643534Y178000D01*
X639273Y185547D02*
X639841Y185187D01*
X639841D02*
X640409Y184469D01*
X640693Y183750*
X640977Y182672*
Y180875*
X640693Y179797*
X640409Y179078*
X639841Y178359*
X639273Y178000*
X638136*
X637568Y178359*
X637000Y179078*
X636716Y179797*
X636432Y180875*
Y182672*
X636716Y183750*
X637000Y184469*
X637568Y185187*
X637568D02*
X638136Y185547D01*
X639273*
X633875D02*
Y178000D01*
X630466*
X621375Y185547D02*
Y178000D01*
Y185547D02*
X618818D01*
X617966Y185187*
X617966D02*
X617682Y184828D01*
X617398Y184109*
Y183391*
X617682Y182672*
X617966Y182312*
X617966D02*
X618818Y181953D01*
X621375D02*
X618818D01*
X617966Y181594*
X617682Y181234*
X617398Y180516*
Y179437*
X617398D02*
X617682Y178719D01*
X617966Y178359*
X618818Y178000*
X621375*
X614841Y185547D02*
Y178000D01*
Y185547D02*
X612852D01*
X612000Y185187*
X612000D02*
X611432Y184469D01*
X611148Y183750*
X610864Y182672*
Y180875*
X611148Y179797*
X611432Y179078*
X612000Y178359*
X612852Y178000*
X614841*
X424500Y196406D02*
Y190500D01*
Y196406D02*
X422909D01*
X422227Y196125*
X421773Y195562*
X421773D02*
X421545Y195000D01*
X421318Y194156*
Y192750*
X421545Y191906*
X421773Y191344*
X422227Y190781*
X422909Y190500*
X424500*
X417455Y196406D02*
X419273Y190500D01*
X417455Y196406D02*
X415636Y190500D01*
X418591Y192469D02*
X416318D01*
X412000Y196406D02*
Y190500D01*
X413591Y196406D02*
X410409D01*
X408364D02*
Y190500D01*
Y196406D02*
X405409D01*
X408364Y193594D02*
X406545D01*
X408364Y190500D02*
X405409D01*
X403136Y194437D02*
X403364Y194156D01*
X403136Y193875*
X402909Y194156*
X403136Y194437*
Y191062D02*
X403364Y190781D01*
X403136Y190500*
X402909Y190781*
X403136Y191062*
X427000Y184109D02*
X426432Y184469D01*
X425580Y185547*
Y178000*
X421318Y185547D02*
X422170Y185187D01*
X422170D02*
X422739Y184109D01*
X423023Y182312*
X423023D02*
Y181234D01*
X422739Y179437*
X422739D02*
X422170Y178359D01*
X421318Y178000*
X420750*
X419898Y178359*
X419330Y179437*
X419330D02*
X419045Y181234D01*
Y182312*
X419045D02*
X419330Y184109D01*
X419898Y185187*
X419898D02*
X420750Y185547D01*
X421318*
X411375Y186984D02*
X416489Y175484D01*
X408818Y184109D02*
X408250Y184469D01*
X407398Y185547*
Y178000*
X400864Y185547D02*
X403705Y178000D01*
X404841Y185547D02*
X400864D01*
X393193Y186984D02*
X398307Y175484D01*
X388932Y185547D02*
X389784Y185187D01*
X389784D02*
X390352Y184109D01*
X390636Y182312*
X390636D02*
Y181234D01*
X390352Y179437*
X390352D02*
X389784Y178359D01*
X388932Y178000*
X388364*
X387511Y178359*
X386943Y179437*
X386943D02*
X386659Y181234D01*
Y182312*
X386659D02*
X386943Y184109D01*
X387511Y185187*
X387511D02*
X388364Y185547D01*
X388932*
X380693Y184469D02*
X380977Y185187D01*
X380977D02*
X381830Y185547D01*
X382398*
X383250Y185187*
X383250D02*
X383818Y184109D01*
X384102Y182312*
X384102D02*
Y180516D01*
X383818Y179078*
X383250Y178359*
X382398Y178000*
X382114*
X381261Y178359*
X380693Y179078*
X380409Y180156*
Y180516*
X380693Y181594*
X381261Y182312*
X381261D02*
X382114Y182672D01*
X382398*
X383250Y182312*
X383250D02*
X383818Y181594D01*
X384102Y180516*
X424159Y160547D02*
Y154797D01*
X424443Y153719*
X424727Y153359*
X425295Y153000*
X425864*
X426432Y153359*
X426716Y153719*
X427000Y154797*
Y155516*
X417909Y160547D02*
X420750D01*
X421034Y157312*
X421034D02*
X420750Y157672D01*
X419898Y158031*
X419045*
X418193Y157672*
X417625Y156953*
X417341Y155875*
X417625Y155156*
X417909Y154078*
X418477Y153359*
X419330Y153000*
X420182*
X421034Y153359*
X421318Y153719*
X421602Y154437*
X411943Y160547D02*
X414784Y155516D01*
X410523*
X411943Y160547D02*
Y153000D01*
X404273Y160547D02*
X407114D01*
X407398Y157312*
X407398D02*
X407114Y157672D01*
X406261Y158031*
X405409*
X404557Y157672*
X403989Y156953*
X403705Y155875*
X403989Y155156*
X404273Y154078*
X404841Y153359*
X405693Y153000*
X406545*
X407398Y153359*
X407682Y153719*
X407966Y154437*
X399727Y160547D02*
X400580Y160187D01*
X400580D02*
X400864Y159469D01*
Y158750*
X400580Y158031*
X400011Y157672*
X398875Y157312*
X398875D02*
X398023Y156953D01*
X397455Y156234*
X397170Y155516*
Y154437*
X397170D02*
X397455Y153719D01*
X397739Y153359*
X398591Y153000*
X399727*
X400580Y153359*
X400864Y153719*
X401148Y154437*
X401148D02*
Y155516D01*
X400864Y156234*
X400295Y156953*
X399443Y157312*
X399443D02*
X398307Y157672D01*
X397739Y158031*
X397455Y158750*
Y159469*
X397739Y160187*
X397739D02*
X398591Y160547D01*
X399727*
X394614Y156234D02*
X389500D01*
X385239Y160547D02*
X386091Y160187D01*
X386091D02*
X386659Y159109D01*
X386943Y157312*
X386943D02*
Y156234D01*
X386659Y154437*
X386659D02*
X386091Y153359D01*
X385239Y153000*
X384670*
X383818Y153359*
X383250Y154437*
X383250D02*
X382966Y156234D01*
Y157312*
X382966D02*
X383250Y159109D01*
X383818Y160187*
X383818D02*
X384670Y160547D01*
X385239*
X378705D02*
X379557Y160187D01*
X379557D02*
X380125Y159109D01*
X380409Y157312*
X380409D02*
Y156234D01*
X380125Y154437*
X380125D02*
X379557Y153359D01*
X378705Y153000*
X378136*
X377284Y153359*
X376716Y154437*
X376716D02*
X376432Y156234D01*
Y157312*
X376432D02*
X376716Y159109D01*
X377284Y160187*
X377284D02*
X378136Y160547D01*
X378705*
X474500Y171406D02*
Y165500D01*
Y171406D02*
X472909D01*
X472227Y171125*
X471773Y170562*
X471773D02*
X471545Y170000D01*
X471318Y169156*
Y167750*
X471545Y166906*
X471773Y166344*
X472227Y165781*
X472909Y165500*
X474500*
X469273Y171406D02*
Y165500D01*
Y171406D02*
X466318D01*
X469273Y168594D02*
X467455D01*
X469273Y165500D02*
X466318D01*
X461091Y170562D02*
X461545Y171125D01*
X462227Y171406*
X463136*
X463818Y171125*
X464273Y170562*
X464273D02*
Y170000D01*
X464045Y169437*
X464045D02*
X463818Y169156D01*
X463364Y168875*
X462000Y168312*
X462000D02*
X461545Y168031D01*
X461318Y167750*
X461091Y167187*
X461091D02*
Y166344D01*
X461545Y165781*
X462227Y165500*
X463136*
X463818Y165781*
X464273Y166344*
X459045Y171406D02*
Y165500D01*
X453591Y170000D02*
X453818Y170562D01*
X453818D02*
X454273Y171125D01*
X454727Y171406*
X455636*
X456091Y171125*
X456545Y170562*
X456545D02*
X456773Y170000D01*
X457000Y169156*
Y167750*
X456773Y166906*
X456545Y166344*
X456091Y165781*
X455636Y165500*
X454727*
X454273Y165781*
X453818Y166344*
X453591Y166906*
Y167750*
X454727D02*
X453591D01*
X451545Y171406D02*
Y165500D01*
Y171406D02*
X448364Y165500D01*
Y171406D02*
Y165500D01*
X446318Y171406D02*
Y165500D01*
Y171406D02*
X443364D01*
X446318Y168594D02*
X444500D01*
X446318Y165500D02*
X443364D01*
X441318Y171406D02*
Y165500D01*
Y171406D02*
X439273D01*
X438591Y171125*
X438364Y170844*
X438136Y170281*
Y169719*
X438364Y169156*
X438591Y168875*
X439273Y168594*
X441318*
X439727D02*
X438136Y165500D01*
X435864Y169437D02*
X436091Y169156D01*
X435864Y168875*
X435636Y169156*
X435864Y169437*
Y166062D02*
X436091Y165781D01*
X435864Y165500*
X435636Y165781*
X435864Y166062*
X457739Y158750D02*
X458023Y159469D01*
X458591Y160187*
X458591D02*
X459159Y160547D01*
X460295*
X460864Y160187*
X460864D02*
X461432Y159469D01*
X461716Y158750*
X462000Y157672*
Y155875*
X461716Y154797*
X461432Y154078*
X460864Y153359*
X460295Y153000*
X459159*
X458591Y153359*
X458023Y154078*
X457739Y154797*
Y155875*
X459159D02*
X457739D01*
X455182Y160547D02*
Y153000D01*
X451205Y160547D02*
Y153000D01*
X455182Y156953D02*
X451205D01*
X444670Y159469D02*
X445239Y160187D01*
X445239D02*
X446091Y160547D01*
X447227*
X448080Y160187*
X448080D02*
X448648Y159469D01*
Y158750*
X448364Y158031*
X448080Y157672*
X447511Y157312*
X447511D02*
X445807Y156594D01*
X445239Y156234*
X444955Y155875*
X444670Y155156*
Y154078*
X445239Y153359*
X446091Y153000*
X447227*
X448080Y153359*
X448648Y154078*
X549500Y198047D02*
X545523Y190500D01*
Y198047D02*
X549500Y190500D01*
X540125Y198047D02*
X542966Y193016D01*
X538705*
X540125Y198047D02*
Y190500D01*
X536148Y196609D02*
X535580Y196969D01*
X534727Y198047*
Y190500*
X532170Y193734D02*
X527057D01*
X524216Y196250D02*
Y196609D01*
X523932Y197328*
X523648Y197687*
X523648D02*
X523080Y198047D01*
X521943*
X521375Y197687*
X521375D02*
X521091Y197328D01*
X520807Y196609*
Y195891*
X521091Y195172*
X521659Y194094*
X524500Y190500*
X520523*
X516261Y198047D02*
X517114Y197687D01*
X517114D02*
X517682Y196609D01*
X517966Y194812*
X517966D02*
Y193734D01*
X517682Y191937*
X517682D02*
X517114Y190859D01*
X516261Y190500*
X515693*
X514841Y190859*
X514273Y191937*
X514273D02*
X513989Y193734D01*
Y194812*
X513989D02*
X514273Y196609D01*
X514841Y197687*
X514841D02*
X515693Y198047D01*
X516261*
X509727D02*
X510580Y197687D01*
X510580D02*
X511148Y196609D01*
X511432Y194812*
X511432D02*
Y193734D01*
X511148Y191937*
X511148D02*
X510580Y190859D01*
X509727Y190500*
X509159*
X508307Y190859*
X507739Y191937*
X507739D02*
X507455Y193734D01*
Y194812*
X507455D02*
X507739Y196609D01*
X508307Y197687*
X508307D02*
X509159Y198047D01*
X509727*
X504898Y196609D02*
X504330Y196969D01*
X503477Y198047*
Y190500*
X499216Y198047D02*
X500068Y197687D01*
X500068D02*
X500636Y196609D01*
X500920Y194812*
X500920D02*
Y193734D01*
X500636Y191937*
X500636D02*
X500068Y190859D01*
X499216Y190500*
X498648*
X497795Y190859*
X497227Y191937*
X497227D02*
X496943Y193734D01*
Y194812*
X496943D02*
X497227Y196609D01*
X497795Y197687*
X497795D02*
X498648Y198047D01*
X499216*
X549500Y185547D02*
Y178000D01*
Y185547D02*
X546943D01*
X546091Y185187*
X546091D02*
X545807Y184828D01*
X545523Y184109*
Y183391*
X545807Y182672*
X546091Y182312*
X546091D02*
X546943Y181953D01*
X549500*
X547511D02*
X545523Y178000D01*
X542966Y185547D02*
Y178000D01*
Y185547D02*
X539273D01*
X542966Y181953D02*
X540693D01*
X542966Y178000D02*
X539273D01*
X536716Y185547D02*
X534443Y178000D01*
X532170Y185547D02*
X534443Y178000D01*
X520807Y185547D02*
X523080Y178000D01*
X520807Y185547D02*
X518534Y178000D01*
X522227Y180516D02*
X519386D01*
X672682Y208906D02*
X674500Y203000D01*
X672682Y208906D02*
X670864Y203000D01*
X673818Y204969D02*
X671545D01*
X668818Y208906D02*
Y203000D01*
Y208906D02*
X666773D01*
X666091Y208625*
X665864Y208344*
X665636Y207781*
Y207219*
X665864Y206656*
X666091Y206375*
X666773Y206094*
X668818*
X667227D02*
X665636Y203000D01*
X662000Y208906D02*
Y203000D01*
X663591Y208906D02*
X660409D01*
X658364D02*
X657227Y203000D01*
X656091Y208906D02*
X657227Y203000D01*
X656091Y208906D02*
X654955Y203000D01*
X653818Y208906D02*
X654955Y203000D01*
X650409Y208906D02*
X650864Y208625D01*
X651318Y208062*
X651318D02*
X651545Y207500D01*
X651773Y206656*
Y205250*
X651545Y204406*
X651318Y203844*
X650864Y203281*
X650409Y203000*
X649500*
X649045Y203281*
X648591Y203844*
X648364Y204406*
X648136Y205250*
Y206656*
X648364Y207500*
X648591Y208062*
X648591D02*
X649045Y208625D01*
X649500Y208906*
X650409*
X646091D02*
Y203000D01*
Y208906D02*
X644045D01*
X643364Y208625*
X643136Y208344*
X642909Y207781*
Y207219*
X643136Y206656*
X643364Y206375*
X644045Y206094*
X646091*
X644500D02*
X642909Y203000D01*
X640864Y208906D02*
Y203000D01*
X637682Y208906D02*
X640864Y204969D01*
X639727Y206375D02*
X637682Y203000D01*
X635409Y206937D02*
X635636Y206656D01*
X635409Y206375*
X635182Y206656*
X635409Y206937*
Y203562D02*
X635636Y203281D01*
X635409Y203000*
X635182Y203281*
X635409Y203562*
X623341Y208906D02*
X623864Y209562D01*
X623864D02*
X624648Y209891D01*
X625693*
X626477Y209562*
X626477D02*
X627000Y208906D01*
Y208250*
X626739Y207594*
X626477Y207266*
X625955Y206937*
X625955D02*
X624386Y206281D01*
X623864Y205953*
X623602Y205625*
X623341Y204969*
Y203984*
X623864Y203328*
X624648Y203000*
X625693*
X626477Y203328*
X627000Y203984*
X620989Y209891D02*
Y203000D01*
X618636Y209891D02*
Y203000D01*
X615500*
X613148Y209891D02*
Y203000D01*
X609489Y209891D02*
X613148Y205297D01*
X611841Y206937D02*
X609489Y203000D01*
X603477Y208906D02*
X604000Y209562D01*
X604000D02*
X604784Y209891D01*
X605830*
X606614Y209562*
X606614D02*
X607136Y208906D01*
Y208250*
X606875Y207594*
X606614Y207266*
X606091Y206937*
X606091D02*
X604523Y206281D01*
X604000Y205953*
X603739Y205625*
X603477Y204969*
Y203984*
X604000Y203328*
X604784Y203000*
X605830*
X606614Y203328*
X607136Y203984*
X597205Y208250D02*
X597466Y208906D01*
X597989Y209562*
X597989D02*
X598511Y209891D01*
X599557*
X600080Y209562*
X600080D02*
X600602Y208906D01*
X600864Y208250*
X601125Y207266*
Y205625*
X600864Y204641*
X600602Y203984*
X600080Y203328*
X599557Y203000*
X598511*
X597989Y203328*
X597466Y203984*
X597205Y204641*
X594852Y209891D02*
Y203000D01*
Y209891D02*
X592500D01*
X591716Y209562*
X591716D02*
X591455Y209234D01*
X591193Y208578*
Y207922*
X591455Y207266*
X591716Y206937*
X591716D02*
X592500Y206609D01*
X594852*
X593023D02*
X591193Y203000D01*
X588841Y209891D02*
Y203000D01*
Y209891D02*
X585443D01*
X588841Y206609D02*
X586750D01*
X588841Y203000D02*
X585443D01*
X583091Y209891D02*
Y203000D01*
Y209891D02*
X579693D01*
X583091Y206609D02*
X581000D01*
X583091Y203000D02*
X579693D01*
X577341Y209891D02*
Y203000D01*
Y209891D02*
X573682Y203000D01*
Y209891D02*
Y203000D01*
X571330Y205953D02*
X566625D01*
X560614Y208906D02*
X561136Y209562D01*
X561136D02*
X561920Y209891D01*
X562966*
X563750Y209562*
X563750D02*
X564273Y208906D01*
Y208250*
X564011Y207594*
X563750Y207266*
X563227Y206937*
X563227D02*
X561659Y206281D01*
X561136Y205953*
X560875Y205625*
X560614Y204969*
Y203984*
X561136Y203328*
X561920Y203000*
X562966*
X563750Y203328*
X564273Y203984*
X558261Y209891D02*
Y203000D01*
Y209891D02*
X554864D01*
X558261Y206609D02*
X556170D01*
X558261Y203000D02*
X554864D01*
X548591Y208250D02*
X548852Y208906D01*
X549375Y209562*
X549375D02*
X549898Y209891D01*
X550943*
X551466Y209562*
X551466D02*
X551989Y208906D01*
X552250Y208250*
X552511Y207266*
Y205625*
X552250Y204641*
X551989Y203984*
X551466Y203328*
X550943Y203000*
X549898*
X549375Y203328*
X548852Y203984*
X548591Y204641*
X544670Y209891D02*
X545193Y209562D01*
X545193D02*
X545716Y208906D01*
X545977Y208250*
X546239Y207266*
Y205625*
X545977Y204641*
X545716Y203984*
X545193Y203328*
X544670Y203000*
X543625*
X543102Y203328*
X542580Y203984*
X542318Y204641*
X542057Y205625*
Y207266*
X542318Y208250*
X542580Y208906*
X543102Y209562*
X543102D02*
X543625Y209891D01*
X544670*
X539705D02*
Y203000D01*
Y209891D02*
X536045Y203000D01*
Y209891D02*
Y203000D01*
X533693Y209891D02*
Y203000D01*
Y209891D02*
X531864D01*
X531080Y209562*
X531080D02*
X530557Y208906D01*
X530295Y208250*
X530034Y207266*
Y205625*
X530295Y204641*
X530557Y203984*
X531080Y203328*
X531864Y203000*
X533693*
X525591Y209891D02*
X527682Y203000D01*
X525591Y209891D02*
X523500Y203000D01*
X526898Y205297D02*
X524284D01*
X521148Y209891D02*
Y203000D01*
Y209891D02*
X518795D01*
X518011Y209562*
X518011D02*
X517750Y209234D01*
X517489Y208578*
Y207922*
X517750Y207266*
X518011Y206937*
X518011D02*
X518795Y206609D01*
X521148*
X519318D02*
X517489Y203000D01*
X515136Y209891D02*
X513045Y206609D01*
Y203000*
X510955Y209891D02*
X513045Y206609D01*
X498932Y208906D02*
X499455Y209562D01*
X499455D02*
X500239Y209891D01*
X501284*
X502068Y209562*
X502068D02*
X502591Y208906D01*
Y208250*
X502330Y207594*
X502068Y207266*
X501545Y206937*
X501545D02*
X499977Y206281D01*
X499455Y205953*
X499193Y205625*
X498932Y204969*
Y203984*
X499455Y203328*
X500239Y203000*
X501284*
X502068Y203328*
X502591Y203984*
X496580Y209891D02*
Y203000D01*
X494227Y209891D02*
Y203000D01*
Y209891D02*
X492398D01*
X491614Y209562*
X491614D02*
X491091Y208906D01*
X490830Y208250*
X490568Y207266*
Y205625*
X490830Y204641*
X491091Y203984*
X491614Y203328*
X492398Y203000*
X494227*
X488216Y209891D02*
Y203000D01*
Y209891D02*
X484818D01*
X488216Y206609D02*
X486125D01*
X488216Y203000D02*
X484818D01*
G54D31*
X603000Y390000D02*
X607000D01*
X347500Y399500D02*
Y395500D01*
X438000Y525000D02*
X432000D01*
X438000Y501000D02*
X432000D01*
X447000Y500000D02*
X443000D01*
X457000D02*
X453000D01*
X497500Y457000D02*
Y463000D01*
X473500Y457000D02*
Y463000D01*
X472500Y468000D02*
Y472000D01*
Y478000D02*
Y482000D01*
X587000Y390000D02*
X583000D01*
X577000Y335000D02*
X573000D01*
X475500Y572500D02*
X469500D01*
X624500Y587500D02*
X630500D01*
X532000Y477500D02*
X538000D01*
X384500Y350000D02*
X390500D01*
X444500Y375000D02*
X450500D01*
X378000Y501000D02*
X372000D01*
X450500Y555000D02*
X454500D01*
X460500D02*
X464500D01*
X492000Y590000D02*
X488000D01*
X522000Y597500D02*
X518000D01*
X563000D02*
X567000D01*
X607000D02*
X603000D01*
X607000Y577500D02*
X603000D01*
X513000Y477500D02*
X517000D01*
X384500Y374000D02*
X390500D01*
X503000Y400000D02*
X507000D01*
Y380000D02*
X503000D01*
X423000Y355000D02*
X427000D01*
X367000Y500000D02*
X363000D01*
X347500Y484500D02*
Y480500D01*
X470000Y390500D02*
Y394500D01*
X455500Y375000D02*
X459500D01*
X445500Y642500D02*
X449500D01*
X547000Y325000D02*
X553000D01*
X375500Y375000D02*
X379500D01*
X398000Y501000D02*
X392000D01*
X424500Y374000D02*
X430500D01*
X473500Y417000D02*
Y423000D01*
X346500Y460500D02*
Y454500D01*
X407000Y500000D02*
X403000D01*
X347500Y449500D02*
Y445500D01*
X435500Y375000D02*
X439500D01*
X472500Y408000D02*
Y412000D01*
X415500Y375000D02*
X419500D01*
X472500Y428000D02*
Y432000D01*
X365500Y375000D02*
X369500D01*
X347500Y469500D02*
Y465500D01*
X387000Y500000D02*
X383000D01*
X347500Y429500D02*
Y425500D01*
Y439500D02*
Y435500D01*
X395500Y375000D02*
X399500D01*
X405500D02*
X409500D01*
X472500Y438000D02*
Y442000D01*
Y448000D02*
Y452000D01*
X417000Y500000D02*
X413000D01*
X427000D02*
X423000D01*
X325500Y419000D02*
X319500D01*
X438000Y335000D02*
X432000D01*
X448000D02*
X442000D01*
X428000D02*
X422000D01*
X458000D02*
X452000D01*
X478000Y535000D02*
X482000D01*
X697000Y607500D02*
X693000D01*
X346500Y420500D02*
Y414500D01*
X347500Y409500D02*
Y405500D01*
X593000Y390000D02*
X597000D01*
X387500Y364500D02*
Y360500D01*
X333000Y417500D02*
X337000D01*
X435000Y510500D02*
Y514500D01*
X487000Y460000D02*
X483000D01*
X447750Y355000D02*
X442250D01*
X457750D02*
X452250D01*
X394750Y665000D02*
X400250D01*
X612250Y457500D02*
X617750D01*
X602250Y612500D02*
X607750D01*
X517250D02*
X522750D01*
X717750Y445000D02*
X712250D01*
X692250Y627500D02*
X697750D01*
X730250Y570000D02*
X724750D01*
X751500Y487800D02*
X758500D01*
X751500Y502200D02*
X758500D01*
X731500Y487800D02*
X738500D01*
X731500Y502200D02*
X738500D01*
X751500Y447800D02*
X758500D01*
X751500Y462200D02*
X758500D01*
X731500Y447800D02*
X738500D01*
X731500Y462200D02*
X738500D01*
X522000Y577500D02*
X518000D01*
X648000Y597500D02*
X652000D01*
X563000Y577500D02*
X567000D01*
X648000D02*
X652000D01*
X480500Y590000D02*
X484500D01*
X470500Y555000D02*
X474500D01*
X484500Y572500D02*
X480500D01*
X519500Y400000D02*
X515500D01*
Y380000D02*
X519500D01*
X613000Y390000D02*
X617000D01*
X577000D02*
X573000D01*
X539500Y587500D02*
X545500D01*
X449370Y400130D02*
Y396130D01*
X370630D02*
Y400130D01*
X449370Y478870D02*
Y474870D01*
X370630D02*
Y478870D01*
X410000Y445343D02*
Y449343D01*
Y425657D02*
Y429657D01*
X402157Y437500D02*
X398157D01*
X421843D02*
X417843D01*
X605733Y399744D02*
X606152Y399574D01*
X606570Y399233*
X606780Y398892*
Y398210*
X606570Y397869*
X606152Y397528*
X605733Y397358*
X605105Y397188*
X605105D02*
X604058D01*
X604058D02*
X603430Y397358D01*
X603011Y397528*
X602592Y397869*
X602383Y398210*
Y398892*
X602592Y399233*
X603011Y399574*
X603430Y399744*
X605942Y401278D02*
X606152Y401619D01*
X606780Y402131*
X602383*
X349716Y391983D02*
X349886Y392402D01*
X350227Y392820*
X350568Y393030*
X351250*
X351591Y392820*
X351932Y392402*
X352102Y391983*
X352273Y391355*
Y390308*
X352102Y389680*
X351932Y389261*
X351591Y388842*
X351250Y388633*
X350568*
X350227Y388842*
X349886Y389261*
X349716Y389680*
X348182Y392192D02*
X347841Y392402D01*
X347330Y393030*
Y388633*
X344773Y393030D02*
X345284Y392820D01*
X345625Y392192*
X345795Y391145*
Y390517*
X345625Y389470*
X345284Y388842*
X344773Y388633*
X344432*
X343920Y388842*
X343580Y389470*
X343409Y390517*
Y391145*
X343580Y392192*
X343920Y392820*
X344432Y393030*
X344773*
X435733Y536051D02*
X436152Y535881D01*
X436570Y535540*
X436780Y535199*
Y534517*
X436570Y534176*
X436152Y533835*
X435733Y533665*
X435105Y533494*
X434058*
X433430Y533665*
X433011Y533835*
X432592Y534176*
X432383Y534517*
Y535199*
X432592Y535540*
X433011Y535881*
X433430Y536051*
X435942Y537585D02*
X436152Y537926D01*
X436780Y538438*
X436780D02*
X432383D01*
X435942Y539972D02*
X436152Y540313D01*
X436152D02*
X436780Y540824D01*
X432383*
X436033Y486984D02*
X436452Y486814D01*
X436870Y486473*
X437080Y486132*
Y485450*
X436870Y485109*
X436452Y484768*
X436033Y484598*
X435405Y484427*
X434358*
X433730Y484598*
X433311Y484768*
X432892Y485109*
X432683Y485450*
Y486132*
X432892Y486473*
X433311Y486814*
X433730Y486984*
X436242Y488518D02*
X436452Y488859D01*
X437080Y489370*
X432683*
X436033Y491075D02*
X436242D01*
X436661Y491245*
X436870Y491416*
X437080Y491757*
Y492439*
X436870Y492780*
X436661Y492950*
X436242Y493120*
X435823*
X435405Y492950*
X434777Y492609*
X432683Y490905*
Y493291*
X445633Y486584D02*
X446052Y486414D01*
X446470Y486073*
X446680Y485732*
Y485050*
X446470Y484709*
X446052Y484368*
X445633Y484198*
X445005Y484027*
X443958*
X443330Y484198*
X442911Y484368*
X442492Y484709*
X442283Y485050*
Y485732*
X442492Y486073*
X442911Y486414*
X443330Y486584*
X445842Y488118D02*
X446052Y488459D01*
X446680Y488970*
X442283*
X446680Y490845D02*
Y492720D01*
X445005Y491698*
Y492209*
X444795Y492550*
X444586Y492720*
X443958Y492891*
X443539*
X442911Y492720*
X442492Y492380*
X442283Y491868*
Y491357*
X442492Y490845*
X442702Y490675*
X443120Y490505*
X455733Y510199D02*
X456152Y510028D01*
X456570Y509688*
X456570D02*
X456780Y509347D01*
Y508665*
X456570Y508324*
X456152Y507983*
X455733Y507813*
X455733D02*
X455105Y507642D01*
X454058*
X453430Y507813*
X453430D02*
X453011Y507983D01*
X452592Y508324*
X452383Y508665*
Y509347*
X452592Y509688*
X452592D02*
X453011Y510028D01*
X453430Y510199*
X455942Y511733D02*
X456152Y512074D01*
X456780Y512585*
X452383*
X456780Y515824D02*
X453848Y514119D01*
Y516676*
X456780Y515824D02*
X452383D01*
X499801Y468233D02*
X499972Y468652D01*
X500312Y469070*
X500653Y469280*
X501335*
X501676Y469070*
X502017Y468652*
X502187Y468233*
X502358Y467605*
Y466558*
X502187Y465930*
X502017Y465511*
X501676Y465092*
X501335Y464883*
X500653*
X500312Y465092*
X499972Y465511*
X499801Y465930*
X498267Y468442D02*
X497926Y468652D01*
X497415Y469280*
Y464883*
X493665Y469280D02*
X495369D01*
X495540Y467395*
X495369Y467605*
X494858Y467814*
X494347*
X493835Y467605*
X493494Y467186*
X493324Y466558*
X493494Y466139*
X493665Y465511*
X494006Y465092*
X494517Y464883*
X495028*
X495540Y465092*
X495710Y465302*
X495881Y465720*
X463381Y460733D02*
X463551Y461152D01*
X463892Y461570*
X464233Y461780*
X464915*
X465256Y461570*
X465597Y461152*
X465767Y460733*
X465937Y460105*
X465937D02*
Y459058D01*
X465937D02*
X465767Y458430D01*
X465597Y458011*
X465256Y457592*
X464915Y457383*
X464233*
X463892Y457592*
X463551Y458011*
X463381Y458430*
X461847Y460942D02*
X461506Y461152D01*
X460994Y461780*
Y457383*
X457415Y461152D02*
X457585Y461570D01*
X458097Y461780*
X458437*
X458437D02*
X458949Y461570D01*
X459290Y460942*
X459460Y459895*
Y458848*
X459290Y458011*
X458949Y457592*
X458437Y457383*
X458437D02*
X458267D01*
X457756Y457592*
X457415Y458011*
X457244Y458639*
Y458848*
X457415Y459477*
X457756Y459895*
X458267Y460105*
X458437*
X458437D02*
X458949Y459895D01*
X459290Y459477*
X459460Y458848*
X463466Y471983D02*
X463636Y472402D01*
X463977Y472820*
X464318Y473030*
X465000*
X465341Y472820*
X465682Y472402*
X465852Y471983*
X466023Y471355*
Y470308*
X465852Y469680*
X465682Y469261*
X465341Y468842*
X465000Y468633*
X464318*
X463977Y468842*
X463636Y469261*
X463466Y469680*
X461932Y472192D02*
X461591Y472402D01*
X461080Y473030*
Y468633*
X457159Y473030D02*
X458864Y468633D01*
X459545Y473030D02*
X457159D01*
X474716Y486983D02*
X474886Y487402D01*
X475227Y487820*
X475568Y488030*
X476250*
X476591Y487820*
X476932Y487402*
X477102Y486983*
X477273Y486355*
Y485308*
X477102Y484680*
X476932Y484261*
X476591Y483842*
X476250Y483633*
X475568*
X475227Y483842*
X474886Y484261*
X474716Y484680*
X473182Y487192D02*
X472841Y487402D01*
X472330Y488030*
Y483633*
X469943Y488030D02*
X470455Y487820D01*
X470625Y487402*
Y486983*
X470455Y486564*
X470114Y486355*
X469432Y486145*
X468920Y485936*
X468580Y485517*
X468409Y485098*
Y484470*
X468580Y484052*
X468750Y483842*
X469261Y483633*
X469943*
X470455Y483842*
X470625Y484052*
X470795Y484470*
Y485098*
X470625Y485517*
X470284Y485936*
X469773Y486145*
X469091Y486355*
X468750Y486564*
X468580Y486983*
Y487402*
X468750Y487820*
X469261Y488030*
X469943*
X591705Y381139D02*
X592141Y381260D01*
X592681Y381246*
X593055Y381105*
X593472Y380565*
X593515Y380168*
X593515D02*
X593392Y379642D01*
X593165Y379251*
X592772Y378732*
X591944Y378092*
X591342Y377842*
X590907Y377721*
X590367Y377735*
X589993Y377877*
X589576Y378416*
X589533Y378814*
X589656Y379340*
X589883Y379731*
X590663Y382488D02*
X590829Y382616D01*
X591056Y383007*
X591117Y383269*
X591074Y383667*
X590657Y384207*
X590283Y384348*
X590013Y384355*
X589578Y384234*
X589246Y383978*
X589019Y383587*
X588731Y382933*
X588117Y380304*
X586657Y382192*
X575733Y319517D02*
X576152Y319347D01*
X576570Y319006*
X576780Y318665*
Y317983*
X576570Y317642*
X576152Y317301*
X575733Y317131*
X575105Y316960*
X574058*
X573430Y317131*
X573011Y317301*
X572592Y317642*
X572383Y317983*
Y318665*
X572592Y319006*
X573011Y319347*
X573430Y319517*
X575733Y321222D02*
X575942D01*
X576361Y321392*
X576570Y321562*
X576570D02*
X576780Y321903D01*
Y322585*
X576570Y322926*
X576361Y323097*
X575942Y323267*
X575523*
X575105Y323097*
X574477Y322756*
X572383Y321051*
Y323437*
X575733Y325142D02*
X575942D01*
X576361Y325312*
X576361D02*
X576570Y325483D01*
X576780Y325824*
Y326506*
X576570Y326847*
X576361Y327017*
X575942Y327187*
X575942D02*
X575523D01*
X575523D02*
X575105Y327017D01*
X574477Y326676*
X572383Y324972*
Y327358*
X465733Y569517D02*
X466152Y569347D01*
X466570Y569006*
X466780Y568665*
Y567983*
X466570Y567642*
X466152Y567301*
X465733Y567131*
X465105Y566960*
X464058*
X463430Y567131*
X463011Y567301*
X462592Y567642*
X462383Y567983*
Y568665*
X462592Y569006*
X463011Y569347*
X463430Y569517*
X465733Y571222D02*
X465942D01*
X466361Y571392*
X466570Y571562*
X466570D02*
X466780Y571903D01*
Y572585*
X466570Y572926*
X466361Y573097*
X465942Y573267*
X465523*
X465105Y573097*
X464477Y572756*
X462383Y571051*
Y573437*
X466780Y577358D02*
X462383Y575653D01*
X466780Y574972D02*
Y577358D01*
X628233Y572017D02*
X628652Y571847D01*
X629070Y571506*
X629280Y571165*
Y570483*
X629070Y570142*
X628652Y569801*
X628233Y569631*
X627605Y569460*
X626558*
X625930Y569631*
X625511Y569801*
X625092Y570142*
X624883Y570483*
Y571165*
X625092Y571506*
X625511Y571847*
X625930Y572017*
X628233Y573722D02*
X628442D01*
X628861Y573892*
X629070Y574062*
X629070D02*
X629280Y574403D01*
Y575085*
X629070Y575426*
X628861Y575597*
X628442Y575767*
X628023*
X627605Y575597*
X626977Y575256*
X624883Y573551*
Y575937*
X629280Y578324D02*
X629070Y577812D01*
X629070D02*
X628652Y577642D01*
X628233*
X627814Y577812*
X627814D02*
X627605Y578153D01*
X627395Y578835*
X627186Y579347*
X626767Y579687*
X626767D02*
X626348Y579858D01*
X625720*
X625302Y579687*
X625302D02*
X625092Y579517D01*
X624883Y579006*
Y578324*
X625092Y577812*
X625092D02*
X625302Y577642D01*
X625720Y577472*
X626348*
X626767Y577642*
X627186Y577983*
X627395Y578494*
X627605Y579176*
X627814Y579517*
X628233Y579687*
X628233D02*
X628652D01*
X628652D02*
X629070Y579517D01*
X629280Y579006*
Y578324*
X535733Y489602D02*
X536152Y489432D01*
X536570Y489091*
X536780Y488750*
Y488068*
X536570Y487727*
X536152Y487386*
X535733Y487216*
X535105Y487045*
X534058*
X533430Y487216*
X533011Y487386*
X532592Y487727*
X532383Y488068*
Y488750*
X532592Y489091*
X533011Y489432*
X533430Y489602*
X535733Y491307D02*
X535942D01*
X536361Y491477*
X536570Y491648*
X536780Y491989*
Y492670*
X536570Y493011*
X536361Y493182*
X535942Y493352*
X535523*
X535105Y493182*
X534477Y492841*
X532383Y491136*
Y493523*
X535314Y497273D02*
X534686Y497102D01*
X534267Y496761*
X534058Y496250*
Y496080*
X534267Y495568*
X534686Y495227*
X535314Y495057*
X535523*
X536152Y495227*
X536570Y495568*
X536780Y496080*
Y496250*
X536570Y496761*
X536152Y497102*
X535314Y497273*
X534267*
X533220Y497102*
X532592Y496761*
X532383Y496250*
Y495909*
X532592Y495398*
X533011Y495227*
X388133Y337477D02*
X388552Y337307D01*
X388970Y336966*
X389180Y336625*
Y335943*
X388970Y335602*
X388552Y335261*
X388133Y335091*
X387505Y334920*
X386458*
X385830Y335091*
X385411Y335261*
X384992Y335602*
X384783Y335943*
Y336625*
X384992Y336966*
X385411Y337307*
X385830Y337477*
X389180Y339352D02*
Y341227D01*
X387505Y340205*
Y340716*
X387295Y341057*
X387086Y341227*
X386458Y341398*
X386039*
X385411Y341227*
X384992Y340886*
X384783Y340375*
Y339864*
X384992Y339352*
X385202Y339182*
X385620Y339011*
X448233Y384517D02*
X448652Y384347D01*
X449070Y384006*
X449280Y383665*
Y382983*
X449070Y382642*
X448652Y382301*
X448233Y382131*
X447605Y381960*
X446558*
X445930Y382131*
X445511Y382301*
X445092Y382642*
X444883Y382983*
Y383665*
X445092Y384006*
X445511Y384347*
X445930Y384517*
X449280Y386392D02*
Y388267D01*
X447605Y387244*
Y387756*
X447395Y388097*
X447186Y388267*
X446558Y388437*
X446558D02*
X446139D01*
X446139D02*
X445511Y388267D01*
X445092Y387926*
X444883Y387415*
Y386903*
X445092Y386392*
X445302Y386222*
X445720Y386051*
X449280Y390994D02*
X449070Y390483D01*
X448442Y390142*
X447395Y389972*
X446767*
X445720Y390142*
X445092Y390483*
X444883Y390994*
Y391335*
X445092Y391847*
X445720Y392187*
X445720D02*
X446767Y392358D01*
X447395*
X448442Y392187*
X448442D02*
X449070Y391847D01*
X449280Y391335*
Y390994*
X375733Y511284D02*
X376152Y511114D01*
X376570Y510773*
X376780Y510432*
Y509750*
X376570Y509409*
X376152Y509068*
X375733Y508898*
X375105Y508727*
X374058*
X373430Y508898*
X373011Y509068*
X372592Y509409*
X372383Y509750*
Y510432*
X372592Y510773*
X373011Y511114*
X373430Y511284*
X376780Y513159D02*
Y515034D01*
X375105Y514011*
Y514523*
X374895Y514864*
X374686Y515034*
X374058Y515205*
X373639*
X373011Y515034*
X372592Y514693*
X372383Y514182*
Y513670*
X372592Y513159*
X372802Y512989*
X373220Y512818*
X375942Y516739D02*
X376152Y517080D01*
X376780Y517591*
X372383*
X453233Y539517D02*
X453652Y539347D01*
X454070Y539006*
X454280Y538665*
Y537983*
X454070Y537642*
X453652Y537301*
X453233Y537131*
X452605Y536960*
X451558*
X450930Y537131*
X450511Y537301*
X450092Y537642*
X449883Y537983*
Y538665*
X450092Y539006*
X450511Y539347*
X450930Y539517*
X454280Y541392D02*
Y543267D01*
X452605Y542244*
Y542756*
X452395Y543097*
X452186Y543267*
X451558Y543437*
X451558D02*
X451139D01*
X451139D02*
X450511Y543267D01*
X450092Y542926*
X449883Y542415*
Y541903*
X450092Y541392*
X450302Y541222*
X450720Y541051*
X453233Y545142D02*
X453442D01*
X453861Y545312*
X453861D02*
X454070Y545483D01*
X454280Y545824*
Y546506*
X454070Y546847*
X453861Y547017*
X453442Y547187*
X453442D02*
X453023D01*
X453023D02*
X452605Y547017D01*
X451977Y546676*
X449883Y544972*
Y547358*
X463233Y539517D02*
X463652Y539347D01*
X464070Y539006*
X464280Y538665*
Y537983*
X464070Y537642*
X463652Y537301*
X463233Y537131*
X462605Y536960*
X461558*
X460930Y537131*
X460511Y537301*
X460092Y537642*
X459883Y537983*
Y538665*
X460092Y539006*
X460511Y539347*
X460930Y539517*
X464280Y541392D02*
Y543267D01*
X462605Y542244*
Y542756*
X462395Y543097*
X462186Y543267*
X461558Y543437*
X461558D02*
X461139D01*
X461139D02*
X460511Y543267D01*
X460092Y542926*
X459883Y542415*
Y541903*
X460092Y541392*
X460302Y541222*
X460720Y541051*
X464280Y545312D02*
Y547187D01*
X464280D02*
X462605Y546165D01*
Y546676*
X462395Y547017*
X462186Y547187*
X462186D02*
X461558Y547358D01*
X461139*
X460511Y547187*
X460511D02*
X460092Y546847D01*
X459883Y546335*
Y545824*
X460092Y545312*
X460092D02*
X460302Y545142D01*
X460720Y544972*
X498233Y586932D02*
X498652Y586761D01*
X499070Y586420*
X499280Y586080*
Y585398*
X499070Y585057*
X498652Y584716*
X498233Y584545*
X497605Y584375*
X496558*
X495930Y584545*
X495511Y584716*
X495092Y585057*
X494883Y585398*
Y586080*
X495092Y586420*
X495511Y586761*
X495930Y586932*
X499280Y588807D02*
Y590682D01*
X497605Y589659*
Y590170*
X497395Y590511*
X497186Y590682*
X496558Y590852*
X496139*
X495511Y590682*
X495092Y590341*
X494883Y589830*
Y589318*
X495092Y588807*
X495302Y588636*
X495720Y588466*
X499280Y594091D02*
X496348Y592386D01*
Y594943*
X499280Y594091D02*
X494883D01*
X513233Y594432D02*
X513652Y594261D01*
X514070Y593920*
X514280Y593580*
Y592898*
X514070Y592557*
X513652Y592216*
X513233Y592045*
X512605Y591875*
X511558*
X510930Y592045*
X510511Y592216*
X510092Y592557*
X509883Y592898*
Y593580*
X510092Y593920*
X510511Y594261*
X510930Y594432*
X514280Y596307D02*
Y598182D01*
X512605Y597159*
Y597670*
X512395Y598011*
X512186Y598182*
X511558Y598352*
X511139*
X510511Y598182*
X510092Y597841*
X509883Y597330*
Y596818*
X510092Y596307*
X510302Y596136*
X510720Y595966*
X514280Y602102D02*
Y600398D01*
X512395Y600227*
X512605Y600398*
X512814Y600909*
Y601420*
X512605Y601932*
X512186Y602273*
X511558Y602443*
X511139Y602273*
X510511Y602102*
X510092Y601761*
X509883Y601250*
Y600739*
X510092Y600227*
X510302Y600057*
X510720Y599886*
X573233Y594602D02*
X573652Y594432D01*
X574070Y594091*
X574280Y593750*
Y593068*
X574070Y592727*
X573652Y592386*
X573233Y592216*
X572605Y592045*
X571558*
X570930Y592216*
X570511Y592386*
X570092Y592727*
X569883Y593068*
Y593750*
X570092Y594091*
X570511Y594432*
X570930Y594602*
X574280Y596477D02*
Y598352D01*
X572605Y597330*
Y597841*
X572395Y598182*
X572186Y598352*
X571558Y598523*
X571139*
X570511Y598352*
X570092Y598011*
X569883Y597500*
Y596989*
X570092Y596477*
X570302Y596307*
X570720Y596136*
X573652Y602102D02*
X574070Y601932D01*
X574280Y601420*
Y601080*
X574070Y600568*
X573442Y600227*
X572395Y600057*
X571348*
X570511Y600227*
X570092Y600568*
X569883Y601080*
Y601250*
X570092Y601761*
X570511Y602102*
X571139Y602273*
X571348*
X571977Y602102*
X572395Y601761*
X572605Y601250*
Y601080*
X572395Y600568*
X571977Y600227*
X571348Y600057*
X598233Y594517D02*
X598652Y594347D01*
X599070Y594006*
X599280Y593665*
Y592983*
X599070Y592642*
X598652Y592301*
X598233Y592131*
X597605Y591960*
X596558*
X595930Y592131*
X595511Y592301*
X595092Y592642*
X594883Y592983*
Y593665*
X595092Y594006*
X595511Y594347*
X595930Y594517*
X599280Y596392D02*
Y598267D01*
X597605Y597244*
Y597756*
X597395Y598097*
X597186Y598267*
X596558Y598437*
X596558D02*
X596139D01*
X596139D02*
X595511Y598267D01*
X595092Y597926*
X594883Y597415*
Y596903*
X595092Y596392*
X595302Y596222*
X595720Y596051*
X599280Y602358D02*
X594883Y600653D01*
X599280Y599972D02*
Y602358D01*
X598233Y574517D02*
X598652Y574347D01*
X599070Y574006*
X599280Y573665*
Y572983*
X599070Y572642*
X598652Y572301*
X598233Y572131*
X597605Y571960*
X596558*
X595930Y572131*
X595511Y572301*
X595092Y572642*
X594883Y572983*
Y573665*
X595092Y574006*
X595511Y574347*
X595930Y574517*
X599280Y576392D02*
Y578267D01*
X597605Y577244*
Y577756*
X597395Y578097*
X597186Y578267*
X596558Y578437*
X596558D02*
X596139D01*
X596139D02*
X595511Y578267D01*
X595092Y577926*
X594883Y577415*
Y576903*
X595092Y576392*
X595302Y576222*
X595720Y576051*
X599280Y580824D02*
X599070Y580312D01*
X599070D02*
X598652Y580142D01*
X598233*
X597814Y580312*
X597814D02*
X597605Y580653D01*
X597395Y581335*
X597186Y581847*
X596767Y582187*
X596767D02*
X596348Y582358D01*
X595720*
X595302Y582187*
X595302D02*
X595092Y582017D01*
X594883Y581506*
Y580824*
X595092Y580312*
X595092D02*
X595302Y580142D01*
X595720Y579972*
X596348*
X596767Y580142*
X597186Y580483*
X597395Y580994*
X597605Y581676*
X597814Y582017*
X598233Y582187*
X598233D02*
X598652D01*
X598652D02*
X599070Y582017D01*
X599280Y581506*
Y580824*
X515733Y487102D02*
X516152Y486932D01*
X516570Y486591*
X516780Y486250*
Y485568*
X516570Y485227*
X516152Y484886*
X515733Y484716*
X515105Y484545*
X514058*
X513430Y484716*
X513011Y484886*
X512592Y485227*
X512383Y485568*
Y486250*
X512592Y486591*
X513011Y486932*
X513430Y487102*
X516780Y488977D02*
Y490852D01*
X515105Y489830*
Y490341*
X514895Y490682*
X514686Y490852*
X514058Y491023*
X513639*
X513011Y490852*
X512592Y490511*
X512383Y490000*
Y489489*
X512592Y488977*
X512802Y488807*
X513220Y488636*
X515314Y494773D02*
X514686Y494602D01*
X514267Y494261*
X514058Y493750*
Y493580*
X514267Y493068*
X514686Y492727*
X515314Y492557*
X515523*
X516152Y492727*
X516570Y493068*
X516780Y493580*
Y493750*
X516570Y494261*
X516152Y494602*
X515314Y494773*
X514267*
X513220Y494602*
X512592Y494261*
X512383Y493750*
Y493409*
X512592Y492898*
X513011Y492727*
X388233Y385392D02*
X388652Y385222D01*
X389070Y384881*
X389280Y384540*
Y383858*
X389070Y383517*
X388652Y383176*
X388233Y383006*
X387605Y382835*
X386558*
X385930Y383006*
X385511Y383176*
X385092Y383517*
X384883Y383858*
Y384540*
X385092Y384881*
X385511Y385222*
X385930Y385392*
X389280Y388631D02*
X386348Y386926D01*
Y389483*
X389280Y388631D02*
X384883D01*
X505733Y409432D02*
X506152Y409261D01*
X506570Y408920*
X506780Y408580*
Y407898*
X506570Y407557*
X506152Y407216*
X505733Y407045*
X505105Y406875*
X504058*
X503430Y407045*
X503011Y407216*
X502592Y407557*
X502383Y407898*
Y408580*
X502592Y408920*
X503011Y409261*
X503430Y409432*
X506780Y412670D02*
X503848Y410966D01*
Y413523*
X506780Y412670D02*
X502383D01*
X506780Y416080D02*
X506570Y415568D01*
X505942Y415227*
X504895Y415057*
X504267*
X503220Y415227*
X502592Y415568*
X502383Y416080*
Y416420*
X502592Y416932*
X503220Y417273*
X504267Y417443*
X504895*
X505942Y417273*
X506570Y416932*
X506780Y416420*
Y416080*
X505733Y365199D02*
X506152Y365028D01*
X506570Y364688*
X506570D02*
X506780Y364347D01*
Y363665*
X506570Y363324*
X506152Y362983*
X505733Y362813*
X505733D02*
X505105Y362642D01*
X504058*
X503430Y362813*
X503430D02*
X503011Y362983D01*
X502592Y363324*
X502383Y363665*
Y364347*
X502592Y364688*
X502592D02*
X503011Y365028D01*
X503430Y365199*
X506780Y368438D02*
X503848Y366733D01*
Y369290*
X506780Y368438D02*
X502383D01*
X505942Y370824D02*
X506152Y371165D01*
X506780Y371676*
X502383*
X419483Y351932D02*
X419902Y351761D01*
X420320Y351420*
X420530Y351080*
Y350398*
X420320Y350057*
X419902Y349716*
X419483Y349545*
X418855Y349375*
X417808*
X417180Y349545*
X416761Y349716*
X416342Y350057*
X416133Y350398*
Y351080*
X416342Y351420*
X416761Y351761*
X417180Y351932*
X420530Y355170D02*
X417598Y353466D01*
Y356023*
X420530Y355170D02*
X416133D01*
X419483Y357727D02*
X419692D01*
X420111Y357898*
X420320Y358068*
X420530Y358409*
Y359091*
X420320Y359432*
X420111Y359602*
X419692Y359773*
X419273*
X418855Y359602*
X418227Y359261*
X416133Y357557*
Y359943*
X365733Y509432D02*
X366152Y509261D01*
X366570Y508920*
X366780Y508580*
Y507898*
X366570Y507557*
X366152Y507216*
X365733Y507045*
X365105Y506875*
X364058*
X363430Y507045*
X363011Y507216*
X362592Y507557*
X362383Y507898*
Y508580*
X362592Y508920*
X363011Y509261*
X363430Y509432*
X366780Y512670D02*
X363848Y510966D01*
Y513523*
X366780Y512670D02*
X362383D01*
X366780Y515398D02*
Y517273D01*
X365105Y516250*
Y516761*
X364895Y517102*
X364686Y517273*
X364058Y517443*
X363639*
X363011Y517273*
X362592Y516932*
X362383Y516420*
Y515909*
X362592Y515398*
X362802Y515227*
X363220Y515057*
X350653Y489483D02*
X350824Y489902D01*
X351165Y490320*
X351506Y490530*
X352187*
X352528Y490320*
X352869Y489902*
X353040Y489483*
X353210Y488855*
Y487808*
X353040Y487180*
X352869Y486761*
X352528Y486342*
X352187Y486133*
X351506*
X351165Y486342*
X350824Y486761*
X350653Y487180*
X347415Y490530D02*
X349119Y487598D01*
X346562*
X347415Y490530D02*
Y486133D01*
X343324Y490530D02*
X345028Y487598D01*
X342472*
X343324Y490530D02*
Y486133D01*
X485653Y393233D02*
X485824Y393652D01*
X486165Y394070*
X486506Y394280*
X487187*
X487528Y394070*
X487869Y393652*
X488040Y393233*
X488210Y392605*
Y391558*
X488040Y390930*
X487869Y390511*
X487528Y390092*
X487187Y389883*
X486506*
X486165Y390092*
X485824Y390511*
X485653Y390930*
X482415Y394280D02*
X484119Y391348D01*
X481562*
X482415Y394280D02*
Y389883D01*
X477812Y394280D02*
X479517D01*
X479687Y392395*
X479517Y392605*
X479006Y392814*
X478494*
X477983Y392605*
X477642Y392186*
X477472Y391558*
X477642Y391139*
X477812Y390511*
X478153Y390092*
X478665Y389883*
X479176*
X479687Y390092*
X479858Y390302*
X480028Y390720*
X458233Y384517D02*
X458652Y384347D01*
X459070Y384006*
X459280Y383665*
Y382983*
X459070Y382642*
X458652Y382301*
X458233Y382131*
X457605Y381960*
X456558*
X455930Y382131*
X455511Y382301*
X455092Y382642*
X454883Y382983*
Y383665*
X455092Y384006*
X455511Y384347*
X455930Y384517*
X459280Y387756D02*
X456348Y386051D01*
Y388608*
X459280Y387756D02*
X454883D01*
X458652Y392187D02*
X459070Y392017D01*
X459280Y391506*
Y391165*
X459070Y390653*
X458442Y390312*
X458442D02*
X457395Y390142D01*
X456348*
X455511Y390312*
X455511D02*
X455092Y390653D01*
X454883Y391165*
Y391335*
X455092Y391847*
X455511Y392187*
X455511D02*
X456139Y392358D01*
X456348*
X456977Y392187*
X456977D02*
X457395Y391847D01*
X457605Y391335*
Y391165*
X457395Y390653*
X456977Y390312*
X456977D02*
X456348Y390142D01*
X455733Y639432D02*
X456152Y639261D01*
X456570Y638920*
X456780Y638580*
Y637898*
X456570Y637557*
X456152Y637216*
X455733Y637045*
X455105Y636875*
X454058*
X453430Y637045*
X453011Y637216*
X452592Y637557*
X452383Y637898*
Y638580*
X452592Y638920*
X453011Y639261*
X453430Y639432*
X456780Y642670D02*
X453848Y640966D01*
Y643523*
X456780Y642670D02*
X452383D01*
X456780Y647443D02*
X452383Y645739D01*
X456780Y645057D02*
Y647443D01*
X550733Y309517D02*
X551152Y309347D01*
X551570Y309006*
X551780Y308665*
Y307983*
X551570Y307642*
X551152Y307301*
X550733Y307131*
X550105Y306960*
X549058*
X548430Y307131*
X548011Y307301*
X547592Y307642*
X547383Y307983*
Y308665*
X547592Y309006*
X548011Y309347*
X548430Y309517*
X551780Y312756D02*
X548848Y311051D01*
Y313608*
X551780Y312756D02*
X547383D01*
X550314Y317358D02*
X549686Y317187D01*
X549686D02*
X549267Y316847D01*
X549058Y316335*
Y316165*
X549267Y315653*
X549686Y315312*
X549686D02*
X550314Y315142D01*
X550523*
X551152Y315312*
X551152D02*
X551570Y315653D01*
X551780Y316165*
Y316335*
X551570Y316847*
X551152Y317187*
X551152D02*
X550314Y317358D01*
X549267*
X548220Y317187*
X548220D02*
X547592Y316847D01*
X547383Y316335*
Y315994*
X547592Y315483*
X548011Y315312*
X378233Y385142D02*
X378652Y384972D01*
X379070Y384631*
X379280Y384290*
Y383608*
X379070Y383267*
X378652Y382926*
X378233Y382756*
X377605Y382585*
X376558*
X375930Y382756*
X375511Y382926*
X375092Y383267*
X374883Y383608*
Y384290*
X375092Y384631*
X375511Y384972*
X375930Y385142*
X379280Y388892D02*
Y387187D01*
X379280D02*
X377395Y387017D01*
X377605Y387187*
X377605D02*
X377814Y387699D01*
Y388210*
X377605Y388722*
X377186Y389062*
X377186D02*
X376558Y389233D01*
X376139Y389062*
X376139D02*
X375511Y388892D01*
X375092Y388551*
X374883Y388040*
Y387528*
X375092Y387017*
X375302Y386847*
X375720Y386676*
X395733Y512932D02*
X396152Y512761D01*
X396570Y512420*
X396780Y512080*
Y511398*
X396570Y511057*
X396152Y510716*
X395733Y510545*
X395105Y510375*
X394058*
X393430Y510545*
X393011Y510716*
X392592Y511057*
X392383Y511398*
Y512080*
X392592Y512420*
X393011Y512761*
X393430Y512932*
X396780Y516682D02*
Y514977D01*
X394895Y514807*
X395105Y514977*
X395314Y515489*
Y516000*
X395105Y516511*
X394686Y516852*
X394058Y517023*
X393639Y516852*
X393011Y516682*
X392592Y516341*
X392383Y515830*
Y515318*
X392592Y514807*
X392802Y514636*
X393220Y514466*
X396780Y519580D02*
X396570Y519068D01*
X395942Y518727*
X394895Y518557*
X394267*
X393220Y518727*
X392592Y519068*
X392383Y519580*
Y519920*
X392592Y520432*
X393220Y520773*
X394267Y520943*
X394895*
X395942Y520773*
X396570Y520432*
X396780Y519920*
Y519580*
X428733Y384699D02*
X429152Y384528D01*
X429570Y384188*
X429570D02*
X429780Y383847D01*
Y383165*
X429570Y382824*
X429152Y382483*
X428733Y382313*
X428733D02*
X428105Y382142D01*
X427058*
X426430Y382313*
X426430D02*
X426011Y382483D01*
X425592Y382824*
X425383Y383165*
Y383847*
X425592Y384188*
X425592D02*
X426011Y384528D01*
X426430Y384699*
X429780Y388449D02*
Y386744D01*
X427895Y386574*
X428105Y386744*
X428314Y387256*
Y387767*
X428105Y388278*
X427686Y388619*
X427058Y388790*
X426639Y388619*
X426011Y388449*
X425592Y388108*
X425383Y387597*
Y387085*
X425592Y386574*
X425802Y386403*
X426220Y386233*
X428942Y390324D02*
X429152Y390665D01*
X429780Y391176*
X425383*
X489068Y420733D02*
X489239Y421152D01*
X489580Y421570*
X489920Y421780*
X490602*
X490943Y421570*
X491284Y421152*
X491455Y420733*
X491625Y420105*
Y419058*
X491455Y418430*
X491284Y418011*
X490943Y417592*
X490602Y417383*
X489920*
X489580Y417592*
X489239Y418011*
X489068Y418430*
X485318Y421780D02*
X487023D01*
X487193Y419895*
X487023Y420105*
X486511Y420314*
X486000*
X485489Y420105*
X485148Y419686*
X484977Y419058*
X485148Y418639*
X485318Y418011*
X485659Y417592*
X486170Y417383*
X486682*
X487193Y417592*
X487364Y417802*
X487534Y418220*
X483273Y420733D02*
Y420942D01*
X483102Y421361*
X482932Y421570*
X482591Y421780*
X481909*
X481568Y421570*
X481398Y421361*
X481227Y420942*
Y420523*
X481398Y420105*
X481739Y419477*
X483443Y417383*
X481057*
X362403Y458705D02*
X362573Y459124D01*
X362914Y459543*
X363255Y459752*
X363937*
X364278Y459543*
X364619Y459124*
X364789Y458705*
X364960Y458077*
Y457030*
X364789Y456402*
X364619Y455983*
X364278Y455565*
X363937Y455355*
X363255*
X362914Y455565*
X362573Y455983*
X362403Y456402*
X358653Y459752D02*
X360357D01*
X360528Y457868*
X360357Y458077*
X359846Y458287*
X359846D02*
X359335D01*
X359335D02*
X358823Y458077D01*
X358482Y457658*
X358312Y457030*
X358482Y456612*
X358482D02*
X358653Y455983D01*
X358994Y455565*
X359505Y455355*
X360016*
X360528Y455565*
X360698Y455774*
X360869Y456193*
X356437Y459752D02*
X354562D01*
X355585Y458077*
X355073*
X354732Y457868*
X354562Y457658*
X354391Y457030*
Y456612*
X354391D02*
X354562Y455983D01*
X354903Y455565*
X355414Y455355*
X355926*
X356437Y455565*
X356607Y455774*
X356778Y456193*
X405733Y509347D02*
X406152Y509176D01*
X406570Y508835*
X406780Y508494*
Y507813*
X406780D02*
X406570Y507472D01*
X406152Y507131*
X405733Y506960*
X405105Y506790*
X404058*
X403430Y506960*
X403011Y507131*
X402592Y507472*
X402383Y507813*
X402383D02*
Y508494D01*
X402592Y508835*
X403011Y509176*
X403430Y509347*
X406780Y513097D02*
Y511392D01*
X404895Y511222*
X405105Y511392*
X405314Y511903*
Y512415*
X405105Y512926*
X404686Y513267*
X404058Y513438*
X404058D02*
X403639Y513267D01*
X403011Y513097*
X402592Y512756*
X402383Y512244*
Y511733*
X402592Y511222*
X402802Y511051*
X403220Y510881*
X406780Y516676D02*
X403848Y514972D01*
Y517528*
X406780Y516676D02*
X402383D01*
X363488Y448548D02*
X363659Y448967D01*
X363999Y449385*
X364340Y449595*
X365022*
X365363Y449385*
X365704Y448967*
X365874Y448548*
X366045Y447920*
Y446873*
X365874Y446245*
X365704Y445826*
X365363Y445407*
X365022Y445198*
X364340*
X363999Y445407*
X363659Y445826*
X363488Y446245*
X359738Y449595D02*
X361443D01*
X361613Y447710*
X361443Y447920*
X360931Y448129*
X360420*
X359909Y447920*
X359568Y447501*
X359397Y446873*
X359568Y446454*
X359738Y445826*
X360079Y445407*
X360590Y445198*
X361102*
X361613Y445407*
X361784Y445617*
X361954Y446035*
X355647Y449595D02*
X357352D01*
X357522Y447710*
X357352Y447920*
X356840Y448129*
X356329*
X355818Y447920*
X355477Y447501*
X355306Y446873*
X355477Y446454*
X355647Y445826*
X355988Y445407*
X356499Y445198*
X357011*
X357522Y445407*
X357693Y445617*
X357863Y446035*
X438233Y384517D02*
X438652Y384347D01*
X439070Y384006*
X439280Y383665*
Y382983*
X439070Y382642*
X438652Y382301*
X438233Y382131*
X437605Y381960*
X436558*
X435930Y382131*
X435511Y382301*
X435092Y382642*
X434883Y382983*
Y383665*
X435092Y384006*
X435511Y384347*
X435930Y384517*
X439280Y388267D02*
Y386562D01*
X439280D02*
X437395Y386392D01*
X437605Y386562*
X437605D02*
X437814Y387074D01*
Y387585*
X437605Y388097*
X437186Y388437*
X437186D02*
X436558Y388608D01*
X436139Y388437*
X436139D02*
X435511Y388267D01*
X435092Y387926*
X434883Y387415*
Y386903*
X435092Y386392*
X435302Y386222*
X435720Y386051*
X438652Y392187D02*
X439070Y392017D01*
X439280Y391506*
Y391165*
X439070Y390653*
X438442Y390312*
X438442D02*
X437395Y390142D01*
X436348*
X435511Y390312*
X435511D02*
X435092Y390653D01*
X434883Y391165*
Y391335*
X435092Y391847*
X435511Y392187*
X435511D02*
X436139Y392358D01*
X436348*
X436977Y392187*
X436977D02*
X437395Y391847D01*
X437605Y391335*
Y391165*
X437395Y390653*
X436977Y390312*
X436977D02*
X436348Y390142D01*
X487568Y411233D02*
X487739Y411652D01*
X488080Y412070*
X488420Y412280*
X489102*
X489443Y412070*
X489784Y411652*
X489955Y411233*
X490125Y410605*
Y409558*
X489955Y408930*
X489784Y408511*
X489443Y408092*
X489102Y407883*
X488420*
X488080Y408092*
X487739Y408511*
X487568Y408930*
X483818Y412280D02*
X485523D01*
X485693Y410395*
X485523Y410605*
X485011Y410814*
X484500*
X483989Y410605*
X483648Y410186*
X483477Y409558*
X483648Y409139*
X483818Y408511*
X484159Y408092*
X484670Y407883*
X485182*
X485693Y408092*
X485864Y408302*
X486034Y408720*
X479557Y412280D02*
X481261Y407883D01*
X481943Y412280D02*
X479557D01*
X418433Y384432D02*
X418852Y384261D01*
X419270Y383920*
X419480Y383580*
Y382898*
X419270Y382557*
X418852Y382216*
X418433Y382045*
X417805Y381875*
X416758*
X416130Y382045*
X415711Y382216*
X415292Y382557*
X415083Y382898*
Y383580*
X415292Y383920*
X415711Y384261*
X416130Y384432*
X419480Y388182D02*
Y386477D01*
X417595Y386307*
X417805Y386477*
X418014Y386989*
Y387500*
X417805Y388011*
X417386Y388352*
X416758Y388523*
X416339Y388352*
X415711Y388182*
X415292Y387841*
X415083Y387330*
Y386818*
X415292Y386307*
X415502Y386136*
X415920Y385966*
X419480Y390909D02*
X419270Y390398D01*
X418852Y390227*
X418433*
X418014Y390398*
X417805Y390739*
X417595Y391420*
X417386Y391932*
X416967Y392273*
X416548Y392443*
X415920*
X415502Y392273*
X415292Y392102*
X415083Y391591*
Y390909*
X415292Y390398*
X415502Y390227*
X415920Y390057*
X416548*
X416967Y390227*
X417386Y390568*
X417595Y391080*
X417805Y391761*
X418014Y392102*
X418433Y392273*
X418852*
X419270Y392102*
X419480Y391591*
Y390909*
X487983Y430733D02*
X488153Y431152D01*
X488494Y431570*
X488835Y431780*
X489517*
X489858Y431570*
X490199Y431152*
X490369Y430733*
X490540Y430105*
Y429058*
X490369Y428430*
X490199Y428011*
X489858Y427592*
X489517Y427383*
X488835*
X488494Y427592*
X488153Y428011*
X487983Y428430*
X484233Y431780D02*
X485937D01*
X485937D02*
X486108Y429895D01*
X485937Y430105*
X485937D02*
X485426Y430314D01*
X484915*
X484403Y430105*
X484062Y429686*
X484062D02*
X483892Y429058D01*
X484062Y428639*
X484062D02*
X484233Y428011D01*
X484574Y427592*
X485085Y427383*
X485597*
X486108Y427592*
X486278Y427802*
X486449Y428220*
X480142Y430314D02*
X480312Y429686D01*
X480312D02*
X480653Y429267D01*
X481165Y429058*
X481335*
X481847Y429267*
X482187Y429686*
X482187D02*
X482358Y430314D01*
Y430523*
X482187Y431152*
X482187D02*
X481847Y431570D01*
X481335Y431780*
X481165*
X480653Y431570*
X480312Y431152*
X480312D02*
X480142Y430314D01*
Y429267*
X480312Y428220*
X480312D02*
X480653Y427592D01*
X481165Y427383*
X481506*
X482017Y427592*
X482187Y428011*
X368833Y384662D02*
X369252Y384492D01*
X369670Y384151*
X369880Y383810*
Y383128*
X369670Y382787*
X369670D02*
X369252Y382447D01*
X368833Y382276*
X368205Y382106*
X367158*
X366530Y382276*
X366111Y382447*
X365692Y382787*
X365692D02*
X365483Y383128D01*
Y383810*
X365692Y384151*
X366111Y384492*
X366530Y384662*
X369252Y388242D02*
X369670Y388072D01*
X369880Y387560*
Y387219*
X369670Y386708*
X369042Y386367*
X367995Y386197*
X366948*
X366111Y386367*
X365692Y386708*
X365483Y387219*
Y387390*
X365692Y387901*
X366111Y388242*
X366739Y388412*
X366739D02*
X366948D01*
X366948D02*
X367577Y388242D01*
X367995Y387901*
X368205Y387390*
Y387219*
X367995Y386708*
X367577Y386367*
X366948Y386197*
X363232Y466894D02*
X363403Y467313D01*
X363744Y467732*
X364085Y467941*
X364766*
X365107Y467732*
X365448Y467313*
X365619Y466894*
X365789Y466266*
Y465219*
X365619Y464591*
X365448Y464172*
X365107Y463754*
X364766Y463544*
X364085*
X363744Y463754*
X363403Y464172*
X363232Y464591*
X359653Y467313D02*
X359823Y467732D01*
X360335Y467941*
X360676*
X361187Y467732*
X361528Y467104*
X361698Y466057*
Y465010*
X361528Y464172*
X361187Y463754*
X360676Y463544*
X360505*
X359994Y463754*
X359653Y464172*
X359482Y464800*
Y465010*
X359653Y465638*
X359994Y466057*
X360505Y466266*
X360676*
X361187Y466057*
X361528Y465638*
X361698Y465010*
X356926Y467941D02*
X357437Y467732D01*
X357778Y467104*
X357948Y466057*
Y465429*
X357778Y464382*
X357437Y463754*
X356926Y463544*
X356585*
X356073Y463754*
X355732Y464382*
X355562Y465429*
Y466057*
X355732Y467104*
X356073Y467732*
X356585Y467941*
X356926*
X385733Y510369D02*
X386152Y510199D01*
X386570Y509858*
X386780Y509517*
Y508835*
X386570Y508494*
X386152Y508153*
X385733Y507983*
X385105Y507813*
X385105D02*
X384058D01*
X384058D02*
X383430Y507983D01*
X383011Y508153*
X382592Y508494*
X382383Y508835*
Y509517*
X382592Y509858*
X383011Y510199*
X383430Y510369*
X386152Y513949D02*
X386570Y513778D01*
X386780Y513267*
Y512926*
X386570Y512415*
X385942Y512074*
X384895Y511903*
X383848*
X383011Y512074*
X382592Y512415*
X382383Y512926*
Y513097*
X382592Y513608*
X383011Y513949*
X383639Y514119*
X383848*
X384477Y513949*
X384895Y513608*
X385105Y513097*
Y512926*
X384895Y512415*
X384477Y512074*
X383848Y511903*
X385942Y515653D02*
X386152Y515994D01*
X386780Y516506*
X382383*
X362898Y428233D02*
X363068Y428652D01*
X363409Y429070*
X363750Y429280*
X364432*
X364773Y429070*
X365114Y428652*
X365284Y428233*
X365455Y427605*
Y426558*
X365284Y425930*
X365114Y425511*
X364773Y425092*
X364432Y424883*
X363750*
X363409Y425092*
X363068Y425511*
X362898Y425930*
X359318Y428652D02*
X359489Y429070D01*
X360000Y429280*
X360341*
X360852Y429070*
X361193Y428442*
X361364Y427395*
Y426348*
X361193Y425511*
X360852Y425092*
X360341Y424883*
X360170*
X359659Y425092*
X359318Y425511*
X359148Y426139*
Y426348*
X359318Y426977*
X359659Y427395*
X360170Y427605*
X360341*
X360852Y427395*
X361193Y426977*
X361364Y426348*
X357443Y428233D02*
Y428442D01*
X357273Y428861*
X357102Y429070*
X356761Y429280*
X356080*
X355739Y429070*
X355568Y428861*
X355398Y428442*
Y428023*
X355568Y427605*
X355909Y426977*
X357614Y424883*
X355227*
X362898Y438233D02*
X363068Y438652D01*
X363409Y439070*
X363750Y439280*
X364432*
X364773Y439070*
X365114Y438652*
X365284Y438233*
X365455Y437605*
Y436558*
X365284Y435930*
X365114Y435511*
X364773Y435092*
X364432Y434883*
X363750*
X363409Y435092*
X363068Y435511*
X362898Y435930*
X359318Y438652D02*
X359489Y439070D01*
X360000Y439280*
X360341*
X360852Y439070*
X361193Y438442*
X361364Y437395*
Y436348*
X361193Y435511*
X360852Y435092*
X360341Y434883*
X360170*
X359659Y435092*
X359318Y435511*
X359148Y436139*
Y436348*
X359318Y436977*
X359659Y437395*
X360170Y437605*
X360341*
X360852Y437395*
X361193Y436977*
X361364Y436348*
X357273Y439280D02*
X355398D01*
X356420Y437605*
X355909*
X355568Y437395*
X355398Y437186*
X355227Y436558*
Y436139*
X355398Y435511*
X355739Y435092*
X356250Y434883*
X356761*
X357273Y435092*
X357443Y435302*
X357614Y435720*
X398233Y384517D02*
X398652Y384347D01*
X399070Y384006*
X399280Y383665*
Y382983*
X399070Y382642*
X398652Y382301*
X398233Y382131*
X397605Y381960*
X396558*
X395930Y382131*
X395511Y382301*
X395092Y382642*
X394883Y382983*
Y383665*
X395092Y384006*
X395511Y384347*
X395930Y384517*
X398652Y388097D02*
X399070Y387926D01*
X399280Y387415*
Y387074*
X399070Y386562*
X399070D02*
X398442Y386222D01*
X397395Y386051*
X396348*
X395511Y386222*
X395092Y386562*
X395092D02*
X394883Y387074D01*
Y387244*
X395092Y387756*
X395511Y388097*
X396139Y388267*
X396348*
X396977Y388097*
X397395Y387756*
X397605Y387244*
Y387074*
X397395Y386562*
X397395D02*
X396977Y386222D01*
X396348Y386051*
X399280Y391506D02*
X396348Y389801D01*
Y392358*
X399280Y391506D02*
X394883D01*
X408233Y384517D02*
X408652Y384347D01*
X409070Y384006*
X409280Y383665*
Y382983*
X409070Y382642*
X408652Y382301*
X408233Y382131*
X407605Y381960*
X406558*
X405930Y382131*
X405511Y382301*
X405092Y382642*
X404883Y382983*
Y383665*
X405092Y384006*
X405511Y384347*
X405930Y384517*
X408652Y388097D02*
X409070Y387926D01*
X409280Y387415*
Y387074*
X409070Y386562*
X409070D02*
X408442Y386222D01*
X407395Y386051*
X406348*
X405511Y386222*
X405092Y386562*
X405092D02*
X404883Y387074D01*
Y387244*
X405092Y387756*
X405511Y388097*
X406139Y388267*
X406348*
X406977Y388097*
X407395Y387756*
X407605Y387244*
Y387074*
X407395Y386562*
X407395D02*
X406977Y386222D01*
X406348Y386051*
X409280Y392017D02*
Y390312D01*
X409280D02*
X407395Y390142D01*
X407605Y390312*
X407605D02*
X407814Y390824D01*
Y391335*
X407605Y391847*
X407186Y392187*
X407186D02*
X406558Y392358D01*
X406139Y392187*
X406139D02*
X405511Y392017D01*
X405092Y391676*
X404883Y391165*
Y390653*
X405092Y390142*
X405302Y389972*
X405720Y389801*
X487812Y440733D02*
X487983Y441152D01*
X488324Y441570*
X488665Y441780*
X489347*
X489687Y441570*
X489687D02*
X490028Y441152D01*
X490199Y440733*
X490369Y440105*
Y439058*
X490199Y438430*
X490028Y438011*
X489687Y437592*
X489687D02*
X489347Y437383D01*
X488665*
X488324Y437592*
X487983Y438011*
X487812Y438430*
X484233Y441152D02*
X484403Y441570D01*
X484915Y441780*
X485256*
X485767Y441570*
X486108Y440942*
X486278Y439895*
Y438848*
X486108Y438011*
X485767Y437592*
X485256Y437383*
X485085*
X484574Y437592*
X484233Y438011*
X484062Y438639*
X484062D02*
Y438848D01*
X484062D02*
X484233Y439477D01*
X484574Y439895*
X485085Y440105*
X485256*
X485767Y439895*
X486108Y439477*
X486278Y438848*
X480483Y441152D02*
X480653Y441570D01*
X481165Y441780*
X481506*
X482017Y441570*
X482358Y440942*
X482528Y439895*
Y438848*
X482358Y438011*
X482017Y437592*
X481506Y437383*
X481335*
X480824Y437592*
X480483Y438011*
X480312Y438639*
X480312D02*
Y438848D01*
X480312D02*
X480483Y439477D01*
X480824Y439895*
X481335Y440105*
X481506*
X482017Y439895*
X482358Y439477*
X482528Y438848*
X487898Y450733D02*
X488068Y451152D01*
X488409Y451570*
X488750Y451780*
X489432*
X489773Y451570*
X490114Y451152*
X490284Y450733*
X490455Y450105*
Y449058*
X490284Y448430*
X490114Y448011*
X489773Y447592*
X489432Y447383*
X488750*
X488409Y447592*
X488068Y448011*
X487898Y448430*
X484318Y451152D02*
X484489Y451570D01*
X485000Y451780*
X485341*
X485852Y451570*
X486193Y450942*
X486364Y449895*
Y448848*
X486193Y448011*
X485852Y447592*
X485341Y447383*
X485170*
X484659Y447592*
X484318Y448011*
X484148Y448639*
Y448848*
X484318Y449477*
X484659Y449895*
X485170Y450105*
X485341*
X485852Y449895*
X486193Y449477*
X486364Y448848*
X480227Y451780D02*
X481932Y447383D01*
X482614Y451780D02*
X480227D01*
X415733Y509602D02*
X416152Y509432D01*
X416570Y509091*
X416780Y508750*
Y508068*
X416570Y507727*
X416152Y507386*
X415733Y507216*
X415105Y507045*
X414058*
X413430Y507216*
X413011Y507386*
X412592Y507727*
X412383Y508068*
Y508750*
X412592Y509091*
X413011Y509432*
X413430Y509602*
X416152Y513182D02*
X416570Y513011D01*
X416780Y512500*
Y512159*
X416570Y511648*
X415942Y511307*
X414895Y511136*
X413848*
X413011Y511307*
X412592Y511648*
X412383Y512159*
Y512330*
X412592Y512841*
X413011Y513182*
X413639Y513352*
X413848*
X414477Y513182*
X414895Y512841*
X415105Y512330*
Y512159*
X414895Y511648*
X414477Y511307*
X413848Y511136*
X416780Y515739D02*
X416570Y515227D01*
X416152Y515057*
X415733*
X415314Y515227*
X415105Y515568*
X414895Y516250*
X414686Y516761*
X414267Y517102*
X413848Y517273*
X413220*
X412802Y517102*
X412592Y516932*
X412383Y516420*
Y515739*
X412592Y515227*
X412802Y515057*
X413220Y514886*
X413848*
X414267Y515057*
X414686Y515398*
X414895Y515909*
X415105Y516591*
X415314Y516932*
X415733Y517102*
X416152*
X416570Y516932*
X416780Y516420*
Y515739*
X425733Y509687D02*
X426152Y509517D01*
X426570Y509176*
X426780Y508835*
Y508153*
X426570Y507812*
X426570D02*
X426152Y507472D01*
X425733Y507301*
X425105Y507131*
X424058*
X423430Y507301*
X423011Y507472*
X422592Y507812*
X422592D02*
X422383Y508153D01*
Y508835*
X422592Y509176*
X423011Y509517*
X423430Y509687*
X426152Y513267D02*
X426570Y513097D01*
X426780Y512585*
Y512244*
X426570Y511733*
X425942Y511392*
X424895Y511222*
X423848*
X423011Y511392*
X422592Y511733*
X422383Y512244*
Y512415*
X422592Y512926*
X423011Y513267*
X423639Y513437*
X423639D02*
X423848D01*
X423848D02*
X424477Y513267D01*
X424895Y512926*
X425105Y512415*
Y512244*
X424895Y511733*
X424477Y511392*
X423848Y511222*
X425314Y517187D02*
X424686Y517017D01*
X424267Y516676*
X424058Y516165*
Y515994*
X424267Y515483*
X424686Y515142*
X425314Y514972*
X425523*
X426152Y515142*
X426570Y515483*
X426780Y515994*
Y516165*
X426570Y516676*
X426152Y517017*
X425314Y517187*
X425314D02*
X424267D01*
X424267D02*
X423220Y517017D01*
X422592Y516676*
X422383Y516165*
Y515824*
X422592Y515312*
X422592D02*
X423011Y515142D01*
X315733Y417977D02*
X316152Y417807D01*
X316570Y417466*
X316780Y417125*
Y416443*
X316570Y416102*
X316152Y415761*
X315733Y415591*
X315105Y415420*
X314058*
X313430Y415591*
X313011Y415761*
X312592Y416102*
X312383Y416443*
Y417125*
X312592Y417466*
X313011Y417807*
X313430Y417977*
X316780Y421898D02*
X312383Y420193D01*
X316780Y419511D02*
Y421898D01*
X435733Y319517D02*
X436152Y319347D01*
X436570Y319006*
X436780Y318665*
Y317983*
X436570Y317642*
X436152Y317301*
X435733Y317131*
X435105Y316960*
X434058*
X433430Y317131*
X433011Y317301*
X432592Y317642*
X432383Y317983*
Y318665*
X432592Y319006*
X433011Y319347*
X433430Y319517*
X436780Y323437D02*
X432383Y321733D01*
X436780Y321051D02*
Y323437D01*
Y325994D02*
X436570Y325483D01*
X435942Y325142*
X434895Y324972*
X434267*
X433220Y325142*
X432592Y325483*
X432383Y325994*
Y326335*
X432592Y326847*
X433220Y327187*
X433220D02*
X434267Y327358D01*
X434895*
X435942Y327187*
X435942D02*
X436570Y326847D01*
X436780Y326335*
Y325994*
X445733Y320284D02*
X446152Y320114D01*
X446570Y319773*
X446780Y319432*
Y318750*
X446570Y318409*
X446152Y318068*
X445733Y317898*
X445105Y317727*
X444058*
X443430Y317898*
X443011Y318068*
X442592Y318409*
X442383Y318750*
Y319432*
X442592Y319773*
X443011Y320114*
X443430Y320284*
X446780Y324205D02*
X442383Y322500D01*
X446780Y321818D02*
Y324205D01*
X445942Y325739D02*
X446152Y326080D01*
X446780Y326591*
X442383*
X425933Y319317D02*
X426352Y319147D01*
X426770Y318806*
X426980Y318465*
Y317783*
X426770Y317442*
X426352Y317101*
X425933Y316931*
X425305Y316760*
X424258*
X423630Y316931*
X423211Y317101*
X422792Y317442*
X422583Y317783*
Y318465*
X422792Y318806*
X423211Y319147*
X423630Y319317*
X426980Y323237D02*
X422583Y321533D01*
X426980Y320851D02*
Y323237D01*
X425933Y324942D02*
X426142D01*
X426561Y325112*
X426561D02*
X426770Y325283D01*
X426980Y325624*
Y326306*
X426770Y326647*
X426561Y326817*
X426142Y326987*
X426142D02*
X425723D01*
X425723D02*
X425305Y326817D01*
X424677Y326476*
X422583Y324772*
Y327158*
X455733Y319517D02*
X456152Y319347D01*
X456570Y319006*
X456780Y318665*
Y317983*
X456570Y317642*
X456152Y317301*
X455733Y317131*
X455105Y316960*
X454058*
X453430Y317131*
X453011Y317301*
X452592Y317642*
X452383Y317983*
Y318665*
X452592Y319006*
X453011Y319347*
X453430Y319517*
X456780Y323437D02*
X452383Y321733D01*
X456780Y321051D02*
Y323437D01*
Y325312D02*
Y327187D01*
X456780D02*
X455105Y326165D01*
Y326676*
X454895Y327017*
X454686Y327187*
X454686D02*
X454058Y327358D01*
X453639*
X453011Y327187*
X453011D02*
X452592Y326847D01*
X452383Y326335*
Y325824*
X452592Y325312*
X452592D02*
X452802Y325142D01*
X453220Y324972*
X481983Y520682D02*
X482402Y520511D01*
X482820Y520170*
X483030Y519830*
Y519148*
X482820Y518807*
X482402Y518466*
X481983Y518295*
X481355Y518125*
X480308*
X479680Y518295*
X479261Y518466*
X478842Y518807*
X478633Y519148*
Y519830*
X478842Y520170*
X479261Y520511*
X479680Y520682*
X483030Y524602D02*
X478633Y522898D01*
X483030Y522216D02*
Y524602D01*
Y527841D02*
X480098Y526136D01*
Y528693*
X483030Y527841D02*
X478633D01*
X689483Y604432D02*
X689902Y604261D01*
X690320Y603920*
X690530Y603580*
Y602898*
X690320Y602557*
X689902Y602216*
X689483Y602045*
X688855Y601875*
X687808*
X687180Y602045*
X686761Y602216*
X686342Y602557*
X686133Y602898*
Y603580*
X686342Y603920*
X686761Y604261*
X687180Y604432*
X690530Y608352D02*
X686133Y606648D01*
X690530Y605966D02*
Y608352D01*
Y612102D02*
Y610398D01*
X688645Y610227*
X688855Y610398*
X689064Y610909*
Y611420*
X688855Y611932*
X688436Y612273*
X687808Y612443*
X687389Y612273*
X686761Y612102*
X686342Y611761*
X686133Y611250*
Y610739*
X686342Y610227*
X686552Y610057*
X686970Y609886*
X358523Y418233D02*
X358693Y418652D01*
X359034Y419070*
X359375Y419280*
X360057*
X360398Y419070*
X360739Y418652*
X360909Y418233*
X361080Y417605*
Y416558*
X360909Y415930*
X360739Y415511*
X360398Y415092*
X360057Y414883*
X359375*
X359034Y415092*
X358693Y415511*
X358523Y415930*
X356136Y419280D02*
X356648Y419070D01*
X356818Y418652*
Y418233*
X356648Y417814*
X356307Y417605*
X355625Y417395*
X355114Y417186*
X354773Y416767*
X354602Y416348*
Y415720*
X354773Y415302*
X354943Y415092*
X355455Y414883*
X356136*
X356648Y415092*
X356818Y415302*
X356989Y415720*
Y416348*
X356818Y416767*
X356477Y417186*
X355966Y417395*
X355284Y417605*
X354943Y417814*
X354773Y418233*
Y418652*
X354943Y419070*
X355455Y419280*
X356136*
X358437Y409483D02*
X358608Y409902D01*
X358949Y410320*
X359290Y410530*
X359972*
X360312Y410320*
X360312D02*
X360653Y409902D01*
X360824Y409483*
X360994Y408855*
Y407808*
X360824Y407180*
X360653Y406761*
X360312Y406342*
X360312D02*
X359972Y406133D01*
X359290*
X358949Y406342*
X358608Y406761*
X358437Y407180*
X354687Y409064D02*
X354858Y408436D01*
X355199Y408017*
X355710Y407808*
X355881*
X356392Y408017*
X356733Y408436*
X356903Y409064*
Y409273*
X356733Y409902*
X356392Y410320*
X355881Y410530*
X355710*
X355199Y410320*
X354858Y409902*
X354687Y409064*
X354687D02*
Y408017D01*
X354687D02*
X354858Y406970D01*
X355199Y406342*
X355710Y406133*
X356051*
X356562Y406342*
X356562D02*
X356733Y406761D01*
X596780Y397443D02*
X592383D01*
Y399489*
X595942Y401023D02*
X596152Y401364D01*
X596780Y401875*
X592383*
X400824Y364280D02*
Y359883D01*
X398778*
X397074Y363233D02*
Y363442D01*
X396903Y363861*
X396733Y364070*
X396392Y364280*
X395710*
X395369Y364070*
X395199Y363861*
X395028Y363442*
Y363023*
X395199Y362605*
X395540Y361977*
X397244Y359883*
X394858*
X338030Y424176D02*
X333633D01*
Y426222*
X338030Y428097D02*
Y429972D01*
X336355Y428949*
Y429460*
X336145Y429801*
X335936Y429972*
X335308Y430142*
X334889*
X334261Y429972*
X333842Y429631*
X333633Y429119*
Y428608*
X333842Y428097*
X334052Y427926*
X334470Y427756*
X447159Y515530D02*
Y511133D01*
X445114*
X441875Y515530D02*
X443580Y512598D01*
X441023*
X441875Y515530D02*
Y511133D01*
X488409Y471780D02*
Y467383D01*
X486364*
X482614Y471780D02*
X484318D01*
X484489Y469895*
X484318Y470105*
X483807Y470314*
X483295*
X482784Y470105*
X482443Y469686*
X482273Y469058*
X482443Y468639*
X482614Y468011*
X482955Y467592*
X483466Y467383*
X483977*
X484489Y467592*
X484659Y467802*
X484830Y468220*
X439280Y351080D02*
X434883D01*
X439280D02*
Y352614D01*
X439070Y353125*
X438861Y353295*
X438442Y353466*
X438023*
X437605Y353295*
X437395Y353125*
X437186Y352614*
Y351080*
Y352273D02*
X434883Y353466D01*
X438442Y355000D02*
X438652Y355341D01*
X439280Y355852*
X434883*
X438442Y357386D02*
X438652Y357727D01*
X439280Y358239*
X434883*
X464280Y350313D02*
X459883D01*
X464280D02*
Y351847D01*
X464070Y352358*
X463861Y352528*
X463442Y352699*
X463023*
X462605Y352528*
X462395Y352358*
X462186Y351847*
Y350313*
Y351506D02*
X459883Y352699D01*
X463442Y354233D02*
X463652Y354574D01*
X464280Y355085*
X459883*
X463233Y356790D02*
X463442D01*
X463861Y356960*
X464070Y357131*
X464280Y357472*
Y358153*
X464070Y358494*
X463861Y358665*
X463442Y358835*
X463023*
X462605Y358665*
X461977Y358324*
X459883Y356619*
Y359006*
X391680Y660127D02*
X387283D01*
X391680D02*
Y661661D01*
X391470Y662173*
X391261Y662343*
X390842Y662514*
X390423*
X390005Y662343*
X389795Y662173*
X389586Y661661*
Y660127*
Y661320D02*
X387283Y662514D01*
X390842Y664048D02*
X391052Y664389D01*
X391680Y664900*
X387283*
X391680Y668650D02*
Y666945D01*
X389795Y666775*
X390005Y666945*
X390214Y667457*
Y667968*
X390005Y668480*
X389586Y668820*
X388958Y668991*
X388539Y668820*
X387911Y668650*
X387492Y668309*
X387283Y667798*
Y667286*
X387492Y666775*
X387702Y666605*
X388120Y666434*
X616780Y465256D02*
X612383D01*
X616780D02*
Y466790D01*
X616570Y467301*
X616361Y467472*
X615942Y467642*
X615523*
X615105Y467472*
X614895Y467301*
X614686Y466790*
Y465256*
Y466449D02*
X612383Y467642D01*
X616780Y469517D02*
Y471392D01*
X615105Y470369*
Y470881*
X614895Y471222*
X614686Y471392*
X614058Y471562*
X614058D02*
X613639D01*
X613639D02*
X613011Y471392D01*
X612592Y471051*
X612383Y470540*
Y470028*
X612592Y469517*
X612802Y469347*
X613220Y469176*
X599280Y606960D02*
X594883D01*
X599280D02*
Y608494D01*
X599070Y609006*
X598861Y609176*
X598442Y609347*
X598023*
X597605Y609176*
X597395Y609006*
X597186Y608494*
Y606960*
Y608153D02*
X594883Y609347D01*
X599280Y612585D02*
X596348Y610881D01*
Y613437*
X599280Y612585D02*
X594883D01*
X598233Y615142D02*
X598442D01*
X598861Y615312*
X598861D02*
X599070Y615483D01*
X599280Y615824*
Y616506*
X599070Y616847*
X598861Y617017*
X598442Y617187*
X598442D02*
X598023D01*
X598023D02*
X597605Y617017D01*
X596977Y616676*
X594883Y614972*
Y617358*
X514280Y606960D02*
X509883D01*
X514280D02*
Y608494D01*
X514070Y609006*
X513861Y609176*
X513442Y609347*
X513023*
X512605Y609176*
X512395Y609006*
X512186Y608494*
Y606960*
Y608153D02*
X509883Y609347D01*
X514280Y612585D02*
X511348Y610881D01*
Y613437*
X514280Y612585D02*
X509883D01*
X514280Y615312D02*
Y617187D01*
X514280D02*
X512605Y616165D01*
Y616676*
X512395Y617017*
X512186Y617187*
X512186D02*
X511558Y617358D01*
X511139*
X510511Y617187*
X510511D02*
X510092Y616847D01*
X509883Y616335*
Y615824*
X510092Y615312*
X510092D02*
X510302Y615142D01*
X510720Y614972*
X723780Y439875D02*
X719383D01*
X723780D02*
Y441409D01*
X723570Y441920*
X723361Y442091*
X722942Y442261*
X722523*
X722105Y442091*
X721895Y441920*
X721686Y441409*
Y439875*
Y441068D02*
X719383Y442261D01*
X723780Y445500D02*
X720848Y443795D01*
Y446352*
X723780Y445500D02*
X719383D01*
X723780Y449591D02*
X720848Y447886D01*
Y450443*
X723780Y449591D02*
X719383D01*
X704280Y621875D02*
X699883D01*
X704280D02*
Y623409D01*
X704070Y623920*
X703861Y624091*
X703442Y624261*
X703023*
X702605Y624091*
X702395Y623920*
X702186Y623409*
Y621875*
Y623068D02*
X699883Y624261D01*
X704280Y627500D02*
X701348Y625795D01*
Y628352*
X704280Y627500D02*
X699883D01*
X704280Y632102D02*
Y630398D01*
X702395Y630227*
X702605Y630398*
X702814Y630909*
Y631420*
X702605Y631932*
X702186Y632273*
X701558Y632443*
X701139Y632273*
X700511Y632102*
X700092Y631761*
X699883Y631250*
Y630739*
X700092Y630227*
X700302Y630057*
X700720Y629886*
X736780Y564545D02*
X732383D01*
X736780D02*
Y566080D01*
X736570Y566591*
X736361Y566761*
X735942Y566932*
X735523*
X735105Y566761*
X734895Y566591*
X734686Y566080*
Y564545*
Y565739D02*
X732383Y566932D01*
X736780Y570170D02*
X733848Y568466D01*
Y571023*
X736780Y570170D02*
X732383D01*
X736152Y574602D02*
X736570Y574432D01*
X736780Y573920*
Y573580*
X736570Y573068*
X735942Y572727*
X734895Y572557*
X733848*
X733011Y572727*
X732592Y573068*
X732383Y573580*
Y573750*
X732592Y574261*
X733011Y574602*
X733639Y574773*
X733848*
X734477Y574602*
X734895Y574261*
X735105Y573750*
Y573580*
X734895Y573068*
X734477Y572727*
X733848Y572557*
X771790Y498030D02*
Y493633D01*
Y498030D02*
X770256D01*
X769744Y497820*
X769574Y497611*
X769403Y497192*
Y496773*
X769574Y496355*
X769744Y496145*
X770256Y495936*
X771790*
X770597D02*
X769403Y493633D01*
X766165Y498030D02*
X767869Y495098D01*
X765312*
X766165Y498030D02*
Y493633D01*
X761392Y498030D02*
X763097Y493633D01*
X763778Y498030D02*
X761392D01*
X726790Y496780D02*
Y492383D01*
Y496780D02*
X725256D01*
X724744Y496570*
X724574Y496361*
X724403Y495942*
Y495523*
X724574Y495105*
X724744Y494895*
X725256Y494686*
X726790*
X725597D02*
X724403Y492383D01*
X721165Y496780D02*
X722869Y493848D01*
X720312*
X721165Y496780D02*
Y492383D01*
X717926Y496780D02*
X718437Y496570D01*
X718437D02*
X718608Y496152D01*
Y495733*
X718437Y495314*
X718437D02*
X718097Y495105D01*
X717415Y494895*
X716903Y494686*
X716562Y494267*
X716562D02*
X716392Y493848D01*
Y493220*
X716562Y492802*
X716562D02*
X716733Y492592D01*
X717244Y492383*
X717926*
X718437Y492592*
X718437D02*
X718608Y492802D01*
X718778Y493220*
Y493848*
X718608Y494267*
X718267Y494686*
X717756Y494895*
X717074Y495105*
X716733Y495314*
X716562Y495733*
X716562D02*
Y496152D01*
X716562D02*
X716733Y496570D01*
X717244Y496780*
X717926*
X772955Y458030D02*
Y453633D01*
Y458030D02*
X771420D01*
X770909Y457820*
X770739Y457611*
X770568Y457192*
Y456773*
X770739Y456355*
X770909Y456145*
X771420Y455936*
X772955*
X771761D02*
X770568Y453633D01*
X767330Y458030D02*
X769034Y455098D01*
X766477*
X767330Y458030D02*
Y453633D01*
X762727Y456564D02*
X762898Y455936D01*
X763239Y455517*
X763750Y455308*
X763920*
X764432Y455517*
X764773Y455936*
X764943Y456564*
Y456773*
X764773Y457402*
X764432Y457820*
X763920Y458030*
X763750*
X763239Y457820*
X762898Y457402*
X762727Y456564*
Y455517*
X762898Y454470*
X763239Y453842*
X763750Y453633*
X764091*
X764602Y453842*
X764773Y454261*
X727540Y457780D02*
Y453383D01*
Y457780D02*
X726006D01*
X725494Y457570*
X725324Y457361*
X725153Y456942*
Y456523*
X725324Y456105*
X725494Y455895*
X726006Y455686*
X727540*
X726347D02*
X725153Y453383D01*
X721403Y457780D02*
X723108D01*
X723278Y455895*
X723108Y456105*
X722597Y456314*
X722085*
X721574Y456105*
X721233Y455686*
X721062Y455058*
X721062D02*
X721233Y454639D01*
X721403Y454011*
X721744Y453592*
X722256Y453383*
X722767*
X723278Y453592*
X723449Y453802*
X723619Y454220*
X718506Y457780D02*
X719017Y457570D01*
X719358Y456942*
X719528Y455895*
Y455267*
X719358Y454220*
X719017Y453592*
X718506Y453383*
X718165*
X717653Y453592*
X717312Y454220*
X717312D02*
X717142Y455267D01*
Y455895*
X717312Y456942*
X717312D02*
X717653Y457570D01*
X718165Y457780*
X718506*
X513233Y574602D02*
X513652Y574432D01*
X514070Y574091*
X514280Y573750*
Y573068*
X514070Y572727*
X513652Y572386*
X513233Y572216*
X512605Y572045*
X511558*
X510930Y572216*
X510511Y572386*
X510092Y572727*
X509883Y573068*
Y573750*
X510092Y574091*
X510511Y574432*
X510930Y574602*
X514280Y578523D02*
X509883Y576818D01*
X514280Y576136D02*
Y578523D01*
X513652Y582102D02*
X514070Y581932D01*
X514280Y581420*
Y581080*
X514070Y580568*
X513442Y580227*
X512395Y580057*
X511348*
X510511Y580227*
X510092Y580568*
X509883Y581080*
Y581250*
X510092Y581761*
X510511Y582102*
X511139Y582273*
X511348*
X511977Y582102*
X512395Y581761*
X512605Y581250*
Y581080*
X512395Y580568*
X511977Y580227*
X511348Y580057*
X658233Y594517D02*
X658652Y594347D01*
X659070Y594006*
X659280Y593665*
Y592983*
X659070Y592642*
X658652Y592301*
X658233Y592131*
X657605Y591960*
X656558*
X655930Y592131*
X655511Y592301*
X655092Y592642*
X654883Y592983*
Y593665*
X655092Y594006*
X655511Y594347*
X655930Y594517*
X659280Y598437D02*
X654883Y596733D01*
X659280Y596051D02*
Y598437D01*
Y602358D02*
X654883Y600653D01*
X659280Y599972D02*
Y602358D01*
X573233Y574517D02*
X573652Y574347D01*
X574070Y574006*
X574280Y573665*
Y572983*
X574070Y572642*
X573652Y572301*
X573233Y572131*
X572605Y571960*
X571558*
X570930Y572131*
X570511Y572301*
X570092Y572642*
X569883Y572983*
Y573665*
X570092Y574006*
X570511Y574347*
X570930Y574517*
X574280Y578437D02*
X569883Y576733D01*
X574280Y576051D02*
Y578437D01*
Y580824D02*
X574070Y580312D01*
X574070D02*
X573652Y580142D01*
X573233*
X572814Y580312*
X572814D02*
X572605Y580653D01*
X572395Y581335*
X572186Y581847*
X571767Y582187*
X571767D02*
X571348Y582358D01*
X570720*
X570302Y582187*
X570302D02*
X570092Y582017D01*
X569883Y581506*
Y580824*
X570092Y580312*
X570092D02*
X570302Y580142D01*
X570720Y579972*
X571348*
X571767Y580142*
X572186Y580483*
X572395Y580994*
X572605Y581676*
X572814Y582017*
X573233Y582187*
X573233D02*
X573652D01*
X573652D02*
X574070Y582017D01*
X574280Y581506*
Y580824*
X658233Y574602D02*
X658652Y574432D01*
X659070Y574091*
X659280Y573750*
Y573068*
X659070Y572727*
X658652Y572386*
X658233Y572216*
X657605Y572045*
X656558*
X655930Y572216*
X655511Y572386*
X655092Y572727*
X654883Y573068*
Y573750*
X655092Y574091*
X655511Y574432*
X655930Y574602*
X659280Y578523D02*
X654883Y576818D01*
X659280Y576136D02*
Y578523D01*
X657814Y582273D02*
X657186Y582102D01*
X656767Y581761*
X656558Y581250*
Y581080*
X656767Y580568*
X657186Y580227*
X657814Y580057*
X658023*
X658652Y580227*
X659070Y580568*
X659280Y581080*
Y581250*
X659070Y581761*
X658652Y582102*
X657814Y582273*
X656767*
X655720Y582102*
X655092Y581761*
X654883Y581250*
Y580909*
X655092Y580398*
X655511Y580227*
X483233Y599517D02*
X483652Y599347D01*
X484070Y599006*
X484280Y598665*
Y597983*
X484070Y597642*
X483652Y597301*
X483233Y597131*
X482605Y596960*
X481558*
X480930Y597131*
X480511Y597301*
X480092Y597642*
X479883Y597983*
Y598665*
X480092Y599006*
X480511Y599347*
X480930Y599517*
X484280Y601903D02*
X484070Y601392D01*
X483652Y601222*
X483233*
X482814Y601392*
X482605Y601733*
X482395Y602415*
X482186Y602926*
X481767Y603267*
X481348Y603437*
X481348D02*
X480720D01*
X480720D02*
X480302Y603267D01*
X480092Y603097*
X479883Y602585*
Y601903*
X480092Y601392*
X480302Y601222*
X480720Y601051*
X481348*
X481767Y601222*
X482186Y601562*
X482186D02*
X482395Y602074D01*
X482605Y602756*
X482814Y603097*
X483233Y603267*
X483652*
X484070Y603097*
X484280Y602585*
Y601903*
Y605994D02*
X484070Y605483D01*
X483442Y605142*
X482395Y604972*
X481767*
X480720Y605142*
X480092Y605483*
X479883Y605994*
Y606335*
X480092Y606847*
X480720Y607187*
X480720D02*
X481767Y607358D01*
X482395*
X483442Y607187*
X483442D02*
X484070Y606847D01*
X484280Y606335*
Y605994*
X473233Y540284D02*
X473652Y540114D01*
X474070Y539773*
X474280Y539432*
Y538750*
X474070Y538409*
X473652Y538068*
X473233Y537898*
X472605Y537727*
X471558*
X470930Y537898*
X470511Y538068*
X470092Y538409*
X469883Y538750*
Y539432*
X470092Y539773*
X470511Y540114*
X470930Y540284*
X474280Y542670D02*
X474070Y542159D01*
X473652Y541989*
X473233*
X472814Y542159*
X472605Y542500*
X472395Y543182*
X472186Y543693*
X471767Y544034*
X471348Y544205*
X470720*
X470302Y544034*
X470092Y543864*
X469883Y543352*
Y542670*
X470092Y542159*
X470302Y541989*
X470720Y541818*
X471348*
X471767Y541989*
X472186Y542330*
X472395Y542841*
X472605Y543523*
X472814Y543864*
X473233Y544034*
X473652*
X474070Y543864*
X474280Y543352*
Y542670*
X473442Y545739D02*
X473652Y546080D01*
X474280Y546591*
X469883*
X490733Y569517D02*
X491152Y569347D01*
X491570Y569006*
X491780Y568665*
Y567983*
X491570Y567642*
X491152Y567301*
X490733Y567131*
X490105Y566960*
X489058*
X488430Y567131*
X488011Y567301*
X487592Y567642*
X487383Y567983*
Y568665*
X487592Y569006*
X488011Y569347*
X488430Y569517*
X491780Y571903D02*
X491570Y571392D01*
X491152Y571222*
X490733*
X490314Y571392*
X490105Y571733*
X489895Y572415*
X489686Y572926*
X489267Y573267*
X488848Y573437*
X488848D02*
X488220D01*
X488220D02*
X487802Y573267D01*
X487592Y573097*
X487383Y572585*
Y571903*
X487592Y571392*
X487802Y571222*
X488220Y571051*
X488848*
X489267Y571222*
X489686Y571562*
X489686D02*
X489895Y572074D01*
X490105Y572756*
X490314Y573097*
X490733Y573267*
X491152*
X491570Y573097*
X491780Y572585*
Y571903*
X490733Y575142D02*
X490942D01*
X491361Y575312*
X491361D02*
X491570Y575483D01*
X491780Y575824*
Y576506*
X491570Y576847*
X491361Y577017*
X490942Y577187*
X490942D02*
X490523D01*
X490523D02*
X490105Y577017D01*
X489477Y576676*
X487383Y574972*
Y577358*
X518233Y409517D02*
X518652Y409347D01*
X519070Y409006*
X519280Y408665*
Y407983*
X519070Y407642*
X518652Y407301*
X518233Y407131*
X517605Y406960*
X516558*
X515930Y407131*
X515511Y407301*
X515092Y407642*
X514883Y407983*
Y408665*
X515092Y409006*
X515511Y409347*
X515930Y409517*
X519280Y411903D02*
X519070Y411392D01*
X518652Y411222*
X518233*
X517814Y411392*
X517605Y411733*
X517395Y412415*
X517186Y412926*
X516767Y413267*
X516348Y413437*
X516348D02*
X515720D01*
X515720D02*
X515302Y413267D01*
X515092Y413097*
X514883Y412585*
Y411903*
X515092Y411392*
X515302Y411222*
X515720Y411051*
X516348*
X516767Y411222*
X517186Y411562*
X517186D02*
X517395Y412074D01*
X517605Y412756*
X517814Y413097*
X518233Y413267*
X518652*
X519070Y413097*
X519280Y412585*
Y411903*
Y415312D02*
Y417187D01*
X519280D02*
X517605Y416165D01*
Y416676*
X517395Y417017*
X517186Y417187*
X517186D02*
X516558Y417358D01*
X516139*
X515511Y417187*
X515511D02*
X515092Y416847D01*
X514883Y416335*
Y415824*
X515092Y415312*
X515092D02*
X515302Y415142D01*
X515720Y414972*
X518233Y364432D02*
X518652Y364261D01*
X519070Y363920*
X519280Y363580*
Y362898*
X519070Y362557*
X518652Y362216*
X518233Y362045*
X517605Y361875*
X516558*
X515930Y362045*
X515511Y362216*
X515092Y362557*
X514883Y362898*
Y363580*
X515092Y363920*
X515511Y364261*
X515930Y364432*
X519280Y366818D02*
X519070Y366307D01*
X518652Y366136*
X518233*
X517814Y366307*
X517605Y366648*
X517395Y367330*
X517186Y367841*
X516767Y368182*
X516348Y368352*
X515720*
X515302Y368182*
X515092Y368011*
X514883Y367500*
Y366818*
X515092Y366307*
X515302Y366136*
X515720Y365966*
X516348*
X516767Y366136*
X517186Y366477*
X517395Y366989*
X517605Y367670*
X517814Y368011*
X518233Y368182*
X518652*
X519070Y368011*
X519280Y367500*
Y366818*
Y371591D02*
X516348Y369886D01*
Y372443*
X519280Y371591D02*
X514883D01*
X623233Y386932D02*
X623652Y386761D01*
X624070Y386420*
X624280Y386080*
Y385398*
X624070Y385057*
X623652Y384716*
X623233Y384545*
X622605Y384375*
X621558*
X620930Y384545*
X620511Y384716*
X620092Y385057*
X619883Y385398*
Y386080*
X620092Y386420*
X620511Y386761*
X620930Y386932*
X624280Y389318D02*
X624070Y388807D01*
X623652Y388636*
X623233*
X622814Y388807*
X622605Y389148*
X622395Y389830*
X622186Y390341*
X621767Y390682*
X621348Y390852*
X620720*
X620302Y390682*
X620092Y390511*
X619883Y390000*
Y389318*
X620092Y388807*
X620302Y388636*
X620720Y388466*
X621348*
X621767Y388636*
X622186Y388977*
X622395Y389489*
X622605Y390170*
X622814Y390511*
X623233Y390682*
X623652*
X624070Y390511*
X624280Y390000*
Y389318*
Y394602D02*
Y392898D01*
X622395Y392727*
X622605Y392898*
X622814Y393409*
Y393920*
X622605Y394432*
X622186Y394773*
X621558Y394943*
X621139Y394773*
X620511Y394602*
X620092Y394261*
X619883Y393750*
Y393239*
X620092Y392727*
X620302Y392557*
X620720Y392386*
X568233Y387102D02*
X568652Y386932D01*
X569070Y386591*
X569280Y386250*
Y385568*
X569070Y385227*
X568652Y384886*
X568233Y384716*
X567605Y384545*
X566558*
X565930Y384716*
X565511Y384886*
X565092Y385227*
X564883Y385568*
Y386250*
X565092Y386591*
X565511Y386932*
X565930Y387102*
X569280Y389489D02*
X569070Y388977D01*
X568652Y388807*
X568233*
X567814Y388977*
X567605Y389318*
X567395Y390000*
X567186Y390511*
X566767Y390852*
X566348Y391023*
X565720*
X565302Y390852*
X565092Y390682*
X564883Y390170*
Y389489*
X565092Y388977*
X565302Y388807*
X565720Y388636*
X566348*
X566767Y388807*
X567186Y389148*
X567395Y389659*
X567605Y390341*
X567814Y390682*
X568233Y390852*
X568652*
X569070Y390682*
X569280Y390170*
Y389489*
X568652Y394602D02*
X569070Y394432D01*
X569280Y393920*
Y393580*
X569070Y393068*
X568442Y392727*
X567395Y392557*
X566348*
X565511Y392727*
X565092Y393068*
X564883Y393580*
Y393750*
X565092Y394261*
X565511Y394602*
X566139Y394773*
X566348*
X566977Y394602*
X567395Y394261*
X567605Y393750*
Y393580*
X567395Y393068*
X566977Y392727*
X566348Y392557*
X543233Y572017D02*
X543652Y571847D01*
X544070Y571506*
X544280Y571165*
Y570483*
X544070Y570142*
X543652Y569801*
X543233Y569631*
X542605Y569460*
X541558*
X540930Y569631*
X540511Y569801*
X540092Y570142*
X539883Y570483*
Y571165*
X540092Y571506*
X540511Y571847*
X540930Y572017*
X544280Y574403D02*
X544070Y573892D01*
X543652Y573722*
X543233*
X542814Y573892*
X542605Y574233*
X542395Y574915*
X542186Y575426*
X541767Y575767*
X541348Y575937*
X541348D02*
X540720D01*
X540720D02*
X540302Y575767D01*
X540092Y575597*
X539883Y575085*
Y574403*
X540092Y573892*
X540302Y573722*
X540720Y573551*
X541348*
X541767Y573722*
X542186Y574062*
X542186D02*
X542395Y574574D01*
X542605Y575256*
X542814Y575597*
X543233Y575767*
X543652*
X544070Y575597*
X544280Y575085*
Y574403*
Y579858D02*
X539883Y578153D01*
X544280Y577472D02*
Y579858D01*
X452383Y405933D02*
X452553Y406352D01*
X452894Y406770*
X453235Y406980*
X453917*
X454258Y406770*
X454599Y406352*
X454769Y405933*
X454940Y405305*
Y404258*
X454769Y403630*
X454599Y403211*
X454258Y402792*
X453917Y402583*
X453235*
X452894Y402792*
X452553Y403211*
X452383Y403630*
X449997Y406980D02*
X450508Y406770D01*
X450678Y406352*
Y405933*
X450508Y405514*
X450167Y405305*
X449485Y405095*
X448974Y404886*
X448633Y404467*
X448462Y404048*
X448462D02*
Y403420D01*
X448462D02*
X448633Y403002D01*
X448803Y402792*
X449315Y402583*
X449997*
X450508Y402792*
X450678Y403002*
X450849Y403420*
Y404048*
X450678Y404467*
X450337Y404886*
X450337D02*
X449826Y405095D01*
X449144Y405305*
X448803Y405514*
X448633Y405933*
Y406352*
X448803Y406770*
X449315Y406980*
X449997*
X446076D02*
X446587Y406770D01*
X446587D02*
X446758Y406352D01*
Y405933*
X446587Y405514*
X446587D02*
X446247Y405305D01*
X445565Y405095*
X445053Y404886*
X444712Y404467*
X444712D02*
X444542Y404048D01*
Y403420*
X444712Y403002*
X444712D02*
X444883Y402792D01*
X445394Y402583*
X446076*
X446587Y402792*
X446587D02*
X446758Y403002D01*
X446928Y403420*
Y404048*
X446758Y404467*
X446417Y404886*
X445906Y405095*
X445224Y405305*
X444883Y405514*
X444712Y405933*
X444712D02*
Y406352D01*
X444712D02*
X444883Y406770D01*
X445394Y406980*
X446076*
X372898Y405733D02*
X373068Y406152D01*
X373409Y406570*
X373750Y406780*
X374432*
X374773Y406570*
X375114Y406152*
X375284Y405733*
X375455Y405105*
Y404058*
X375284Y403430*
X375114Y403011*
X374773Y402592*
X374432Y402383*
X373750*
X373409Y402592*
X373068Y403011*
X372898Y403430*
X370511Y406780D02*
X371023Y406570D01*
X371193Y406152*
Y405733*
X371023Y405314*
X370682Y405105*
X370000Y404895*
X369489Y404686*
X369148Y404267*
X368977Y403848*
Y403220*
X369148Y402802*
X369318Y402592*
X369830Y402383*
X370511*
X371023Y402592*
X371193Y402802*
X371364Y403220*
Y403848*
X371193Y404267*
X370852Y404686*
X370341Y404895*
X369659Y405105*
X369318Y405314*
X369148Y405733*
Y406152*
X369318Y406570*
X369830Y406780*
X370511*
X365227Y405314D02*
X365398Y404686D01*
X365739Y404267*
X366250Y404058*
X366420*
X366932Y404267*
X367273Y404686*
X367443Y405314*
Y405523*
X367273Y406152*
X366932Y406570*
X366420Y406780*
X366250*
X365739Y406570*
X365398Y406152*
X365227Y405314*
Y404267*
X365398Y403220*
X365739Y402592*
X366250Y402383*
X366591*
X367102Y402592*
X367273Y403011*
X439768Y477603D02*
X439938Y478022D01*
X440279Y478440*
X440620Y478650*
X441302*
X441643Y478440*
X441984Y478022*
X442154Y477603*
X442325Y476975*
Y475928*
X442154Y475300*
X441984Y474881*
X441643Y474462*
X441302Y474253*
X440620*
X440279Y474462*
X439938Y474881*
X439768Y475300*
X436018Y477184D02*
X436188Y476556D01*
X436529Y476137*
X437041Y475928*
X437211*
X437722Y476137*
X438063Y476556*
X438234Y477184*
Y477394*
X438063Y478022*
X437722Y478440*
X437211Y478650*
X437041*
X436529Y478440*
X436188Y478022*
X436018Y477184*
Y476137*
X436188Y475090*
X436529Y474462*
X437041Y474253*
X437381*
X437893Y474462*
X438063Y474881*
X433461Y478650D02*
X433972Y478440D01*
X434313Y477812*
X434484Y476765*
Y476137*
X434313Y475090*
X433972Y474462*
X433461Y474253*
X433120*
X432609Y474462*
X432268Y475090*
X432097Y476137*
Y476765*
X432268Y477812*
X432609Y478440*
X433120Y478650*
X433461*
X372131Y483233D02*
X372301Y483652D01*
X372642Y484070*
X372983Y484280*
X373665*
X374006Y484070*
X374347Y483652*
X374517Y483233*
X374688Y482605*
X374688D02*
Y481558D01*
X374688D02*
X374517Y480930D01*
X374347Y480511*
X374006Y480092*
X373665Y479883*
X372983*
X372642Y480092*
X372301Y480511*
X372131Y480930*
X368381Y482814D02*
X368551Y482186D01*
X368892Y481767*
X369403Y481558*
X369574*
X370085Y481767*
X370426Y482186*
X370597Y482814*
Y483023*
X370426Y483652*
X370085Y484070*
X369574Y484280*
X369403*
X368892Y484070*
X368551Y483652*
X368381Y482814*
Y481767*
X368551Y480720*
X368892Y480092*
X369403Y479883*
X369744*
X370256Y480092*
X370426Y480511*
X366847Y483442D02*
X366506Y483652D01*
X365994Y484280*
Y479883*
X412898Y455733D02*
X413068Y456152D01*
X413409Y456570*
X413750Y456780*
X414432*
X414773Y456570*
X415114Y456152*
X415284Y455733*
X415455Y455105*
Y454058*
X415284Y453430*
X415114Y453011*
X414773Y452592*
X414432Y452383*
X413750*
X413409Y452592*
X413068Y453011*
X412898Y453430*
X409148Y455314D02*
X409318Y454686D01*
X409659Y454267*
X410170Y454058*
X410341*
X410852Y454267*
X411193Y454686*
X411364Y455314*
Y455523*
X411193Y456152*
X410852Y456570*
X410341Y456780*
X410170*
X409659Y456570*
X409318Y456152*
X409148Y455314*
Y454267*
X409318Y453220*
X409659Y452592*
X410170Y452383*
X410511*
X411023Y452592*
X411193Y453011*
X407443Y455733D02*
Y455942D01*
X407273Y456361*
X407102Y456570*
X406761Y456780*
X406080*
X405739Y456570*
X405568Y456361*
X405398Y455942*
Y455523*
X405568Y455105*
X405909Y454477*
X407614Y452383*
X405227*
X412898Y420733D02*
X413068Y421152D01*
X413409Y421570*
X413750Y421780*
X414432*
X414773Y421570*
X415114Y421152*
X415284Y420733*
X415455Y420105*
Y419058*
X415284Y418430*
X415114Y418011*
X414773Y417592*
X414432Y417383*
X413750*
X413409Y417592*
X413068Y418011*
X412898Y418430*
X409148Y420314D02*
X409318Y419686D01*
X409659Y419267*
X410170Y419058*
X410341*
X410852Y419267*
X411193Y419686*
X411364Y420314*
Y420523*
X411193Y421152*
X410852Y421570*
X410341Y421780*
X410170*
X409659Y421570*
X409318Y421152*
X409148Y420314*
Y419267*
X409318Y418220*
X409659Y417592*
X410170Y417383*
X410511*
X411023Y417592*
X411193Y418011*
X407273Y421780D02*
X405398D01*
X406420Y420105*
X405909*
X405568Y419895*
X405398Y419686*
X405227Y419058*
Y418639*
X405398Y418011*
X405739Y417592*
X406250Y417383*
X406761*
X407273Y417592*
X407443Y417802*
X407614Y418220*
X395733Y434517D02*
X396152Y434347D01*
X396570Y434006*
X396780Y433665*
Y432983*
X396570Y432642*
X396152Y432301*
X395733Y432131*
X395105Y431960*
X394058*
X393430Y432131*
X393011Y432301*
X392592Y432642*
X392383Y432983*
Y433665*
X392592Y434006*
X393011Y434347*
X393430Y434517*
X395314Y438267D02*
X394686Y438097D01*
X394267Y437756*
X394058Y437244*
Y437074*
X394267Y436562*
X394267D02*
X394686Y436222D01*
X395314Y436051*
X395523*
X396152Y436222*
X396570Y436562*
X396570D02*
X396780Y437074D01*
Y437244*
X396570Y437756*
X396152Y438097*
X395314Y438267*
X394267*
X393220Y438097*
X392592Y437756*
X392383Y437244*
Y436903*
X392592Y436392*
X393011Y436222*
X396780Y441506D02*
X393848Y439801D01*
Y442358*
X396780Y441506D02*
X392383D01*
X428233Y434517D02*
X428652Y434347D01*
X429070Y434006*
X429280Y433665*
Y432983*
X429070Y432642*
X428652Y432301*
X428233Y432131*
X427605Y431960*
X426558*
X425930Y432131*
X425511Y432301*
X425092Y432642*
X424883Y432983*
Y433665*
X425092Y434006*
X425511Y434347*
X425930Y434517*
X427814Y438267D02*
X427186Y438097D01*
X426767Y437756*
X426558Y437244*
Y437074*
X426767Y436562*
X426767D02*
X427186Y436222D01*
X427814Y436051*
X428023*
X428652Y436222*
X429070Y436562*
X429070D02*
X429280Y437074D01*
Y437244*
X429070Y437756*
X428652Y438097*
X427814Y438267*
X426767*
X425720Y438097*
X425092Y437756*
X424883Y437244*
Y436903*
X425092Y436392*
X425511Y436222*
X429280Y442017D02*
Y440312D01*
X429280D02*
X427395Y440142D01*
X427605Y440312*
X427605D02*
X427814Y440824D01*
Y441335*
X427605Y441847*
X427186Y442187*
X427186D02*
X426558Y442358D01*
X426139Y442187*
X426139D02*
X425511Y442017D01*
X425092Y441676*
X424883Y441165*
Y440653*
X425092Y440142*
X425302Y439972*
X425720Y439801*
G54D32*
X603835Y226750D02*
X600653Y216250D01*
X597472Y226750D02*
X600653Y216250D01*
X593892Y226750D02*
Y216250D01*
X584744Y225250D02*
X585540Y226250D01*
X586733Y226750*
X588324*
X589517Y226250*
X590312Y225250*
Y224250*
X589915Y223250*
X589517Y222750*
X588722Y222250*
X586335Y221250*
X585540Y220750*
X585142Y220250*
X584744Y219250*
Y217750*
X585540Y216750*
X586733Y216250*
X588324*
X589517Y216750*
X590312Y217750*
X581165Y226750D02*
Y216250D01*
X577585Y220750D02*
X570426D01*
X564062Y226750D02*
Y216250D01*
X566847Y226750D02*
X561278D01*
X557699D02*
Y216250D01*
Y226750D02*
X554119D01*
X552926Y226250*
X552528Y225750*
X552131Y224750*
Y223750*
X552528Y222750*
X552926Y222250*
X554119Y221750*
X557699*
X554915D02*
X552131Y216250D01*
X545369Y226750D02*
X548551Y216250D01*
X545369Y226750D02*
X542187Y216250D01*
X547358Y219750D02*
X543381D01*
X538608Y226750D02*
Y216250D01*
X533040Y226750D02*
X538608Y219750D01*
X536619Y222250D02*
X533040Y216250D01*
X520312Y226750D02*
X518324Y216250D01*
X516335Y226750D02*
X518324Y216250D01*
X516335Y226750D02*
X514347Y216250D01*
X512358Y226750D02*
X514347Y216250D01*
X506392Y226750D02*
X507187Y226250D01*
X507983Y225250*
X508381Y224250*
X508778Y222750*
Y220250*
X508381Y218750*
X507983Y217750*
X507187Y216750*
X506392Y216250*
X504801*
X504006Y216750*
X503210Y217750*
X502812Y218750*
X502415Y220250*
Y222750*
X502812Y224250*
X503210Y225250*
X504006Y226250*
X504801Y226750*
X506392*
X498835D02*
Y216250D01*
Y226750D02*
X495256D01*
X494062Y226250*
X493665Y225750*
X493267Y224750*
Y223750*
X493665Y222750*
X494062Y222250*
X495256Y221750*
X498835*
X496051D02*
X493267Y216250D01*
X489687Y226750D02*
Y216250D01*
X484915*
X481335Y226750D02*
Y216250D01*
Y226750D02*
X478551D01*
X477358Y226250*
X476562Y225250*
X476165Y224250*
X475767Y222750*
Y220250*
X476165Y218750*
X476562Y217750*
X477358Y216750*
X478551Y216250*
X481335*
X472187Y226750D02*
X470199Y216250D01*
X468210Y226750D02*
X470199Y216250D01*
X468210Y226750D02*
X466222Y216250D01*
X464233Y226750D02*
X466222Y216250D01*
X460653Y226750D02*
Y216250D01*
X457074Y226750D02*
Y216250D01*
Y226750D02*
X454290D01*
X453097Y226250*
X452301Y225250*
X451903Y224250*
X451506Y222750*
Y220250*
X451903Y218750*
X452301Y217750*
X453097Y216750*
X454290Y216250*
X457074*
X447926Y226750D02*
Y216250D01*
Y226750D02*
X442756D01*
X447926Y221750D02*
X444744D01*
X447926Y216250D02*
X442756D01*
G54D76*
X275000Y275000D02*
X775000D01*
Y675000*
X275000*
Y275000*
G74*
X0Y0D02*
M02*
