*
*
G04 PADS Layout (Build Number 2006.45.1) generated Gerber (RS-274-X) file*
G04 PC Version=2.1*
*
%IN "J5458-00.pcb"*%
*
%MOIN*%
*
%FSLAX35Y35*%
*
*
*
*
G04 PC Standard Apertures*
*
*
G04 Thermal Relief Aperture macro.*
%AMTER*
1,1,$1,0,0*
1,0,$1-$2,0,0*
21,0,$3,$4,0,0,45*
21,0,$3,$4,0,0,135*
%
*
*
G04 Annular Aperture macro.*
%AMANN*
1,1,$1,0,0*
1,0,$2,0,0*
%
*
*
G04 Odd Aperture macro.*
%AMODD*
1,1,$1,0,0*
1,0,$1-0.005,0,0*
%
*
*
G04 PC Custom Aperture Macros*
*
*
*
*
*
*
G04 PC Aperture Table*
*
%ADD011C,0.01*%
%ADD018R,0.065X0.065*%
%ADD019C,0.065*%
%ADD021R,0.025X0.025*%
%ADD027C,0.03*%
%ADD031C,0.008*%
%ADD032C,0.015*%
%ADD034C,0.055*%
%ADD036C,0.075*%
%ADD038C,0.07*%
%ADD052R,0.07X0.07*%
%ADD076C,0.001*%
%ADD084C,0.125*%
%ADD086R,0.0505X0.0505*%
%ADD087R,0.0325X0.0325*%
%ADD090R,0.0405X0.0405*%
%ADD094R,0.085X0.085*%
%ADD095C,0.085*%
%ADD096R,0.075X0.075*%
%ADD100C,0.13*%
%ADD101C,0.192*%
%ADD102R,0.0425X0.0425*%
%ADD103R,0.0465X0.0465*%
%ADD108R,0.13X0.13*%
*
*
*
*
G04 PC Copper Outlines (0)*
G04 Layer Name J5458-00.pcb - dark (0)*
%LPD*%
*
*
G04 PC Area=System Text*
G75*
G36*
G01*
X672429Y160571D02*
X672429D01*
X672857Y160286D01*
X673143Y159857D01*
X673286Y159286D01*
X673429Y158857D01*
X673143Y158571D01*
X673000Y158857D01*
X672857Y159286D01*
X672571Y159714D01*
X672143Y159857D01*
X671857Y160000D01*
X671143Y159857D01*
X670286Y159429D01*
X669143Y158857D01*
X668714Y158714D01*
X668000Y158143D01*
X667000Y157714D01*
X666000Y157571D01*
X665429D01*
X664714Y157857D01*
X664286Y158143D01*
X664143Y158286D01*
X664286Y158429D01*
X664429Y158286D01*
X665429Y158143D01*
X665857Y158286D01*
X666429Y158571D01*
X667000Y158857D01*
X667714Y159286D01*
X668000Y159571D01*
X668571Y159857D01*
X667000Y160429D01*
X666000Y161143D01*
X665143Y162143D01*
X664714Y163429D01*
X664571Y164714D01*
X664714Y165857D01*
X664857Y166714D01*
X665286Y167571D01*
X666000Y168286D01*
X666714Y169000D01*
X667571Y169429D01*
X668429Y169571D01*
X669429Y169714D01*
X670714Y169571D01*
X671714Y169286D01*
X672571Y168714D01*
X673286Y168000D01*
X674143Y166571D01*
X674286Y165571D01*
X674429Y164714D01*
X674286Y163429D01*
X674000Y162429D01*
X673286Y161429D01*
X672429Y160571D01*
G37*
G74*
*
G75*
G36*
G01*
X658857Y160857D02*
Y160571D01*
Y160143D01*
X658571Y160000D01*
X658286D01*
X658143D01*
X657714Y160143D01*
X657286D01*
X657000D01*
X656857Y160286D01*
X657000Y160429D01*
X657143D01*
X657286D01*
X657714Y160571D01*
X657857Y160857D01*
Y161286D01*
Y165714D01*
X658000Y166000D01*
X658143D01*
X658714Y165857D01*
X659286D01*
X659429D01*
X659714Y165714D01*
X659429Y165571D01*
X659000Y165429D01*
X658857Y164857D01*
Y161429D01*
X659000Y161000D01*
X659286Y160571D01*
X659857Y160429D01*
X660429Y160286D01*
X660857D01*
X661286Y160571D01*
X661714Y161286D01*
X661857Y162143D01*
Y162429D01*
Y165571D01*
Y165714D01*
Y165857D01*
X662000Y166000D01*
X662143D01*
X662714Y165857D01*
X663286D01*
X663571D01*
X663714Y165714D01*
X663571Y165571D01*
X663000Y165429D01*
X662857Y164857D01*
Y162571D01*
Y162143D01*
X662714Y161143D01*
X662286Y160429D01*
X661714Y160000D01*
X660857Y159857D01*
X659714Y160143D01*
X658857Y160857D01*
G37*
G74*
*
G75*
G36*
G01*
X652714Y163143D02*
X652714D01*
X654143Y162857D01*
X655143Y162429D01*
X655714Y161857D01*
X655857Y161143D01*
X655714Y160571D01*
X655429Y160143D01*
X655000Y160000D01*
X654429Y159857D01*
X653571Y160000D01*
X652571Y160571D01*
X652143Y160000D01*
X651571Y159857D01*
X650857Y160000D01*
X650714Y160143D01*
X650571Y160286D01*
X650714Y160429D01*
X650857Y160286D01*
X651000Y160143D01*
X651286D01*
X651571Y160429D01*
X651714Y160857D01*
Y161429D01*
Y164143D01*
X651857Y164857D01*
X652286Y165429D01*
X652857Y165714D01*
X653714Y165857D01*
X654714Y165714D01*
X655429Y165143D01*
X655714Y164714D01*
X655857Y164286D01*
X655571Y164000D01*
X655000Y163857D01*
X654857Y164000D01*
Y164143D01*
X655000Y164714D01*
X654714Y165429D01*
X654143Y165571D01*
X653429Y165429D01*
X653000Y165143D01*
X652714Y164714D01*
Y164000D01*
Y163143D01*
G37*
G74*
*
G75*
G36*
G01*
X648000Y164571D02*
Y165571D01*
Y165714D01*
X648143Y166000D01*
X648286D01*
X649143Y165429D01*
X649857Y165286D01*
X650000D01*
X650143Y165143D01*
X650000Y165000D01*
X649714D01*
X649143Y164857D01*
X649000Y164286D01*
Y161286D01*
Y160857D01*
X649143Y160571D01*
X649429Y160286D01*
X649714Y160143D01*
X649571Y160000D01*
X649286D01*
X649000D01*
X648429D01*
X648143D01*
X647714D01*
X647286D01*
X646857D01*
X646714Y160143D01*
X647000Y160286D01*
X647286D01*
X647857Y160571D01*
X648000Y160857D01*
Y161429D01*
Y163714D01*
X647857Y164143D01*
X647714Y164571D01*
X647429Y164714D01*
X647000Y164857D01*
X646429Y164714D01*
X646143Y164571D01*
X645857Y164857D01*
X645571Y165143D01*
X645714Y165286D01*
X646000Y165571D01*
X646571Y165857D01*
X646857Y165714D01*
X647286Y165571D01*
X647571Y165143D01*
X648000Y164571D01*
G37*
G74*
*
G75*
G36*
G01*
X643286Y165000D02*
X641714D01*
X641429Y165143D01*
X641286Y165571D01*
X641143Y165714D01*
X641286Y165857D01*
X641429Y165714D01*
X641857D01*
X643286D01*
Y167000D01*
Y167143D01*
X643429Y167000D01*
X643571Y166857D01*
X644143Y166143D01*
X645000Y165429D01*
X645143Y165143D01*
X645000Y165000D01*
X644286D01*
Y161571D01*
X644143Y160714D01*
X643857Y160286D01*
X643429Y160000D01*
X642714Y159857D01*
X641714Y160143D01*
X641286Y160286D01*
X641143Y160429D01*
X641286Y160571D01*
X641286D01*
X641571Y160429D01*
X642286Y160286D01*
X642714D01*
X643143Y160571D01*
X643286Y160857D01*
Y161429D01*
Y165000D01*
G37*
G74*
*
G75*
G36*
G01*
X639714Y163429D02*
X637143D01*
X636714D01*
X636143D01*
X635857D01*
X635714Y163571D01*
X635857Y164143D01*
X636286Y164857D01*
X637000Y165571D01*
X638143Y165857D01*
X639000Y165571D01*
X639857Y165000D01*
X640571Y164000D01*
X640714Y162857D01*
X640571Y161714D01*
X640000Y160714D01*
X639143Y160000D01*
X638143Y159857D01*
X637143Y160000D01*
X636143Y160429D01*
X635857Y160857D01*
X635714Y161000D01*
X635857Y161143D01*
X635857D01*
X636714Y160571D01*
X637571Y160429D01*
X638429Y160571D01*
X639143Y161286D01*
X639571Y162143D01*
X639714Y163286D01*
Y163429D01*
G37*
G74*
*
G75*
G36*
G01*
X632714Y164571D02*
Y165571D01*
Y165714D01*
X632857Y166000D01*
X633000D01*
X633857Y165429D01*
X634571Y165286D01*
X634714D01*
X634857Y165143D01*
X634714Y165000D01*
X634429D01*
X633857Y164857D01*
X633714Y164286D01*
Y161286D01*
Y160857D01*
X633857Y160571D01*
X634143Y160286D01*
X634429Y160143D01*
X634286Y160000D01*
X634000D01*
X633714D01*
X633143D01*
X632857D01*
X632429D01*
X632000D01*
X631571D01*
X631429Y160143D01*
X631714Y160286D01*
X632000D01*
X632571Y160571D01*
X632714Y160857D01*
Y161429D01*
Y163714D01*
X632571Y164143D01*
X632429Y164571D01*
X632143Y164714D01*
X631714Y164857D01*
X631143Y164714D01*
X630857Y164571D01*
X630571Y164857D01*
X630286Y165143D01*
X630429Y165286D01*
X630714Y165571D01*
X631286Y165857D01*
X631571Y165714D01*
X632000Y165571D01*
X632286Y165143D01*
X632714Y164571D01*
G37*
G74*
*
G75*
G36*
G01*
X617143Y168714D02*
X617143D01*
X617286Y169000D01*
X617429Y168857D01*
X617571D01*
X617714D01*
X617857D01*
X618143Y169000D01*
X619429Y169571D01*
X620857Y169714D01*
X621857Y169571D01*
X622857Y169286D01*
X623714Y168857D01*
X624429Y168286D01*
X625000Y167429D01*
X625429Y166571D01*
X625714Y165714D01*
X625857Y164714D01*
X625714Y163571D01*
X625571Y162714D01*
X625143Y161857D01*
X624429Y161143D01*
X623714Y160571D01*
X622857Y160143D01*
X622000Y160000D01*
X620857Y159857D01*
X619000Y160143D01*
X617286Y160857D01*
X617143Y161143D01*
X617000Y161286D01*
Y161429D01*
X616714Y162286D01*
Y162429D01*
Y162571D01*
X616857Y162714D01*
X617000Y162571D01*
X617143Y162286D01*
X617714Y161429D01*
X618571Y160714D01*
X619571Y160286D01*
X620714Y160143D01*
X621571Y160286D01*
X622286Y160429D01*
X623000Y160857D01*
X623714Y161571D01*
X624143Y162286D01*
X624571Y163143D01*
X624714Y164143D01*
X624857Y165286D01*
X624571Y167000D01*
X623857Y168286D01*
X622571Y169143D01*
X620857Y169429D01*
X619857Y169286D01*
X618857Y168857D01*
X618000Y168000D01*
X617286Y167000D01*
X617143Y166714D01*
X617000D01*
X616857D01*
Y166857D01*
Y167000D01*
X617143Y168714D01*
G37*
G74*
*
G75*
G36*
G01*
X615000Y163429D02*
X612429D01*
X612000D01*
X611429D01*
X611143D01*
X611000Y163571D01*
X611143Y164143D01*
X611571Y164857D01*
X612286Y165571D01*
X613429Y165857D01*
X614286Y165571D01*
X615143Y165000D01*
X615857Y164000D01*
X616000Y162857D01*
X615857Y161714D01*
X615286Y160714D01*
X614429Y160000D01*
X613429Y159857D01*
X612429Y160000D01*
X611429Y160429D01*
X611143Y160857D01*
X611000Y161000D01*
X611143Y161143D01*
X611143D01*
X612000Y160571D01*
X612857Y160429D01*
X613714Y160571D01*
X614429Y161286D01*
X614857Y162143D01*
X615000Y163286D01*
Y163429D01*
G37*
G74*
*
G75*
G36*
G01*
X608000Y164714D02*
Y165571D01*
Y165714D01*
X608143Y166000D01*
X608286D01*
X608571Y165857D01*
X608857Y165571D01*
X609857Y165286D01*
X610000Y165143D01*
Y165000D01*
X609857D01*
X609571D01*
X609143Y164857D01*
X609000Y164571D01*
Y164143D01*
Y161143D01*
X609143Y160571D01*
X609571Y160286D01*
X609714Y160143D01*
X609571Y160000D01*
X609286D01*
X608857D01*
X608000D01*
X607571D01*
X607429D01*
X607000D01*
X606857Y160143D01*
X607143Y160286D01*
X607714Y160429D01*
X608000Y160857D01*
Y161286D01*
Y161429D01*
Y164143D01*
X607857Y164571D01*
X607571Y164857D01*
X607143Y165143D01*
X606571Y165286D01*
X605857Y165143D01*
X605286Y164714D01*
X605000Y164143D01*
X604857Y163286D01*
Y160857D01*
Y160429D01*
X605143Y160286D01*
X605286D01*
X605429Y160143D01*
Y160000D01*
X605286D01*
X605000D01*
X604857D01*
X604143D01*
X603571D01*
X603286D01*
X603000D01*
X602714Y160143D01*
X602857Y160286D01*
X603286D01*
X603571Y160429D01*
X603857Y160857D01*
Y161143D01*
Y161286D01*
Y163000D01*
X604000Y164143D01*
X604286Y165000D01*
X605000Y165571D01*
X606000Y165857D01*
X607000Y165571D01*
X608000Y164714D01*
G37*
G74*
*
G75*
G36*
G01*
X600429Y165000D02*
X598857D01*
X598571Y165143D01*
X598429Y165571D01*
X598286Y165714D01*
X598429Y165857D01*
X598571Y165714D01*
X599000D01*
X600429D01*
Y167000D01*
Y167143D01*
X600571Y167000D01*
X600714Y166857D01*
X601286Y166143D01*
X602143Y165429D01*
X602286Y165143D01*
X602143Y165000D01*
X601429D01*
Y161571D01*
X601286Y160714D01*
X601000Y160286D01*
X600571Y160000D01*
X599857Y159857D01*
X598857Y160143D01*
X598429Y160286D01*
X598286Y160429D01*
X598429Y160571D01*
X598429D01*
X598714Y160429D01*
X599429Y160286D01*
X599857D01*
X600286Y160571D01*
X600429Y160857D01*
Y161429D01*
Y165000D01*
G37*
G74*
*
G75*
G36*
G01*
X593143Y160857D02*
Y160571D01*
Y160143D01*
X592857Y160000D01*
X592571D01*
X592429D01*
X592000Y160143D01*
X591571D01*
X591286D01*
X591143Y160286D01*
X591286Y160429D01*
X591429D01*
X591571D01*
X592000Y160571D01*
X592143Y160857D01*
Y161286D01*
Y165714D01*
X592286Y166000D01*
X592429D01*
X593000Y165857D01*
X593571D01*
X593714D01*
X594000Y165714D01*
X593714Y165571D01*
X593286Y165429D01*
X593143Y164857D01*
Y161429D01*
X593286Y161000D01*
X593571Y160571D01*
X594143Y160429D01*
X594714Y160286D01*
X595143D01*
X595571Y160571D01*
X596000Y161286D01*
X596143Y162143D01*
Y162429D01*
Y165571D01*
Y165714D01*
Y165857D01*
X596286Y166000D01*
X596429D01*
X597000Y165857D01*
X597571D01*
X597857D01*
X598000Y165714D01*
X597857Y165571D01*
X597286Y165429D01*
X597143Y164857D01*
Y162571D01*
Y162143D01*
X597000Y161143D01*
X596571Y160429D01*
X596000Y160000D01*
X595143Y159857D01*
X594000Y160143D01*
X593143Y160857D01*
G37*
G74*
*
G75*
G36*
G01*
X588286Y164571D02*
Y165571D01*
Y165714D01*
X588429Y166000D01*
X588571D01*
X589429Y165429D01*
X590143Y165286D01*
X590286D01*
X590429Y165143D01*
X590286Y165000D01*
X590000D01*
X589429Y164857D01*
X589286Y164286D01*
Y161286D01*
Y160857D01*
X589429Y160571D01*
X589714Y160286D01*
X590000Y160143D01*
X589857Y160000D01*
X589571D01*
X589286D01*
X588714D01*
X588429D01*
X588000D01*
X587571D01*
X587143D01*
X587000Y160143D01*
X587286Y160286D01*
X587571D01*
X588143Y160571D01*
X588286Y160857D01*
Y161429D01*
Y163714D01*
X588143Y164143D01*
X588000Y164571D01*
X587714Y164714D01*
X587286Y164857D01*
X586714Y164714D01*
X586429Y164571D01*
X586143Y164857D01*
X585857Y165143D01*
X586000Y165286D01*
X586286Y165571D01*
X586857Y165857D01*
X587143Y165714D01*
X587571Y165571D01*
X587857Y165143D01*
X588286Y164571D01*
G37*
G74*
*
G75*
G36*
G01*
X582429Y161143D02*
X583714Y164286D01*
X584000Y165143D01*
X583857Y165286D01*
X583571Y165429D01*
X583286D01*
X583143Y165571D01*
X583286Y165714D01*
X583571D01*
X584000D01*
X584571D01*
X585000D01*
X585286D01*
X585714D01*
X585857Y165571D01*
X585714Y165429D01*
X585286Y165143D01*
X585000Y164714D01*
X583286Y160714D01*
X583000Y160143D01*
Y159857D01*
X583143Y159429D01*
X583429Y158714D01*
X584143Y157571D01*
X584286Y157429D01*
X584143Y157286D01*
X583857D01*
X583571D01*
X583429D01*
X583286Y157571D01*
X583143Y157714D01*
X580571Y164714D01*
X580286Y165143D01*
X580000Y165429D01*
X579857Y165571D01*
X580000Y165714D01*
X580286D01*
X580571D01*
X580857D01*
X581429D01*
X581714D01*
X581857Y165571D01*
X581714Y165429D01*
X581143Y165143D01*
X581000Y164714D01*
X581143Y163857D01*
X582429Y161143D01*
G37*
G74*
*
G75*
G36*
G01*
X574714Y167857D02*
Y161571D01*
Y161000D01*
X574857Y160571D01*
X575143Y160429D01*
X575571Y160286D01*
X575714Y160143D01*
X575429Y160000D01*
X575000D01*
X573714D01*
X572143D01*
X571714D01*
X571429D01*
X570000Y160143D01*
X568571Y160714D01*
X567714Y161571D01*
X567000Y162429D01*
X566571Y163571D01*
X566429Y164857D01*
X566571Y165857D01*
X566714Y166714D01*
X567143Y167429D01*
X567714Y168143D01*
X568571Y168714D01*
X569571Y169143D01*
X570714Y169429D01*
X572143Y169571D01*
X573000D01*
X573714D01*
X574143D01*
X574714D01*
X575143D01*
X575286D01*
X575857D01*
X576000Y169429D01*
X575714Y169286D01*
X575286Y169143D01*
X575000Y168857D01*
X574714Y168429D01*
Y167857D01*
G37*
G74*
*
G75*
G36*
G01*
X564571Y163429D02*
X562000D01*
X561571D01*
X561000D01*
X560714D01*
X560571Y163571D01*
X560714Y164143D01*
X561143Y164857D01*
X561857Y165571D01*
X563000Y165857D01*
X563857Y165571D01*
X564714Y165000D01*
X565429Y164000D01*
X565571Y162857D01*
X565429Y161714D01*
X564857Y160714D01*
X564000Y160000D01*
X563000Y159857D01*
X562000Y160000D01*
X561000Y160429D01*
X560714Y160857D01*
X560571Y161000D01*
X560714Y161143D01*
X560714D01*
X561571Y160571D01*
X562429Y160429D01*
X563286Y160571D01*
X564000Y161286D01*
X564429Y162143D01*
X564571Y163286D01*
Y163429D01*
G37*
G74*
*
G75*
G36*
G01*
X557429Y165857D02*
X557429D01*
X558286Y165714D01*
X558857Y165429D01*
X559286Y164857D01*
X559429Y164286D01*
X559286Y163714D01*
X559000Y163286D01*
X558571Y163000D01*
X557857Y162571D01*
X557286Y162286D01*
X556571Y161857D01*
X556286Y161286D01*
X556429Y160857D01*
X556571Y160429D01*
X557000Y160143D01*
X557429D01*
X558000Y160286D01*
X558571Y160571D01*
X558857Y161143D01*
X559143Y161714D01*
X559286Y162000D01*
X559571Y161857D01*
Y161571D01*
Y160714D01*
Y160429D01*
X559429Y160286D01*
X559143D01*
X559000Y160143D01*
X558286Y160000D01*
X557714Y159857D01*
X557000Y160000D01*
X556286Y160429D01*
X555857Y161000D01*
X555714Y161714D01*
X555857Y162286D01*
X556000Y162714D01*
X556571Y163143D01*
X557286Y163429D01*
X558000Y163714D01*
X558571Y164000D01*
X558714Y164286D01*
X558857Y164714D01*
X558714Y165000D01*
X558571Y165286D01*
X557857Y165571D01*
X557000Y165286D01*
X556429Y164429D01*
X556143Y164286D01*
X556000D01*
Y164571D01*
Y164857D01*
Y165143D01*
Y165286D01*
Y165429D01*
X556143Y165571D01*
X556571Y165714D01*
X557429Y165857D01*
G37*
G74*
*
G75*
G36*
G01*
X553143Y168714D02*
X553143D01*
X553571Y168429D01*
X553857Y168000D01*
X553571Y167571D01*
X553429Y167286D01*
X553286D01*
X553000D01*
X552857Y167571D01*
X552571Y168000D01*
X552714Y168143D01*
X552857Y168429D01*
X553143Y168714D01*
G37*
G74*
*
G75*
G36*
G01*
X552714Y161143D02*
Y165857D01*
X552857Y166000D01*
X553286Y165857D01*
X554286Y165429D01*
X554429Y165286D01*
X554571D01*
Y165143D01*
X554286D01*
X554000D01*
X553857Y165000D01*
X553714Y164714D01*
Y164143D01*
Y161143D01*
X553857Y160571D01*
X554143Y160286D01*
X554286D01*
X554429Y160143D01*
X554286Y160000D01*
X554000D01*
X553714D01*
X553143D01*
X552714D01*
X552286D01*
X551714D01*
X551571Y160143D01*
X551857Y160286D01*
X552143D01*
X552571Y160571D01*
X552714Y160714D01*
Y161143D01*
G37*
G74*
*
G75*
G36*
G01*
X550143Y159714D02*
X550143D01*
X550857Y159286D01*
X551143Y158571D01*
X551000Y158143D01*
X550429Y157714D01*
X549571Y157429D01*
X548571Y157286D01*
X547571Y157429D01*
X546714Y157857D01*
X546000Y158429D01*
X545857Y159143D01*
X546000Y159714D01*
X546429Y160143D01*
X547286Y160286D01*
X548429Y160429D01*
X549286D01*
X549714Y160571D01*
X550000Y160714D01*
X550143Y161143D01*
X549857Y161571D01*
X549429Y161857D01*
X549143D01*
X548429Y161714D01*
X547571Y161857D01*
X546857Y162286D01*
X546429Y163000D01*
X546286Y163714D01*
Y164286D01*
X546429Y164429D01*
X546286Y164571D01*
X545857Y164857D01*
X545714Y165143D01*
Y165429D01*
X545571Y166000D01*
X545714Y166143D01*
Y166000D01*
X545857Y165857D01*
X546143Y165429D01*
X546714Y165286D01*
X547143Y165429D01*
X547857Y165714D01*
X548571Y165857D01*
X549429Y165714D01*
X550143Y165286D01*
X550571Y164571D01*
X550714Y163714D01*
X550429Y162714D01*
X549714Y162000D01*
X550286Y161286D01*
X550571Y160571D01*
X550429Y160143D01*
X550143Y159714D01*
X550143D01*
G37*
G74*
*
G75*
G36*
G01*
X543000Y164714D02*
Y165571D01*
Y165714D01*
X543143Y166000D01*
X543286D01*
X543571Y165857D01*
X543857Y165571D01*
X544857Y165286D01*
X545000Y165143D01*
Y165000D01*
X544857D01*
X544571D01*
X544143Y164857D01*
X544000Y164571D01*
Y164143D01*
Y161143D01*
X544143Y160571D01*
X544571Y160286D01*
X544714Y160143D01*
X544571Y160000D01*
X544286D01*
X543857D01*
X543000D01*
X542571D01*
X542429D01*
X542000D01*
X541857Y160143D01*
X542143Y160286D01*
X542714Y160429D01*
X543000Y160857D01*
Y161286D01*
Y161429D01*
Y164143D01*
X542857Y164571D01*
X542571Y164857D01*
X542143Y165143D01*
X541571Y165286D01*
X540857Y165143D01*
X540286Y164714D01*
X540000Y164143D01*
X539857Y163286D01*
Y160857D01*
Y160429D01*
X540143Y160286D01*
X540286D01*
X540429Y160143D01*
Y160000D01*
X540286D01*
X540000D01*
X539857D01*
X539143D01*
X538571D01*
X538286D01*
X538000D01*
X537714Y160143D01*
X537857Y160286D01*
X538286D01*
X538571Y160429D01*
X538857Y160857D01*
Y161143D01*
Y161286D01*
Y163000D01*
X539000Y164143D01*
X539286Y165000D01*
X540000Y165571D01*
X541000Y165857D01*
X542000Y165571D01*
X543000Y164714D01*
G37*
G74*
*
G75*
G36*
G01*
X536000Y161571D02*
X536000D01*
X536143D01*
X536429Y161143D01*
X536714Y161000D01*
X536857Y160714D01*
X536714Y160429D01*
X536000Y160000D01*
X535857Y159286D01*
X536143Y158714D01*
X536571Y158143D01*
X536714Y158000D01*
X536571Y157857D01*
X536143Y158000D01*
X535714Y158429D01*
X535143Y159286D01*
X535000Y160143D01*
Y160571D01*
X535286Y161143D01*
X535571Y161429D01*
X536000Y161571D01*
G37*
G74*
*
G75*
G36*
G01*
X527714Y161857D02*
Y168000D01*
X527571Y168857D01*
X527143Y169286D01*
X526857D01*
X526714Y169429D01*
X526857Y169571D01*
X527143D01*
X528286D01*
X529286D01*
X529714D01*
X530000Y169429D01*
X529857Y169286D01*
X529429D01*
X528857Y168857D01*
X528714Y168143D01*
Y162000D01*
Y161714D01*
Y161143D01*
X528857Y160714D01*
X529143Y160429D01*
X529571Y160286D01*
X529857Y160143D01*
X529714Y160000D01*
X529286D01*
X527857D01*
X526429D01*
X525714D01*
X525143D01*
X524000Y160143D01*
X523143Y160714D01*
X522857Y161143D01*
X522714Y161571D01*
X522857Y161714D01*
X523000Y161571D01*
X523429Y161000D01*
X524286Y160714D01*
X525286Y160429D01*
X526571D01*
X527143D01*
X527571Y160571D01*
X527714Y160857D01*
Y161571D01*
Y161857D01*
G37*
G74*
*
G75*
G36*
G01*
X520000D02*
Y168000D01*
X519857Y168857D01*
X519429Y169286D01*
X519143D01*
X519000Y169429D01*
X519143Y169571D01*
X519429D01*
X520571D01*
X521571D01*
X522000D01*
X522286Y169429D01*
X522143Y169286D01*
X521714D01*
X521143Y168857D01*
X521000Y168143D01*
Y162000D01*
Y161714D01*
Y161143D01*
X521143Y160714D01*
X521429Y160429D01*
X521857Y160286D01*
X522143Y160143D01*
X522000Y160000D01*
X521571D01*
X520143D01*
X518714D01*
X518000D01*
X517429D01*
X516286Y160143D01*
X515429Y160714D01*
X515143Y161143D01*
X515000Y161571D01*
X515143Y161714D01*
X515286Y161571D01*
X515714Y161000D01*
X516571Y160714D01*
X517571Y160429D01*
X518857D01*
X519429D01*
X519857Y160571D01*
X520000Y160857D01*
Y161571D01*
Y161857D01*
G37*
G74*
*
G75*
G36*
G01*
X505714Y168714D02*
X505714D01*
X505857Y169000D01*
X506000Y168857D01*
X506143D01*
X506286D01*
X506429D01*
X506714Y169000D01*
X508000Y169571D01*
X509429Y169714D01*
X510429Y169571D01*
X511429Y169286D01*
X512286Y168857D01*
X513000Y168286D01*
X513571Y167429D01*
X514000Y166571D01*
X514286Y165714D01*
X514429Y164714D01*
X514286Y163571D01*
X514143Y162714D01*
X513714Y161857D01*
X513000Y161143D01*
X512286Y160571D01*
X511429Y160143D01*
X510571Y160000D01*
X509429Y159857D01*
X507571Y160143D01*
X505857Y160857D01*
X505714Y161143D01*
X505571Y161286D01*
Y161429D01*
X505286Y162286D01*
Y162429D01*
Y162571D01*
X505429Y162714D01*
X505571Y162571D01*
X505714Y162286D01*
X506286Y161429D01*
X507143Y160714D01*
X508143Y160286D01*
X509286Y160143D01*
X510143Y160286D01*
X510857Y160429D01*
X511571Y160857D01*
X512286Y161571D01*
X512714Y162286D01*
X513143Y163143D01*
X513286Y164143D01*
X513429Y165286D01*
X513143Y167000D01*
X512429Y168286D01*
X511143Y169143D01*
X509429Y169429D01*
X508429Y169286D01*
X507429Y168857D01*
X506571Y168000D01*
X505857Y167000D01*
X505714Y166714D01*
X505571D01*
X505429D01*
Y166857D01*
Y167000D01*
X505714Y168714D01*
G37*
G74*
*
*
G04 PC Void Outlines (0)*
G04 Layer Name J5458-00.pcb - clear (0)*
%LPC*%
*
*
G04 PC Area=System Text*
G75*
G36*
G01*
X670000Y169429D02*
X670000D01*
X669143Y169286D01*
X668286Y169000D01*
X667571Y168571D01*
X666857Y167857D01*
X666286Y167000D01*
X665857Y166143D01*
X665714Y165143D01*
X665571Y164143D01*
X665857Y162429D01*
X666571Y161286D01*
X667571Y160429D01*
X669000Y160143D01*
X669857D01*
X670429Y160429D01*
X671857Y161286D01*
X672571Y162000D01*
X673000Y163000D01*
X673286Y164143D01*
X673429Y165429D01*
X673143Y167000D01*
X672429Y168286D01*
X671286Y169143D01*
X670000Y169429D01*
G37*
G74*
*
G75*
G36*
G01*
X652714Y162857D02*
Y161429D01*
Y160857D01*
X653000Y160571D01*
X653429Y160286D01*
X653857Y160143D01*
X654286D01*
X654571Y160429D01*
X654857Y161286D01*
X654714Y161857D01*
X654286Y162286D01*
X653571Y162714D01*
X652714Y162857D01*
G37*
G74*
*
G75*
G36*
G01*
X639714Y163714D02*
X639714D01*
X639571Y164429D01*
X639286Y165000D01*
X638714Y165429D01*
X638286Y165571D01*
X637714Y165429D01*
X637143Y165000D01*
X636857Y164571D01*
X636714Y164000D01*
X636857Y163714D01*
X637286D01*
X639714D01*
G37*
G74*
*
G75*
G36*
G01*
X615000D02*
X615000D01*
X614857Y164429D01*
X614571Y165000D01*
X614000Y165429D01*
X613571Y165571D01*
X613000Y165429D01*
X612429Y165000D01*
X612143Y164571D01*
X612000Y164000D01*
X612143Y163714D01*
X612571D01*
X615000D01*
G37*
G74*
*
G75*
G36*
G01*
X573714Y168429D02*
X573714D01*
Y168857D01*
X573571Y169000D01*
X573000Y169143D01*
X572143Y169286D01*
X570571Y169143D01*
X569429Y168429D01*
X568571Y167714D01*
X568000Y166714D01*
X567571Y165571D01*
X567429Y164286D01*
X567571Y163143D01*
X567857Y162286D01*
X568429Y161429D01*
X569143Y160857D01*
X570143Y160429D01*
X571286Y160286D01*
X572286Y160429D01*
X573286Y160571D01*
X573571Y160857D01*
X573714Y161286D01*
Y168429D01*
G37*
G74*
*
G75*
G36*
G01*
X564571Y163714D02*
X564571D01*
X564429Y164429D01*
X564143Y165000D01*
X563571Y165429D01*
X563143Y165571D01*
X562571Y165429D01*
X562000Y165000D01*
X561714Y164571D01*
X561571Y164000D01*
X561714Y163714D01*
X562143D01*
X564571D01*
G37*
G74*
*
G75*
G36*
G01*
X548571Y165571D02*
X548571D01*
X548000Y165429D01*
X547714Y165000D01*
X547429Y164429D01*
X547286Y163571D01*
X547429Y163000D01*
X547571Y162429D01*
X548000Y162143D01*
X548429Y162000D01*
X549000Y162143D01*
X549286Y162571D01*
X549571Y163143D01*
X549714Y164000D01*
X549571Y164571D01*
X549429Y165143D01*
X549000Y165429D01*
X548571Y165571D01*
G37*
G74*
*
G75*
G36*
G01*
X549714Y159571D02*
X549714D01*
X548857Y159429D01*
X548143D01*
X547714D01*
X547429D01*
X546714Y159286D01*
X546429Y158714D01*
X546571Y158286D01*
X547143Y157857D01*
X547857Y157714D01*
X548714Y157571D01*
X549571D01*
X550143Y157857D01*
X550429Y158286D01*
X550571Y158714D01*
X550286Y159286D01*
X549714Y159571D01*
G37*
G74*
*
*
G04 PC Custom Flashes*
G04 Layer Name J5458-00.pcb - flashes*
%LPD*%
*
*
G04 PC Circuitry*
G04 Layer Name J5458-00.pcb - circuitry*
%LPD*%
*
G54D11*
G01X555000Y200000D02*
Y175000D01*
X480000D02*
Y145000D01*
X432500Y200000D02*
Y145000D01*
X680000Y175000D02*
X370000D01*
Y212500D02*
X680000D01*
Y200000D02*
X370000D01*
X680000Y145000D02*
X370000D01*
Y230000*
X680000*
Y145000*
X674500Y154219D02*
X674136Y154437D01*
X674136D02*
X673591Y155094D01*
Y150500*
X669409Y155094D02*
X671227Y150500D01*
X671955Y155094D02*
X669409D01*
X666682D02*
X667227Y154875D01*
X667591Y154219*
X667773Y153125*
Y152469*
X667591Y151375*
X667227Y150719*
X666682Y150500*
X666318*
X665773Y150719*
X665409Y151375*
X665227Y152469*
Y153125*
X665409Y154219*
X665773Y154875*
X666318Y155094*
X666682*
X662500D02*
X663045Y154875D01*
X663409Y154219*
X663591Y153125*
Y152469*
X663409Y151375*
X663045Y150719*
X662500Y150500*
X662136*
X661591Y150719*
X661227Y151375*
X661045Y152469*
Y153125*
X661227Y154219*
X661591Y154875*
X662136Y155094*
X662500*
X653955D02*
Y150500D01*
X655227Y155094D02*
X652682D01*
X651045D02*
Y150500D01*
X648500Y155094D02*
Y150500D01*
X651045Y152906D02*
X648500D01*
X645773Y155094D02*
X646136Y154875D01*
X646500Y154437*
X646500D02*
X646682Y154000D01*
X646864Y153344*
Y152250*
X646682Y151594*
X646500Y151156*
X646136Y150719*
X645773Y150500*
X645045*
X644682Y150719*
X644318Y151156*
X644136Y151594*
X643955Y152250*
Y153344*
X644136Y154000*
X644318Y154437*
X644318D02*
X644682Y154875D01*
X645045Y155094*
X645773*
X642318D02*
Y150500D01*
Y155094D02*
X640864Y150500D01*
X639409Y155094D02*
X640864Y150500D01*
X639409Y155094D02*
Y150500D01*
X636318Y155094D02*
X637773Y150500D01*
X636318Y155094D02*
X634864Y150500D01*
X637227Y152031D02*
X635409D01*
X630682Y154437D02*
X631045Y154875D01*
X631591Y155094*
X632318*
X632864Y154875*
X633227Y154437*
X633227D02*
Y154000D01*
X633045Y153562*
X633045D02*
X632864Y153344D01*
X632500Y153125*
X631409Y152687*
X631409D02*
X631045Y152469D01*
X630864Y152250*
X630682Y151812*
X630682D02*
Y151156D01*
X631045Y150719*
X631591Y150500*
X632318*
X632864Y150719*
X633227Y151156*
X624864Y155094D02*
Y150500D01*
Y155094D02*
X623227D01*
X622682Y154875*
X622500Y154656*
X622318Y154219*
Y153562*
X622318D02*
X622500Y153125D01*
X622682Y152906*
X623227Y152687*
X623227D02*
X624864D01*
X619227Y155094D02*
X620682Y150500D01*
X619227Y155094D02*
X617773Y150500D01*
X620136Y152031D02*
X618318D01*
X616136Y155094D02*
Y150500D01*
X614500Y155094D02*
Y150500D01*
Y155094D02*
X611955Y150500D01*
Y155094D02*
Y150500D01*
X610318Y155094D02*
Y150500D01*
Y155094D02*
X607955D01*
X610318Y152906D02*
X608864D01*
X610318Y150500D02*
X607955D01*
X602136Y155094D02*
Y150500D01*
Y155094D02*
X600500D01*
X599955Y154875*
X599773Y154656*
X599591Y154219*
Y153562*
X599591D02*
X599773Y153125D01*
X599955Y152906*
X600500Y152687*
X600500D02*
X602136D01*
X596500Y155094D02*
X597955Y150500D01*
X596500Y155094D02*
X595045Y150500D01*
X597409Y152031D02*
X595591D01*
X593409Y155094D02*
Y150500D01*
Y155094D02*
X591773D01*
X591227Y154875*
X591045Y154656*
X590864Y154219*
Y153781*
X591045Y153344*
X591227Y153125*
X591773Y152906*
X593409*
X592136D02*
X590864Y150500D01*
X589227Y155094D02*
Y150500D01*
X586682Y155094D02*
X589227Y152031D01*
X588318Y153125D02*
X586682Y150500D01*
X585045Y155094D02*
X584136Y150500D01*
X583227Y155094D02*
X584136Y150500D01*
X583227Y155094D02*
X582318Y150500D01*
X581409Y155094D02*
X582318Y150500D01*
X578318Y155094D02*
X579773Y150500D01*
X578318Y155094D02*
X576864Y150500D01*
X579227Y152031D02*
X577409D01*
X575227Y155094D02*
X573773Y152906D01*
Y150500*
X572318Y155094D02*
X573773Y152906D01*
X563773Y154000D02*
X563955Y154437D01*
X563955D02*
X564318Y154875D01*
X564682Y155094*
X565409*
X565773Y154875*
X566136Y154437*
X566136D02*
X566318Y154000D01*
X566500Y153344*
Y152250*
X566318Y151594*
X566136Y151156*
X565773Y150719*
X565409Y150500*
X564682*
X564318Y150719*
X563955Y151156*
X563773Y151594*
X562136Y155094D02*
Y150500D01*
Y155094D02*
X559773D01*
X562136Y152906D02*
X560682D01*
X562136Y150500D02*
X559773D01*
X558136Y155094D02*
Y150500D01*
Y155094D02*
X555591Y150500D01*
Y155094D02*
Y150500D01*
X552682Y155094D02*
Y150500D01*
X553955Y155094D02*
X551409D01*
X549773D02*
Y150500D01*
Y155094D02*
X547409D01*
X549773Y152906D02*
X548318D01*
X549773Y150500D02*
X547409D01*
X545773Y155094D02*
Y150500D01*
Y155094D02*
X544136D01*
X543591Y154875*
X543409Y154656*
X543227Y154219*
Y153781*
X543409Y153344*
X543591Y153125*
X544136Y152906*
X545773*
X544500D02*
X543227Y150500D01*
X541591Y155094D02*
X540136Y150500D01*
X538682Y155094D02*
X540136Y150500D01*
X537045Y155094D02*
Y150500D01*
X535409Y155094D02*
Y150500D01*
X533227*
X531591Y155094D02*
Y150500D01*
X529409*
X527773Y155094D02*
Y150500D01*
Y155094D02*
X525409D01*
X527773Y152906D02*
X526318D01*
X527773Y150500D02*
X525409D01*
X523409Y150719D02*
X523591Y150500D01*
X523773Y150719*
X523591Y150937*
X523591D02*
X523409Y150719D01*
Y150281*
X523591Y149844*
X523773Y149625*
X516500Y155094D02*
X516864Y154875D01*
X517227Y154437*
X517227D02*
X517409Y154000D01*
X517591Y153344*
Y152250*
X517409Y151594*
X517227Y151156*
X516864Y150719*
X516500Y150500*
X515773*
X515409Y150719*
X515045Y151156*
X514864Y151594*
X514682Y152250*
Y153344*
X514864Y154000*
X515045Y154437*
X515045D02*
X515409Y154875D01*
X515773Y155094*
X516500*
X513045D02*
Y150500D01*
X510500Y155094D02*
Y150500D01*
X513045Y152906D02*
X510500D01*
X502864Y155094D02*
X504682Y152031D01*
X501955*
X502864Y155094D02*
Y150500D01*
X497955Y155094D02*
X499773D01*
X499955Y153125*
X499773Y153344*
X499227Y153562*
X499227D02*
X498682D01*
X498682D02*
X498136Y153344D01*
X497773Y152906*
X497591Y152250*
X497773Y151812*
X497773D02*
X497955Y151156D01*
X498318Y150719*
X498864Y150500*
X499409*
X499955Y150719*
X500136Y150937*
X500136D02*
X500318Y151375D01*
X494136Y155094D02*
X495955Y152031D01*
X493227*
X494136Y155094D02*
Y150500D01*
X489227Y155094D02*
X491045D01*
X491227Y153125*
X491045Y153344*
X490500Y153562*
X490500D02*
X489955D01*
X489955D02*
X489409Y153344D01*
X489045Y152906*
X488864Y152250*
X489045Y151812*
X489045D02*
X489227Y151156D01*
X489591Y150719*
X490136Y150500*
X490682*
X491227Y150719*
X491409Y150937*
X491409D02*
X491591Y151375D01*
X484864Y153562D02*
X485045Y152906D01*
X485409Y152469*
X485955Y152250*
X486136*
X486682Y152469*
X487045Y152906*
X487227Y153562*
X487227D02*
Y153781D01*
X487045Y154437*
X487045D02*
X486682Y154875D01*
X486136Y155094*
X485955*
X485409Y154875*
X485045Y154437*
X485045D02*
X484864Y153562D01*
X484864D02*
Y152469D01*
X485045Y151375*
X485409Y150719*
X485955Y150500*
X486318*
X486864Y150719*
X487045Y151156*
X423136Y171406D02*
X423591Y171125D01*
X424045Y170562*
X424045D02*
X424273Y170000D01*
X424500Y169156*
Y167750*
X424273Y166906*
X424045Y166344*
X423591Y165781*
X423136Y165500*
X422227*
X421773Y165781*
X421318Y166344*
X421091Y166906*
X420864Y167750*
Y169156*
X421091Y170000*
X421318Y170562*
X421318D02*
X421773Y171125D01*
X422227Y171406*
X423136*
X422455Y166625D02*
X421091Y164937D01*
X415409Y170000D02*
X415636Y170562D01*
X415636D02*
X416091Y171125D01*
X416545Y171406*
X417455*
X417909Y171125*
X418364Y170562*
X418364D02*
X418591Y170000D01*
X418818Y169156*
Y167750*
X418591Y166906*
X418364Y166344*
X417909Y165781*
X417455Y165500*
X416545*
X416091Y165781*
X415636Y166344*
X415409Y166906*
X413364Y171406D02*
Y165500D01*
Y171406D02*
X411773D01*
X411091Y171125*
X410636Y170562*
X410636D02*
X410409Y170000D01*
X410182Y169156*
Y167750*
X410409Y166906*
X410636Y166344*
X411091Y165781*
X411773Y165500*
X413364*
X400636Y171406D02*
Y166906D01*
X400864Y166062*
X400864D02*
X401091Y165781D01*
X401545Y165500*
X402000*
X402455Y165781*
X402682Y166062*
X402682D02*
X402909Y166906D01*
Y167469*
X397227Y171406D02*
X397682Y171125D01*
X398136Y170562*
X398136D02*
X398364Y170000D01*
X398591Y169156*
Y167750*
X398364Y166906*
X398136Y166344*
X397682Y165781*
X397227Y165500*
X396318*
X395864Y165781*
X395409Y166344*
X395182Y166906*
X394955Y167750*
Y169156*
X395182Y170000*
X395409Y170562*
X395409D02*
X395864Y171125D01*
X396318Y171406*
X397227*
X392909D02*
Y165500D01*
Y171406D02*
X390864D01*
X390182Y171125*
X389955Y170844*
X389727Y170281*
Y169719*
X389955Y169156*
X390182Y168875*
X390864Y168594*
X392909D02*
X390864D01*
X390182Y168312*
X390182D02*
X389955Y168031D01*
X389727Y167469*
Y166625*
X389955Y166062*
X389955D02*
X390182Y165781D01*
X390864Y165500*
X392909*
X380636Y172531D02*
X382227Y163531D01*
X379273Y172531D02*
X380864Y163531D01*
X382227Y168875D02*
X379045D01*
X382455Y167187D02*
X379273D01*
X367318Y138906D02*
X365500Y133000D01*
X367318Y138906D02*
X369136Y133000D01*
X366182Y134969D02*
X368455D01*
X371182Y138906D02*
Y133000D01*
X373909*
X375955Y138906D02*
Y133000D01*
X378682*
X389364Y137500D02*
X389136Y138062D01*
X389136D02*
X388682Y138625D01*
X388227Y138906*
X387318*
X386864Y138625*
X386409Y138062*
X386409D02*
X386182Y137500D01*
X385955Y136656*
Y135250*
X386182Y134406*
X386409Y133844*
X386864Y133281*
X387318Y133000*
X388227*
X388682Y133281*
X389136Y133844*
X389364Y134406*
Y135250*
X388227D02*
X389364D01*
X391409Y138906D02*
Y133000D01*
Y138906D02*
X394364D01*
X391409Y136094D02*
X393227D01*
X391409Y133000D02*
X394364D01*
X396409Y138906D02*
Y133000D01*
Y138906D02*
X398455D01*
X399136Y138625*
X399364Y138344*
X399591Y137781*
Y137219*
X399364Y136656*
X399136Y136375*
X398455Y136094*
X396409*
X398000D02*
X399591Y133000D01*
X401636Y138906D02*
Y133000D01*
Y138906D02*
X403682D01*
X404364Y138625*
X404591Y138344*
X404818Y137781*
Y137219*
X404591Y136656*
X404364Y136375*
X403682Y136094*
X401636D02*
X403682D01*
X404364Y135812*
X404364D02*
X404591Y135531D01*
X404818Y134969*
Y134125*
X404591Y133562*
X404591D02*
X404364Y133281D01*
X403682Y133000*
X401636*
X406864Y138906D02*
Y133000D01*
Y138906D02*
X409818D01*
X406864Y136094D02*
X408682D01*
X406864Y133000D02*
X409818D01*
X411864Y138906D02*
Y133000D01*
Y138906D02*
X413909D01*
X414591Y138625*
X414818Y138344*
X415045Y137781*
Y137219*
X414818Y136656*
X414591Y136375*
X413909Y136094*
X411864*
X413455D02*
X415045Y133000D01*
X420273Y138062D02*
X419818Y138625D01*
X419136Y138906*
X418227*
X417545Y138625*
X417091Y138062*
X417091D02*
Y137500D01*
X417318Y136937*
X417318D02*
X417545Y136656D01*
X418000Y136375*
X419364Y135812*
X419364D02*
X419818Y135531D01*
X420045Y135250*
X420273Y134687*
X420273D02*
Y133844D01*
X419818Y133281*
X419136Y133000*
X418227*
X417545Y133281*
X417091Y133844*
X429364Y138906D02*
X427545Y133000D01*
X429364Y138906D02*
X431182Y133000D01*
X428227Y134969D02*
X430500D01*
X433227Y138906D02*
Y133000D01*
Y138906D02*
X435273D01*
X435955Y138625*
X436182Y138344*
X436409Y137781*
Y137219*
X436182Y136656*
X435955Y136375*
X435273Y136094*
X433227*
X434818D02*
X436409Y133000D01*
X438455Y138906D02*
Y133000D01*
Y138906D02*
X441409D01*
X438455Y136094D02*
X440273D01*
X438455Y133000D02*
X441409D01*
X448682Y138906D02*
X450500Y133000D01*
X452318Y138906D02*
X450500Y133000D01*
X454364Y138906D02*
Y133000D01*
X456409Y138906D02*
Y133000D01*
Y138906D02*
X459364D01*
X456409Y136094D02*
X458227D01*
X456409Y133000D02*
X459364D01*
X461409Y138906D02*
X462545Y133000D01*
X463682Y138906D02*
X462545Y133000D01*
X463682Y138906D02*
X464818Y133000D01*
X465955Y138906D02*
X464818Y133000D01*
X468000Y138906D02*
Y133000D01*
Y138906D02*
X470955D01*
X468000Y136094D02*
X469818D01*
X468000Y133000D02*
X470955D01*
X473000Y138906D02*
Y133000D01*
Y138906D02*
X474591D01*
X475273Y138625*
X475727Y138062*
X475727D02*
X475955Y137500D01*
X476182Y136656*
Y135250*
X475955Y134406*
X475727Y133844*
X475273Y133281*
X474591Y133000*
X473000*
X483455Y138906D02*
Y133000D01*
Y138906D02*
X486409D01*
X483455Y136094D02*
X485273D01*
X488455Y138906D02*
Y133000D01*
Y138906D02*
X490500D01*
X491182Y138625*
X491409Y138344*
X491636Y137781*
Y137219*
X491409Y136656*
X491182Y136375*
X490500Y136094*
X488455*
X490045D02*
X491636Y133000D01*
X495045Y138906D02*
X494591Y138625D01*
X494136Y138062*
X494136D02*
X493909Y137500D01*
X493682Y136656*
Y135250*
X493909Y134406*
X494136Y133844*
X494591Y133281*
X495045Y133000*
X495955*
X496409Y133281*
X496864Y133844*
X497091Y134406*
X497318Y135250*
Y136656*
X497091Y137500*
X496864Y138062*
X496864D02*
X496409Y138625D01*
X495955Y138906*
X495045*
X499364D02*
Y133000D01*
Y138906D02*
X501182Y133000D01*
X503000Y138906D02*
X501182Y133000D01*
X503000Y138906D02*
Y133000D01*
X511864Y138906D02*
Y133000D01*
X510273Y138906D02*
X513455D01*
X515500D02*
Y133000D01*
X518682Y138906D02*
Y133000D01*
X515500Y136094D02*
X518682D01*
X520727Y138906D02*
Y133000D01*
Y138906D02*
X523682D01*
X520727Y136094D02*
X522545D01*
X520727Y133000D02*
X523682D01*
X530955Y138906D02*
Y133000D01*
Y138906D02*
X533000D01*
X533682Y138625*
X533909Y138344*
X534136Y137781*
Y136937*
X534136D02*
X533909Y136375D01*
X533682Y136094*
X533000Y135812*
X533000D02*
X530955D01*
X536182Y138906D02*
Y133000D01*
Y138906D02*
X538227D01*
X538909Y138625*
X539136Y138344*
X539364Y137781*
Y137219*
X539136Y136656*
X538909Y136375*
X538227Y136094*
X536182*
X537773D02*
X539364Y133000D01*
X541409Y138906D02*
Y133000D01*
X543455Y138906D02*
Y133000D01*
Y138906D02*
X545273Y133000D01*
X547091Y138906D02*
X545273Y133000D01*
X547091Y138906D02*
Y133000D01*
X550955Y138906D02*
X549136Y133000D01*
X550955Y138906D02*
X552773Y133000D01*
X549818Y134969D02*
X552091D01*
X554818Y138906D02*
Y133000D01*
Y138906D02*
X556864D01*
X557545Y138625*
X557773Y138344*
X558000Y137781*
Y137219*
X557773Y136656*
X557545Y136375*
X556864Y136094*
X554818*
X556409D02*
X558000Y133000D01*
X560045Y138906D02*
X561864Y136094D01*
Y133000*
X563682Y138906D02*
X561864Y136094D01*
X574136Y138062D02*
X573682Y138625D01*
X573000Y138906*
X572091*
X571409Y138625*
X570955Y138062*
X570955D02*
Y137500D01*
X571182Y136937*
X571182D02*
X571409Y136656D01*
X571864Y136375*
X573227Y135812*
X573227D02*
X573682Y135531D01*
X573909Y135250*
X574136Y134687*
X574136D02*
Y133844D01*
X573682Y133281*
X573000Y133000*
X572091*
X571409Y133281*
X570955Y133844*
X576182Y138906D02*
Y133000D01*
X578227Y138906D02*
Y133000D01*
Y138906D02*
X579818D01*
X580500Y138625*
X580955Y138062*
X580955D02*
X581182Y137500D01*
X581409Y136656*
Y135250*
X581182Y134406*
X580955Y133844*
X580500Y133281*
X579818Y133000*
X578227*
X583455Y138906D02*
Y133000D01*
Y138906D02*
X586409D01*
X583455Y136094D02*
X585273D01*
X583455Y133000D02*
X586409D01*
X595273Y140031D02*
X594818Y139469D01*
X594364Y138625*
X593909Y137500*
X593682Y136094*
Y134969*
X593909Y133562*
X593909D02*
X594364Y132437D01*
X594364D02*
X594818Y131594D01*
X595273Y131031*
X598909Y138906D02*
Y133000D01*
X597318Y138906D02*
X600500D01*
X602545D02*
Y133000D01*
X605727Y138906D02*
Y133000D01*
X602545Y136094D02*
X605727D01*
X607773Y138906D02*
Y133000D01*
Y138906D02*
X609818D01*
X610500Y138625*
X610727Y138344*
X610955Y137781*
Y137219*
X610727Y136656*
X610500Y136375*
X609818Y136094*
X607773*
X609364D02*
X610955Y133000D01*
X614364Y138906D02*
X613909Y138625D01*
X613455Y138062*
X613455D02*
X613227Y137500D01*
X613000Y136656*
Y135250*
X613227Y134406*
X613455Y133844*
X613909Y133281*
X614364Y133000*
X615273*
X615727Y133281*
X616182Y133844*
X616409Y134406*
X616636Y135250*
Y136656*
X616409Y137500*
X616182Y138062*
X616182D02*
X615727Y138625D01*
X615273Y138906*
X614364*
X618682D02*
Y134687D01*
X618682D02*
X618909Y133844D01*
X619364Y133281*
X620045Y133000*
X620500*
X621182Y133281*
X621636Y133844*
X621864Y134687*
X621864D02*
Y138906D01*
X627318Y137500D02*
X627091Y138062D01*
X627091D02*
X626636Y138625D01*
X626182Y138906*
X625273*
X624818Y138625*
X624364Y138062*
X624364D02*
X624136Y137500D01*
X623909Y136656*
Y135250*
X624136Y134406*
X624364Y133844*
X624818Y133281*
X625273Y133000*
X626182*
X626636Y133281*
X627091Y133844*
X627318Y134406*
Y135250*
X626182D02*
X627318D01*
X629364Y138906D02*
Y133000D01*
X632545Y138906D02*
Y133000D01*
X629364Y136094D02*
X632545D01*
X641409Y138906D02*
Y133000D01*
X639818Y138906D02*
X643000D01*
X645045D02*
Y133000D01*
X648227Y138906D02*
Y133000D01*
X645045Y136094D02*
X648227D01*
X650273Y138906D02*
Y133000D01*
Y138906D02*
X653227D01*
X650273Y136094D02*
X652091D01*
X650273Y133000D02*
X653227D01*
X660500Y138906D02*
Y133000D01*
Y138906D02*
X662545D01*
X663227Y138625*
X663455Y138344*
X663682Y137781*
Y137219*
X663455Y136656*
X663227Y136375*
X662545Y136094*
X660500D02*
X662545D01*
X663227Y135812*
X663227D02*
X663455Y135531D01*
X663682Y134969*
Y134125*
X663455Y133562*
X663455D02*
X663227Y133281D01*
X662545Y133000*
X660500*
X667091Y138906D02*
X666636Y138625D01*
X666182Y138062*
X666182D02*
X665955Y137500D01*
X665727Y136656*
Y135250*
X665955Y134406*
X666182Y133844*
X666636Y133281*
X667091Y133000*
X668000*
X668455Y133281*
X668909Y133844*
X669136Y134406*
X669364Y135250*
Y136656*
X669136Y137500*
X668909Y138062*
X668909D02*
X668455Y138625D01*
X668000Y138906*
X667091*
X673227D02*
X671409Y133000D01*
X673227Y138906D02*
X675045Y133000D01*
X672091Y134969D02*
X674364D01*
X677091Y138906D02*
Y133000D01*
Y138906D02*
X679136D01*
X679818Y138625*
X680045Y138344*
X680273Y137781*
Y137219*
X680045Y136656*
X679818Y136375*
X679136Y136094*
X677091*
X678682D02*
X680273Y133000D01*
X682318Y138906D02*
Y133000D01*
Y138906D02*
X683909D01*
X684591Y138625*
X685045Y138062*
X685045D02*
X685273Y137500D01*
X685500Y136656*
Y135250*
X685273Y134406*
X685045Y133844*
X684591Y133281*
X683909Y133000*
X682318*
X687545Y140031D02*
X688000Y139469D01*
X688455Y138625*
X688909Y137500*
X689136Y136094*
Y134969*
X688909Y133562*
X688909D02*
X688455Y132437D01*
X688455D02*
X688000Y131594D01*
X687545Y131031*
X674500Y198047D02*
Y190500D01*
Y198047D02*
X670807D01*
X674500Y194453D02*
X672227D01*
X674500Y190500D02*
X670807D01*
X666261Y198047D02*
Y190500D01*
X668250Y198047D02*
X664273D01*
X661716D02*
Y190500D01*
X657739Y198047D02*
Y190500D01*
X661716Y194453D02*
X657739D01*
X655182Y198047D02*
Y190500D01*
Y198047D02*
X651489D01*
X655182Y194453D02*
X652909D01*
X655182Y190500D02*
X651489D01*
X648932Y198047D02*
Y190500D01*
Y198047D02*
X646375D01*
X645523Y197687*
X645523D02*
X645239Y197328D01*
X644955Y196609*
Y195891*
X645239Y195172*
X645523Y194812*
X645523D02*
X646375Y194453D01*
X648932*
X646943D02*
X644955Y190500D01*
X642398Y198047D02*
Y190500D01*
Y198047D02*
X638420Y190500D01*
Y198047D02*
Y190500D01*
X635864Y198047D02*
Y190500D01*
Y198047D02*
X632170D01*
X635864Y194453D02*
X633591D01*
X635864Y190500D02*
X632170D01*
X627625Y198047D02*
Y190500D01*
X629614Y198047D02*
X625636D01*
X616545D02*
Y190500D01*
Y198047D02*
X614273Y190500D01*
X612000Y198047D02*
X614273Y190500D01*
X612000Y198047D02*
Y190500D01*
X607739Y198047D02*
X608307Y197687D01*
X608307D02*
X608875Y196969D01*
X609159Y196250*
X609443Y195172*
Y193375*
X609159Y192297*
X608875Y191578*
X608307Y190859*
X607739Y190500*
X606602*
X606034Y190859*
X605466Y191578*
X605182Y192297*
X604898Y193375*
Y195172*
X605182Y196250*
X605466Y196969*
X606034Y197687*
X606034D02*
X606602Y198047D01*
X607739*
X602341D02*
Y190500D01*
Y198047D02*
X598364Y190500D01*
Y198047D02*
Y190500D01*
X595807Y198047D02*
Y190500D01*
X591261Y198047D02*
Y190500D01*
X593250Y198047D02*
X589273D01*
X585011D02*
X585580Y197687D01*
X585580D02*
X586148Y196969D01*
X586432Y196250*
X586716Y195172*
Y193375*
X586432Y192297*
X586148Y191578*
X585580Y190859*
X585011Y190500*
X583875*
X583307Y190859*
X582739Y191578*
X582455Y192297*
X582170Y193375*
Y195172*
X582455Y196250*
X582739Y196969*
X583307Y197687*
X583307D02*
X583875Y198047D01*
X585011*
X579614D02*
Y190500D01*
Y198047D02*
X577057D01*
X576205Y197687*
X576205D02*
X575920Y197328D01*
X575636Y196609*
Y195891*
X575920Y195172*
X576205Y194812*
X576205D02*
X577057Y194453D01*
X579614*
X577625D02*
X575636Y190500D01*
X560864Y194812D02*
Y195172D01*
X561148Y195531*
X561432*
X561716Y195172*
X562000Y194453*
X562568Y192656*
X563136Y191578*
X563705Y190859*
X564273Y190500*
X565409*
X565977Y190859*
X566261Y191219*
X566545Y191937*
X566545D02*
Y192656D01*
X566261Y193375*
X565977Y193734*
X563989Y195172*
X563705Y195531*
X563420Y196250*
Y196969*
X563705Y197687*
X563705D02*
X564273Y198047D01*
X564841Y197687*
X564841D02*
X565125Y196969D01*
Y196250*
X564841Y195172*
X564273Y194094*
X562852Y191578*
X562284Y190859*
X561716Y190500*
X561148*
X560864Y190859*
Y191219*
X670239Y183750D02*
X670523Y184469D01*
X671091Y185187*
X671091D02*
X671659Y185547D01*
X672795*
X673364Y185187*
X673364D02*
X673932Y184469D01*
X674216Y183750*
X674500Y182672*
Y180875*
X674216Y179797*
X673932Y179078*
X673364Y178359*
X672795Y178000*
X671659*
X671091Y178359*
X670523Y179078*
X670239Y179797*
X665977Y185547D02*
X666545Y185187D01*
X666545D02*
X667114Y184469D01*
X667398Y183750*
X667682Y182672*
Y180875*
X667398Y179797*
X667114Y179078*
X666545Y178359*
X665977Y178000*
X664841*
X664273Y178359*
X663705Y179078*
X663420Y179797*
X663136Y180875*
Y182672*
X663420Y183750*
X663705Y184469*
X664273Y185187*
X664273D02*
X664841Y185547D01*
X665977*
X660580D02*
Y178000D01*
Y185547D02*
X656602Y178000D01*
Y185547D02*
Y178000D01*
X652057Y185547D02*
Y178000D01*
X654045Y185547D02*
X650068D01*
X647511D02*
Y178000D01*
Y185547D02*
X644955D01*
X644102Y185187*
X644102D02*
X643818Y184828D01*
X643534Y184109*
Y183391*
X643818Y182672*
X644102Y182312*
X644102D02*
X644955Y181953D01*
X647511*
X645523D02*
X643534Y178000D01*
X639273Y185547D02*
X639841Y185187D01*
X639841D02*
X640409Y184469D01*
X640693Y183750*
X640977Y182672*
Y180875*
X640693Y179797*
X640409Y179078*
X639841Y178359*
X639273Y178000*
X638136*
X637568Y178359*
X637000Y179078*
X636716Y179797*
X636432Y180875*
Y182672*
X636716Y183750*
X637000Y184469*
X637568Y185187*
X637568D02*
X638136Y185547D01*
X639273*
X633875D02*
Y178000D01*
X630466*
X621375Y185547D02*
Y178000D01*
Y185547D02*
X618818D01*
X617966Y185187*
X617966D02*
X617682Y184828D01*
X617398Y184109*
Y183391*
X617682Y182672*
X617966Y182312*
X617966D02*
X618818Y181953D01*
X621375D02*
X618818D01*
X617966Y181594*
X617682Y181234*
X617398Y180516*
Y179437*
X617398D02*
X617682Y178719D01*
X617966Y178359*
X618818Y178000*
X621375*
X614841Y185547D02*
Y178000D01*
Y185547D02*
X612852D01*
X612000Y185187*
X612000D02*
X611432Y184469D01*
X611148Y183750*
X610864Y182672*
Y180875*
X611148Y179797*
X611432Y179078*
X612000Y178359*
X612852Y178000*
X614841*
X424500Y196406D02*
Y190500D01*
Y196406D02*
X422909D01*
X422227Y196125*
X421773Y195562*
X421773D02*
X421545Y195000D01*
X421318Y194156*
Y192750*
X421545Y191906*
X421773Y191344*
X422227Y190781*
X422909Y190500*
X424500*
X417455Y196406D02*
X419273Y190500D01*
X417455Y196406D02*
X415636Y190500D01*
X418591Y192469D02*
X416318D01*
X412000Y196406D02*
Y190500D01*
X413591Y196406D02*
X410409D01*
X408364D02*
Y190500D01*
Y196406D02*
X405409D01*
X408364Y193594D02*
X406545D01*
X408364Y190500D02*
X405409D01*
X403136Y194437D02*
X403364Y194156D01*
X403136Y193875*
X402909Y194156*
X403136Y194437*
Y191062D02*
X403364Y190781D01*
X403136Y190500*
X402909Y190781*
X403136Y191062*
X427000Y184109D02*
X426432Y184469D01*
X425580Y185547*
Y178000*
X421318Y185547D02*
X422170Y185187D01*
X422170D02*
X422739Y184109D01*
X423023Y182312*
X423023D02*
Y181234D01*
X422739Y179437*
X422739D02*
X422170Y178359D01*
X421318Y178000*
X420750*
X419898Y178359*
X419330Y179437*
X419330D02*
X419045Y181234D01*
Y182312*
X419045D02*
X419330Y184109D01*
X419898Y185187*
X419898D02*
X420750Y185547D01*
X421318*
X411375Y186984D02*
X416489Y175484D01*
X408818Y184109D02*
X408250Y184469D01*
X407398Y185547*
Y178000*
X400864Y185547D02*
X403705Y178000D01*
X404841Y185547D02*
X400864D01*
X393193Y186984D02*
X398307Y175484D01*
X388932Y185547D02*
X389784Y185187D01*
X389784D02*
X390352Y184109D01*
X390636Y182312*
X390636D02*
Y181234D01*
X390352Y179437*
X390352D02*
X389784Y178359D01*
X388932Y178000*
X388364*
X387511Y178359*
X386943Y179437*
X386943D02*
X386659Y181234D01*
Y182312*
X386659D02*
X386943Y184109D01*
X387511Y185187*
X387511D02*
X388364Y185547D01*
X388932*
X380693Y184469D02*
X380977Y185187D01*
X380977D02*
X381830Y185547D01*
X382398*
X383250Y185187*
X383250D02*
X383818Y184109D01*
X384102Y182312*
X384102D02*
Y180516D01*
X383818Y179078*
X383250Y178359*
X382398Y178000*
X382114*
X381261Y178359*
X380693Y179078*
X380409Y180156*
Y180516*
X380693Y181594*
X381261Y182312*
X381261D02*
X382114Y182672D01*
X382398*
X383250Y182312*
X383250D02*
X383818Y181594D01*
X384102Y180516*
X424159Y160547D02*
Y154797D01*
X424443Y153719*
X424727Y153359*
X425295Y153000*
X425864*
X426432Y153359*
X426716Y153719*
X427000Y154797*
Y155516*
X417909Y160547D02*
X420750D01*
X421034Y157312*
X421034D02*
X420750Y157672D01*
X419898Y158031*
X419045*
X418193Y157672*
X417625Y156953*
X417341Y155875*
X417625Y155156*
X417909Y154078*
X418477Y153359*
X419330Y153000*
X420182*
X421034Y153359*
X421318Y153719*
X421602Y154437*
X411943Y160547D02*
X414784Y155516D01*
X410523*
X411943Y160547D02*
Y153000D01*
X404273Y160547D02*
X407114D01*
X407398Y157312*
X407398D02*
X407114Y157672D01*
X406261Y158031*
X405409*
X404557Y157672*
X403989Y156953*
X403705Y155875*
X403989Y155156*
X404273Y154078*
X404841Y153359*
X405693Y153000*
X406545*
X407398Y153359*
X407682Y153719*
X407966Y154437*
X399727Y160547D02*
X400580Y160187D01*
X400580D02*
X400864Y159469D01*
Y158750*
X400580Y158031*
X400011Y157672*
X398875Y157312*
X398875D02*
X398023Y156953D01*
X397455Y156234*
X397170Y155516*
Y154437*
X397170D02*
X397455Y153719D01*
X397739Y153359*
X398591Y153000*
X399727*
X400580Y153359*
X400864Y153719*
X401148Y154437*
X401148D02*
Y155516D01*
X400864Y156234*
X400295Y156953*
X399443Y157312*
X399443D02*
X398307Y157672D01*
X397739Y158031*
X397455Y158750*
Y159469*
X397739Y160187*
X397739D02*
X398591Y160547D01*
X399727*
X394614Y156234D02*
X389500D01*
X385239Y160547D02*
X386091Y160187D01*
X386091D02*
X386659Y159109D01*
X386943Y157312*
X386943D02*
Y156234D01*
X386659Y154437*
X386659D02*
X386091Y153359D01*
X385239Y153000*
X384670*
X383818Y153359*
X383250Y154437*
X383250D02*
X382966Y156234D01*
Y157312*
X382966D02*
X383250Y159109D01*
X383818Y160187*
X383818D02*
X384670Y160547D01*
X385239*
X378705D02*
X379557Y160187D01*
X379557D02*
X380125Y159109D01*
X380409Y157312*
X380409D02*
Y156234D01*
X380125Y154437*
X380125D02*
X379557Y153359D01*
X378705Y153000*
X378136*
X377284Y153359*
X376716Y154437*
X376716D02*
X376432Y156234D01*
Y157312*
X376432D02*
X376716Y159109D01*
X377284Y160187*
X377284D02*
X378136Y160547D01*
X378705*
X474500Y171406D02*
Y165500D01*
Y171406D02*
X472909D01*
X472227Y171125*
X471773Y170562*
X471773D02*
X471545Y170000D01*
X471318Y169156*
Y167750*
X471545Y166906*
X471773Y166344*
X472227Y165781*
X472909Y165500*
X474500*
X469273Y171406D02*
Y165500D01*
Y171406D02*
X466318D01*
X469273Y168594D02*
X467455D01*
X469273Y165500D02*
X466318D01*
X461091Y170562D02*
X461545Y171125D01*
X462227Y171406*
X463136*
X463818Y171125*
X464273Y170562*
X464273D02*
Y170000D01*
X464045Y169437*
X464045D02*
X463818Y169156D01*
X463364Y168875*
X462000Y168312*
X462000D02*
X461545Y168031D01*
X461318Y167750*
X461091Y167187*
X461091D02*
Y166344D01*
X461545Y165781*
X462227Y165500*
X463136*
X463818Y165781*
X464273Y166344*
X459045Y171406D02*
Y165500D01*
X453591Y170000D02*
X453818Y170562D01*
X453818D02*
X454273Y171125D01*
X454727Y171406*
X455636*
X456091Y171125*
X456545Y170562*
X456545D02*
X456773Y170000D01*
X457000Y169156*
Y167750*
X456773Y166906*
X456545Y166344*
X456091Y165781*
X455636Y165500*
X454727*
X454273Y165781*
X453818Y166344*
X453591Y166906*
Y167750*
X454727D02*
X453591D01*
X451545Y171406D02*
Y165500D01*
Y171406D02*
X448364Y165500D01*
Y171406D02*
Y165500D01*
X446318Y171406D02*
Y165500D01*
Y171406D02*
X443364D01*
X446318Y168594D02*
X444500D01*
X446318Y165500D02*
X443364D01*
X441318Y171406D02*
Y165500D01*
Y171406D02*
X439273D01*
X438591Y171125*
X438364Y170844*
X438136Y170281*
Y169719*
X438364Y169156*
X438591Y168875*
X439273Y168594*
X441318*
X439727D02*
X438136Y165500D01*
X435864Y169437D02*
X436091Y169156D01*
X435864Y168875*
X435636Y169156*
X435864Y169437*
Y166062D02*
X436091Y165781D01*
X435864Y165500*
X435636Y165781*
X435864Y166062*
X457739Y158750D02*
X458023Y159469D01*
X458591Y160187*
X458591D02*
X459159Y160547D01*
X460295*
X460864Y160187*
X460864D02*
X461432Y159469D01*
X461716Y158750*
X462000Y157672*
Y155875*
X461716Y154797*
X461432Y154078*
X460864Y153359*
X460295Y153000*
X459159*
X458591Y153359*
X458023Y154078*
X457739Y154797*
Y155875*
X459159D02*
X457739D01*
X455182Y160547D02*
Y153000D01*
X451205Y160547D02*
Y153000D01*
X455182Y156953D02*
X451205D01*
X444670Y159469D02*
X445239Y160187D01*
X445239D02*
X446091Y160547D01*
X447227*
X448080Y160187*
X448080D02*
X448648Y159469D01*
Y158750*
X448364Y158031*
X448080Y157672*
X447511Y157312*
X447511D02*
X445807Y156594D01*
X445239Y156234*
X444955Y155875*
X444670Y155156*
Y154078*
X445239Y153359*
X446091Y153000*
X447227*
X448080Y153359*
X448648Y154078*
X549500Y198047D02*
X545523Y190500D01*
Y198047D02*
X549500Y190500D01*
X540125Y198047D02*
X542966Y193016D01*
X538705*
X540125Y198047D02*
Y190500D01*
X536148Y196609D02*
X535580Y196969D01*
X534727Y198047*
Y190500*
X532170Y193734D02*
X527057D01*
X524216Y196250D02*
Y196609D01*
X523932Y197328*
X523648Y197687*
X523648D02*
X523080Y198047D01*
X521943*
X521375Y197687*
X521375D02*
X521091Y197328D01*
X520807Y196609*
Y195891*
X521091Y195172*
X521659Y194094*
X524500Y190500*
X520523*
X516261Y198047D02*
X517114Y197687D01*
X517114D02*
X517682Y196609D01*
X517966Y194812*
X517966D02*
Y193734D01*
X517682Y191937*
X517682D02*
X517114Y190859D01*
X516261Y190500*
X515693*
X514841Y190859*
X514273Y191937*
X514273D02*
X513989Y193734D01*
Y194812*
X513989D02*
X514273Y196609D01*
X514841Y197687*
X514841D02*
X515693Y198047D01*
X516261*
X509727D02*
X510580Y197687D01*
X510580D02*
X511148Y196609D01*
X511432Y194812*
X511432D02*
Y193734D01*
X511148Y191937*
X511148D02*
X510580Y190859D01*
X509727Y190500*
X509159*
X508307Y190859*
X507739Y191937*
X507739D02*
X507455Y193734D01*
Y194812*
X507455D02*
X507739Y196609D01*
X508307Y197687*
X508307D02*
X509159Y198047D01*
X509727*
X504898Y196609D02*
X504330Y196969D01*
X503477Y198047*
Y190500*
X499216Y198047D02*
X500068Y197687D01*
X500068D02*
X500636Y196609D01*
X500920Y194812*
X500920D02*
Y193734D01*
X500636Y191937*
X500636D02*
X500068Y190859D01*
X499216Y190500*
X498648*
X497795Y190859*
X497227Y191937*
X497227D02*
X496943Y193734D01*
Y194812*
X496943D02*
X497227Y196609D01*
X497795Y197687*
X497795D02*
X498648Y198047D01*
X499216*
X549500Y185547D02*
Y178000D01*
Y185547D02*
X546943D01*
X546091Y185187*
X546091D02*
X545807Y184828D01*
X545523Y184109*
Y183391*
X545807Y182672*
X546091Y182312*
X546091D02*
X546943Y181953D01*
X549500*
X547511D02*
X545523Y178000D01*
X542966Y185547D02*
Y178000D01*
Y185547D02*
X539273D01*
X542966Y181953D02*
X540693D01*
X542966Y178000D02*
X539273D01*
X536716Y185547D02*
X534443Y178000D01*
X532170Y185547D02*
X534443Y178000D01*
X520807Y185547D02*
X523080Y178000D01*
X520807Y185547D02*
X518534Y178000D01*
X522227Y180516D02*
X519386D01*
X672682Y208906D02*
X674500Y203000D01*
X672682Y208906D02*
X670864Y203000D01*
X673818Y204969D02*
X671545D01*
X668818Y208906D02*
Y203000D01*
Y208906D02*
X666773D01*
X666091Y208625*
X665864Y208344*
X665636Y207781*
Y207219*
X665864Y206656*
X666091Y206375*
X666773Y206094*
X668818*
X667227D02*
X665636Y203000D01*
X662000Y208906D02*
Y203000D01*
X663591Y208906D02*
X660409D01*
X658364D02*
X657227Y203000D01*
X656091Y208906D02*
X657227Y203000D01*
X656091Y208906D02*
X654955Y203000D01*
X653818Y208906D02*
X654955Y203000D01*
X650409Y208906D02*
X650864Y208625D01*
X651318Y208062*
X651318D02*
X651545Y207500D01*
X651773Y206656*
Y205250*
X651545Y204406*
X651318Y203844*
X650864Y203281*
X650409Y203000*
X649500*
X649045Y203281*
X648591Y203844*
X648364Y204406*
X648136Y205250*
Y206656*
X648364Y207500*
X648591Y208062*
X648591D02*
X649045Y208625D01*
X649500Y208906*
X650409*
X646091D02*
Y203000D01*
Y208906D02*
X644045D01*
X643364Y208625*
X643136Y208344*
X642909Y207781*
Y207219*
X643136Y206656*
X643364Y206375*
X644045Y206094*
X646091*
X644500D02*
X642909Y203000D01*
X640864Y208906D02*
Y203000D01*
X637682Y208906D02*
X640864Y204969D01*
X639727Y206375D02*
X637682Y203000D01*
X635409Y206937D02*
X635636Y206656D01*
X635409Y206375*
X635182Y206656*
X635409Y206937*
Y203562D02*
X635636Y203281D01*
X635409Y203000*
X635182Y203281*
X635409Y203562*
X623341Y208906D02*
X623864Y209562D01*
X623864D02*
X624648Y209891D01*
X625693*
X626477Y209562*
X626477D02*
X627000Y208906D01*
Y208250*
X626739Y207594*
X626477Y207266*
X625955Y206937*
X625955D02*
X624386Y206281D01*
X623864Y205953*
X623602Y205625*
X623341Y204969*
Y203984*
X623864Y203328*
X624648Y203000*
X625693*
X626477Y203328*
X627000Y203984*
X619420Y209891D02*
X619943Y209562D01*
X619943D02*
X620466Y208906D01*
X620727Y208250*
X620989Y207266*
Y205625*
X620727Y204641*
X620466Y203984*
X619943Y203328*
X619420Y203000*
X618375*
X617852Y203328*
X617330Y203984*
X617068Y204641*
X616807Y205625*
Y207266*
X617068Y208250*
X617330Y208906*
X617852Y209562*
X617852D02*
X618375Y209891D01*
X619420*
X614455D02*
Y203000D01*
X611318*
X608966Y209891D02*
Y203000D01*
Y209891D02*
X607136D01*
X606352Y209562*
X606352D02*
X605830Y208906D01*
X605568Y208250*
X605307Y207266*
Y205625*
X605568Y204641*
X605830Y203984*
X606352Y203328*
X607136Y203000*
X608966*
X602955Y209891D02*
Y203000D01*
Y209891D02*
X599557D01*
X602955Y206609D02*
X600864D01*
X602955Y203000D02*
X599557D01*
X597205Y209891D02*
Y203000D01*
Y209891D02*
X594852D01*
X594068Y209562*
X594068D02*
X593807Y209234D01*
X593545Y208578*
Y207922*
X593807Y207266*
X594068Y206937*
X594068D02*
X594852Y206609D01*
X597205*
X595375D02*
X593545Y203000D01*
X585182Y209891D02*
Y203000D01*
Y209891D02*
X583091Y203000D01*
X581000Y209891D02*
X583091Y203000D01*
X581000Y209891D02*
Y203000D01*
X576557Y209891D02*
X578648Y203000D01*
X576557Y209891D02*
X574466Y203000D01*
X577864Y205297D02*
X575250D01*
X568455Y208906D02*
X568977Y209562D01*
X568977D02*
X569761Y209891D01*
X570807*
X571591Y209562*
X571591D02*
X572114Y208906D01*
Y208250*
X571852Y207594*
X571591Y207266*
X571068Y206937*
X571068D02*
X569500Y206281D01*
X568977Y205953*
X568716Y205625*
X568455Y204969*
Y203984*
X568977Y203328*
X569761Y203000*
X570807*
X571591Y203328*
X572114Y203984*
X566102Y209891D02*
Y203000D01*
X562443Y209891D02*
X566102Y205297D01*
X564795Y206937D02*
X562443Y203000D01*
X560091Y205953D02*
X555386D01*
X549375Y208906D02*
X549898Y209562D01*
X549898D02*
X550682Y209891D01*
X551727*
X552511Y209562*
X552511D02*
X553034Y208906D01*
Y208250*
X552773Y207594*
X552511Y207266*
X551989Y206937*
X551989D02*
X550420Y206281D01*
X549898Y205953*
X549636Y205625*
X549375Y204969*
Y203984*
X549898Y203328*
X550682Y203000*
X551727*
X552511Y203328*
X553034Y203984*
X547023Y209891D02*
Y203000D01*
Y209891D02*
X543625D01*
X547023Y206609D02*
X544932D01*
X547023Y203000D02*
X543625D01*
X537352Y208250D02*
X537614Y208906D01*
X538136Y209562*
X538136D02*
X538659Y209891D01*
X539705*
X540227Y209562*
X540227D02*
X540750Y208906D01*
X541011Y208250*
X541273Y207266*
Y205625*
X541011Y204641*
X540750Y203984*
X540227Y203328*
X539705Y203000*
X538659*
X538136Y203328*
X537614Y203984*
X537352Y204641*
X533432Y209891D02*
X533955Y209562D01*
X533955D02*
X534477Y208906D01*
X534739Y208250*
X535000Y207266*
Y205625*
X534739Y204641*
X534477Y203984*
X533955Y203328*
X533432Y203000*
X532386*
X531864Y203328*
X531341Y203984*
X531080Y204641*
X530818Y205625*
Y207266*
X531080Y208250*
X531341Y208906*
X531864Y209562*
X531864D02*
X532386Y209891D01*
X533432*
X528466D02*
Y203000D01*
Y209891D02*
X524807Y203000D01*
Y209891D02*
Y203000D01*
X522455Y209891D02*
Y203000D01*
Y209891D02*
X520625D01*
X519841Y209562*
X519841D02*
X519318Y208906D01*
X519057Y208250*
X518795Y207266*
Y205625*
X519057Y204641*
X519318Y203984*
X519841Y203328*
X520625Y203000*
X522455*
X514352Y209891D02*
X516443Y203000D01*
X514352Y209891D02*
X512261Y203000D01*
X515659Y205297D02*
X513045D01*
X509909Y209891D02*
Y203000D01*
Y209891D02*
X507557D01*
X506773Y209562*
X506773D02*
X506511Y209234D01*
X506250Y208578*
Y207922*
X506511Y207266*
X506773Y206937*
X506773D02*
X507557Y206609D01*
X509909*
X508080D02*
X506250Y203000D01*
X503898Y209891D02*
X501807Y206609D01*
Y203000*
X499716Y209891D02*
X501807Y206609D01*
X487693Y208906D02*
X488216Y209562D01*
X488216D02*
X489000Y209891D01*
X490045*
X490830Y209562*
X490830D02*
X491352Y208906D01*
Y208250*
X491091Y207594*
X490830Y207266*
X490307Y206937*
X490307D02*
X488739Y206281D01*
X488216Y205953*
X487955Y205625*
X487693Y204969*
Y203984*
X488216Y203328*
X489000Y203000*
X490045*
X490830Y203328*
X491352Y203984*
X485341Y209891D02*
Y203000D01*
X482989Y209891D02*
Y203000D01*
Y209891D02*
X481159D01*
X480375Y209562*
X480375D02*
X479852Y208906D01*
X479591Y208250*
X479330Y207266*
Y205625*
X479591Y204641*
X479852Y203984*
X480375Y203328*
X481159Y203000*
X482989*
X476977Y209891D02*
Y203000D01*
Y209891D02*
X473580D01*
X476977Y206609D02*
X474886D01*
X476977Y203000D02*
X473580D01*
G54D18*
X767500Y509750D03*
Y470250D03*
X468100Y665000D03*
X530000Y520000D03*
X630000D03*
X468100Y628900D03*
X530000Y420000D03*
Y290000D03*
X630000D03*
X530000Y650000D03*
X585000Y405000D03*
X325000Y342500D03*
G54D19*
X757500Y509750D03*
X747500D03*
X737500D03*
X727500D03*
Y479750D03*
X737500D03*
X747500D03*
X757500D03*
X767500D03*
X757500Y470250D03*
X747500D03*
X737500D03*
X727500D03*
Y440250D03*
X737500D03*
X747500D03*
X757500D03*
X767500D03*
X468100Y655000D03*
X458100Y665000D03*
Y655000D03*
X448100Y665000D03*
Y655000D03*
X438100Y665000D03*
Y655000D03*
X428100Y665000D03*
Y655000D03*
X530000Y530000D03*
X540000Y520000D03*
Y530000D03*
X550000Y520000D03*
Y530000D03*
X560000Y520000D03*
Y530000D03*
X570000Y520000D03*
Y530000D03*
X580000Y520000D03*
Y530000D03*
X590000Y520000D03*
Y530000D03*
X630000D03*
X640000Y520000D03*
Y530000D03*
X650000Y520000D03*
Y530000D03*
X660000Y520000D03*
Y530000D03*
X670000Y520000D03*
Y530000D03*
X680000Y520000D03*
Y530000D03*
X690000Y520000D03*
Y530000D03*
X700000Y520000D03*
Y530000D03*
X710000Y520000D03*
Y530000D03*
X720000Y520000D03*
Y530000D03*
X468100Y618900D03*
X458100Y628900D03*
Y618900D03*
X448100Y628900D03*
Y618900D03*
X438100Y628900D03*
Y618900D03*
X428100Y628900D03*
Y618900D03*
X530000Y430000D03*
X540000Y420000D03*
Y430000D03*
X550000Y420000D03*
Y430000D03*
X560000Y420000D03*
Y430000D03*
X570000Y420000D03*
Y430000D03*
X580000Y420000D03*
Y430000D03*
X590000Y420000D03*
Y430000D03*
X600000Y420000D03*
Y430000D03*
X610000Y420000D03*
Y430000D03*
X620000Y420000D03*
Y430000D03*
X630000Y420000D03*
Y430000D03*
X640000Y420000D03*
Y430000D03*
X650000Y420000D03*
Y430000D03*
X660000Y420000D03*
Y430000D03*
X670000Y420000D03*
Y430000D03*
X680000Y420000D03*
Y430000D03*
X690000Y420000D03*
Y430000D03*
X700000Y420000D03*
Y430000D03*
X710000Y420000D03*
Y430000D03*
X720000Y420000D03*
Y430000D03*
X530000Y300000D03*
X540000Y290000D03*
Y300000D03*
X550000Y290000D03*
Y300000D03*
X560000Y290000D03*
Y300000D03*
X570000Y290000D03*
Y300000D03*
X580000Y290000D03*
Y300000D03*
X590000Y290000D03*
Y300000D03*
X630000D03*
X640000Y290000D03*
Y300000D03*
X650000Y290000D03*
Y300000D03*
X660000Y290000D03*
Y300000D03*
X670000Y290000D03*
Y300000D03*
X680000Y290000D03*
Y300000D03*
X690000Y290000D03*
Y300000D03*
X700000Y290000D03*
Y300000D03*
X710000Y290000D03*
Y300000D03*
X720000Y290000D03*
Y300000D03*
X530000Y660000D03*
X540000Y650000D03*
Y660000D03*
X550000Y650000D03*
Y660000D03*
X560000Y650000D03*
Y660000D03*
X570000Y650000D03*
Y660000D03*
X580000Y650000D03*
Y660000D03*
X590000Y650000D03*
Y660000D03*
X600000Y650000D03*
Y660000D03*
X610000Y650000D03*
Y660000D03*
X620000Y650000D03*
Y660000D03*
X630000Y650000D03*
Y660000D03*
X640000Y650000D03*
Y660000D03*
X650000Y650000D03*
Y660000D03*
X660000Y650000D03*
Y660000D03*
X670000Y650000D03*
Y660000D03*
X680000Y650000D03*
Y660000D03*
X690000Y650000D03*
Y660000D03*
X700000Y650000D03*
Y660000D03*
X710000Y650000D03*
Y660000D03*
X720000Y650000D03*
Y660000D03*
X325000Y622500D03*
X750000Y625000D03*
X370000Y335000D03*
X728750Y317500D03*
X555000Y405000D03*
Y375000D03*
X585000D03*
X282500Y667500D03*
Y282500D03*
X767500Y667500D03*
Y282500D03*
X325000Y332500D03*
Y322500D03*
X355000D03*
Y332500D03*
Y342500D03*
G54D21*
X750679Y493425D02*
X752629D01*
X750679Y496575D02*
X752629D01*
X757371D02*
X759321D01*
X757371Y493425D02*
X759321D01*
X730679D02*
X732629D01*
X730679Y496575D02*
X732629D01*
X737371D02*
X739321D01*
X737371Y493425D02*
X739321D01*
X750679Y453425D02*
X752629D01*
X750679Y456575D02*
X752629D01*
X757371D02*
X759321D01*
X757371Y453425D02*
X759321D01*
X730679D02*
X732629D01*
X730679Y456575D02*
X732629D01*
X737371D02*
X739321D01*
X737371Y453425D02*
X739321D01*
G54D27*
X300000Y300000D03*
Y650000D03*
X750000D03*
Y300000D03*
G54D31*
G54D32*
X603835Y226750D02*
X600653Y216250D01*
X597472Y226750D02*
X600653Y216250D01*
X593892Y226750D02*
Y216250D01*
X584744Y225250D02*
X585540Y226250D01*
X586733Y226750*
X588324*
X589517Y226250*
X590312Y225250*
Y224250*
X589915Y223250*
X589517Y222750*
X588722Y222250*
X586335Y221250*
X585540Y220750*
X585142Y220250*
X584744Y219250*
Y217750*
X585540Y216750*
X586733Y216250*
X588324*
X589517Y216750*
X590312Y217750*
X581165Y226750D02*
Y216250D01*
X577585Y220750D02*
X570426D01*
X564062Y226750D02*
Y216250D01*
X566847Y226750D02*
X561278D01*
X557699D02*
Y216250D01*
Y226750D02*
X554119D01*
X552926Y226250*
X552528Y225750*
X552131Y224750*
Y223750*
X552528Y222750*
X552926Y222250*
X554119Y221750*
X557699*
X554915D02*
X552131Y216250D01*
X545369Y226750D02*
X548551Y216250D01*
X545369Y226750D02*
X542187Y216250D01*
X547358Y219750D02*
X543381D01*
X538608Y226750D02*
Y216250D01*
X533040Y226750D02*
X538608Y219750D01*
X536619Y222250D02*
X533040Y216250D01*
X520312Y226750D02*
X518324Y216250D01*
X516335Y226750D02*
X518324Y216250D01*
X516335Y226750D02*
X514347Y216250D01*
X512358Y226750D02*
X514347Y216250D01*
X506392Y226750D02*
X507187Y226250D01*
X507983Y225250*
X508381Y224250*
X508778Y222750*
Y220250*
X508381Y218750*
X507983Y217750*
X507187Y216750*
X506392Y216250*
X504801*
X504006Y216750*
X503210Y217750*
X502812Y218750*
X502415Y220250*
Y222750*
X502812Y224250*
X503210Y225250*
X504006Y226250*
X504801Y226750*
X506392*
X498835D02*
Y216250D01*
Y226750D02*
X495256D01*
X494062Y226250*
X493665Y225750*
X493267Y224750*
Y223750*
X493665Y222750*
X494062Y222250*
X495256Y221750*
X498835*
X496051D02*
X493267Y216250D01*
X489687Y226750D02*
Y216250D01*
X484915*
X481335Y226750D02*
Y216250D01*
Y226750D02*
X478551D01*
X477358Y226250*
X476562Y225250*
X476165Y224250*
X475767Y222750*
Y220250*
X476165Y218750*
X476562Y217750*
X477358Y216750*
X478551Y216250*
X481335*
X472187Y226750D02*
X470199Y216250D01*
X468210Y226750D02*
X470199Y216250D01*
X468210Y226750D02*
X466222Y216250D01*
X464233Y226750D02*
X466222Y216250D01*
X460653Y226750D02*
Y216250D01*
X457074Y226750D02*
Y216250D01*
Y226750D02*
X454290D01*
X453097Y226250*
X452301Y225250*
X451903Y224250*
X451506Y222750*
Y220250*
X451903Y218750*
X452301Y217750*
X453097Y216750*
X454290Y216250*
X457074*
X447926Y226750D02*
Y216250D01*
Y226750D02*
X442756D01*
X447926Y221750D02*
X444744D01*
X447926Y216250D02*
X442756D01*
G54D34*
X492950Y305000D03*
X394550D03*
X759124Y417451D03*
Y340049D03*
Y609951D03*
Y532549D03*
X289326Y342549D03*
Y479951D03*
X290026Y529249D03*
Y606651D03*
G54D36*
X362500Y587500D03*
X372500D03*
G54D38*
X454550Y310600D03*
X443750D03*
X432950D03*
X422150D03*
X459950Y299400D03*
X449150D03*
X438350D03*
X427550D03*
X602205Y478642D03*
X627795D03*
X602205Y496358D03*
X627795D03*
X602205Y448642D03*
X627795D03*
X602205Y466358D03*
X627795D03*
X639705Y478642D03*
X665295D03*
X639705Y496358D03*
X665295D03*
X639705Y448642D03*
X665295D03*
X639705Y466358D03*
X665295D03*
X677205Y478642D03*
X702795D03*
X677205Y496358D03*
X702795D03*
X677205Y448642D03*
X702795D03*
X677205Y466358D03*
X702795D03*
X759124Y417451D03*
Y340049D03*
Y609951D03*
Y532549D03*
X289326Y342549D03*
Y479951D03*
X290026Y529249D03*
Y606651D03*
G54D52*
X465350Y310600D03*
G54D76*
X275000Y275000D02*
X775000D01*
Y675000*
X275000*
Y275000*
G54D84*
X397500Y600000D03*
X327500D03*
G54D86*
X434425Y521457D02*
X435575D01*
X434425Y528543D02*
X435575D01*
X434425Y497457D02*
X435575D01*
X434425Y504543D02*
X435575D01*
X493957Y460575D02*
Y459425D01*
X501043Y460575D02*
Y459425D01*
X469957Y460575D02*
Y459425D01*
X477043Y460575D02*
Y459425D01*
X471925Y568957D02*
X473075D01*
X471925Y576043D02*
X473075D01*
X628075Y591043D02*
X626925D01*
X628075Y583957D02*
X626925D01*
X535575Y481043D02*
X534425D01*
X535575Y473957D02*
X534425D01*
X388075Y353543D02*
X386925D01*
X388075Y346457D02*
X386925D01*
X448075Y378543D02*
X446925D01*
X448075Y371457D02*
X446925D01*
X374425Y497457D02*
X375575D01*
X374425Y504543D02*
X375575D01*
X388075Y377543D02*
X386925D01*
X388075Y370457D02*
X386925D01*
X550575Y328543D02*
X549425D01*
X550575Y321457D02*
X549425D01*
X394425Y497457D02*
X395575D01*
X394425Y504543D02*
X395575D01*
X428075Y377543D02*
X426925D01*
X428075Y370457D02*
X426925D01*
X469957Y420575D02*
Y419425D01*
X477043Y420575D02*
Y419425D01*
X350043Y456925D02*
Y458075D01*
X342957Y456925D02*
Y458075D01*
X321925Y415457D02*
X323075D01*
X321925Y422543D02*
X323075D01*
X434425Y331457D02*
X435575D01*
X434425Y338543D02*
X435575D01*
X444425Y331457D02*
X445575D01*
X444425Y338543D02*
X445575D01*
X424425Y331457D02*
X425575D01*
X424425Y338543D02*
X425575D01*
X454425Y331457D02*
X455575D01*
X454425Y338543D02*
X455575D01*
X350043Y416925D02*
Y418075D01*
X342957Y416925D02*
Y418075D01*
X543075Y591043D02*
X541925D01*
X543075Y583957D02*
X541925D01*
G54D87*
X751054Y490276D02*
X752254D01*
X751054Y499724D02*
X752254D01*
X757746D02*
X758946D01*
X757746Y490276D02*
X758946D01*
X731054D02*
X732254D01*
X731054Y499724D02*
X732254D01*
X737746D02*
X738946D01*
X737746Y490276D02*
X738946D01*
X751054Y450276D02*
X752254D01*
X751054Y459724D02*
X752254D01*
X757746D02*
X758946D01*
X757746Y450276D02*
X758946D01*
X731054D02*
X732254D01*
X731054Y459724D02*
X732254D01*
X737746D02*
X738946D01*
X737746Y450276D02*
X738946D01*
G54D90*
X595200Y393150D02*
X594800D01*
X595200Y386850D02*
X594800D01*
X390650Y362300D02*
Y362700D01*
X384350Y362300D02*
Y362700D01*
X335200Y420650D02*
X334800D01*
X335200Y414350D02*
X334800D01*
X431850Y512700D02*
Y512300D01*
X438150Y512700D02*
Y512300D01*
X484800Y456850D02*
X485200D01*
X484800Y463150D02*
X485200D01*
G54D94*
X330000Y292500D03*
X356800Y657500D03*
G54D95*
X345000Y292500D03*
X360000D03*
X341800Y657500D03*
G54D96*
X352500Y587500D03*
G54D100*
X492950Y305000D03*
X394550D03*
G54D101*
X300000Y300000D03*
Y650000D03*
X750000D03*
Y300000D03*
G54D102*
X605100Y393150D02*
X604900D01*
X605100Y386850D02*
X604900D01*
X350650Y397400D02*
Y397600D01*
X344350Y397400D02*
Y397600D01*
X444900Y496850D02*
X445100D01*
X444900Y503150D02*
X445100D01*
X454900Y496850D02*
X455100D01*
X454900Y503150D02*
X455100D01*
X469350Y470100D02*
Y469900D01*
X475650Y470100D02*
Y469900D01*
X469350Y480100D02*
Y479900D01*
X475650Y480100D02*
Y479900D01*
X584900Y386850D02*
X585100D01*
X584900Y393150D02*
X585100D01*
X574900Y331850D02*
X575100D01*
X574900Y338150D02*
X575100D01*
X452600Y558150D02*
X452400D01*
X452600Y551850D02*
X452400D01*
X462600Y558150D02*
X462400D01*
X462600Y551850D02*
X462400D01*
X489900Y586850D02*
X490100D01*
X489900Y593150D02*
X490100D01*
X519900Y594350D02*
X520100D01*
X519900Y600650D02*
X520100D01*
X565100D02*
X564900D01*
X565100Y594350D02*
X564900D01*
X604900D02*
X605100D01*
X604900Y600650D02*
X605100D01*
X604900Y574350D02*
X605100D01*
X604900Y580650D02*
X605100D01*
X515100Y480650D02*
X514900D01*
X515100Y474350D02*
X514900D01*
X505100Y403150D02*
X504900D01*
X505100Y396850D02*
X504900D01*
Y376850D02*
X505100D01*
X504900Y383150D02*
X505100D01*
X425100Y358150D02*
X424900D01*
X425100Y351850D02*
X424900D01*
X364900Y496850D02*
X365100D01*
X364900Y503150D02*
X365100D01*
X350650Y482400D02*
Y482600D01*
X344350Y482400D02*
Y482600D01*
X466850Y392600D02*
Y392400D01*
X473150Y392600D02*
Y392400D01*
X457600Y378150D02*
X457400D01*
X457600Y371850D02*
X457400D01*
X447600Y645650D02*
X447400D01*
X447600Y639350D02*
X447400D01*
X377600Y378150D02*
X377400D01*
X377600Y371850D02*
X377400D01*
X404900Y496850D02*
X405100D01*
X404900Y503150D02*
X405100D01*
X350650Y447400D02*
Y447600D01*
X344350Y447400D02*
Y447600D01*
X437600Y378150D02*
X437400D01*
X437600Y371850D02*
X437400D01*
X469350Y410100D02*
Y409900D01*
X475650Y410100D02*
Y409900D01*
X417600Y378150D02*
X417400D01*
X417600Y371850D02*
X417400D01*
X469350Y430100D02*
Y429900D01*
X475650Y430100D02*
Y429900D01*
X367600Y378150D02*
X367400D01*
X367600Y371850D02*
X367400D01*
X350650Y467400D02*
Y467600D01*
X344350Y467400D02*
Y467600D01*
X384900Y496850D02*
X385100D01*
X384900Y503150D02*
X385100D01*
X350650Y427400D02*
Y427600D01*
X344350Y427400D02*
Y427600D01*
X350650Y437400D02*
Y437600D01*
X344350Y437400D02*
Y437600D01*
X397600Y378150D02*
X397400D01*
X397600Y371850D02*
X397400D01*
X407600Y378150D02*
X407400D01*
X407600Y371850D02*
X407400D01*
X469350Y440100D02*
Y439900D01*
X475650Y440100D02*
Y439900D01*
X469350Y450100D02*
Y449900D01*
X475650Y450100D02*
Y449900D01*
X414900Y496850D02*
X415100D01*
X414900Y503150D02*
X415100D01*
X424900Y496850D02*
X425100D01*
X424900Y503150D02*
X425100D01*
X480100Y538150D02*
X479900D01*
X480100Y531850D02*
X479900D01*
X694900Y604350D02*
X695100D01*
X694900Y610650D02*
X695100D01*
X350650Y407400D02*
Y407600D01*
X344350Y407400D02*
Y407600D01*
X519900Y574350D02*
X520100D01*
X519900Y580650D02*
X520100D01*
X650100Y600650D02*
X649900D01*
X650100Y594350D02*
X649900D01*
X565100Y580650D02*
X564900D01*
X565100Y574350D02*
X564900D01*
X650100Y580650D02*
X649900D01*
X650100Y574350D02*
X649900D01*
X482600Y593150D02*
X482400D01*
X482600Y586850D02*
X482400D01*
X472600Y558150D02*
X472400D01*
X472600Y551850D02*
X472400D01*
X482400Y569350D02*
X482600D01*
X482400Y575650D02*
X482600D01*
X517400Y396850D02*
X517600D01*
X517400Y403150D02*
X517600D01*
Y383150D02*
X517400D01*
X517600Y376850D02*
X517400D01*
X615100Y393150D02*
X614900D01*
X615100Y386850D02*
X614900D01*
X574900D02*
X575100D01*
X574900Y393150D02*
X575100D01*
X452520Y398030D02*
Y398230D01*
X446220Y398030D02*
Y398230D01*
X367480D02*
Y398030D01*
X373780Y398230D02*
Y398030D01*
X452520Y476770D02*
Y476970D01*
X446220Y476770D02*
Y476970D01*
X367480D02*
Y476770D01*
X373780Y476970D02*
Y476770D01*
X406850Y447443D02*
Y447243D01*
X413150Y447443D02*
Y447243D01*
X406850Y427757D02*
Y427557D01*
X413150Y427757D02*
Y427557D01*
X400057Y434350D02*
X400257D01*
X400057Y440650D02*
X400257D01*
X419743Y434350D02*
X419943D01*
X419743Y440650D02*
X419943D01*
G54D103*
X444225Y351457D02*
X445775D01*
X444225Y358543D02*
X445775D01*
X454225Y351457D02*
X455775D01*
X454225Y358543D02*
X455775D01*
X398275Y668543D02*
X396725D01*
X398275Y661457D02*
X396725D01*
X615775Y461043D02*
X614225D01*
X615775Y453957D02*
X614225D01*
X605775Y616043D02*
X604225D01*
X605775Y608957D02*
X604225D01*
X520775Y616043D02*
X519225D01*
X520775Y608957D02*
X519225D01*
X714225Y441457D02*
X715775D01*
X714225Y448543D02*
X715775D01*
X695775Y631043D02*
X694225D01*
X695775Y623957D02*
X694225D01*
X726725Y566457D02*
X728275D01*
X726725Y573543D02*
X728275D01*
G54D108*
X282500Y667500D03*
Y282500D03*
X767500Y667500D03*
Y282500D03*
X0Y0D02*
M02*
