*
*
G04 PADS Layout (Build Number 2006.45.1) generated Gerber (RS-274-X) file*
G04 PC Version=2.1*
*
%IN "J5458-00.pcb"*%
*
%MOIN*%
*
%FSLAX35Y35*%
*
*
*
*
G04 PC Standard Apertures*
*
*
G04 Thermal Relief Aperture macro.*
%AMTER*
1,1,$1,0,0*
1,0,$1-$2,0,0*
21,0,$3,$4,0,0,45*
21,0,$3,$4,0,0,135*
%
*
*
G04 Annular Aperture macro.*
%AMANN*
1,1,$1,0,0*
1,0,$2,0,0*
%
*
*
G04 Odd Aperture macro.*
%AMODD*
1,1,$1,0,0*
1,0,$1-0.005,0,0*
%
*
*
G04 PC Custom Aperture Macros*
*
*
*
*
*
*
G04 PC Aperture Table*
*
%ADD010C,0.005*%
%ADD011C,0.01*%
%ADD017C,0.06*%
%ADD019C,0.065*%
%ADD028C,0.02*%
%ADD031C,0.008*%
%ADD032C,0.015*%
%ADD076C,0.001*%
*
*
*
*
G04 PC Copper Outlines (0)*
G04 Layer Name J5458-00.pcb - dark (0)*
%LPD*%
*
*
G04 PC Area=System Text*
G75*
G36*
G01*
X377571Y160571D02*
X376714Y161429D01*
X376000Y162429D01*
X375714Y163429D01*
X375571Y164714D01*
X375714Y165571D01*
X375857Y166571D01*
X376714Y168000D01*
X377429Y168714D01*
X378286Y169286D01*
X379286Y169571D01*
X380571Y169714D01*
X381571Y169571D01*
X382429Y169429D01*
X383286Y169000D01*
X384000Y168286D01*
X384714Y167571D01*
X385143Y166714D01*
X385286Y165857D01*
X385429Y164714D01*
X385286Y163429D01*
X384857Y162143D01*
X384000Y161143D01*
X383000Y160429D01*
X381429Y159857D01*
X382000Y159571D01*
X382286Y159286D01*
X383000Y158857D01*
X383571Y158571D01*
X384143Y158286D01*
X384571Y158143D01*
X385571Y158286D01*
X385714Y158429D01*
X385857Y158286D01*
X385714Y158143D01*
X385286Y157857D01*
X384571Y157571D01*
X384000D01*
X383000Y157714D01*
X382000Y158143D01*
X381286Y158714D01*
X380857Y158857D01*
X379714Y159429D01*
X378857Y159857D01*
X378143Y160000D01*
X377857Y159857D01*
X377429Y159714D01*
X377143Y159286D01*
X377000Y158857D01*
X376857Y158571D01*
X376571Y158857D01*
X376714Y159286D01*
X376857Y159857D01*
X377143Y160286D01*
X377571Y160571D01*
X377571D01*
G37*
G74*
*
G75*
G36*
G01*
X391143Y160857D02*
X390286Y160143D01*
X389143Y159857D01*
X388286Y160000D01*
X387714Y160429D01*
X387286Y161143D01*
X387143Y162143D01*
Y162571D01*
Y164857D01*
X387000Y165429D01*
X386429Y165571D01*
X386286Y165714D01*
X386429Y165857D01*
X386714D01*
X387286D01*
X387857Y166000D01*
X388000D01*
X388143Y165857D01*
Y165714D01*
Y165571D01*
Y162429D01*
Y162143D01*
X388286Y161286D01*
X388714Y160571D01*
X389143Y160286D01*
X389571D01*
X390143Y160429D01*
X390714Y160571D01*
X391000Y161000D01*
X391143Y161429D01*
Y164857D01*
X391000Y165429D01*
X390571Y165571D01*
X390286Y165714D01*
X390571Y165857D01*
X390714D01*
X391286D01*
X391857Y166000D01*
X392000D01*
X392143Y165714D01*
Y161286D01*
Y160857D01*
X392286Y160571D01*
X392714Y160429D01*
X392857D01*
X393000D01*
X393143Y160286D01*
X393000Y160143D01*
X392714D01*
X392286D01*
X391857Y160000D01*
X391714D01*
X391429D01*
X391143Y160143D01*
Y160571D01*
Y160857D01*
G37*
G74*
*
G75*
G36*
G01*
X397286Y163143D02*
Y164000D01*
Y164714D01*
X397000Y165143D01*
X396571Y165429D01*
X395857Y165571D01*
X395286Y165429D01*
X395000Y164714D01*
X395143Y164143D01*
Y164000D01*
X395000Y163857D01*
X394429Y164000D01*
X394143Y164286D01*
X394286Y164714D01*
X394571Y165143D01*
X395286Y165714D01*
X396286Y165857D01*
X397143Y165714D01*
X397714Y165429D01*
X398143Y164857D01*
X398286Y164143D01*
Y161429D01*
Y160857D01*
X398429Y160429D01*
X398714Y160143D01*
X399000D01*
X399143Y160286D01*
X399286Y160429D01*
X399429Y160286D01*
X399286Y160143D01*
X399143Y160000D01*
X398429Y159857D01*
X397857Y160000D01*
X397429Y160571D01*
X396429Y160000D01*
X395571Y159857D01*
X395000Y160000D01*
X394571Y160143D01*
X394286Y160571D01*
X394143Y161143D01*
X394286Y161857D01*
X394857Y162429D01*
X395857Y162857D01*
X397286Y163143D01*
X397286D01*
G37*
G74*
*
G75*
G36*
G01*
X402000Y164571D02*
X402429Y165143D01*
X402714Y165571D01*
X403143Y165714D01*
X403429Y165857D01*
X404000Y165571D01*
X404286Y165286D01*
X404429Y165143D01*
X404143Y164857D01*
X403857Y164571D01*
X403571Y164714D01*
X403000Y164857D01*
X402571Y164714D01*
X402286Y164571D01*
X402143Y164143D01*
X402000Y163714D01*
Y161429D01*
Y160857D01*
X402143Y160571D01*
X402714Y160286D01*
X403000D01*
X403286Y160143D01*
X403143Y160000D01*
X402714D01*
X402286D01*
X401857D01*
X401571D01*
X401000D01*
X400714D01*
X400429D01*
X400286Y160143D01*
X400571Y160286D01*
X400857Y160571D01*
X401000Y160857D01*
Y161286D01*
Y164286D01*
X400857Y164857D01*
X400286Y165000D01*
X400000D01*
X399857Y165143D01*
X400000Y165286D01*
X400143D01*
X400857Y165429D01*
X401714Y166000D01*
X401857D01*
X402000Y165714D01*
Y165571D01*
Y164571D01*
G37*
G74*
*
G75*
G36*
G01*
X406714Y165000D02*
Y161429D01*
Y160857D01*
X406857Y160571D01*
X407286Y160286D01*
X407714D01*
X408429Y160429D01*
X408714Y160571D01*
X408714D01*
X408857Y160429D01*
X408714Y160286D01*
X408286Y160143D01*
X407286Y159857D01*
X406571Y160000D01*
X406143Y160286D01*
X405857Y160714D01*
X405714Y161571D01*
Y165000D01*
X405000D01*
X404857Y165143D01*
X405000Y165429D01*
X405857Y166143D01*
X406429Y166857D01*
X406571Y167000D01*
X406714Y167143D01*
Y167000D01*
Y165714D01*
X408143D01*
X408571D01*
X408714Y165857D01*
X408857Y165714D01*
X408714Y165571D01*
X408571Y165143D01*
X408286Y165000D01*
X406714D01*
G37*
G74*
*
G75*
G36*
G01*
X410286Y163429D02*
Y163286D01*
X410429Y162143D01*
X410857Y161286D01*
X411571Y160571D01*
X412429Y160429D01*
X413286Y160571D01*
X414143Y161143D01*
X414143D01*
X414286Y161000D01*
X414143Y160857D01*
X413857Y160429D01*
X412857Y160000D01*
X411857Y159857D01*
X410857Y160000D01*
X410000Y160714D01*
X409429Y161714D01*
X409286Y162857D01*
X409429Y164000D01*
X410143Y165000D01*
X411000Y165571D01*
X411857Y165857D01*
X413000Y165571D01*
X413714Y164857D01*
X414143Y164143D01*
X414286Y163571D01*
X414143Y163429D01*
X413857D01*
X413286D01*
X412857D01*
X410286D01*
G37*
G74*
*
G75*
G36*
G01*
X417286Y164571D02*
X417714Y165143D01*
X418000Y165571D01*
X418429Y165714D01*
X418714Y165857D01*
X419286Y165571D01*
X419571Y165286D01*
X419714Y165143D01*
X419429Y164857D01*
X419143Y164571D01*
X418857Y164714D01*
X418286Y164857D01*
X417857Y164714D01*
X417571Y164571D01*
X417429Y164143D01*
X417286Y163714D01*
Y161429D01*
Y160857D01*
X417429Y160571D01*
X418000Y160286D01*
X418286D01*
X418571Y160143D01*
X418429Y160000D01*
X418000D01*
X417571D01*
X417143D01*
X416857D01*
X416286D01*
X416000D01*
X415714D01*
X415571Y160143D01*
X415857Y160286D01*
X416143Y160571D01*
X416286Y160857D01*
Y161286D01*
Y164286D01*
X416143Y164857D01*
X415571Y165000D01*
X415286D01*
X415143Y165143D01*
X415286Y165286D01*
X415429D01*
X416143Y165429D01*
X417000Y166000D01*
X417143D01*
X417286Y165714D01*
Y165571D01*
Y164571D01*
G37*
G74*
*
G75*
G36*
G01*
X432857Y168714D02*
X433143Y167000D01*
Y166857D01*
Y166714D01*
X433000D01*
X432857D01*
X432714Y167000D01*
X432000Y168000D01*
X431143Y168857D01*
X430143Y169286D01*
X429143Y169429D01*
X427429Y169143D01*
X426143Y168286D01*
X425429Y167000D01*
X425143Y165286D01*
X425286Y164143D01*
X425429Y163143D01*
X425857Y162286D01*
X426286Y161571D01*
X427000Y160857D01*
X427714Y160429D01*
X428429Y160286D01*
X429286Y160143D01*
X430429Y160286D01*
X431429Y160714D01*
X432286Y161429D01*
X432857Y162286D01*
X433000Y162571D01*
X433143Y162714D01*
X433286Y162571D01*
Y162429D01*
Y162286D01*
X433000Y161429D01*
Y161286D01*
X432857Y161143D01*
X432714Y160857D01*
X431000Y160143D01*
X429143Y159857D01*
X428000Y160000D01*
X427143Y160143D01*
X426286Y160571D01*
X425571Y161143D01*
X424857Y161857D01*
X424429Y162714D01*
X424286Y163571D01*
X424143Y164714D01*
X424286Y165714D01*
X424571Y166571D01*
X425000Y167429D01*
X425571Y168286D01*
X426286Y168857D01*
X427143Y169286D01*
X428143Y169571D01*
X429143Y169714D01*
X430571Y169571D01*
X431857Y169000D01*
X432143Y168857D01*
X432286D01*
X432429D01*
X432571D01*
X432714Y169000D01*
X432857Y168714D01*
X432857D01*
G37*
G74*
*
G75*
G36*
G01*
X435000Y163429D02*
Y163286D01*
X435143Y162143D01*
X435571Y161286D01*
X436286Y160571D01*
X437143Y160429D01*
X438000Y160571D01*
X438857Y161143D01*
X438857D01*
X439000Y161000D01*
X438857Y160857D01*
X438571Y160429D01*
X437571Y160000D01*
X436571Y159857D01*
X435571Y160000D01*
X434714Y160714D01*
X434143Y161714D01*
X434000Y162857D01*
X434143Y164000D01*
X434857Y165000D01*
X435714Y165571D01*
X436571Y165857D01*
X437714Y165571D01*
X438429Y164857D01*
X438857Y164143D01*
X439000Y163571D01*
X438857Y163429D01*
X438571D01*
X438000D01*
X437571D01*
X435000D01*
G37*
G74*
*
G75*
G36*
G01*
X442000Y164714D02*
X443000Y165571D01*
X444000Y165857D01*
X445000Y165571D01*
X445714Y165000D01*
X446000Y164143D01*
X446143Y163000D01*
Y161286D01*
Y161143D01*
Y160857D01*
X446429Y160429D01*
X446714Y160286D01*
X447143D01*
X447286Y160143D01*
X447000Y160000D01*
X446714D01*
X446429D01*
X445857D01*
X445143D01*
X445000D01*
X444714D01*
X444571D01*
Y160143D01*
X444714Y160286D01*
X444857D01*
X445143Y160429D01*
Y160857D01*
Y163286D01*
X445000Y164143D01*
X444714Y164714D01*
X444143Y165143D01*
X443429Y165286D01*
X442857Y165143D01*
X442429Y164857D01*
X442143Y164571D01*
X442000Y164143D01*
Y161429D01*
Y161286D01*
Y160857D01*
X442286Y160429D01*
X442857Y160286D01*
X443143Y160143D01*
X443000Y160000D01*
X442571D01*
X442429D01*
X442000D01*
X441143D01*
X440714D01*
X440429D01*
X440286Y160143D01*
X440429Y160286D01*
X440857Y160571D01*
X441000Y161143D01*
Y164143D01*
Y164571D01*
X440857Y164857D01*
X440429Y165000D01*
X440143D01*
X440000D01*
Y165143D01*
X440143Y165286D01*
X441143Y165571D01*
X441429Y165857D01*
X441714Y166000D01*
X441857D01*
X442000Y165714D01*
Y165571D01*
Y164714D01*
G37*
G74*
*
G75*
G36*
G01*
X449571Y165000D02*
Y161429D01*
Y160857D01*
X449714Y160571D01*
X450143Y160286D01*
X450571D01*
X451286Y160429D01*
X451571Y160571D01*
X451571D01*
X451714Y160429D01*
X451571Y160286D01*
X451143Y160143D01*
X450143Y159857D01*
X449429Y160000D01*
X449000Y160286D01*
X448714Y160714D01*
X448571Y161571D01*
Y165000D01*
X447857D01*
X447714Y165143D01*
X447857Y165429D01*
X448714Y166143D01*
X449286Y166857D01*
X449429Y167000D01*
X449571Y167143D01*
Y167000D01*
Y165714D01*
X451000D01*
X451429D01*
X451571Y165857D01*
X451714Y165714D01*
X451571Y165571D01*
X451429Y165143D01*
X451143Y165000D01*
X449571D01*
G37*
G74*
*
G75*
G36*
G01*
X456857Y160857D02*
X456000Y160143D01*
X454857Y159857D01*
X454000Y160000D01*
X453429Y160429D01*
X453000Y161143D01*
X452857Y162143D01*
Y162571D01*
Y164857D01*
X452714Y165429D01*
X452143Y165571D01*
X452000Y165714D01*
X452143Y165857D01*
X452429D01*
X453000D01*
X453571Y166000D01*
X453714D01*
X453857Y165857D01*
Y165714D01*
Y165571D01*
Y162429D01*
Y162143D01*
X454000Y161286D01*
X454429Y160571D01*
X454857Y160286D01*
X455286D01*
X455857Y160429D01*
X456429Y160571D01*
X456714Y161000D01*
X456857Y161429D01*
Y164857D01*
X456714Y165429D01*
X456286Y165571D01*
X456000Y165714D01*
X456286Y165857D01*
X456429D01*
X457000D01*
X457571Y166000D01*
X457714D01*
X457857Y165714D01*
Y161286D01*
Y160857D01*
X458000Y160571D01*
X458429Y160429D01*
X458571D01*
X458714D01*
X458857Y160286D01*
X458714Y160143D01*
X458429D01*
X458000D01*
X457571Y160000D01*
X457429D01*
X457143D01*
X456857Y160143D01*
Y160571D01*
Y160857D01*
G37*
G74*
*
G75*
G36*
G01*
X461714Y164571D02*
X462143Y165143D01*
X462429Y165571D01*
X462857Y165714D01*
X463143Y165857D01*
X463714Y165571D01*
X464000Y165286D01*
X464143Y165143D01*
X463857Y164857D01*
X463571Y164571D01*
X463286Y164714D01*
X462714Y164857D01*
X462286Y164714D01*
X462000Y164571D01*
X461857Y164143D01*
X461714Y163714D01*
Y161429D01*
Y160857D01*
X461857Y160571D01*
X462429Y160286D01*
X462714D01*
X463000Y160143D01*
X462857Y160000D01*
X462429D01*
X462000D01*
X461571D01*
X461286D01*
X460714D01*
X460429D01*
X460143D01*
X460000Y160143D01*
X460286Y160286D01*
X460571Y160571D01*
X460714Y160857D01*
Y161286D01*
Y164286D01*
X460571Y164857D01*
X460000Y165000D01*
X459714D01*
X459571Y165143D01*
X459714Y165286D01*
X459857D01*
X460571Y165429D01*
X461429Y166000D01*
X461571D01*
X461714Y165714D01*
Y165571D01*
Y164571D01*
G37*
G74*
*
G75*
G36*
G01*
X467571Y161143D02*
X468857Y163857D01*
X469000Y164714D01*
X468857Y165143D01*
X468286Y165429D01*
X468143Y165571D01*
X468286Y165714D01*
X468571D01*
X469143D01*
X469429D01*
X469714D01*
X470000D01*
X470143Y165571D01*
X470000Y165429D01*
X469714Y165143D01*
X469429Y164714D01*
X466857Y157714D01*
X466714Y157571D01*
X466571Y157286D01*
X466429D01*
X466143D01*
X465857D01*
X465714Y157429D01*
X465857Y157571D01*
X466571Y158714D01*
X466857Y159429D01*
X467000Y159857D01*
Y160143D01*
X466714Y160714D01*
X465000Y164714D01*
X464714Y165143D01*
X464286Y165429D01*
X464143Y165571D01*
X464286Y165714D01*
X464714D01*
X465000D01*
X465429D01*
X466000D01*
X466429D01*
X466714D01*
X466857Y165571D01*
X466714Y165429D01*
X466429D01*
X466143Y165286D01*
X466000Y165143D01*
X466286Y164286D01*
X467571Y161143D01*
G37*
G74*
*
G75*
G36*
G01*
X475286Y167857D02*
Y168429D01*
X475000Y168857D01*
X474714Y169143D01*
X474286Y169286D01*
X474000Y169429D01*
X474143Y169571D01*
X474714D01*
X474857D01*
X475286D01*
X475857D01*
X476286D01*
X477000D01*
X477857D01*
X479286Y169429D01*
X480429Y169143D01*
X481429Y168714D01*
X482286Y168143D01*
X482857Y167429D01*
X483286Y166714D01*
X483429Y165857D01*
X483571Y164857D01*
X483429Y163571D01*
X483000Y162429D01*
X482286Y161571D01*
X481429Y160714D01*
X480000Y160143D01*
X478571Y160000D01*
X478286D01*
X477857D01*
X476286D01*
X475000D01*
X474571D01*
X474286Y160143D01*
X474429Y160286D01*
X474857Y160429D01*
X475143Y160571D01*
X475286Y161000D01*
Y161571D01*
Y167857D01*
G37*
G74*
*
G75*
G36*
G01*
X485429Y163429D02*
Y163286D01*
X485571Y162143D01*
X486000Y161286D01*
X486714Y160571D01*
X487571Y160429D01*
X488429Y160571D01*
X489286Y161143D01*
X489286D01*
X489429Y161000D01*
X489286Y160857D01*
X489000Y160429D01*
X488000Y160000D01*
X487000Y159857D01*
X486000Y160000D01*
X485143Y160714D01*
X484571Y161714D01*
X484429Y162857D01*
X484571Y164000D01*
X485286Y165000D01*
X486143Y165571D01*
X487000Y165857D01*
X488143Y165571D01*
X488857Y164857D01*
X489286Y164143D01*
X489429Y163571D01*
X489286Y163429D01*
X489000D01*
X488429D01*
X488000D01*
X485429D01*
G37*
G74*
*
G75*
G36*
G01*
X492571Y165857D02*
X493429Y165714D01*
X493857Y165571D01*
X494000Y165429D01*
Y165286D01*
Y165143D01*
Y164857D01*
Y164571D01*
Y164286D01*
X493857D01*
X493571Y164429D01*
X493000Y165286D01*
X492143Y165571D01*
X491429Y165286D01*
X491286Y165000D01*
X491143Y164714D01*
X491286Y164286D01*
X491429Y164000D01*
X492000Y163714D01*
X492714Y163429D01*
X493429Y163143D01*
X494000Y162714D01*
X494143Y162286D01*
X494286Y161714D01*
X494143Y161000D01*
X493714Y160429D01*
X493000Y160000D01*
X492286Y159857D01*
X491714Y160000D01*
X491000Y160143D01*
X490857Y160286D01*
X490571D01*
X490429Y160429D01*
Y160714D01*
Y161571D01*
Y161857D01*
X490714Y162000D01*
X490857Y161714D01*
X491143Y161143D01*
X491429Y160571D01*
X492000Y160286D01*
X492571Y160143D01*
X493000D01*
X493429Y160429D01*
X493571Y160857D01*
X493714Y161286D01*
X493429Y161857D01*
X492714Y162286D01*
X492143Y162571D01*
X491429Y163000D01*
X491000Y163286D01*
X490714Y163714D01*
X490571Y164286D01*
X490714Y164857D01*
X491143Y165429D01*
X491714Y165714D01*
X492571Y165857D01*
X492571D01*
G37*
G74*
*
G75*
G36*
G01*
X496857Y168714D02*
X497143Y168429D01*
X497286Y168143D01*
X497429Y168000D01*
X497143Y167571D01*
X497000Y167286D01*
X496714D01*
X496571D01*
X496429Y167571D01*
X496143Y168000D01*
X496429Y168429D01*
X496857Y168714D01*
X496857D01*
G37*
G74*
*
G75*
G36*
G01*
X497286Y161143D02*
Y160714D01*
X497429Y160571D01*
X497857Y160286D01*
X498143D01*
X498429Y160143D01*
X498286Y160000D01*
X497714D01*
X497286D01*
X496857D01*
X496286D01*
X496000D01*
X495714D01*
X495571Y160143D01*
X495714Y160286D01*
X495857D01*
X496143Y160571D01*
X496286Y161143D01*
Y164143D01*
Y164714D01*
X496143Y165000D01*
X496000Y165143D01*
X495714D01*
X495429D01*
Y165286D01*
X495571D01*
X495714Y165429D01*
X496714Y165857D01*
X497143Y166000D01*
X497286Y165857D01*
Y161143D01*
G37*
G74*
*
G75*
G36*
G01*
X499857Y159714D02*
X499857D01*
X499571Y160143D01*
X499429Y160571D01*
X499714Y161286D01*
X500286Y162000D01*
X499571Y162714D01*
X499286Y163714D01*
X499429Y164571D01*
X499857Y165286D01*
X500571Y165714D01*
X501429Y165857D01*
X502143Y165714D01*
X502857Y165429D01*
X503286Y165286D01*
X503857Y165429D01*
X504143Y165857D01*
X504286Y166000D01*
Y166143D01*
X504429Y166000D01*
X504286Y165429D01*
Y165143D01*
X504143Y164857D01*
X503714Y164571D01*
X503571Y164429D01*
X503714Y164286D01*
Y163714D01*
X503571Y163000D01*
X503143Y162286D01*
X502429Y161857D01*
X501571Y161714D01*
X500857Y161857D01*
X500571D01*
X500143Y161571D01*
X499857Y161143D01*
X500000Y160714D01*
X500286Y160571D01*
X500714Y160429D01*
X501571D01*
X502714Y160286D01*
X503571Y160143D01*
X504000Y159714D01*
X504143Y159143D01*
X504000Y158429D01*
X503286Y157857D01*
X502429Y157429D01*
X501429Y157286D01*
X500429Y157429D01*
X499571Y157714D01*
X499000Y158143D01*
X498857Y158571D01*
X499143Y159286D01*
X499857Y159714D01*
X499857D01*
G37*
G74*
*
G75*
G36*
G01*
X507000Y164714D02*
X508000Y165571D01*
X509000Y165857D01*
X510000Y165571D01*
X510714Y165000D01*
X511000Y164143D01*
X511143Y163000D01*
Y161286D01*
Y161143D01*
Y160857D01*
X511429Y160429D01*
X511714Y160286D01*
X512143D01*
X512286Y160143D01*
X512000Y160000D01*
X511714D01*
X511429D01*
X510857D01*
X510143D01*
X510000D01*
X509714D01*
X509571D01*
Y160143D01*
X509714Y160286D01*
X509857D01*
X510143Y160429D01*
Y160857D01*
Y163286D01*
X510000Y164143D01*
X509714Y164714D01*
X509143Y165143D01*
X508429Y165286D01*
X507857Y165143D01*
X507429Y164857D01*
X507143Y164571D01*
X507000Y164143D01*
Y161429D01*
Y161286D01*
Y160857D01*
X507286Y160429D01*
X507857Y160286D01*
X508143Y160143D01*
X508000Y160000D01*
X507571D01*
X507429D01*
X507000D01*
X506143D01*
X505714D01*
X505429D01*
X505286Y160143D01*
X505429Y160286D01*
X505857Y160571D01*
X506000Y161143D01*
Y164143D01*
Y164571D01*
X505857Y164857D01*
X505429Y165000D01*
X505143D01*
X505000D01*
Y165143D01*
X505143Y165286D01*
X506143Y165571D01*
X506429Y165857D01*
X506714Y166000D01*
X506857D01*
X507000Y165714D01*
Y165571D01*
Y164714D01*
G37*
G74*
*
G75*
G36*
G01*
X514000Y161571D02*
X514429Y161429D01*
X514714Y161143D01*
X515000Y160571D01*
Y160143D01*
X514857Y159286D01*
X514286Y158429D01*
X513857Y158000D01*
X513429Y157857D01*
X513286Y158000D01*
X513429Y158143D01*
X513857Y158714D01*
X514143Y159286D01*
X514000Y160000D01*
X513286Y160429D01*
X513143Y160714D01*
X513286Y161000D01*
X513571Y161143D01*
X513857Y161571D01*
X514000D01*
X514000D01*
G37*
G74*
*
G75*
G36*
G01*
X522286Y161857D02*
Y161571D01*
Y160857D01*
X522429Y160571D01*
X522857Y160429D01*
X523429D01*
X524714D01*
X525714Y160714D01*
X526571Y161000D01*
X527000Y161571D01*
X527143Y161714D01*
X527286Y161571D01*
X527143Y161143D01*
X526857Y160714D01*
X526000Y160143D01*
X524857Y160000D01*
X524286D01*
X523571D01*
X522143D01*
X520714D01*
X520286D01*
X520143Y160143D01*
X520429Y160286D01*
X520857Y160429D01*
X521143Y160714D01*
X521286Y161143D01*
Y161714D01*
Y162000D01*
Y168143D01*
X521143Y168857D01*
X520571Y169286D01*
X520143D01*
X520000Y169429D01*
X520286Y169571D01*
X520714D01*
X521714D01*
X522857D01*
X523143D01*
X523286Y169429D01*
X523143Y169286D01*
X522857D01*
X522429Y168857D01*
X522286Y168000D01*
Y161857D01*
G37*
G74*
*
G75*
G36*
G01*
X530000D02*
Y161571D01*
Y160857D01*
X530143Y160571D01*
X530571Y160429D01*
X531143D01*
X532429D01*
X533429Y160714D01*
X534286Y161000D01*
X534714Y161571D01*
X534857Y161714D01*
X535000Y161571D01*
X534857Y161143D01*
X534571Y160714D01*
X533714Y160143D01*
X532571Y160000D01*
X532000D01*
X531286D01*
X529857D01*
X528429D01*
X528000D01*
X527857Y160143D01*
X528143Y160286D01*
X528571Y160429D01*
X528857Y160714D01*
X529000Y161143D01*
Y161714D01*
Y162000D01*
Y168143D01*
X528857Y168857D01*
X528286Y169286D01*
X527857D01*
X527714Y169429D01*
X528000Y169571D01*
X528429D01*
X529429D01*
X530571D01*
X530857D01*
X531000Y169429D01*
X530857Y169286D01*
X530571D01*
X530143Y168857D01*
X530000Y168000D01*
Y161857D01*
G37*
G74*
*
G75*
G36*
G01*
X544286Y168714D02*
X544571Y167000D01*
Y166857D01*
Y166714D01*
X544429D01*
X544286D01*
X544143Y167000D01*
X543429Y168000D01*
X542571Y168857D01*
X541571Y169286D01*
X540571Y169429D01*
X538857Y169143D01*
X537571Y168286D01*
X536857Y167000D01*
X536571Y165286D01*
X536714Y164143D01*
X536857Y163143D01*
X537286Y162286D01*
X537714Y161571D01*
X538429Y160857D01*
X539143Y160429D01*
X539857Y160286D01*
X540714Y160143D01*
X541857Y160286D01*
X542857Y160714D01*
X543714Y161429D01*
X544286Y162286D01*
X544429Y162571D01*
X544571Y162714D01*
X544714Y162571D01*
Y162429D01*
Y162286D01*
X544429Y161429D01*
Y161286D01*
X544286Y161143D01*
X544143Y160857D01*
X542429Y160143D01*
X540571Y159857D01*
X539429Y160000D01*
X538571Y160143D01*
X537714Y160571D01*
X537000Y161143D01*
X536286Y161857D01*
X535857Y162714D01*
X535714Y163571D01*
X535571Y164714D01*
X535714Y165714D01*
X536000Y166571D01*
X536429Y167429D01*
X537000Y168286D01*
X537714Y168857D01*
X538571Y169286D01*
X539571Y169571D01*
X540571Y169714D01*
X542000Y169571D01*
X543286Y169000D01*
X543571Y168857D01*
X543714D01*
X543857D01*
X544000D01*
X544143Y169000D01*
X544286Y168714D01*
X544286D01*
G37*
G74*
*
*
G04 PC Void Outlines (0)*
G04 Layer Name J5458-00.pcb - clear (0)*
%LPC*%
*
*
G04 PC Area=System Text*
G75*
G36*
G01*
X380000Y169429D02*
X378714Y169143D01*
X377571Y168286D01*
X376857Y167000D01*
X376571Y165429D01*
X376714Y164143D01*
X377000Y163000D01*
X377429Y162000D01*
X378143Y161286D01*
X379571Y160429D01*
X380143Y160143D01*
X381000D01*
X382429Y160429D01*
X383429Y161286D01*
X384143Y162429D01*
X384429Y164143D01*
X384286Y165143D01*
X384143Y166143D01*
X383714Y167000D01*
X383143Y167857D01*
X382429Y168571D01*
X381714Y169000D01*
X380857Y169286D01*
X380000Y169429D01*
X380000D01*
G37*
G74*
*
G75*
G36*
G01*
X397286Y162857D02*
X396429Y162714D01*
X395714Y162286D01*
X395286Y161857D01*
X395143Y161286D01*
X395429Y160429D01*
X395714Y160143D01*
X396143D01*
X396571Y160286D01*
X397000Y160571D01*
X397286Y160857D01*
Y161429D01*
Y162857D01*
G37*
G74*
*
G75*
G36*
G01*
X410286Y163714D02*
X412714D01*
X413143D01*
X413286Y164000D01*
X413143Y164571D01*
X412857Y165000D01*
X412286Y165429D01*
X411714Y165571D01*
X411286Y165429D01*
X410714Y165000D01*
X410429Y164429D01*
X410286Y163714D01*
X410286D01*
G37*
G74*
*
G75*
G36*
G01*
X435000D02*
X437429D01*
X437857D01*
X438000Y164000D01*
X437857Y164571D01*
X437571Y165000D01*
X437000Y165429D01*
X436429Y165571D01*
X436000Y165429D01*
X435429Y165000D01*
X435143Y164429D01*
X435000Y163714D01*
X435000D01*
G37*
G74*
*
G75*
G36*
G01*
X476286Y168429D02*
Y161286D01*
X476429Y160857D01*
X476714Y160571D01*
X477714Y160429D01*
X478714Y160286D01*
X479857Y160429D01*
X480857Y160857D01*
X481571Y161429D01*
X482143Y162286D01*
X482429Y163143D01*
X482571Y164286D01*
X482429Y165571D01*
X482000Y166714D01*
X481429Y167714D01*
X480571Y168429D01*
X479429Y169143D01*
X477857Y169286D01*
X477000Y169143D01*
X476429Y169000D01*
X476286Y168857D01*
Y168429D01*
X476286D01*
G37*
G74*
*
G75*
G36*
G01*
X485429Y163714D02*
X487857D01*
X488286D01*
X488429Y164000D01*
X488286Y164571D01*
X488000Y165000D01*
X487429Y165429D01*
X486857Y165571D01*
X486429Y165429D01*
X485857Y165000D01*
X485571Y164429D01*
X485429Y163714D01*
X485429D01*
G37*
G74*
*
G75*
G36*
G01*
X501429Y165571D02*
X501000Y165429D01*
X500571Y165143D01*
X500429Y164571D01*
X500286Y164000D01*
X500429Y163143D01*
X500714Y162571D01*
X501000Y162143D01*
X501571Y162000D01*
X502000Y162143D01*
X502429Y162429D01*
X502571Y163000D01*
X502714Y163571D01*
X502571Y164429D01*
X502286Y165000D01*
X502000Y165429D01*
X501429Y165571D01*
X501429D01*
G37*
G74*
*
G75*
G36*
G01*
X500286Y159571D02*
X499714Y159286D01*
X499429Y158714D01*
X499571Y158286D01*
X499857Y157857D01*
X500429Y157571D01*
X501286D01*
X502143Y157714D01*
X502857Y157857D01*
X503429Y158286D01*
X503571Y158714D01*
X503286Y159286D01*
X502571Y159429D01*
X502286D01*
X501857D01*
X501143D01*
X500286Y159571D01*
X500286D01*
G37*
G74*
*
*
G04 PC Custom Flashes*
G04 Layer Name J5458-00.pcb - flashes*
%LPD*%
*
*
G04 PC Circuitry*
G04 Layer Name J5458-00.pcb - circuitry*
%LPD*%
*
G54D10*
G01X327286Y425886D02*
X328700Y426550D01*
X327816Y426416*
X327950Y427300*
X327286Y425886*
X327339Y426000D02*
X327529D01*
X327574Y426500D02*
X327829D01*
X328370D02*
X328594D01*
X327809Y427000D02*
X327905D01*
X327500Y425986D02*
Y426342D01*
X328000Y426221D02*
Y426444D01*
X328500Y426456D02*
Y426520D01*
X324500Y289600D02*
X323970Y288130D01*
X324500Y288850*
X325030Y288130*
X324500Y289600*
X323970Y288130D02*
X323970D01*
X325030D02*
X325030D01*
X324150Y288630D02*
X324338D01*
X324662D02*
X324850D01*
X324331Y289130D02*
X324669D01*
X324000Y288171D02*
Y288214D01*
X324500Y288850D02*
Y289600D01*
X325000Y288171D02*
Y288214D01*
X327600Y430400D02*
X328130Y431870D01*
X327600Y431150*
X327070Y431870*
X327600Y430400*
X327564Y430500D02*
X327636D01*
X327383Y431000D02*
X327817D01*
X327203Y431500D02*
X327342D01*
X327858D02*
X327997D01*
X327500Y430677D02*
Y431286D01*
X328000Y431508D02*
Y431693D01*
X320900Y289700D02*
X320370Y288230D01*
X320900Y288950*
X321430Y288230*
X320900Y289700*
X320370Y288230D02*
X320370D01*
X321430D02*
X321430D01*
X320550Y288730D02*
X320738D01*
X321062D02*
X321250D01*
X320731Y289230D02*
X321069D01*
X320500Y288407D02*
Y288592D01*
X321000Y288814D02*
Y289423D01*
X323750Y429600D02*
X324327Y429268D01*
X323750Y429600*
X324327Y429932*
X323750Y429600*
X323924Y429500D02*
X323924D01*
X324000Y429456D02*
X324000D01*
Y429744D02*
X324000D01*
X336500Y284300D02*
X335970Y282830D01*
X336500Y283550*
X337030Y282830*
X336500Y284300*
X335970Y282830D02*
X335970D01*
X337030D02*
X337030D01*
X336150Y283330D02*
X336338D01*
X336662D02*
X336850D01*
X336331Y283830D02*
X336669D01*
X336000Y282871D02*
Y282914D01*
X336500Y283550D02*
Y284300D01*
X337000Y282871D02*
Y282914D01*
X329500Y417050D02*
X329933Y417888D01*
X329500Y417250*
X329067Y417888*
X329500Y417050*
X329267Y417500D02*
X329330D01*
X329670D02*
X329733D01*
X329500Y417050D02*
Y417250D01*
X339800Y281200D02*
X339270Y279730D01*
X339800Y280450*
X340330Y279730*
X339800Y281200*
X339270Y279730D02*
X339270D01*
X340330D02*
X340330D01*
X339450Y280230D02*
X339638D01*
X339962D02*
X340150D01*
X339631Y280730D02*
X339969D01*
X339500Y280043D02*
Y280369D01*
X340000Y280179D02*
Y280646D01*
X329859Y407958D02*
X330912Y408780D01*
X330101Y408403*
X329980Y409288*
X329859Y407958*
X329863Y408000D02*
X329912D01*
X329909Y408500D02*
X330088D01*
X330310D02*
X330553D01*
X329954Y409000D02*
X330020D01*
X330000Y408068D02*
Y409145D01*
X330500Y408459D02*
Y408589D01*
X379500Y293500D02*
X378970Y292030D01*
X379500Y292750*
X380030Y292030*
X379500Y293500*
X378970Y292030D02*
X378970D01*
X380030D02*
X380030D01*
X379150Y292530D02*
X379338D01*
X379662D02*
X379850D01*
X379331Y293030D02*
X379669D01*
X379000Y292071D02*
Y292114D01*
X379500Y292750D02*
Y293500D01*
X380000Y292071D02*
Y292114D01*
X383855Y416400D02*
X383191Y417815D01*
X383324Y416931*
X382441Y417065*
X383855Y416400*
X383642Y416500D02*
X383808D01*
X382578Y417000D02*
X382866D01*
X383314D02*
X383573D01*
X383238Y417500D02*
X383338D01*
X382500Y417037D02*
Y417055D01*
X383000Y416802D02*
Y416980D01*
X383500Y416567D02*
Y417156D01*
X367900Y291300D02*
X367370Y289830D01*
X367900Y290550*
X368430Y289830*
X367900Y291300*
X367370Y289830D02*
X367370D01*
X368430D02*
X368430D01*
X367550Y290330D02*
X367738D01*
X368062D02*
X368250D01*
X367731Y290830D02*
X368069D01*
X367500Y290007D02*
Y290192D01*
X368000Y290414D02*
Y291023D01*
X358000Y417700D02*
X358530Y419170D01*
X358000Y418450*
X357470Y419170*
X358000Y417700*
X357892Y418000D02*
X358108D01*
X357711Y418500D02*
X357963D01*
X358037D02*
X358289D01*
X357531Y419000D02*
X357595D01*
X358405D02*
X358469D01*
X357500Y419086D02*
Y419129D01*
X358000Y417700D02*
Y418450D01*
X358500Y419086D02*
Y419129D01*
X365800Y283600D02*
X365270Y282130D01*
X365800Y282850*
X366330Y282130*
X365800Y283600*
X365270Y282130D02*
X365270D01*
X366330D02*
X366330D01*
X365450Y282630D02*
X365638D01*
X365962D02*
X366150D01*
X365631Y283130D02*
X365969D01*
X365500Y282443D02*
Y282769D01*
X366000Y282579D02*
Y283046D01*
X355600Y419500D02*
X356130Y420970D01*
X355600Y420250*
X355070Y420970*
X355600Y419500*
X355600*
X355420Y420000D02*
X355780D01*
X355239Y420500D02*
X355416D01*
X355784D02*
X355961D01*
X355500Y419777D02*
Y420386D01*
X356000Y420608D02*
Y420793D01*
X298200Y338000D02*
X297670Y336530D01*
X298200Y337250*
X298730Y336530*
X298200Y338000*
X297839Y337000D02*
X298016D01*
X298384D02*
X298561D01*
X298020Y337500D02*
X298380D01*
X298200Y338000D02*
X298200D01*
X297670Y336530D02*
X297670D01*
X298170Y337209D02*
Y337916D01*
X298670Y336613D02*
Y336698D01*
X293400Y424200D02*
X293930Y425670D01*
X293400Y424950*
X292870Y425670*
X293400Y424200*
X293292Y424500D02*
X293508D01*
X293111Y425000D02*
X293363D01*
X293437D02*
X293689D01*
X292931Y425500D02*
X292995D01*
X293805D02*
X293869D01*
X292870Y425670D02*
X292870D01*
X293370Y424284D02*
Y424991D01*
X293870Y425502D02*
Y425587D01*
X294286Y347714D02*
X294950Y346300D01*
X294816Y347184*
X295700Y347050*
X294286Y347714*
X294856Y346500D02*
X294920D01*
X294621Y347000D02*
X294844D01*
X294386Y347500D02*
X294742D01*
X294286Y347714D02*
X294286D01*
X294786Y346650D02*
Y347479D01*
X295286Y347113D02*
Y347245D01*
X293400Y411600D02*
X293930Y413070D01*
X293400Y412350*
X292870Y413070*
X293400Y411600*
X293256Y412000D02*
X293544D01*
X293075Y412500D02*
X293289D01*
X293511D02*
X293725D01*
X292895Y413000D02*
X292921D01*
X293879D02*
X293905D01*
X292870Y413070D02*
X292870D01*
X293370Y411684D02*
Y412391D01*
X293870Y412902D02*
Y412987D01*
X328786Y420486D02*
X330200Y421150D01*
X329316Y421016*
X329450Y421900*
X328786Y420486*
X328792Y420500D02*
X328816D01*
X329027Y421000D02*
X329881D01*
X329262Y421500D02*
X329389D01*
X329000Y420586D02*
Y420942D01*
X329500Y420821D02*
Y421044D01*
X330000Y421056D02*
Y421120D01*
X345200Y353500D02*
X344670Y352030D01*
X345200Y352750*
X345730Y352030*
X345200Y353500*
X344839Y352500D02*
X345016D01*
X345384D02*
X345561D01*
X345020Y353000D02*
X345380D01*
X345200Y353500D02*
X345200D01*
X345000Y352479D02*
Y352946D01*
X345500Y352343D02*
Y352669D01*
X350300Y421500D02*
X350830Y422970D01*
X350300Y422250*
X349770Y422970*
X350300Y421500*
X350300*
X350120Y422000D02*
X350480D01*
X349939Y422500D02*
X350116D01*
X350484D02*
X350661D01*
X350000Y422331D02*
Y422657D01*
X350500Y422054D02*
Y422521D01*
X316800Y340300D02*
X316270Y338830D01*
X316800Y339550*
X317330Y338830*
X316800Y340300*
X316331Y339000D02*
X316395D01*
X317205D02*
X317269D01*
X316511Y339500D02*
X316763D01*
X316837D02*
X317089D01*
X316692Y340000D02*
X316908D01*
X316500Y339143D02*
Y339469D01*
X317000Y339279D02*
Y339746D01*
X320200Y396350D02*
X320680Y397323D01*
X320200Y396650*
X319720Y397323*
X320200Y396350*
X320126Y396500D02*
X320274D01*
X319880Y397000D02*
X319951D01*
X320449D02*
X320520D01*
X320000Y396756D02*
Y396931D01*
X320500Y396959D02*
Y397071D01*
X315286Y436686D02*
X316700Y437350D01*
X315816Y437216*
X315950Y438100*
X315286Y436686*
X315433Y437000D02*
X315955D01*
X315668Y437500D02*
X315859D01*
X315903Y438000D02*
X315935D01*
X315500Y436786D02*
Y437142D01*
X316000Y437021D02*
Y437244D01*
X316500Y437256D02*
Y437320D01*
X319900Y351100D02*
X319370Y349630D01*
X319900Y350350*
X320430Y349630*
X319900Y351100*
X319503Y350000D02*
X319642D01*
X320158D02*
X320297D01*
X319683Y350500D02*
X320117D01*
X319864Y351000D02*
X319936D01*
X319500Y349807D02*
Y349992D01*
X320000Y350214D02*
Y350823D01*
X325186Y442486D02*
X326600Y443150D01*
X325716Y443016*
X325850Y443900*
X325186Y442486*
X325192Y442500D02*
X325216D01*
X325427Y443000D02*
X326281D01*
X325662Y443500D02*
X325789D01*
X325500Y442633D02*
Y443155D01*
X326000Y442868D02*
Y443059D01*
X326500Y443103D02*
Y443135D01*
X370800Y351100D02*
X370270Y349630D01*
X370800Y350350*
X371330Y349630*
X370800Y351100*
X370403Y350000D02*
X370542D01*
X371058D02*
X371197D01*
X370583Y350500D02*
X371017D01*
X370764Y351000D02*
X370836D01*
X370500Y349943D02*
Y350269D01*
X371000Y350079D02*
Y350546D01*
X377130Y408567D02*
X378504Y409191D01*
X377620Y409057*
X377754Y409941*
X377130Y408567*
X377327Y409000D02*
X378084D01*
X377554Y409500D02*
X377687D01*
X377500Y408735D02*
Y409382D01*
X378000Y408962D02*
Y409114D01*
X378500Y409189D02*
Y409190D01*
X402200Y336600D02*
X401670Y335130D01*
X402200Y335850*
X402730Y335130*
X402200Y336600*
X401803Y335500D02*
X401942D01*
X402458D02*
X402597D01*
X401983Y336000D02*
X402417D01*
X402164Y336500D02*
X402236D01*
X402000Y335579D02*
Y336046D01*
X402500Y335443D02*
Y335769D01*
X456814Y459708D02*
X458228Y460372D01*
X457344Y460238*
X457478Y461122*
X456814Y459708*
X456951Y460000D02*
X457436D01*
X457186Y460500D02*
X457384D01*
X457421Y461000D02*
X457460D01*
X457000Y459795D02*
Y460104D01*
X457500Y460030D02*
Y460262D01*
X458000Y460265D02*
Y460337D01*
X408900Y347600D02*
X408370Y346130D01*
X408900Y346850*
X409430Y346130*
X408900Y347600*
X408503Y346500D02*
X408642D01*
X409158D02*
X409297D01*
X408683Y347000D02*
X409117D01*
X408864Y347500D02*
X408936D01*
X408500Y346307D02*
Y346492D01*
X409000Y346714D02*
Y347323D01*
X460930Y459887D02*
X462165Y460372D01*
X461281Y460238*
X461415Y461122*
X460930Y459887*
X460975Y460000D02*
X461218D01*
X461171Y460500D02*
X461321D01*
X461367Y461000D02*
X461397D01*
X461000Y459914D02*
Y460064D01*
X461500Y460111D02*
Y460271D01*
X462000Y460307D02*
Y460347D01*
X405900Y339700D02*
X405370Y338230D01*
X405900Y338950*
X406430Y338230*
X405900Y339700*
X405467Y338500D02*
X405568D01*
X406232D02*
X406333D01*
X405647Y339000D02*
X406153D01*
X405828Y339500D02*
X405972D01*
X405500Y338407D02*
Y338592D01*
X406000Y338814D02*
Y339423D01*
X456814Y455771D02*
X458228Y456435D01*
X457344Y456301*
X457478Y457185*
X456814Y455771*
X456922Y456000D02*
X457302D01*
X457157Y456500D02*
X457375D01*
X457391Y457000D02*
X457450D01*
X457000Y455858D02*
Y456167D01*
X457500Y456093D02*
Y456325D01*
X458000Y456328D02*
Y456400D01*
X418400Y319500D02*
X417870Y318030D01*
X418400Y318750*
X418930Y318030*
X418400Y319500*
X418039Y318500D02*
X418216D01*
X418584D02*
X418761D01*
X418220Y319000D02*
X418580D01*
X418400Y319500D02*
X418400D01*
X418000Y318207D02*
Y318392D01*
X418500Y318614D02*
Y319223D01*
X421812Y387272D02*
X422342Y388741D01*
X421812Y388022*
X421282Y388741*
X421812Y387272*
X421730Y387500D02*
X421894D01*
X421549Y388000D02*
X422075D01*
X421369Y388500D02*
X421459D01*
X422164D02*
X422255D01*
X421500Y388136D02*
Y388445D01*
X422000Y387793D02*
Y388277D01*
X422500Y324700D02*
X421970Y323230D01*
X422500Y323950*
X423030Y323230*
X422500Y324700*
X422067Y323500D02*
X422168D01*
X422832D02*
X422933D01*
X422247Y324000D02*
X422753D01*
X422428Y324500D02*
X422572D01*
X422000Y323271D02*
Y323314D01*
X422500Y323950D02*
Y324700D01*
X423000Y323271D02*
Y323314D01*
X424335Y387857D02*
X425749Y388522D01*
X424865Y388388*
X424999Y389272*
X424335Y387857*
X424402Y388000D02*
X424638D01*
X424637Y388500D02*
X424882D01*
X425606D02*
X425703D01*
X424871Y389000D02*
X424958D01*
X424500Y387935D02*
Y388209D01*
X425000Y388170D02*
Y388408D01*
X425500Y388405D02*
Y388484D01*
X392600Y343700D02*
X392070Y342230D01*
X392600Y342950*
X393130Y342230*
X392600Y343700*
X392167Y342500D02*
X392268D01*
X392932D02*
X393033D01*
X392347Y343000D02*
X392853D01*
X392528Y343500D02*
X392672D01*
X392500Y342814D02*
Y343423D01*
X393000Y342407D02*
Y342592D01*
X388973Y387930D02*
X390314Y388522D01*
X389430Y388388*
X389564Y389272*
X388973Y387930*
X389003Y388000D02*
X389131D01*
X389224Y388500D02*
X389447D01*
X390171D02*
X390265D01*
X389444Y389000D02*
X389523D01*
X389000Y387942D02*
Y387992D01*
X389500Y388163D02*
Y388398D01*
Y388849D02*
Y389126D01*
X390000Y388383D02*
Y388474D01*
X442300Y319750D02*
X441917Y319045D01*
X442300Y319650*
X442683Y319045*
X442300Y319750*
X442164Y319500D02*
X442205D01*
X442395D02*
X442436D01*
X442000Y319176D02*
Y319198D01*
X442500Y319334D02*
Y319382D01*
X441496Y400067D02*
X442027Y401536D01*
X441496Y400817*
X441496D02*
X440966Y401536D01*
X441496Y400067*
X441340Y400500D02*
X441653D01*
X441160Y401000D02*
X441361D01*
X441632D02*
X441833D01*
X440979Y401500D02*
X440993D01*
X442000D02*
X442014D01*
X441000Y401442D02*
Y401490D01*
X441500Y400076D02*
Y400821D01*
X442000Y401462D02*
Y401500D01*
X446900Y321500D02*
X446370Y320030D01*
X446900Y320750*
X447430Y320030*
X446900Y321500*
X446539Y320500D02*
X446716D01*
X447084D02*
X447261D01*
X446720Y321000D02*
X447080D01*
X446900Y321500D02*
X446900D01*
X446500Y320207D02*
Y320392D01*
X447000Y320614D02*
Y321223D01*
X445433Y400067D02*
X445964Y401536D01*
X445433Y400817*
X445433D02*
X444903Y401536D01*
X445433Y400067*
X445277Y400500D02*
X445590D01*
X445097Y401000D02*
X445298D01*
X445569D02*
X445770D01*
X444916Y401500D02*
X444930D01*
X445937D02*
X445951D01*
X445000Y401268D02*
Y401405D01*
X445500Y400251D02*
Y400907D01*
X439600Y344550D02*
X439070Y343130D01*
X439600Y343850*
X440130Y343130*
X439600Y344550*
X439208Y343500D02*
X439342D01*
X439858D02*
X439992D01*
X439395Y344000D02*
X439805D01*
X439581Y344500D02*
X439619D01*
X439500Y343714D02*
Y344282D01*
X440000Y343307D02*
Y343479D01*
X437560Y387272D02*
X438090Y388741D01*
X437560Y388022*
X437030Y388741*
X437560Y387272*
X437478Y387500D02*
X437642D01*
X437297Y388000D02*
X437823D01*
X437117Y388500D02*
X437207D01*
X437912D02*
X438003D01*
X437500Y387438D02*
Y388103D01*
X438000Y388491D02*
Y388619D01*
X436500Y327250D02*
X435970Y326030D01*
X436500Y326750*
X437030Y326030*
X436500Y327250*
X436174Y326500D02*
X436316D01*
X436684D02*
X436826D01*
X436391Y327000D02*
X436609D01*
X436000Y326071D02*
Y326100D01*
X436500Y326750D02*
Y327250D01*
X437000Y326071D02*
Y326100D01*
X433623Y387272D02*
X434153Y388741D01*
X433623Y388022*
X433093Y388741*
X433623Y387272*
X433541Y387500D02*
X433705D01*
X433360Y388000D02*
X433886D01*
X433180Y388500D02*
X433270D01*
X433975D02*
X434066D01*
X433500Y387612D02*
Y388188D01*
X434000Y388317D02*
Y388533D01*
X426500Y318400D02*
X425970Y316930D01*
X426500Y317650*
X427030Y316930*
X426500Y318400*
X425995Y317000D02*
X426021D01*
X426979D02*
X427005D01*
X426175Y317500D02*
X426389D01*
X426611D02*
X426825D01*
X426356Y318000D02*
X426644D01*
X426000Y316971D02*
Y317014D01*
X426500Y317650D02*
Y318400D01*
X427000Y316971D02*
Y317014D01*
X429685Y400067D02*
X430216Y401536D01*
X429685Y400817*
X429685D02*
X429155Y401536D01*
X429685Y400067*
X429529Y400500D02*
X429842D01*
X429349Y401000D02*
X429550D01*
X429821D02*
X430022D01*
X429168Y401500D02*
X429182D01*
X430189D02*
X430203D01*
X429500Y400581D02*
Y401068D01*
X430000Y400938D02*
Y401243D01*
X430100Y327000D02*
X429570Y325530D01*
X430100Y326250*
X430630Y325530*
X430100Y327000*
X429739Y326000D02*
X429916D01*
X430284D02*
X430461D01*
X429920Y326500D02*
X430280D01*
X430100Y327000D02*
X430100D01*
X430000Y326114D02*
Y326723D01*
X430500Y325707D02*
Y325892D01*
X429686Y387272D02*
X430216Y388741D01*
X429686Y388022*
X429156Y388741*
X429686Y387272*
X429604Y387500D02*
X429768D01*
X429423Y388000D02*
X429949D01*
X429243Y388500D02*
X429333D01*
X430038D02*
X430129D01*
X429500Y387787D02*
Y388274D01*
X430000Y388142D02*
Y388448D01*
X457000Y322400D02*
X456470Y320930D01*
X457000Y321650*
X457530Y320930*
X457000Y322400*
X456495Y321000D02*
X456521D01*
X457479D02*
X457505D01*
X456675Y321500D02*
X456889D01*
X457111D02*
X457325D01*
X456856Y322000D02*
X457144D01*
X456500Y320971D02*
Y321014D01*
X457000Y321650D02*
Y322400D01*
X457500Y320971D02*
Y321014D01*
X456228Y402067D02*
X457698Y401537D01*
X456978Y402067*
X457698Y402597*
X456228Y402067*
X456414Y402000D02*
X457069D01*
X457428Y402500D02*
X457566D01*
X456500Y401969D02*
Y402165D01*
X457000Y401788D02*
Y402051D01*
Y402083D02*
Y402345D01*
X457500Y401608D02*
Y401683D01*
Y402451D02*
Y402526D01*
X432500Y318400D02*
X431970Y316930D01*
X432500Y317650*
X433030Y316930*
X432500Y318400*
X431995Y317000D02*
X432021D01*
X432979D02*
X433005D01*
X432175Y317500D02*
X432389D01*
X432611D02*
X432825D01*
X432356Y318000D02*
X432644D01*
X432000Y316971D02*
Y317014D01*
X432500Y317650D02*
Y318400D01*
X433000Y316971D02*
Y317014D01*
X433622Y400067D02*
X434153Y401536D01*
X433622Y400817*
X433622D02*
X433092Y401536D01*
X433622Y400067*
X433466Y400500D02*
X433779D01*
X433286Y401000D02*
X433487D01*
X433758D02*
X433959D01*
X433105Y401500D02*
X433119D01*
X434126D02*
X434140D01*
X433500Y400406D02*
Y400983D01*
X434000Y401113D02*
Y401329D01*
X462400Y323500D02*
X461870Y322030D01*
X462400Y322750*
X462930Y322030*
X462400Y323500*
X462039Y322500D02*
X462216D01*
X462584D02*
X462761D01*
X462220Y323000D02*
X462580D01*
X462400Y323500D02*
X462400D01*
X462000Y322207D02*
Y322392D01*
X462500Y322614D02*
Y323223D01*
X462165Y400067D02*
X462696Y401537D01*
X462165Y400817*
X461635Y401537*
X462165Y400067*
X462009Y400500D02*
X462322D01*
X461829Y401000D02*
X462030D01*
X462300D02*
X462502D01*
X461648Y401500D02*
X461662D01*
X462669D02*
X462682D01*
X462000Y400525D02*
Y401041D01*
X462500Y400994D02*
Y401271D01*
X438500Y319400D02*
X437970Y317930D01*
X438500Y318650*
X439030Y317930*
X438500Y319400*
X437995Y318000D02*
X438021D01*
X438979D02*
X439005D01*
X438175Y318500D02*
X438389D01*
X438611D02*
X438825D01*
X438356Y319000D02*
X438644D01*
X438000Y317971D02*
Y318014D01*
X438500Y318650D02*
Y319400D01*
X439000Y317971D02*
Y318014D01*
X437559Y400067D02*
X438090Y401536D01*
X437559Y400817*
X437559D02*
X437029Y401536D01*
X437559Y400067*
X437403Y400500D02*
X437716D01*
X437223Y401000D02*
X437424D01*
X437695D02*
X437896D01*
X437042Y401500D02*
X437056D01*
X438063D02*
X438077D01*
X437500Y400231D02*
Y400897D01*
X438000Y401287D02*
Y401414D01*
X443600Y323650D02*
X443167Y322812D01*
X443600Y323450*
X444033Y322812*
X443600Y323650*
X443264Y323000D02*
X443294D01*
X443906D02*
X443936D01*
X443522Y323500D02*
X443678D01*
X443500Y323303D02*
Y323457D01*
X444000Y322861D02*
Y322876D01*
X442770Y408667D02*
X442247Y409941D01*
X442247D02*
X442380Y409057D01*
X441497Y409191*
X441497D02*
X442770Y408667D01*
X441960Y409000D02*
X442633D01*
X442313Y409500D02*
X442428D01*
X441500Y409189D02*
Y409190D01*
X442000Y408984D02*
Y409114D01*
X442500Y408778D02*
Y409324D01*
X464300Y332100D02*
X463770Y330630D01*
X464300Y331350*
X464830Y330630*
X464300Y332100*
X463903Y331000D02*
X464042D01*
X464558D02*
X464697D01*
X464083Y331500D02*
X464517D01*
X464264Y332000D02*
X464336D01*
X464000Y330943D02*
Y331269D01*
X464500Y331079D02*
Y331546D01*
X459639Y408530D02*
X458978Y409941D01*
X459112Y409057*
X458228Y409191*
X459639Y408530*
X458636Y409000D02*
X459419D01*
X459045Y409500D02*
X459185D01*
X458500Y409064D02*
Y409150D01*
X459000Y408830D02*
Y409074D01*
Y409798D02*
Y409895D01*
X459500Y408595D02*
Y408827D01*
X451500Y344500D02*
X450970Y343030D01*
X451500Y343750*
X452030Y343030*
X451500Y344500*
X451139Y343500D02*
X451316D01*
X451684D02*
X451861D01*
X451320Y344000D02*
X451680D01*
X451500Y344500D02*
X451500D01*
X451000Y343071D02*
Y343114D01*
X451500Y343750D02*
Y344500D01*
X452000Y343071D02*
Y343114D01*
X446848Y404589D02*
X446184Y406004D01*
X446184D02*
X446317Y405120D01*
X445434Y405254*
X445434D02*
X446848Y404589D01*
X445973Y405000D02*
X446655D01*
X446260Y405500D02*
X446420D01*
X446184Y406000D02*
X446185D01*
X445500Y405222D02*
Y405243D01*
X446000Y404987D02*
Y405168D01*
X446500Y404753D02*
Y405330D01*
X453200Y327900D02*
X452670Y326430D01*
X453200Y327150*
X453730Y326430*
X453200Y327900*
X452695Y326500D02*
X452721D01*
X453679D02*
X453705D01*
X452875Y327000D02*
X453089D01*
X453311D02*
X453525D01*
X453056Y327500D02*
X453344D01*
X453000Y326879D02*
Y327346D01*
X453500Y326743D02*
Y327069D01*
X446848Y408526D02*
X446184Y409941D01*
X446184D02*
X446317Y409057D01*
X445434Y409191*
X445434D02*
X446848Y408526D01*
X445839Y409000D02*
X446625D01*
X446250Y409500D02*
X446390D01*
X445500Y409159D02*
Y409180D01*
X446000Y408924D02*
Y409105D01*
X446500Y408690D02*
Y409267D01*
X458730Y344770D02*
X459250Y343500D01*
X459116Y344384*
X460000Y344250*
X458730Y344770*
X459045Y344000D02*
X459174D01*
X458841Y344500D02*
X459389D01*
X459000Y344111D02*
Y344659D01*
X459500Y344326D02*
Y344455D01*
X460000Y344250D02*
X460000D01*
X459470Y404763D02*
X458978Y406004D01*
X459112Y405120*
X458228Y405254*
X459470Y404763*
X458870Y405000D02*
X459376D01*
X459055Y405500D02*
X459178D01*
X458979Y406000D02*
X458980D01*
X458500Y405146D02*
Y405213D01*
X459000Y404949D02*
Y405137D01*
Y405861D02*
Y405949D01*
X464600Y348000D02*
X464070Y346530D01*
X464600Y347250*
X465130Y346530*
X464600Y348000*
X464239Y347000D02*
X464416D01*
X464784D02*
X464961D01*
X464420Y347500D02*
X464780D01*
X464600Y348000D02*
X464600D01*
X464500Y347114D02*
Y347723D01*
X465000Y346707D02*
Y346892D01*
X463580Y404590D02*
X462915Y406004D01*
X463049Y405120*
X462165Y405254*
X463580Y404590*
X462706Y405000D02*
X463387D01*
X462992Y405500D02*
X463152D01*
X462916Y406000D02*
X462917D01*
X462500Y405097D02*
Y405203D01*
X463000Y404862D02*
Y405128D01*
Y405445D02*
Y405824D01*
X463500Y404627D02*
Y404759D01*
X467500Y335600D02*
X466970Y334130D01*
X467500Y334850*
X468030Y334130*
X467500Y335600*
X467103Y334500D02*
X467242D01*
X467758D02*
X467897D01*
X467283Y335000D02*
X467717D01*
X467464Y335500D02*
X467536D01*
X467000Y334171D02*
Y334214D01*
X467500Y334850D02*
Y335600D01*
X468000Y334171D02*
Y334214D01*
X463850Y409941D02*
X462696Y410471D01*
X463415Y409941*
X462696Y409411*
X463850Y409941*
X462817Y409500D02*
X462890D01*
X463335Y410000D02*
X463721D01*
X463000Y409550D02*
Y409635D01*
Y410247D02*
Y410331D01*
X463500Y409780D02*
Y410102D01*
X469700Y323500D02*
X469170Y322030D01*
X469700Y322750*
X470230Y322030*
X469700Y323500*
X469339Y322500D02*
X469516D01*
X469884D02*
X470061D01*
X469520Y323000D02*
X469880D01*
X469700Y323500D02*
X469700D01*
X469500Y322479D02*
Y322946D01*
X470000Y322343D02*
Y322669D01*
X459643Y412464D02*
X458978Y413878D01*
X459112Y412994*
X458228Y413128*
X459643Y412464*
X459565Y412500D02*
X459626D01*
X458501Y413000D02*
X459073D01*
X459111D02*
X459391D01*
X459036Y413500D02*
X459156D01*
X458500Y413000D02*
Y413087D01*
X459000Y412766D02*
Y413011D01*
Y413735D02*
Y413832D01*
X459500Y412531D02*
Y412767D01*
X474200Y325900D02*
X473670Y324430D01*
X474200Y325150*
X474730Y324430*
X474200Y325900*
X473695Y324500D02*
X473721D01*
X474679D02*
X474705D01*
X473875Y325000D02*
X474089D01*
X474311D02*
X474525D01*
X474056Y325500D02*
X474344D01*
X474000Y324879D02*
Y325346D01*
X474500Y324743D02*
Y325069D01*
X463950Y413878D02*
X462696Y414408D01*
X463415Y413878*
X462696Y413348*
X463950Y413878*
X462902Y413500D02*
X463056D01*
X463250Y414000D02*
X463661D01*
X463000Y413476D02*
Y413572D01*
Y414184D02*
Y414280D01*
X463500Y413688D02*
Y414068D01*
X295114Y370514D02*
X293700Y369850D01*
X294584Y369984*
X294450Y369100*
X295114Y370514*
X294511Y369500D02*
X294638D01*
X294019Y370000D02*
X294873D01*
X295084Y370500D02*
X295108D01*
X293700Y369850D02*
X293700D01*
X294200Y369926D02*
Y370085D01*
X294700Y369632D02*
Y370320D01*
X295314Y399786D02*
X294650Y401200D01*
X294784Y400316*
X293900Y400450*
X295314Y399786*
X294858Y400000D02*
X295214D01*
X294756Y400500D02*
X294979D01*
X294680Y401000D02*
X294744D01*
X293900Y400450D02*
X293900D01*
X294400Y400215D02*
Y400374D01*
X294900Y399980D02*
Y400668D01*
X290800Y381550D02*
X290270Y380130D01*
X290800Y380850*
X291330Y380130*
X290800Y381550*
X290408Y380500D02*
X290542D01*
X291058D02*
X291192D01*
X290595Y381000D02*
X291005D01*
X290781Y381500D02*
X290819D01*
X290270Y380130D02*
X290270D01*
X290770Y380809D02*
Y381469D01*
X291270Y380213D02*
Y380293D01*
X291229Y414339D02*
X291891Y415260D01*
X291286Y414668*
X290916Y415430*
X291229Y414339*
X291182Y414500D02*
X291344D01*
X291039Y415000D02*
X291125D01*
X291625D02*
X291704D01*
X290916Y415430D02*
X290916D01*
X291416Y414599D02*
Y414795D01*
X288686Y370514D02*
X289350Y369100D01*
X289216Y369984*
X290100Y369850*
X288686Y370514*
X289162Y369500D02*
X289289D01*
X288927Y370000D02*
X289781D01*
X288692Y370500D02*
X288716D01*
X288686Y370514D02*
X288686D01*
X289186Y369450D02*
Y370279D01*
X289686Y369913D02*
Y370045D01*
X288300Y406900D02*
X288830Y408370D01*
X288300Y407650*
X287770Y408370*
X288300Y406900*
X288264Y407000D02*
X288336D01*
X288083Y407500D02*
X288517D01*
X287903Y408000D02*
X288042D01*
X288558D02*
X288697D01*
X287770Y408370D02*
X287770D01*
X288270Y406984D02*
Y407691D01*
X288770Y408202D02*
Y408287D01*
X289386Y378114D02*
X290050Y376700D01*
X289916Y377584*
X290800Y377450*
X289386Y378114*
X289909Y377000D02*
X290005D01*
X289674Y377500D02*
X289929D01*
X290470D02*
X290694D01*
X289439Y378000D02*
X289629D01*
X289386Y378114D02*
X289386D01*
X289886Y377050D02*
Y377879D01*
X290386Y377513D02*
Y377645D01*
X290450Y418800D02*
X291288Y418367D01*
X290650Y418800*
X291288Y419233*
X290450Y418800*
X291030Y418500D02*
X291092D01*
X290837Y419000D02*
X290945D01*
X290450Y418800D02*
X290450D01*
X290950Y418542D02*
Y418596D01*
Y419004D02*
Y419058D01*
X279230Y387270D02*
X279555Y386290D01*
X279416Y387084*
X280210Y386945*
X279230Y387270*
X279486Y386500D02*
X279519D01*
X279320Y387000D02*
X279431D01*
X279894D02*
X280042D01*
X279230Y387270D02*
X279230D01*
X279730Y387029D02*
Y387104D01*
X281486Y392614D02*
X282150Y391200D01*
X282016Y392084*
X282900Y391950*
X281486Y392614*
X282009Y391500D02*
X282105D01*
X281774Y392000D02*
X282029D01*
X282570D02*
X282794D01*
X281539Y392500D02*
X281729D01*
X281486Y392614D02*
X281486D01*
X281986Y391550D02*
Y392379D01*
X282486Y392013D02*
Y392145D01*
X283400Y466900D02*
X283930Y468370D01*
X283400Y467650*
X282870Y468370*
X283400Y466900*
X283364Y467000D02*
X283436D01*
X283183Y467500D02*
X283617D01*
X283003Y468000D02*
X283142D01*
X283658D02*
X283797D01*
X282870Y468370D02*
X282870D01*
X283370Y466984D02*
Y467691D01*
X283870Y468202D02*
Y468287D01*
X304286Y367714D02*
X304950Y366300D01*
X304816Y367184*
X305700Y367050*
X304286Y367714*
X304856Y366500D02*
X304920D01*
X304621Y367000D02*
X304844D01*
X304386Y367500D02*
X304742D01*
X304500Y367258D02*
Y367614D01*
X305000Y367156D02*
Y367379D01*
X305500Y367080D02*
Y367144D01*
X305450Y474500D02*
X306870Y473970D01*
X306150Y474500*
X306870Y475030*
X305450Y474500*
X306788Y474000D02*
X306829D01*
X305450Y474500D02*
X306150D01*
X306788Y475000D02*
X306829D01*
X305500Y474481D02*
Y474519D01*
X306000Y474295D02*
Y474705D01*
X306500Y474108D02*
Y474242D01*
Y474758D02*
Y474892D01*
X325230Y371870D02*
X325470Y371072D01*
X325316Y371784*
X326028Y371630*
X325230Y371870*
X325342Y371500D02*
X325378D01*
X325500Y371744D02*
Y371789D01*
X326000Y371636D02*
Y371638D01*
X327700Y422150D02*
X328223Y423263D01*
X327700Y422550*
X327177Y423263*
X327700Y422150*
X327535Y422500D02*
X327865D01*
X327300Y423000D02*
X327370D01*
X328030D02*
X328100D01*
X327500Y422575D02*
Y422822D01*
X328000Y422788D02*
Y422959D01*
X316300Y362200D02*
X315770Y360730D01*
X316300Y361450*
X316830Y360730*
X316300Y362200*
X315867Y361000D02*
X315968D01*
X316632D02*
X316733D01*
X316047Y361500D02*
X316553D01*
X316228Y362000D02*
X316372D01*
X316000Y361043D02*
Y361369D01*
X316500Y361179D02*
Y361646D01*
X316900Y433300D02*
X317430Y434770D01*
X316900Y434050*
X316370Y434770*
X316900Y433300*
X316828Y433500D02*
X316972D01*
X316647Y434000D02*
X317153D01*
X316467Y434500D02*
X316568D01*
X317232D02*
X317333D01*
X316500Y434408D02*
Y434593D01*
X317000Y433577D02*
Y434186D01*
X308000Y362750D02*
X307520Y361777D01*
X308000Y362450*
X308480Y361777*
X308000Y362750*
X307630Y362000D02*
X307680D01*
X308320D02*
X308370D01*
X307877Y362500D02*
X308123D01*
X308000Y362450D02*
Y362750D01*
X315086Y447886D02*
X316500Y448550D01*
X315616Y448416*
X315750Y449300*
X315086Y447886*
X315139Y448000D02*
X315329D01*
X315374Y448500D02*
X315629D01*
X316170D02*
X316394D01*
X315609Y449000D02*
X315705D01*
X315500Y448080D02*
Y448768D01*
X316000Y448315D02*
Y448474D01*
X316500Y448550D02*
X316500D01*
X360786Y361014D02*
X361450Y359600D01*
X361316Y360484*
X362200Y360350*
X360786Y361014*
X361262Y360000D02*
X361389D01*
X361027Y360500D02*
X361881D01*
X360792Y361000D02*
X360816D01*
X361000Y360558D02*
Y360914D01*
X361500Y360456D02*
Y360679D01*
X362000Y360380D02*
Y360444D01*
X384378Y429626D02*
X385847Y429095D01*
X385128Y429626*
X385128D02*
X385847Y430156D01*
X384378Y429626*
X384725Y429500D02*
X385298D01*
X385415Y430000D02*
X385636D01*
X384500Y429581D02*
Y429670D01*
X385000Y429401D02*
Y429850D01*
X385500Y429220D02*
Y429351D01*
Y429900D02*
Y430031D01*
X349414Y367114D02*
X348000Y366450D01*
X348884Y366584*
X348750Y365700*
X349414Y367114*
X348795Y366000D02*
X348891D01*
X348106Y366500D02*
X348330D01*
X348871D02*
X349126D01*
X349171Y367000D02*
X349361D01*
X348500Y366526D02*
Y366685D01*
X349000Y366232D02*
Y366920D01*
X353200Y421300D02*
X353730Y422770D01*
X353200Y422050*
X352670Y422770*
X353200Y421300*
X353128Y421500D02*
X353272D01*
X352947Y422000D02*
X353453D01*
X352767Y422500D02*
X352868D01*
X353532D02*
X353633D01*
X353000Y421854D02*
Y422321D01*
X353500Y422131D02*
Y422457D01*
X362300Y364600D02*
X361770Y363130D01*
X362300Y363850*
X362830Y363130*
X362300Y364600*
X361903Y363500D02*
X362042D01*
X362558D02*
X362697D01*
X362083Y364000D02*
X362517D01*
X362264Y364500D02*
X362336D01*
X362000Y363443D02*
Y363769D01*
X362500Y363579D02*
Y364046D01*
X385019Y424330D02*
X386378Y424939D01*
X385494Y424805*
X385628Y425689*
X385019Y424330*
X385095Y424500D02*
X385398D01*
X385319Y425000D02*
X385523D01*
X385543Y425500D02*
X385599D01*
X385500Y424546D02*
Y424806D01*
Y424847D02*
Y425404D01*
X386000Y424769D02*
Y424881D01*
X382400Y360000D02*
X381870Y358530D01*
X382400Y359250*
X382930Y358530*
X382400Y360000*
X382039Y359000D02*
X382216D01*
X382584D02*
X382761D01*
X382220Y359500D02*
X382580D01*
X382400Y360000D02*
X382400D01*
X382000Y358707D02*
Y358892D01*
X382500Y359114D02*
Y359723D01*
X387670Y416522D02*
X387128Y417815D01*
X387261Y416931*
X386378Y417065*
X387670Y416522*
X386531Y417000D02*
X386803D01*
X387251D02*
X387469D01*
X387175Y417500D02*
X387259D01*
X386500Y417013D02*
Y417046D01*
X387000Y416803D02*
Y416970D01*
X387500Y416594D02*
Y416927D01*
X392600Y357300D02*
X392070Y355830D01*
X392600Y356550*
X393130Y355830*
X392600Y357300*
X392131Y356000D02*
X392195D01*
X393005D02*
X393069D01*
X392311Y356500D02*
X392563D01*
X392637D02*
X392889D01*
X392492Y357000D02*
X392708D01*
X392500Y356414D02*
Y357023D01*
X393000Y356007D02*
Y356192D01*
X390300Y383317D02*
X390830Y384787D01*
X390300Y384067*
X389770Y384787*
X390300Y383317*
X390234Y383500D02*
X390366D01*
X390054Y384000D02*
X390546D01*
X389873Y384500D02*
X389981D01*
X390619D02*
X390727D01*
X390000Y384148D02*
Y384474D01*
X390500Y383871D02*
Y384338D01*
X400100Y362300D02*
X399570Y360830D01*
X400100Y361550*
X400630Y360830*
X400100Y362300*
X399631Y361000D02*
X399695D01*
X400505D02*
X400569D01*
X399811Y361500D02*
X400063D01*
X400137D02*
X400389D01*
X399992Y362000D02*
X400208D01*
X400000Y361414D02*
Y362023D01*
X400500Y361007D02*
Y361192D01*
X399570Y400685D02*
X398939Y402067D01*
X399072Y401183*
X398189Y401317*
X399570Y400685*
X398881Y401000D02*
X399426D01*
X399024Y401500D02*
X399197D01*
X398949Y402000D02*
X398969D01*
X398500Y401174D02*
Y401269D01*
X399000Y400946D02*
Y401194D01*
Y401661D02*
Y401932D01*
X399500Y400717D02*
Y400838D01*
X397586Y581186D02*
X399000Y581850D01*
X398116Y581716*
X398250Y582600*
X397586Y581186*
X397733Y581500D02*
X398255D01*
X397968Y582000D02*
X398159D01*
X398203Y582500D02*
X398235D01*
X398000Y581380D02*
Y582068D01*
X398500Y581615D02*
Y581774D01*
X399000Y581850D02*
X399000D01*
X332470Y405330D02*
X332050Y406493D01*
X332184Y405616*
X331307Y405750*
X332470Y405330*
X332000Y405500D02*
X332408D01*
X332125Y406000D02*
X332228D01*
X331500Y405680D02*
Y405721D01*
X332000Y405500D02*
Y405644D01*
X308114Y401414D02*
X306700Y400750D01*
X307584Y400884*
X307450Y400000*
X308114Y401414*
X307526Y400500D02*
X307685D01*
X307232Y401000D02*
X307920D01*
X307000Y400795D02*
Y400891D01*
X307500Y400106D02*
Y400330D01*
Y400871D02*
Y401126D01*
X308000Y401171D02*
Y401361D01*
X308114Y404114D02*
X306700Y403450D01*
X307584Y403584*
X307450Y402700*
X308114Y404114*
X307495Y403000D02*
X307591D01*
X306806Y403500D02*
X307030D01*
X307571D02*
X307826D01*
X307871Y404000D02*
X308061D01*
X307000Y403495D02*
Y403591D01*
X307500Y402806D02*
Y403030D01*
Y403571D02*
Y403826D01*
X308000Y403871D02*
Y404061D01*
X310700Y573500D02*
X311230Y574970D01*
X310700Y574250*
X310170Y574970*
X310700Y573500*
X310700*
X310520Y574000D02*
X310880D01*
X310339Y574500D02*
X310516D01*
X310884D02*
X311061D01*
X310500Y574054D02*
Y574521D01*
X311000Y574331D02*
Y574657D01*
X307970Y406770D02*
X306700Y406250D01*
X307584Y406384*
X307450Y405500*
X307970Y406770*
X307526Y406000D02*
X307655D01*
X307311Y406500D02*
X307859D01*
X307000Y406295D02*
Y406373D01*
X307500Y405622D02*
Y405830D01*
Y406371D02*
Y406577D01*
X308900Y570900D02*
X309430Y572370D01*
X308900Y571650*
X308370Y572370*
X308900Y570900*
X308864Y571000D02*
X308936D01*
X308683Y571500D02*
X309117D01*
X308503Y572000D02*
X308642D01*
X309158D02*
X309297D01*
X308500Y572008D02*
Y572193D01*
X309000Y571177D02*
Y571786D01*
X305286Y410514D02*
X305950Y409100D01*
X305816Y409984*
X306700Y409850*
X305286Y410514*
X305762Y409500D02*
X305889D01*
X305527Y410000D02*
X306381D01*
X305292Y410500D02*
X305316D01*
X305500Y410058D02*
Y410414D01*
X306000Y409956D02*
Y410179D01*
X306500Y409880D02*
Y409944D01*
X306600Y575900D02*
X307130Y577370D01*
X306600Y576650*
X306070Y577370*
X306600Y575900*
X306564Y576000D02*
X306636D01*
X306383Y576500D02*
X306817D01*
X306203Y577000D02*
X306342D01*
X306858D02*
X306997D01*
X306500Y576177D02*
Y576786D01*
X307000Y577008D02*
Y577193D01*
X309700Y425500D02*
X309170Y424030D01*
X309700Y424750*
X310230Y424030*
X309700Y425500*
X309339Y424500D02*
X309516D01*
X309884D02*
X310061D01*
X309520Y425000D02*
X309880D01*
X309700Y425500D02*
X309700D01*
X309500Y424479D02*
Y424946D01*
X310000Y424343D02*
Y424669D01*
X316186Y471086D02*
X317600Y471750D01*
X316716Y471616*
X316850Y472500*
X316186Y471086*
X316380Y471500D02*
X317068D01*
X316615Y472000D02*
X316774D01*
X316850Y472500D02*
X316850D01*
X316500Y471233D02*
Y471755D01*
X317000Y471468D02*
Y471659D01*
X317500Y471703D02*
Y471735D01*
X334670Y410470D02*
X333690Y410145D01*
X334484Y410284*
X334345Y409490*
X334670Y410470*
X334346Y409500D02*
X334348D01*
X334434Y410000D02*
X334514D01*
X334000Y410199D02*
Y410247D01*
X334500Y409959D02*
Y410413D01*
X387700Y607600D02*
X388230Y609070D01*
X387700Y608350*
X387170Y609070*
X387700Y607600*
X387556Y608000D02*
X387844D01*
X387375Y608500D02*
X387589D01*
X387811D02*
X388025D01*
X387195Y609000D02*
X387221D01*
X388179D02*
X388205D01*
X387500Y608154D02*
Y608621D01*
X388000Y608431D02*
Y608757D01*
X339600Y425350D02*
X339070Y424030D01*
X339600Y424750*
X340130Y424030*
X339600Y425350*
X339258Y424500D02*
X339416D01*
X339784D02*
X339942D01*
X339459Y425000D02*
X339741D01*
X339500Y424614D02*
Y425101D01*
X340000Y424207D02*
Y424355D01*
X393150Y560600D02*
X394370Y560070D01*
X393650Y560600*
X394370Y561130*
X393150Y560600*
X393380Y560500D02*
X393786D01*
X394070Y561000D02*
X394193D01*
X393500Y560448D02*
Y560752D01*
X394000Y560230D02*
Y560342D01*
Y560858D02*
Y560970D01*
X330900Y416650D02*
X330370Y415430D01*
X330900Y416150*
X331430Y415430*
X330900Y416650*
X330400Y415500D02*
X330421D01*
X331379D02*
X331400D01*
X330617Y416000D02*
X330789D01*
X331011D02*
X331183D01*
X330835Y416500D02*
X330965D01*
X330500Y415607D02*
Y415730D01*
X331000Y416014D02*
Y416420D01*
X391300Y576500D02*
X391830Y577970D01*
X391300Y577250*
X390770Y577970*
X391300Y576500*
X391300*
X391120Y577000D02*
X391480D01*
X390939Y577500D02*
X391116D01*
X391484D02*
X391661D01*
X391000Y577331D02*
Y577657D01*
X391500Y577054D02*
Y577521D01*
X335670Y407770D02*
X334507Y407350D01*
X335384Y407484*
X335250Y406607*
X335670Y407770*
X335310Y407000D02*
X335392D01*
X334923Y407500D02*
X335572D01*
X335000Y407425D02*
Y407528D01*
X335500Y407300D02*
Y407708D01*
X389700Y605200D02*
X390230Y606670D01*
X389700Y605950*
X389170Y606670*
X389700Y605200*
X389592Y605500D02*
X389808D01*
X389411Y606000D02*
X389663D01*
X389737D02*
X389989D01*
X389231Y606500D02*
X389295D01*
X390105D02*
X390169D01*
X389500Y605754D02*
Y606221D01*
X390000Y606031D02*
Y606357D01*
X359700Y415900D02*
X359170Y414430D01*
X359700Y415150*
X360230Y414430*
X359700Y415900*
X359195Y414500D02*
X359221D01*
X360179D02*
X360205D01*
X359375Y415000D02*
X359589D01*
X359811D02*
X360025D01*
X359556Y415500D02*
X359844D01*
X359500Y414879D02*
Y415346D01*
X360000Y414743D02*
Y415069D01*
X407370Y407311D02*
X406063Y406754D01*
X406946Y406887*
X406813Y406004*
X407370Y407311*
X406888Y406500D02*
X407024D01*
X406641Y407000D02*
X407237D01*
X406500Y406820D02*
Y406940D01*
X407000Y406443D02*
Y407153D01*
X419289Y415292D02*
X417875Y414628D01*
X417875D02*
X418758Y414761D01*
X418625Y413878*
X418625D02*
X419289Y415292D01*
X418643Y414000D02*
X418682D01*
X418719Y414500D02*
X418917D01*
X418668Y415000D02*
X419152D01*
X418000Y414647D02*
Y414686D01*
X418500Y414722D02*
Y414921D01*
X419000Y414677D02*
Y415156D01*
X393030Y426910D02*
X393502Y425689D01*
X393368Y426572*
X394252Y426439*
X393030Y426910*
X393381Y426000D02*
X393454D01*
X393188Y426500D02*
X393379D01*
X393846D02*
X394092D01*
X393500Y425692D02*
Y425698D01*
Y426552D02*
Y426728D01*
X394000Y426477D02*
Y426536D01*
X408100Y636350D02*
X408533Y637188D01*
X408100Y636550*
X407667Y637188*
X408100Y636350*
X408022Y636500D02*
X408178D01*
X407764Y637000D02*
X407794D01*
X408406D02*
X408436D01*
X408000Y636543D02*
Y636697D01*
X408500Y637124D02*
Y637139D01*
X396774Y427103D02*
X397439Y425689D01*
X397305Y426572*
X398189Y426439*
X396774Y427103*
X397292Y426000D02*
X397391D01*
X397057Y426500D02*
X397316D01*
X397783D02*
X398058D01*
X396823Y427000D02*
X396993D01*
X397000Y426622D02*
Y426997D01*
X397500Y426543D02*
Y426762D01*
X398000Y426467D02*
Y426527D01*
X410200Y633900D02*
X410730Y635370D01*
X410200Y634650*
X409670Y635370*
X410200Y633900*
X410164Y634000D02*
X410236D01*
X409983Y634500D02*
X410417D01*
X409803Y635000D02*
X409942D01*
X410458D02*
X410597D01*
X410000Y634454D02*
Y634921D01*
X410500Y634731D02*
Y635057D01*
X388930Y419199D02*
X389565Y417815D01*
X389431Y418698*
X390315Y418565*
X388930Y419199*
X389480Y418000D02*
X389536D01*
X389250Y418500D02*
X389461D01*
X389021Y419000D02*
X389364D01*
X389000Y419047D02*
Y419167D01*
X389500Y417955D02*
Y418240D01*
Y418688D02*
Y418938D01*
X390000Y418612D02*
Y418709D01*
X395666Y419229D02*
X394252Y418565D01*
X395135Y418698*
X395002Y417815*
X395666Y419229*
X395030Y418000D02*
X395089D01*
X395105Y418500D02*
X395323D01*
X395179Y419000D02*
X395558D01*
X394500Y418602D02*
Y418681D01*
X395000Y418678D02*
Y418916D01*
X395500Y418876D02*
Y419151D01*
X411086Y543186D02*
X412500Y543850D01*
X411616Y543716*
X411750Y544600*
X411086Y543186*
X411233Y543500D02*
X411755D01*
X411468Y544000D02*
X411659D01*
X411703Y544500D02*
X411735D01*
X411500Y543380D02*
Y544068D01*
X412000Y543615D02*
Y543774D01*
X412500Y543850D02*
X412500D01*
X404648Y419229D02*
X405313Y417815D01*
X405179Y418698*
X406063Y418565*
X404648Y419229*
X405225Y418000D02*
X405284D01*
X404991Y418500D02*
X405209D01*
X404756Y419000D02*
X405135D01*
X405000Y418480D02*
Y419064D01*
X405500Y418650D02*
Y418829D01*
X406000Y418574D02*
Y418594D01*
X411100Y613000D02*
X411630Y614470D01*
X411100Y613750*
X410570Y614470*
X411100Y613000*
X411100*
X410920Y613500D02*
X411280D01*
X410739Y614000D02*
X410916D01*
X411284D02*
X411461D01*
X411000Y613277D02*
Y613886D01*
X411500Y614108D02*
Y614293D01*
X439207Y420617D02*
X438297Y421888D01*
X438589Y421043*
X437696Y421014*
X439207Y420617*
X437749Y421000D02*
X438933D01*
X438431Y421500D02*
X438575D01*
X438000Y420934D02*
Y421024D01*
X438500Y420803D02*
Y421040D01*
Y421300D02*
Y421604D01*
X439000Y420672D02*
Y420906D01*
X482586Y438086D02*
X484000Y438750D01*
X483116Y438616*
X483250Y439500*
X482586Y438086*
X482780Y438500D02*
X483468D01*
X483015Y439000D02*
X483174D01*
X483250Y439500D02*
X483250D01*
X483000Y438280D02*
Y438968D01*
X483500Y438515D02*
Y438674D01*
X484000Y438750D02*
X484000D01*
X487900Y519900D02*
X488430Y521370D01*
X487900Y520650*
X487370Y521370*
X487900Y519900*
X487864Y520000D02*
X487936D01*
X487683Y520500D02*
X488117D01*
X487503Y521000D02*
X487642D01*
X488158D02*
X488297D01*
X487500Y521008D02*
Y521193D01*
X488000Y520177D02*
Y520786D01*
X427163Y412463D02*
X426499Y413878D01*
X426499D02*
X426632Y412994D01*
X425749Y413128*
X425749D02*
X427163Y412463D01*
X427085Y412500D02*
X427145D01*
X426020Y413000D02*
X426590D01*
X426631D02*
X426911D01*
X426556Y413500D02*
X426676D01*
X426000Y413009D02*
Y413089D01*
X426500Y412775D02*
Y413014D01*
Y413868D02*
Y413874D01*
X427000Y412540D02*
Y412810D01*
X485400Y634500D02*
X485930Y635970D01*
X485400Y635250*
X484870Y635970*
X485400Y634500*
X485400*
X485220Y635000D02*
X485580D01*
X485039Y635500D02*
X485216D01*
X485584D02*
X485761D01*
X485000Y635608D02*
Y635793D01*
X485500Y634777D02*
Y635386D01*
X487986Y524686D02*
X489400Y525350D01*
X488516Y525216*
X488650Y526100*
X487986Y524686*
X488133Y525000D02*
X488655D01*
X488368Y525500D02*
X488559D01*
X488603Y526000D02*
X488635D01*
X488000Y524692D02*
Y524716D01*
X488500Y524927D02*
Y525781D01*
X489000Y525162D02*
Y525289D01*
X427070Y419136D02*
X425749Y418565D01*
X425749D02*
X426632Y418698D01*
X426499Y417815*
X426499D02*
X427070Y419136D01*
X426527Y418000D02*
X426579D01*
X426602Y418500D02*
X426795D01*
X426756Y419000D02*
X427011D01*
X426000Y418603D02*
Y418673D01*
X426500Y417818D02*
Y417824D01*
Y418678D02*
Y418889D01*
X427000Y418975D02*
Y419106D01*
X431100Y419229D02*
X429686Y418565D01*
X429686D02*
X430569Y418698D01*
X430436Y417815*
X430436D02*
X431100Y419229D01*
X430464Y418000D02*
X430523D01*
X430539Y418500D02*
X430757D01*
X430613Y419000D02*
X430992D01*
X430000Y418612D02*
Y418712D01*
X430500Y417952D02*
Y418240D01*
Y418688D02*
Y418947D01*
X431000Y419016D02*
Y419182D01*
X435037Y427103D02*
X433623Y426439D01*
X433623D02*
X434506Y426572D01*
X434373Y425689*
X434373D02*
X435037Y427103D01*
X434420Y426000D02*
X434519D01*
X433753Y426500D02*
X434028D01*
X434495D02*
X434754D01*
X434818Y427000D02*
X434988D01*
X434000Y426496D02*
Y426616D01*
X434500Y425960D02*
Y426530D01*
Y426571D02*
Y426851D01*
X435000Y427025D02*
Y427085D01*
X479500Y465400D02*
X480030Y466870D01*
X479500Y466150*
X478970Y466870*
X479500Y465400*
X479464Y465500D02*
X479536D01*
X479283Y466000D02*
X479717D01*
X479103Y466500D02*
X479242D01*
X479758D02*
X479897D01*
X479000Y466786D02*
Y466829D01*
X479500Y465400D02*
Y466150D01*
X480000Y466786D02*
Y466829D01*
X536730Y423270D02*
X537263Y420270D01*
X537702Y422298*
X539730Y422737*
X536730Y423270*
X537222Y420500D02*
X537313D01*
X537134Y421000D02*
X537421D01*
X537045Y421500D02*
X537529D01*
X536956Y422000D02*
X537637D01*
X536867Y422500D02*
X538635D01*
X536778Y423000D02*
X538248D01*
X537000Y421752D02*
Y423222D01*
X537500Y421365D02*
Y423133D01*
X538000Y422363D02*
Y423044D01*
X538500Y422471D02*
Y422955D01*
X539000Y422579D02*
Y422866D01*
X539500Y422687D02*
Y422778D01*
X540900Y469400D02*
X541430Y470870D01*
X540900Y470150*
X540370Y470870*
X540900Y469400*
X540864Y469500D02*
X540936D01*
X540683Y470000D02*
X541117D01*
X540503Y470500D02*
X540642D01*
X541158D02*
X541297D01*
X540500Y470508D02*
Y470693D01*
X541000Y469677D02*
Y470286D01*
X533270Y423270D02*
X530270Y422737D01*
X532298Y422298*
X532737Y420270*
X533270Y423270*
X532687Y420500D02*
X532778D01*
X532579Y421000D02*
X532866D01*
X532471Y421500D02*
X532955D01*
X532363Y422000D02*
X533044D01*
X531365Y422500D02*
X533133D01*
X531752Y423000D02*
X533222D01*
X530500Y422687D02*
Y422778D01*
X531000Y422579D02*
Y422866D01*
X531500Y422471D02*
Y422955D01*
X532000Y422363D02*
Y423044D01*
X532500Y421365D02*
Y423133D01*
X533000Y421752D02*
Y423222D01*
X580000Y436000D02*
X578055Y431945D01*
X580000Y433250*
X581945Y431945*
X580000Y436000*
X578082Y432000D02*
X578138D01*
X581862D02*
X581918D01*
X578322Y432500D02*
X578883D01*
X581117D02*
X581678D01*
X578562Y433000D02*
X579628D01*
X580372D02*
X581438D01*
X578801Y433500D02*
X581199D01*
X579041Y434000D02*
X580959D01*
X579281Y434500D02*
X580719D01*
X579521Y435000D02*
X580479D01*
X579760Y435500D02*
X580240D01*
X580000Y436000D02*
X580000D01*
X578500Y432243D02*
Y432872D01*
X579000Y432579D02*
Y433914D01*
X579500Y432914D02*
Y434957D01*
X580000Y433250D02*
Y436000D01*
X580500Y432914D02*
Y434957D01*
X581000Y432579D02*
Y433914D01*
X581500Y432243D02*
Y432872D01*
X580000Y502500D02*
X580530Y503970D01*
X580000Y503250*
X579470Y503970*
X580000Y502500*
X580000*
X579820Y503000D02*
X580180D01*
X579639Y503500D02*
X579816D01*
X580184D02*
X580361D01*
X579500Y503886D02*
Y503929D01*
X580000Y502500D02*
Y503250D01*
X580500Y503886D02*
Y503929D01*
X575830Y424170D02*
X577250Y420000D01*
X577702Y422298*
X580000Y422750*
X575830Y424170*
X577080Y420500D02*
X577348D01*
X576910Y421000D02*
X577447D01*
X576739Y421500D02*
X577545D01*
X576569Y422000D02*
X577643D01*
X576399Y422500D02*
X578729D01*
X576229Y423000D02*
X579266D01*
X576058Y423500D02*
X577797D01*
X575888Y424000D02*
X576329D01*
X576000Y423671D02*
Y424112D01*
X576500Y422203D02*
Y423942D01*
X577000Y420734D02*
Y423771D01*
X577500Y421271D02*
Y423601D01*
X578000Y422357D02*
Y423431D01*
X578500Y422455D02*
Y423261D01*
X579000Y422553D02*
Y423090D01*
X579500Y422652D02*
Y422920D01*
X580000Y422750D02*
X580000D01*
X575300Y500400D02*
X575830Y501870D01*
X575300Y501150*
X574770Y501870*
X575300Y500400*
X575264Y500500D02*
X575336D01*
X575083Y501000D02*
X575517D01*
X574903Y501500D02*
X575042D01*
X575558D02*
X575697D01*
X575000Y501231D02*
Y501557D01*
X575500Y500954D02*
Y501421D01*
X570000Y504500D02*
X570530Y505970D01*
X570000Y505250*
X569470Y505970*
X570000Y504500*
X570000*
X569820Y505000D02*
X570180D01*
X569639Y505500D02*
X569816D01*
X570184D02*
X570361D01*
X569500Y505886D02*
Y505929D01*
X570000Y504500D02*
Y505250D01*
X570500Y505886D02*
Y505929D01*
X550000Y436000D02*
X548055Y431945D01*
X550000Y433250*
X551945Y431945*
X550000Y436000*
X548082Y432000D02*
X548138D01*
X551862D02*
X551918D01*
X548322Y432500D02*
X548883D01*
X551117D02*
X551678D01*
X548562Y433000D02*
X549628D01*
X550372D02*
X551438D01*
X548801Y433500D02*
X551199D01*
X549041Y434000D02*
X550959D01*
X549281Y434500D02*
X550719D01*
X549521Y435000D02*
X550479D01*
X549760Y435500D02*
X550240D01*
X550000Y436000D02*
X550000D01*
X548500Y432243D02*
Y432872D01*
X549000Y432579D02*
Y433914D01*
X549500Y432914D02*
Y434957D01*
X550000Y433250D02*
Y436000D01*
X550500Y432914D02*
Y434957D01*
X551000Y432579D02*
Y433914D01*
X551500Y432243D02*
Y432872D01*
X550000Y474400D02*
X550530Y475870D01*
X550000Y475150*
X549470Y475870*
X550000Y474400*
X549964Y474500D02*
X550036D01*
X549783Y475000D02*
X550217D01*
X549603Y475500D02*
X549742D01*
X550258D02*
X550397D01*
X549500Y475786D02*
Y475829D01*
X550000Y474400D02*
Y475150D01*
X550500Y475786D02*
Y475829D01*
X546730Y423270D02*
X547263Y420270D01*
X547702Y422298*
X549730Y422737*
X546730Y423270*
X547222Y420500D02*
X547313D01*
X547134Y421000D02*
X547421D01*
X547045Y421500D02*
X547529D01*
X546956Y422000D02*
X547637D01*
X546867Y422500D02*
X548635D01*
X546778Y423000D02*
X548248D01*
X547000Y421752D02*
Y423222D01*
X547500Y421365D02*
Y423133D01*
X548000Y422363D02*
Y423044D01*
X548500Y422471D02*
Y422955D01*
X549000Y422579D02*
Y422866D01*
X549500Y422687D02*
Y422778D01*
X546400Y487100D02*
X546930Y488570D01*
X546400Y487850*
X545870Y488570*
X546400Y487100*
X546256Y487500D02*
X546544D01*
X546075Y488000D02*
X546289D01*
X546511D02*
X546725D01*
X545895Y488500D02*
X545921D01*
X546879D02*
X546905D01*
X546000Y488208D02*
Y488393D01*
X546500Y487377D02*
Y487986D01*
X281521Y501772D02*
X283007Y502256D01*
X282113Y502233*
X282356Y503093*
X281521Y501772*
X281665Y502000D02*
X282221D01*
X281981Y502500D02*
X282189D01*
X282297Y503000D02*
X282330D01*
X281521Y501772D02*
X281521D01*
X282021Y501935D02*
Y502564D01*
X282521Y502098D02*
Y502243D01*
X318200Y455300D02*
X317670Y453830D01*
X318200Y454550*
X318730Y453830*
X318200Y455300*
X317731Y454000D02*
X317795D01*
X318605D02*
X318669D01*
X317911Y454500D02*
X318163D01*
X318237D02*
X318489D01*
X318092Y455000D02*
X318308D01*
X318000Y454279D02*
Y454746D01*
X318500Y454143D02*
Y454469D01*
X314900Y535900D02*
X315430Y537370D01*
X314900Y536650*
X314370Y537370*
X314900Y535900*
X314864Y536000D02*
X314936D01*
X314683Y536500D02*
X315117D01*
X314503Y537000D02*
X314642D01*
X315158D02*
X315297D01*
X314500Y537008D02*
Y537193D01*
X315000Y536177D02*
Y536786D01*
X320100Y457200D02*
X319570Y455730D01*
X320100Y456450*
X320630Y455730*
X320100Y457200*
X319667Y456000D02*
X319768D01*
X320432D02*
X320533D01*
X319847Y456500D02*
X320353D01*
X320028Y457000D02*
X320172D01*
X320000Y456314D02*
Y456923D01*
X320500Y455907D02*
Y456092D01*
X314800Y551000D02*
X315330Y552470D01*
X314800Y551750*
X314270Y552470*
X314800Y551000*
X314800*
X314620Y551500D02*
X314980D01*
X314439Y552000D02*
X314616D01*
X314984D02*
X315161D01*
X314500Y551831D02*
Y552157D01*
X315000Y551554D02*
Y552021D01*
X316700Y445150D02*
X316170Y443730D01*
X316700Y444450*
X317230Y443730*
X316700Y445150*
X316270Y444000D02*
X316368D01*
X317032D02*
X317130D01*
X316457Y444500D02*
X316943D01*
X316644Y445000D02*
X316756D01*
X316500Y444179D02*
Y444615D01*
X317000Y444043D02*
Y444347D01*
X385486Y574086D02*
X386900Y574750D01*
X386016Y574616*
X386150Y575500*
X385486Y574086*
X385680Y574500D02*
X386368D01*
X385915Y575000D02*
X386074D01*
X386150Y575500D02*
X386150D01*
X385500Y574092D02*
Y574116D01*
X386000Y574327D02*
Y575181D01*
X386500Y574562D02*
Y574689D01*
X335586Y449814D02*
X336250Y448400D01*
X336116Y449284*
X337000Y449150*
X335586Y449814*
X336203Y448500D02*
X336235D01*
X335968Y449000D02*
X336159D01*
X335733Y449500D02*
X336255D01*
X336000Y448932D02*
Y449620D01*
X336500Y449226D02*
Y449385D01*
X337000Y449150D02*
X337000D01*
X398000Y566900D02*
X398530Y568370D01*
X398000Y567650*
X397470Y568370*
X398000Y566900*
X397964Y567000D02*
X398036D01*
X397783Y567500D02*
X398217D01*
X397603Y568000D02*
X397742D01*
X398258D02*
X398397D01*
X397500Y568286D02*
Y568329D01*
X398000Y566900D02*
Y567650D01*
X398500Y568286D02*
Y568329D01*
X331000Y443550D02*
X330668Y442973D01*
X331000Y443550*
X331332Y442973*
X331000Y443550*
X330684Y443000D02*
X330684D01*
X331316D02*
X331316D01*
X330971Y443500D02*
X330971D01*
X331029D02*
X331029D01*
X331000Y443550D02*
X331000D01*
X359614Y459686D02*
X358950Y461100D01*
X359084Y460216*
X358200Y460350*
X359614Y459686*
X358945Y460000D02*
X359467D01*
X359041Y460500D02*
X359232D01*
X358965Y461000D02*
X358997D01*
X358500Y460209D02*
Y460305D01*
X359000Y459974D02*
Y460229D01*
Y460770D02*
Y460994D01*
X359500Y459739D02*
Y459929D01*
X419625Y611646D02*
X419902Y612267D01*
X419624Y611656*
X419231Y612200*
X419625Y611646*
X419374Y612000D02*
X419376D01*
X419781D02*
X419783D01*
X419500Y611822D02*
Y611828D01*
X360357Y443960D02*
X361772Y444624D01*
X360888Y444490*
X361022Y445374*
X360357Y443960*
X360376Y444000D02*
X360443D01*
X360611Y444500D02*
X360889D01*
X360953D02*
X361508D01*
X360846Y445000D02*
X360965D01*
X360500Y444027D02*
Y444263D01*
X361000Y444262D02*
Y444507D01*
Y445231D02*
Y445328D01*
X361500Y444496D02*
Y444583D01*
X357835Y447374D02*
X357304Y445904D01*
X357835Y446624*
X358365Y445904*
X357835Y447374*
X357339Y446000D02*
X357375D01*
X358295D02*
X358330D01*
X357519Y446500D02*
X357743D01*
X357926D02*
X358150D01*
X357700Y447000D02*
X357970D01*
X357500Y446170D02*
Y446447D01*
X358000Y446400D02*
Y446916D01*
X415900Y654600D02*
X416430Y656070D01*
X415900Y655350*
X415370Y656070*
X415900Y654600*
X415756Y655000D02*
X416044D01*
X415575Y655500D02*
X415789D01*
X416011D02*
X416225D01*
X415395Y656000D02*
X415421D01*
X416379D02*
X416405D01*
X415500Y655708D02*
Y655893D01*
X416000Y654877D02*
Y655486D01*
X374567Y474933D02*
X374036Y473464D01*
X374567Y474183*
X374567D02*
X375097Y473464D01*
X374567Y474933*
X374049Y473500D02*
X374063D01*
X375070D02*
X375084D01*
X374230Y474000D02*
X374431D01*
X374702D02*
X374903D01*
X374410Y474500D02*
X374723D01*
X374500Y474093D02*
Y474749D01*
X375000Y473595D02*
Y473732D01*
X381030Y470407D02*
X381691Y468997D01*
X381691D02*
X381557Y469880D01*
X382441Y469747*
X382441D02*
X381030Y470407D01*
X381689Y469000D02*
X381690D01*
X381455Y469500D02*
X381614D01*
X381221Y470000D02*
X381899D01*
X381500Y469403D02*
Y470187D01*
X382000Y469813D02*
Y469953D01*
X376739Y449311D02*
X377973Y448781D01*
X377254Y449311*
X377254D02*
X377973Y449842D01*
X376739Y449311*
X377464Y449000D02*
X377676D01*
X377177Y449500D02*
X377509D01*
X377000Y449199D02*
Y449424D01*
X377500Y448984D02*
Y449130D01*
Y449493D02*
Y449639D01*
X420500Y576500D02*
X421030Y577970D01*
X420500Y577250*
X419970Y577970*
X420500Y576500*
X420500*
X420320Y577000D02*
X420680D01*
X420139Y577500D02*
X420316D01*
X420684D02*
X420861D01*
X420000Y577886D02*
Y577929D01*
X420500Y576500D02*
Y577250D01*
X421000Y577886D02*
Y577929D01*
X360039Y449311D02*
X361241Y448781D01*
X360522Y449311*
X361241Y449841*
X360039Y449311*
X360744Y449000D02*
X360944D01*
X360467Y449500D02*
X360778D01*
X360500Y449108D02*
Y449514D01*
X361000Y448887D02*
Y448959D01*
Y449664D02*
Y449735D01*
X408886Y555686D02*
X410300Y556350D01*
X409416Y556216*
X409550Y557100*
X408886Y555686*
X409033Y556000D02*
X409555D01*
X409268Y556500D02*
X409459D01*
X409503Y557000D02*
X409535D01*
X409000Y555739D02*
Y555929D01*
X409500Y555974D02*
Y556229D01*
Y556770D02*
Y556994D01*
X410000Y556209D02*
Y556305D01*
X416200Y568800D02*
X416730Y570270D01*
X416200Y569550*
X415670Y570270*
X416200Y568800*
X416128Y569000D02*
X416272D01*
X415947Y569500D02*
X416453D01*
X415767Y570000D02*
X415868D01*
X416532D02*
X416633D01*
X416000Y569354D02*
Y569821D01*
X416500Y569631D02*
Y569957D01*
X357835Y455248D02*
X357304Y453778D01*
X357835Y454498*
X358365Y453778*
X357835Y455248*
X357384Y454000D02*
X357468D01*
X358202D02*
X358285D01*
X357565Y454500D02*
X358105D01*
X357745Y455000D02*
X357924D01*
X357500Y454044D02*
Y454321D01*
X358000Y454274D02*
Y454790D01*
X414900Y576400D02*
X415430Y577870D01*
X414900Y577150*
X414370Y577870*
X414900Y576400*
X414864Y576500D02*
X414936D01*
X414683Y577000D02*
X415117D01*
X414503Y577500D02*
X414642D01*
X415158D02*
X415297D01*
X414500Y577508D02*
Y577693D01*
X415000Y576677D02*
Y577286D01*
X349700Y464300D02*
X349170Y462830D01*
X349700Y463550*
X350230Y462830*
X349700Y464300*
X349231Y463000D02*
X349295D01*
X350105D02*
X350169D01*
X349411Y463500D02*
X349663D01*
X349737D02*
X349989D01*
X349592Y464000D02*
X349808D01*
X349500Y463279D02*
Y463746D01*
X350000Y463143D02*
Y463469D01*
X414900Y609100D02*
X415430Y610570D01*
X414900Y609850*
X414370Y610570*
X414900Y609100*
X414756Y609500D02*
X415044D01*
X414575Y610000D02*
X414789D01*
X415011D02*
X415225D01*
X414395Y610500D02*
X414421D01*
X415379D02*
X415405D01*
X414500Y610208D02*
Y610393D01*
X415000Y609377D02*
Y609986D01*
X361772Y463122D02*
X361241Y461652D01*
X361772Y462372*
X362302Y461652*
X361772Y463122*
X361367Y462000D02*
X361497D01*
X362046D02*
X362177D01*
X361547Y462500D02*
X361996D01*
X361728Y463000D02*
X361816D01*
X361500Y462003D02*
Y462369D01*
X362000Y462062D02*
Y462489D01*
X375886Y523286D02*
X377300Y523950D01*
X376416Y523816*
X376550Y524700*
X375886Y523286*
X375986Y523500D02*
X376342D01*
X376221Y524000D02*
X376444D01*
X376456Y524500D02*
X376520D01*
X376000Y523339D02*
Y523529D01*
X376500Y523574D02*
Y523829D01*
Y524370D02*
Y524594D01*
X377000Y523809D02*
Y523905D01*
X352800Y464300D02*
X352270Y462830D01*
X352800Y463550*
X353330Y462830*
X352800Y464300*
X352331Y463000D02*
X352395D01*
X353205D02*
X353269D01*
X352511Y463500D02*
X352763D01*
X352837D02*
X353089D01*
X352692Y464000D02*
X352908D01*
X352500Y463143D02*
Y463469D01*
X353000Y463279D02*
Y463746D01*
X374600Y528250D02*
X374983Y528955D01*
X374600Y528350*
X374217Y528955*
X374600Y528250*
X374464Y528500D02*
X374505D01*
X374695D02*
X374736D01*
X374500Y528434D02*
Y528508D01*
X390315Y474933D02*
X389784Y473464D01*
X390315Y474183*
X390315D02*
X390845Y473464D01*
X390315Y474933*
X389797Y473500D02*
X389811D01*
X390818D02*
X390832D01*
X389978Y474000D02*
X390179D01*
X390450D02*
X390651D01*
X390158Y474500D02*
X390471D01*
X390000Y473757D02*
Y474062D01*
X390500Y473932D02*
Y474419D01*
X399270Y474616D02*
X398029Y473666D01*
X398865Y473985*
X398921Y473093*
X399270Y474616*
X398896Y473500D02*
X399015D01*
X398465Y474000D02*
X399129D01*
X399119Y474500D02*
X399244D01*
X398500Y473846D02*
Y474026D01*
X399000Y473436D02*
Y474409D01*
X385130Y470244D02*
X385628Y468997D01*
X385628D02*
X385494Y469880D01*
X386378Y469747*
X386378D02*
X385130Y470244D01*
X385626Y469000D02*
X385627D01*
X385427Y469500D02*
X385551D01*
X385227Y470000D02*
X385742D01*
X385500Y469316D02*
Y469838D01*
Y469879D02*
Y470096D01*
X386000Y469804D02*
Y469897D01*
X388930Y466444D02*
X389565Y465060D01*
X389565D02*
X389431Y465943D01*
X390315Y465810*
X390315D02*
X388930Y466444D01*
X389363Y465500D02*
X389498D01*
X389134Y466000D02*
X389899D01*
X389000Y466292D02*
Y466412D01*
X389500Y465200D02*
Y465485D01*
Y465933D02*
Y466183D01*
X390000Y465857D02*
Y465954D01*
X395666Y462537D02*
X394252Y461873D01*
X394252D02*
X395135Y462006D01*
X395002Y461123*
X395002D02*
X395666Y462537D01*
X395059Y461500D02*
X395179D01*
X394523Y462000D02*
X395093D01*
X395134D02*
X395414D01*
X395588Y462500D02*
X395648D01*
X394500Y461910D02*
Y461989D01*
X395000Y461986D02*
Y462224D01*
X395500Y462184D02*
Y462459D01*
X420450Y523000D02*
X421288Y522567D01*
X420650Y523000*
X421288Y523433*
X420450Y523000*
X420650*
X420500Y522974D02*
Y523026D01*
X421000Y522716D02*
Y522762D01*
Y523238D02*
Y523284D01*
X399603Y462537D02*
X398189Y461873D01*
X398189D02*
X399072Y462006D01*
X398939Y461123*
X398939D02*
X399603Y462537D01*
X398996Y461500D02*
X399116D01*
X398460Y462000D02*
X399030D01*
X399071D02*
X399351D01*
X399525Y462500D02*
X399585D01*
X398500Y461920D02*
Y462019D01*
X399000Y461253D02*
Y461528D01*
Y461995D02*
Y462254D01*
X399500Y462318D02*
Y462488D01*
X415352Y454663D02*
X413938Y453999D01*
X413938D02*
X414821Y454132D01*
X414688Y453249*
X414688D02*
X415352Y454663D01*
X414726Y453500D02*
X414806D01*
X413941Y454000D02*
X413947D01*
X414801D02*
X415040D01*
X415005Y454500D02*
X415275D01*
X414000Y454008D02*
Y454028D01*
X414500Y454084D02*
Y454263D01*
X415000Y453914D02*
Y454498D01*
X423170Y462481D02*
X421812Y461873D01*
X421812D02*
X422695Y462006D01*
X422562Y461123*
X422562D02*
X423170Y462481D01*
X422619Y461500D02*
X422731D01*
X422096Y462000D02*
X422653D01*
X422694D02*
X422954D01*
X422000Y461901D02*
Y461957D01*
X422500Y461977D02*
Y462181D01*
X423000Y462102D02*
Y462405D01*
X422804Y470733D02*
X421614Y469720D01*
X422432Y470082*
X422535Y469194*
X422804Y470733*
X422499Y469500D02*
X422589D01*
X421943Y470000D02*
X422247D01*
X422441D02*
X422676D01*
X422531Y470500D02*
X422763D01*
X422000Y469891D02*
Y470048D01*
X422500Y469496D02*
Y470474D01*
X419289Y462537D02*
X417875Y461873D01*
X417875D02*
X418758Y462006D01*
X418625Y461123*
X418625D02*
X419289Y462537D01*
X418682Y461500D02*
X418802D01*
X418146Y462000D02*
X418716D01*
X418757D02*
X419037D01*
X419211Y462500D02*
X419271D01*
X418000Y461892D02*
Y461931D01*
X418500Y461967D02*
Y462166D01*
X419000Y461922D02*
Y462401D01*
X453700Y601500D02*
X454230Y602970D01*
X453700Y602250*
X453170Y602970*
X453700Y601500*
X453700*
X453520Y602000D02*
X453880D01*
X453339Y602500D02*
X453516D01*
X453884D02*
X454061D01*
X453500Y602054D02*
Y602521D01*
X454000Y602331D02*
Y602657D01*
X422796Y466801D02*
X421611Y465782D01*
X422427Y466148*
X422534Y465260*
X422796Y466801*
X422505Y465500D02*
X422575D01*
X421864Y466000D02*
X422097D01*
X422445D02*
X422660D01*
X422446Y466500D02*
X422745D01*
X422000Y465957D02*
Y466117D01*
X422500Y465542D02*
Y466546D01*
X455500Y582600D02*
X456030Y584070D01*
X455500Y583350*
X454970Y584070*
X455500Y582600*
X455356Y583000D02*
X455644D01*
X455175Y583500D02*
X455389D01*
X455611D02*
X455825D01*
X454995Y584000D02*
X455021D01*
X455979D02*
X456005D01*
X455000Y583986D02*
Y584029D01*
X455500Y582600D02*
Y583350D01*
X456000Y583986D02*
Y584029D01*
X399603Y470411D02*
X398189Y469747D01*
X398189D02*
X399072Y469880D01*
X398939Y468997*
X398939D02*
X399603Y470411D01*
X398939Y469000D02*
X398940D01*
X399015Y469500D02*
X399175D01*
X398728Y470000D02*
X399410D01*
X398500Y469794D02*
Y469893D01*
X399000Y469127D02*
Y469402D01*
Y469869D02*
Y470128D01*
X399500Y470192D02*
Y470362D01*
X444400Y601900D02*
X444930Y603370D01*
X444400Y602650*
X443870Y603370*
X444400Y601900*
X444364Y602000D02*
X444436D01*
X444183Y602500D02*
X444617D01*
X444003Y603000D02*
X444142D01*
X444658D02*
X444797D01*
X444000Y603008D02*
Y603193D01*
X444500Y602177D02*
Y602786D01*
X399599Y466470D02*
X398189Y465810D01*
X398189D02*
X399072Y465943D01*
X398939Y465060*
X398939D02*
X399599Y466470D01*
X399005Y465500D02*
X399145D01*
X398595Y466000D02*
X399379D01*
X398500Y465857D02*
Y465955D01*
X399000Y465191D02*
Y465465D01*
Y465932D02*
Y466189D01*
X399500Y466259D02*
Y466423D01*
X443086Y580886D02*
X444500Y581550D01*
X443616Y581416*
X443750Y582300*
X443086Y580886*
X443139Y581000D02*
X443329D01*
X443374Y581500D02*
X443629D01*
X444170D02*
X444394D01*
X443609Y582000D02*
X443705D01*
X443500Y581080D02*
Y581768D01*
X444000Y581315D02*
Y581474D01*
X444500Y581550D02*
X444500D01*
X403773Y462256D02*
X402262Y461860D01*
X403155Y461831*
X402863Y460986*
X403773Y462256*
X402868Y461000D02*
X402873D01*
X403041Y461500D02*
X403231D01*
X402796Y462000D02*
X403590D01*
X402500Y461852D02*
Y461922D01*
X403000Y461177D02*
Y461382D01*
Y461836D02*
Y462053D01*
X403500Y461875D02*
Y462184D01*
X444680Y560380D02*
X445751Y560752D01*
X444916Y560616*
X445052Y561451*
X444680Y560380*
X444722Y560500D02*
X445025D01*
X444895Y561000D02*
X444978D01*
X445000Y560491D02*
Y560630D01*
Y561133D02*
Y561302D01*
X445500Y560665D02*
Y560711D01*
X389080Y458420D02*
X389565Y457186D01*
X389565D02*
X389431Y458069D01*
X390315Y457936*
X390315D02*
X389080Y458420D01*
X389441Y457500D02*
X389517D01*
X389245Y458000D02*
X389441D01*
X389889D02*
X390150D01*
X389500Y457350D02*
Y457611D01*
Y458059D02*
Y458255D01*
X390000Y457983D02*
Y458059D01*
X441320Y638680D02*
X441038Y639568D01*
X441184Y638816*
X440432Y638962*
X441320Y638680*
X441148Y639000D02*
X441218D01*
X441052Y639500D02*
X441060D01*
X440500Y638940D02*
Y638948D01*
X441000Y638782D02*
Y638852D01*
X415352Y458600D02*
X413938Y457936D01*
X413938D02*
X414821Y458069D01*
X414688Y457186*
X414688D02*
X415352Y458600D01*
X414735Y457500D02*
X414835D01*
X414075Y458000D02*
X414363D01*
X414811D02*
X415070D01*
X415139Y458500D02*
X415305D01*
X414000Y457945D02*
Y457965D01*
X414500Y458021D02*
Y458200D01*
X415000Y457851D02*
Y458435D01*
X436786Y515986D02*
X438200Y516650D01*
X437316Y516516*
X437450Y517400*
X436786Y515986*
X436792Y516000D02*
X436816D01*
X437027Y516500D02*
X437881D01*
X437262Y517000D02*
X437389D01*
X437000Y516086D02*
Y516442D01*
X437500Y516321D02*
Y516544D01*
X438000Y516556D02*
Y516620D01*
X412630Y462430D02*
X413188Y461123D01*
X413188D02*
X413054Y462006D01*
X413938Y461873*
X413938D02*
X412630Y462430D01*
X413027Y461500D02*
X413130D01*
X412813Y462000D02*
X413055D01*
X413096D02*
X413638D01*
X413000Y461562D02*
Y462272D01*
X413500Y461939D02*
Y462059D01*
X431400Y506900D02*
X431930Y508370D01*
X431400Y507650*
X430870Y508370*
X431400Y506900*
X431364Y507000D02*
X431436D01*
X431183Y507500D02*
X431617D01*
X431003Y508000D02*
X431142D01*
X431658D02*
X431797D01*
X431000Y508008D02*
Y508193D01*
X431500Y507177D02*
Y507786D01*
X391729Y454663D02*
X390315Y453999D01*
X390315D02*
X391198Y454132D01*
X391065Y453249*
X391065D02*
X391729Y454663D01*
X391103Y453500D02*
X391183D01*
X390318Y454000D02*
X390324D01*
X391178D02*
X391417D01*
X391382Y454500D02*
X391652D01*
X390500Y454027D02*
Y454086D01*
X391000Y454102D02*
Y454320D01*
X391500Y454176D02*
Y454555D01*
X437761Y533161D02*
X439175Y533825D01*
X438291Y533691*
X438425Y534575*
X437761Y533161*
X437920Y533500D02*
X438483D01*
X438155Y534000D02*
X438338D01*
X438390Y534500D02*
X438414D01*
X438000Y533273D02*
Y533670D01*
X438500Y533508D02*
Y533723D01*
X439000Y533743D02*
Y533798D01*
X395666Y454663D02*
X394252Y453999D01*
X394252D02*
X395135Y454132D01*
X395002Y453249*
X395002D02*
X395666Y454663D01*
X395040Y453500D02*
X395120D01*
X394255Y454000D02*
X394261D01*
X395115D02*
X395354D01*
X395319Y454500D02*
X395589D01*
X394500Y454036D02*
Y454115D01*
X395000Y454112D02*
Y454350D01*
X395500Y454310D02*
Y454585D01*
X441300Y534950D02*
X441830Y536120D01*
X441300Y535400*
X440770Y536120*
X441300Y534950*
X441277Y535000D02*
X441323D01*
X441051Y535500D02*
X441226D01*
X441374D02*
X441549D01*
X440824Y536000D02*
X440858D01*
X441742D02*
X441776D01*
X441000Y535612D02*
Y535807D01*
X441500Y535391D02*
Y535671D01*
X438970Y466470D02*
X437560Y465810D01*
X437560D02*
X438443Y465943D01*
X438310Y465060*
X438310D02*
X438970Y466470D01*
X438376Y465500D02*
X438516D01*
X437966Y466000D02*
X438750D01*
X438000Y465876D02*
Y466016D01*
X438500Y465466D02*
Y466250D01*
X463470Y470300D02*
X462165Y469746D01*
X463049Y469880*
X462915Y468996*
X463470Y470300*
X462916Y469000D02*
X462917D01*
X462992Y469500D02*
X463130D01*
X462763Y470000D02*
X463342D01*
X462500Y469797D02*
Y469888D01*
X463000Y469195D02*
Y469555D01*
Y469872D02*
Y470101D01*
X438974Y442852D02*
X437560Y442188D01*
X437560D02*
X438443Y442321D01*
X438310Y441438*
X438310D02*
X438974Y442852D01*
X438319Y441500D02*
X438339D01*
X438395Y442000D02*
X438574D01*
X438225Y442500D02*
X438809D01*
X438000Y442254D02*
Y442394D01*
X438500Y441843D02*
Y442629D01*
X466786Y604986D02*
X468200Y605650D01*
X467316Y605516*
X467450Y606400*
X466786Y604986*
X466792Y605000D02*
X466816D01*
X467027Y605500D02*
X467881D01*
X467262Y606000D02*
X467389D01*
X467000Y605086D02*
Y605442D01*
X467500Y605321D02*
Y605544D01*
X468000Y605556D02*
Y605620D01*
X443225Y454254D02*
X441688Y453974D01*
X442577Y453877*
X442222Y453057*
X443225Y454254*
X442414Y453500D02*
X442593D01*
X441833Y454000D02*
X443012D01*
X442000Y453940D02*
Y454031D01*
X442500Y453389D02*
Y453700D01*
Y453886D02*
Y454122D01*
X443000Y453986D02*
Y454213D01*
X461700Y603400D02*
X462230Y604870D01*
X461700Y604150*
X461170Y604870*
X461700Y603400*
X461664Y603500D02*
X461736D01*
X461483Y604000D02*
X461917D01*
X461303Y604500D02*
X461442D01*
X461958D02*
X462097D01*
X461500Y603954D02*
Y604421D01*
X462000Y604231D02*
Y604557D01*
X475200Y614900D02*
X475730Y616370D01*
X475200Y615650*
X474670Y616370*
X475200Y614900*
X475164Y615000D02*
X475236D01*
X474983Y615500D02*
X475417D01*
X474803Y616000D02*
X474942D01*
X475458D02*
X475597D01*
X475000Y615454D02*
Y615921D01*
X475500Y615731D02*
Y616057D01*
X447433Y445374D02*
X445964Y445905D01*
X446683Y445374*
X446683D02*
X445964Y444844D01*
X447433Y445374*
X446175Y445000D02*
X446396D01*
X446513Y445500D02*
X447086D01*
X446000Y444857D02*
Y444871D01*
Y445878D02*
Y445892D01*
X446500Y445038D02*
Y445239D01*
Y445510D02*
Y445711D01*
X447000Y445218D02*
Y445531D01*
X473786Y618886D02*
X475200Y619550D01*
X474316Y619416*
X474450Y620300*
X473786Y618886*
X473839Y619000D02*
X474029D01*
X474074Y619500D02*
X474329D01*
X474870D02*
X475094D01*
X474309Y620000D02*
X474405D01*
X474000Y618986D02*
Y619342D01*
X474500Y619221D02*
Y619444D01*
X475000Y619456D02*
Y619520D01*
X459643Y446788D02*
X458228Y446124D01*
X459112Y446258*
X458978Y445374*
X459643Y446788*
X458997Y445500D02*
X459037D01*
X459073Y446000D02*
X459272D01*
X459029Y446500D02*
X459507D01*
X458500Y446165D02*
Y446252D01*
X459000Y445420D02*
Y445517D01*
Y446241D02*
Y446486D01*
X459500Y446485D02*
Y446721D01*
X478300Y618500D02*
X478830Y619970D01*
X478300Y619250*
X477770Y619970*
X478300Y618500*
X478300*
X478120Y619000D02*
X478480D01*
X477939Y619500D02*
X478116D01*
X478484D02*
X478661D01*
X478000Y619331D02*
Y619657D01*
X478500Y619054D02*
Y619521D01*
X442855Y450670D02*
X441497Y450062D01*
X441497D02*
X442380Y450195D01*
X442247Y449312*
X442247D02*
X442855Y450670D01*
X442275Y449500D02*
X442331D01*
X442351Y450000D02*
X442555D01*
X442476Y450500D02*
X442779D01*
X441500Y450062D02*
Y450063D01*
X442000Y450138D02*
Y450287D01*
X442500Y449878D02*
Y450511D01*
X465200Y608200D02*
X465730Y609670D01*
X465200Y608950*
X464670Y609670*
X465200Y608200*
X465092Y608500D02*
X465308D01*
X464911Y609000D02*
X465163D01*
X465237D02*
X465489D01*
X464731Y609500D02*
X464795D01*
X465605D02*
X465669D01*
X465000Y608754D02*
Y609221D01*
X465500Y609031D02*
Y609357D01*
X435037Y450726D02*
X433623Y450062D01*
X433623D02*
X434506Y450195D01*
X434373Y449312*
X434373D02*
X435037Y450726D01*
X434401Y449500D02*
X434461D01*
X434477Y450000D02*
X434696D01*
X434556Y450500D02*
X434931D01*
X434000Y450119D02*
Y450239D01*
X434500Y449583D02*
Y450153D01*
Y450194D02*
Y450474D01*
X435000Y450648D02*
Y450708D01*
X461000Y608850D02*
X461383Y609555D01*
X461000Y608950*
X460617Y609555*
X461000Y608850*
X460918Y609000D02*
X460968D01*
X461032D02*
X461082D01*
X460647Y609500D02*
X460652D01*
X461348D02*
X461353D01*
X461000Y608850D02*
Y608950D01*
X438970Y450722D02*
X437560Y450062D01*
X437560D02*
X438443Y450195D01*
X438310Y449312*
X438310D02*
X438970Y450722D01*
X438338Y449500D02*
X438398D01*
X438414Y450000D02*
X438632D01*
X438496Y450500D02*
X438866D01*
X438000Y450128D02*
Y450268D01*
X438500Y449718D02*
Y450502D01*
X459900Y542500D02*
X460430Y543970D01*
X459900Y543250*
X459370Y543970*
X459900Y542500*
X459900*
X459720Y543000D02*
X460080D01*
X459539Y543500D02*
X459716D01*
X460084D02*
X460261D01*
X459500Y543608D02*
Y543793D01*
X460000Y542777D02*
Y543386D01*
X461700Y447400D02*
X461170Y445930D01*
X461700Y446650*
X462230Y445930*
X461700Y447400*
X461195Y446000D02*
X461221D01*
X462179D02*
X462205D01*
X461375Y446500D02*
X461589D01*
X461811D02*
X462025D01*
X461556Y447000D02*
X461844D01*
X461500Y446379D02*
Y446846D01*
X462000Y446243D02*
Y446569D01*
X475500Y560400D02*
X476030Y561870D01*
X475500Y561150*
X474970Y561870*
X475500Y560400*
X475464Y560500D02*
X475536D01*
X475283Y561000D02*
X475717D01*
X475103Y561500D02*
X475242D01*
X475758D02*
X475897D01*
X475000Y561786D02*
Y561829D01*
X475500Y560400D02*
Y561150D01*
X476000Y561786D02*
Y561829D01*
X427163Y462537D02*
X425749Y461873D01*
X425749D02*
X426632Y462006D01*
X426499Y461123*
X426499D02*
X427163Y462537D01*
X426556Y461500D02*
X426676D01*
X426020Y462000D02*
X426590D01*
X426631D02*
X426911D01*
X427085Y462500D02*
X427145D01*
X426000Y461911D02*
Y461991D01*
X426500Y461126D02*
Y461132D01*
Y461986D02*
Y462225D01*
X427000Y462190D02*
Y462460D01*
X453900Y537900D02*
X454430Y539370D01*
X453900Y538650*
X453370Y539370*
X453900Y537900*
X453864Y538000D02*
X453936D01*
X453683Y538500D02*
X454117D01*
X453503Y539000D02*
X453642D01*
X454158D02*
X454297D01*
X453500Y539008D02*
Y539193D01*
X454000Y538177D02*
Y538786D01*
X474400Y455900D02*
X473870Y454430D01*
X474400Y455150*
X474930Y454430*
X474400Y455900*
X473895Y454500D02*
X473921D01*
X474879D02*
X474905D01*
X474075Y455000D02*
X474289D01*
X474511D02*
X474725D01*
X474256Y455500D02*
X474544D01*
X474000Y454607D02*
Y454792D01*
X474500Y455014D02*
Y455623D01*
X479600Y542400D02*
X480130Y543870D01*
X479600Y543150*
X479070Y543870*
X479600Y542400*
X479564Y542500D02*
X479636D01*
X479383Y543000D02*
X479817D01*
X479203Y543500D02*
X479342D01*
X479858D02*
X479997D01*
X479500Y542677D02*
Y543286D01*
X480000Y543508D02*
Y543693D01*
X468700Y446000D02*
X468170Y444530D01*
X468700Y445250*
X469230Y444530*
X468700Y446000*
X468339Y445000D02*
X468516D01*
X468884D02*
X469061D01*
X468520Y445500D02*
X468880D01*
X468700Y446000D02*
X468700D01*
X468500Y444979D02*
Y445446D01*
X469000Y444843D02*
Y445169D01*
X473500Y535000D02*
X474030Y536470D01*
X473500Y535750*
X472970Y536470*
X473500Y535000*
X473500*
X473320Y535500D02*
X473680D01*
X473139Y536000D02*
X473316D01*
X473684D02*
X473861D01*
X473000Y536386D02*
Y536429D01*
X473500Y535000D02*
Y535750D01*
X474000Y536386D02*
Y536429D01*
X489200Y448700D02*
X488670Y447230D01*
X489200Y447950*
X489730Y447230*
X489200Y448700*
X488767Y447500D02*
X488868D01*
X489532D02*
X489633D01*
X488947Y448000D02*
X489453D01*
X489128Y448500D02*
X489272D01*
X489000Y447679D02*
Y448146D01*
X489500Y447543D02*
Y447869D01*
X512300Y555500D02*
X512830Y556970D01*
X512300Y556250*
X511770Y556970*
X512300Y555500*
X512300*
X512120Y556000D02*
X512480D01*
X511939Y556500D02*
X512116D01*
X512484D02*
X512661D01*
X512000Y556331D02*
Y556657D01*
X512500Y556054D02*
Y556521D01*
X492400Y448800D02*
X491870Y447330D01*
X492400Y448050*
X492930Y447330*
X492400Y448800*
X491931Y447500D02*
X491995D01*
X492805D02*
X492869D01*
X492111Y448000D02*
X492363D01*
X492437D02*
X492689D01*
X492292Y448500D02*
X492508D01*
X492000Y447507D02*
Y447692D01*
X492500Y447914D02*
Y448523D01*
X500200Y561400D02*
X500730Y562870D01*
X500200Y562150*
X499670Y562870*
X500200Y561400*
X500164Y561500D02*
X500236D01*
X499983Y562000D02*
X500417D01*
X499803Y562500D02*
X499942D01*
X500458D02*
X500597D01*
X500000Y561954D02*
Y562421D01*
X500500Y562231D02*
Y562557D01*
X495600Y448800D02*
X495070Y447330D01*
X495600Y448050*
X496130Y447330*
X495600Y448800*
X495131Y447500D02*
X495195D01*
X496005D02*
X496069D01*
X495311Y448000D02*
X495563D01*
X495637D02*
X495889D01*
X495492Y448500D02*
X495708D01*
X495500Y447914D02*
Y448523D01*
X496000Y447507D02*
Y447692D01*
X503400Y662700D02*
X503930Y664170D01*
X503400Y663450*
X502870Y664170*
X503400Y662700*
X503292Y663000D02*
X503508D01*
X503111Y663500D02*
X503363D01*
X503437D02*
X503689D01*
X502931Y664000D02*
X502995D01*
X503805D02*
X503869D01*
X503000Y663808D02*
Y663993D01*
X503500Y662977D02*
Y663586D01*
X498500Y448800D02*
X497970Y447330D01*
X498500Y448050*
X499030Y447330*
X498500Y448800*
X498031Y447500D02*
X498095D01*
X498905D02*
X498969D01*
X498211Y448000D02*
X498463D01*
X498537D02*
X498789D01*
X498392Y448500D02*
X498608D01*
X498000Y447371D02*
Y447414D01*
X498500Y448050D02*
Y448800D01*
X499000Y447371D02*
Y447414D01*
X511100Y651800D02*
X511630Y653270D01*
X511100Y652550*
X510570Y653270*
X511100Y651800*
X511028Y652000D02*
X511172D01*
X510847Y652500D02*
X511353D01*
X510667Y653000D02*
X510768D01*
X511432D02*
X511533D01*
X511000Y652077D02*
Y652686D01*
X511500Y652908D02*
Y653093D01*
X526700Y473800D02*
X526170Y472330D01*
X526700Y473050*
X527230Y472330*
X526700Y473800*
X526231Y472500D02*
X526295D01*
X527105D02*
X527169D01*
X526411Y473000D02*
X526663D01*
X526737D02*
X526989D01*
X526592Y473500D02*
X526808D01*
X526500Y472779D02*
Y473246D01*
X527000Y472643D02*
Y472969D01*
X530000Y644000D02*
X531945Y648055D01*
X530000Y646750*
X528055Y648055*
X530000Y644000*
X530000*
X529760Y644500D02*
X530240D01*
X529521Y645000D02*
X530479D01*
X529281Y645500D02*
X530719D01*
X529041Y646000D02*
X530959D01*
X528801Y646500D02*
X531199D01*
X528562Y647000D02*
X529628D01*
X530372D02*
X531438D01*
X528322Y647500D02*
X528883D01*
X531117D02*
X531678D01*
X528082Y648000D02*
X528138D01*
X531862D02*
X531918D01*
X528500Y647128D02*
Y647757D01*
X529000Y646086D02*
Y647421D01*
X529500Y645043D02*
Y647086D01*
X530000Y644000D02*
Y646750D01*
X530500Y645043D02*
Y647086D01*
X531000Y646086D02*
Y647421D01*
X531500Y647128D02*
Y647757D01*
X514300Y451600D02*
X513770Y450130D01*
X514300Y450850*
X514830Y450130*
X514300Y451600*
X513903Y450500D02*
X514042D01*
X514558D02*
X514697D01*
X514083Y451000D02*
X514517D01*
X514264Y451500D02*
X514336D01*
X514000Y450443D02*
Y450769D01*
X514500Y450579D02*
Y451046D01*
X531100Y557300D02*
X531630Y558770D01*
X531100Y558050*
X530570Y558770*
X531100Y557300*
X531028Y557500D02*
X531172D01*
X530847Y558000D02*
X531353D01*
X530667Y558500D02*
X530768D01*
X531432D02*
X531533D01*
X531000Y557577D02*
Y558186D01*
X531500Y558408D02*
Y558593D01*
X609500Y461200D02*
X610030Y462670D01*
X609500Y461950*
X608970Y462670*
X609500Y461200*
X609392Y461500D02*
X609608D01*
X609211Y462000D02*
X609463D01*
X609537D02*
X609789D01*
X609031Y462500D02*
X609095D01*
X609905D02*
X609969D01*
X609000Y462586D02*
Y462629D01*
X609500Y461200D02*
Y461950D01*
X610000Y462586D02*
Y462629D01*
X609500Y465200D02*
X608970Y463730D01*
X609500Y464450*
X610030Y463730*
X609500Y465200*
X609067Y464000D02*
X609168D01*
X609832D02*
X609933D01*
X609247Y464500D02*
X609753D01*
X609428Y465000D02*
X609572D01*
X609000Y463771D02*
Y463814D01*
X609500Y464450D02*
Y465200D01*
X610000Y463771D02*
Y463814D01*
X605300Y505300D02*
X605830Y506770D01*
X605300Y506050*
X604770Y506770*
X605300Y505300*
X605228Y505500D02*
X605372D01*
X605047Y506000D02*
X605553D01*
X604867Y506500D02*
X604968D01*
X605632D02*
X605733D01*
X605000Y506131D02*
Y506457D01*
X605500Y505854D02*
Y506321D01*
X740886Y458286D02*
X742300Y458950D01*
X741416Y458816*
X741550Y459700*
X740886Y458286*
X740986Y458500D02*
X741342D01*
X741221Y459000D02*
X741444D01*
X741456Y459500D02*
X741520D01*
X741000Y458339D02*
Y458529D01*
X741500Y458574D02*
Y458829D01*
Y459370D02*
Y459594D01*
X742000Y458809D02*
Y458905D01*
X752700Y474200D02*
X752170Y472730D01*
X752700Y473450*
X753230Y472730*
X752700Y474200*
X752267Y473000D02*
X752368D01*
X753032D02*
X753133D01*
X752447Y473500D02*
X752953D01*
X752628Y474000D02*
X752772D01*
X752500Y473179D02*
Y473646D01*
X753000Y473043D02*
Y473369D01*
X763400Y574200D02*
X763930Y575670D01*
X763400Y574950*
X762870Y575670*
X763400Y574200*
X763292Y574500D02*
X763508D01*
X763111Y575000D02*
X763363D01*
X763437D02*
X763689D01*
X762931Y575500D02*
X762995D01*
X763805D02*
X763869D01*
X763000Y575308D02*
Y575493D01*
X763500Y574477D02*
Y575086D01*
X762700Y462300D02*
X762170Y460830D01*
X762700Y461550*
X763230Y460830*
X762700Y462300*
X762231Y461000D02*
X762295D01*
X763105D02*
X763169D01*
X762411Y461500D02*
X762663D01*
X762737D02*
X762989D01*
X762592Y462000D02*
X762808D01*
X762500Y461279D02*
Y461746D01*
X763000Y461143D02*
Y461469D01*
X765000Y584200D02*
X765530Y585670D01*
X765000Y584950*
X764470Y585670*
X765000Y584200*
X764892Y584500D02*
X765108D01*
X764711Y585000D02*
X764963D01*
X765037D02*
X765289D01*
X764531Y585500D02*
X764595D01*
X765405D02*
X765469D01*
X764500Y585586D02*
Y585629D01*
X765000Y584200D02*
Y584950D01*
X765500Y585586D02*
Y585629D01*
X770500Y450000D02*
X769970Y448530D01*
X770500Y449250*
X771030Y448530*
X770500Y450000*
X770139Y449000D02*
X770316D01*
X770684D02*
X770861D01*
X770320Y449500D02*
X770680D01*
X770500Y450000D02*
X770500D01*
X770000Y448571D02*
Y448614D01*
X770500Y449250D02*
Y450000D01*
X771000Y448571D02*
Y448614D01*
X763800Y449900D02*
X763270Y448430D01*
X763800Y449150*
X764330Y448430*
X763800Y449900*
X763295Y448500D02*
X763321D01*
X764279D02*
X764305D01*
X763475Y449000D02*
X763689D01*
X763911D02*
X764125D01*
X763656Y449500D02*
X763944D01*
X763500Y448743D02*
Y449069D01*
X764000Y448879D02*
Y449346D01*
X762000Y452300D02*
X761470Y450830D01*
X762000Y451550*
X762530Y450830*
X762000Y452300*
X761531Y451000D02*
X761595D01*
X762405D02*
X762469D01*
X761711Y451500D02*
X761963D01*
X762037D02*
X762289D01*
X761892Y452000D02*
X762108D01*
X761500Y450871D02*
Y450914D01*
X762000Y451550D02*
Y452300D01*
X762500Y450871D02*
Y450914D01*
X764500Y594300D02*
X765030Y595770D01*
X764500Y595050*
X763970Y595770*
X764500Y594300*
X764428Y594500D02*
X764572D01*
X764247Y595000D02*
X764753D01*
X764067Y595500D02*
X764168D01*
X764832D02*
X764933D01*
X764000Y595686D02*
Y595729D01*
X764500Y594300D02*
Y595050D01*
X765000Y595686D02*
Y595729D01*
X743298Y444533D02*
X744750Y440276D01*
X745224Y442570*
X747526Y443000*
X743298Y444533*
X744674Y440500D02*
X744796D01*
X744503Y441000D02*
X744900D01*
X744333Y441500D02*
X745003D01*
X744162Y442000D02*
X745106D01*
X743991Y442500D02*
X745209D01*
X743821Y443000D02*
X747526D01*
X743650Y443500D02*
X746147D01*
X743480Y444000D02*
X744768D01*
X743309Y444500D02*
X743389D01*
X743500Y443941D02*
Y444460D01*
X744000Y442475D02*
Y444278D01*
X744500Y441009D02*
Y444097D01*
X745000Y441486D02*
Y443916D01*
X745500Y442621D02*
Y443734D01*
X746000Y442715D02*
Y443553D01*
X746500Y442808D02*
Y443372D01*
X747000Y442902D02*
Y443191D01*
X747500Y442995D02*
Y443009D01*
X742300Y454600D02*
X742830Y456070D01*
X742300Y455350*
X741770Y456070*
X742300Y454600*
X742156Y455000D02*
X742444D01*
X741975Y455500D02*
X742189D01*
X742411D02*
X742625D01*
X741795Y456000D02*
X741821D01*
X742779D02*
X742805D01*
X742000Y455431D02*
Y455757D01*
X742500Y455154D02*
Y455621D01*
X382441Y487168D02*
X382013Y486344D01*
X382441Y486978*
X382869Y486344*
X382441Y487168*
X382094Y486500D02*
X382118D01*
X382764D02*
X382788D01*
X382354Y487000D02*
X382528D01*
X382500Y486891D02*
Y487054D01*
X362600Y487800D02*
X362070Y486330D01*
X362600Y487050*
X363130Y486330*
X362600Y487800*
X362131Y486500D02*
X362195D01*
X363005D02*
X363069D01*
X362311Y487000D02*
X362563D01*
X362637D02*
X362889D01*
X362492Y487500D02*
X362708D01*
X362500Y486914D02*
Y487523D01*
X363000Y486507D02*
Y486692D01*
X366914Y487114D02*
X365500Y486450D01*
X366384Y486584*
X366250Y485700*
X366914Y487114*
X366295Y486000D02*
X366391D01*
X365606Y486500D02*
X365830D01*
X366371D02*
X366626D01*
X366671Y487000D02*
X366861D01*
X366000Y486526D02*
Y486685D01*
X366500Y486232D02*
Y486920D01*
X384964Y487143D02*
X385628Y485728D01*
X385494Y486612*
X386378Y486478*
X384964Y487143*
X385500Y486000D02*
X385587D01*
X385266Y486500D02*
X385511D01*
X386235D02*
X386332D01*
X385031Y487000D02*
X385267D01*
X385000Y487065D02*
Y487126D01*
X385500Y486001D02*
Y486573D01*
Y486611D02*
Y486891D01*
X386000Y486536D02*
Y486656D01*
X406644Y490965D02*
X405933Y490404D01*
X406573Y490807*
X406700Y490061*
X406644Y490965*
X406054Y490500D02*
X406086D01*
X406625D02*
X406673D01*
X406000Y490446D02*
Y490457D01*
X406500Y490761D02*
Y490852D01*
X436800Y607100D02*
X437330Y608570D01*
X436800Y607850*
X436270Y608570*
X436800Y607100*
X436656Y607500D02*
X436944D01*
X436475Y608000D02*
X436689D01*
X436911D02*
X437125D01*
X436295Y608500D02*
X436321D01*
X437279D02*
X437305D01*
X436500Y607931D02*
Y608257D01*
X437000Y607654D02*
Y608121D01*
X393145Y491331D02*
X393517Y489814D01*
X393517D02*
X393560Y490706D01*
X394400Y490401*
X393145Y491331*
X393471Y490000D02*
X393526D01*
X393349Y490500D02*
X393550D01*
X394127D02*
X394266D01*
X393226Y491000D02*
X393591D01*
X393500Y489882D02*
Y491068D01*
X394000Y490546D02*
Y490697D01*
X428800Y605100D02*
X429330Y606570D01*
X428800Y605850*
X428270Y606570*
X428800Y605100*
X428656Y605500D02*
X428944D01*
X428475Y606000D02*
X428689D01*
X428911D02*
X429125D01*
X428295Y606500D02*
X428321D01*
X429279D02*
X429305D01*
X428500Y605931D02*
Y606257D01*
X429000Y605654D02*
Y606121D01*
X399470Y487009D02*
X398189Y486478D01*
X399073Y486612*
X398939Y485728*
X399470Y487009*
X398980Y486000D02*
X399052D01*
X398241Y486500D02*
X398332D01*
X399056D02*
X399259D01*
X399448Y487000D02*
X399466D01*
X398500Y486525D02*
Y486607D01*
X399000Y485876D02*
Y486132D01*
Y486601D02*
Y486814D01*
X432586Y575286D02*
X434000Y575950D01*
X433116Y575816*
X433250Y576700*
X432586Y575286*
X432686Y575500D02*
X433042D01*
X432921Y576000D02*
X433144D01*
X433156Y576500D02*
X433220D01*
X433000Y575480D02*
Y576168D01*
X433500Y575715D02*
Y575874D01*
X434000Y575950D02*
X434000D01*
X401161Y491417D02*
X401406Y489874D01*
X401523Y490760*
X402335Y490386*
X401161Y491417*
X401386Y490000D02*
X401422D01*
X401307Y490500D02*
X401489D01*
X402087D02*
X402205D01*
X401227Y491000D02*
X401636D01*
X401500Y490587D02*
Y491120D01*
X402000Y490540D02*
Y490680D01*
X434000Y571700D02*
X434530Y573170D01*
X434000Y572450*
X433470Y573170*
X434000Y571700*
X433892Y572000D02*
X434108D01*
X433711Y572500D02*
X433963D01*
X434037D02*
X434289D01*
X433531Y573000D02*
X433595D01*
X434405D02*
X434469D01*
X433500Y573086D02*
Y573129D01*
X434000Y571700D02*
Y572450D01*
X434500Y573086D02*
Y573129D01*
X403540Y487143D02*
X402126Y486478D01*
X403010Y486612*
X402876Y485728*
X403540Y487143*
X402917Y486000D02*
X403004D01*
X402172Y486500D02*
X402269D01*
X402993D02*
X403238D01*
X403237Y487000D02*
X403473D01*
X402500Y486535D02*
Y486654D01*
X403000Y485993D02*
Y486547D01*
Y486611D02*
Y486889D01*
X403500Y487057D02*
Y487124D01*
X435000Y579500D02*
X435530Y580970D01*
X435000Y580250*
X434470Y580970*
X435000Y579500*
X435000*
X434820Y580000D02*
X435180D01*
X434639Y580500D02*
X434816D01*
X435184D02*
X435361D01*
X434500Y580886D02*
Y580929D01*
X435000Y579500D02*
Y580250D01*
X435500Y580886D02*
Y580929D01*
X398189Y491665D02*
X397659Y490196D01*
X398189Y490915*
X398719Y490196*
X398189Y491665*
X397768Y490500D02*
X397883D01*
X398495D02*
X398609D01*
X397949Y491000D02*
X398429D01*
X398129Y491500D02*
X398249D01*
X398000Y490659D02*
Y491142D01*
X398500Y490493D02*
Y490803D01*
X433000Y598400D02*
X433530Y599870D01*
X433000Y599150*
X432470Y599870*
X433000Y598400*
X432964Y598500D02*
X433036D01*
X432783Y599000D02*
X433217D01*
X432603Y599500D02*
X432742D01*
X433258D02*
X433397D01*
X432500Y599786D02*
Y599829D01*
X433000Y598400D02*
Y599150D01*
X433500Y599786D02*
Y599829D01*
X407470Y487135D02*
X406063Y486478D01*
X406947Y486612*
X406813Y485728*
X407470Y487135*
X406854Y486000D02*
X406940D01*
X406109Y486500D02*
X406206D01*
X406930D02*
X407173D01*
X407180Y487000D02*
X407407D01*
X406500Y486545D02*
Y486682D01*
X407000Y486129D02*
Y486916D01*
X440114Y599086D02*
X439450Y600500D01*
X439584Y599616*
X438700Y599750*
X440114Y599086*
X439232Y599500D02*
X439920D01*
X439526Y600000D02*
X439685D01*
X439450Y600500D02*
X439450D01*
X439000Y599609D02*
Y599705D01*
X439500Y599374D02*
Y599629D01*
Y600170D02*
Y600394D01*
X440000Y599139D02*
Y599329D01*
X440230Y486994D02*
X440746Y485728D01*
X440612Y486612*
X441496Y486478*
X440230Y486994*
X440635Y486000D02*
X440705D01*
X440432Y486500D02*
X440629D01*
X441353D02*
X441443D01*
X440500Y486332D02*
Y486884D01*
X441000Y486553D02*
Y486680D01*
X449593Y538029D02*
X450512Y539293D01*
X449802Y538749*
X449493Y539588*
X449593Y538029*
X449563Y538500D02*
X449935D01*
X449531Y539000D02*
X449710D01*
X450129D02*
X450299D01*
X449499Y539500D02*
X449526D01*
X449500Y539479D02*
Y539569D01*
X450000Y538589D02*
Y538901D01*
X450500Y539277D02*
Y539284D01*
X446670Y486965D02*
X445433Y486478D01*
X446317Y486612*
X446183Y485728*
X446670Y486965*
X446224Y486000D02*
X446290D01*
X445488Y486500D02*
X445576D01*
X446300D02*
X446487D01*
X445500Y486488D02*
Y486505D01*
X446000Y486564D02*
Y486701D01*
X446500Y486534D02*
Y486898D01*
X450486Y527886D02*
X451900Y528550D01*
X451016Y528416*
X451150Y529300*
X450486Y527886*
X450539Y528000D02*
X450729D01*
X450774Y528500D02*
X451029D01*
X451570D02*
X451794D01*
X451009Y529000D02*
X451105D01*
X450500Y527892D02*
Y527916D01*
X451000Y528127D02*
Y528981D01*
X451500Y528362D02*
Y528489D01*
X445433Y491665D02*
X444903Y490196D01*
X445433Y490915*
X445963Y490196*
X445433Y491665*
X445013Y490500D02*
X445127D01*
X445739D02*
X445854D01*
X445193Y491000D02*
X445673D01*
X445373Y491500D02*
X445493D01*
X445000Y490328D02*
Y490465D01*
X445500Y490825D02*
Y491480D01*
X429685Y491665D02*
X429155Y490196D01*
X429685Y490915*
X430215Y490196*
X429685Y491665*
X429265Y490500D02*
X429379D01*
X429991D02*
X430106D01*
X429445Y491000D02*
X429925D01*
X429625Y491500D02*
X429745D01*
X429500Y490664D02*
Y491152D01*
X430000Y490488D02*
Y490793D01*
X448100Y595700D02*
X448630Y597170D01*
X448100Y596450*
X447570Y597170*
X448100Y595700*
X447992Y596000D02*
X448208D01*
X447811Y596500D02*
X448063D01*
X448137D02*
X448389D01*
X447631Y597000D02*
X447695D01*
X448505D02*
X448569D01*
X448000Y595977D02*
Y596586D01*
X448500Y596808D02*
Y596993D01*
X465800Y478300D02*
X465270Y476830D01*
X465800Y477550*
X466330Y476830*
X465800Y478300*
X465331Y477000D02*
X465395D01*
X466205D02*
X466269D01*
X465511Y477500D02*
X465763D01*
X465837D02*
X466089D01*
X465692Y478000D02*
X465908D01*
X465500Y477143D02*
Y477469D01*
X466000Y477279D02*
Y477746D01*
X602202Y502858D02*
X600083Y498478D01*
X602203Y499858*
X604325Y498480*
X602202Y502858*
X600093Y498500D02*
X600116D01*
X604295D02*
X604316D01*
X600335Y499000D02*
X600885D01*
X603525D02*
X604073D01*
X600577Y499500D02*
X601653D01*
X602755D02*
X603831D01*
X600819Y500000D02*
X603588D01*
X601061Y500500D02*
X603346D01*
X601303Y501000D02*
X603103D01*
X601545Y501500D02*
X602861D01*
X601787Y502000D02*
X602618D01*
X602029Y502500D02*
X602376D01*
X600500Y498750D02*
Y499341D01*
X601000Y499075D02*
Y500374D01*
X601500Y499400D02*
Y501407D01*
X602000Y499726D02*
Y502440D01*
X602500Y499665D02*
Y502244D01*
X603000Y499341D02*
Y501213D01*
X603500Y499016D02*
Y500182D01*
X604000Y498692D02*
Y499151D01*
X602201Y505600D02*
X602731Y507070D01*
X602201Y506350*
X601670Y507069*
X602201Y505600*
X602056Y506000D02*
X602345D01*
X601876Y506500D02*
X602090D01*
X602311D02*
X602525D01*
X601695Y507000D02*
X601721D01*
X602679D02*
X602705D01*
X602000Y506156D02*
Y506622D01*
X602500Y506430D02*
Y506757D01*
X737500Y485750D02*
X735555Y481695D01*
X737500Y483000*
X739445Y481695*
X737500Y485750*
X735702Y482000D02*
X736010D01*
X738990D02*
X739298D01*
X735942Y482500D02*
X736755D01*
X738245D02*
X739058D01*
X736181Y483000D02*
X737500D01*
X738819*
X736421Y483500D02*
X738579D01*
X736661Y484000D02*
X738339D01*
X736901Y484500D02*
X738099D01*
X737140Y485000D02*
X737860D01*
X737380Y485500D02*
X737620D01*
X736000Y481993D02*
Y482622D01*
X736500Y482329D02*
Y483664D01*
X737000Y482664D02*
Y484707D01*
X737500Y483000D02*
Y485750D01*
X738000Y482664D02*
Y484707D01*
X738500Y482329D02*
Y483664D01*
X739000Y481993D02*
Y482622D01*
X740686Y498286D02*
X742100Y498950D01*
X741216Y498816*
X741350Y499700*
X740686Y498286*
X740786Y498500D02*
X741142D01*
X741021Y499000D02*
X741244D01*
X741256Y499500D02*
X741320D01*
X741000Y498433D02*
Y498955D01*
X741500Y498668D02*
Y498859D01*
X742000Y498903D02*
Y498935D01*
X747500Y485750D02*
X745555Y481695D01*
X747500Y483000*
X749445Y481695*
X747500Y485750*
X745702Y482000D02*
X746010D01*
X748990D02*
X749298D01*
X745942Y482500D02*
X746755D01*
X748245D02*
X749058D01*
X746181Y483000D02*
X747500D01*
X748819*
X746421Y483500D02*
X748579D01*
X746661Y484000D02*
X748339D01*
X746901Y484500D02*
X748099D01*
X747140Y485000D02*
X747860D01*
X747380Y485500D02*
X747620D01*
X746000Y481993D02*
Y482622D01*
X746500Y482329D02*
Y483664D01*
X747000Y482664D02*
Y484707D01*
X747500Y483000D02*
Y485750D01*
X748000Y482664D02*
Y484707D01*
X748500Y482329D02*
Y483664D01*
X749000Y481993D02*
Y482622D01*
X743614Y495086D02*
X742950Y496500D01*
X743084Y495616*
X742200Y495750*
X743614Y495086*
X742732Y495500D02*
X743420D01*
X743026Y496000D02*
X743185D01*
X742950Y496500D02*
X742950D01*
X742500Y495609D02*
Y495705D01*
X743000Y495374D02*
Y495629D01*
Y496170D02*
Y496394D01*
X743500Y495139D02*
Y495329D01*
X421314Y547814D02*
X419900Y547150D01*
X420784Y547284*
X420650Y546400*
X421314Y547814*
X420665Y546500D02*
X420697D01*
X420741Y547000D02*
X420932D01*
X420645Y547500D02*
X421167D01*
X420000Y547165D02*
Y547197D01*
X420500Y547241D02*
Y547432D01*
X421000Y547145D02*
Y547667D01*
X486250Y532100D02*
X485720Y530630D01*
X486250Y531350*
X486780Y530630*
X486250Y532100*
X485853Y531000D02*
X485992D01*
X486508D02*
X486647D01*
X486033Y531500D02*
X486467D01*
X486214Y532000D02*
X486286D01*
X486000Y531011D02*
Y531407D01*
X486500Y531011D02*
Y531407D01*
X491800Y645800D02*
X492330Y647270D01*
X491800Y646550*
X491270Y647270*
X491800Y645800*
X491728Y646000D02*
X491872D01*
X491547Y646500D02*
X492053D01*
X491367Y647000D02*
X491468D01*
X492132D02*
X492233D01*
X491500Y646631D02*
Y646957D01*
X492000Y646354D02*
Y646821D01*
X496250Y532450D02*
X495720Y530980D01*
X496250Y531700*
X496780Y530980*
X496250Y532450*
X495727Y531000D02*
X495734D01*
X496766D02*
X496773D01*
X495907Y531500D02*
X496103D01*
X496397D02*
X496593D01*
X496088Y532000D02*
X496412D01*
X496000Y531361D02*
Y531757D01*
X496500Y531361D02*
Y531757D01*
X493750Y530450D02*
X493220Y528980D01*
X493750Y529700*
X494280Y528980*
X493750Y530450*
X493227Y529000D02*
X493234D01*
X494266D02*
X494273D01*
X493407Y529500D02*
X493603D01*
X493897D02*
X494093D01*
X493588Y530000D02*
X493912D01*
X493500Y529361D02*
Y529757D01*
X494000Y529361D02*
Y529757D01*
X506250Y532950D02*
X505720Y531480D01*
X506250Y532200*
X506780Y531480*
X506250Y532950*
X505727Y531500D02*
X505734D01*
X506766D02*
X506773D01*
X505907Y532000D02*
X506103D01*
X506397D02*
X506593D01*
X506088Y532500D02*
X506412D01*
X506000Y531861D02*
Y532257D01*
X506500Y531861D02*
Y532257D01*
X506200Y636400D02*
X506730Y637870D01*
X506200Y637150*
X505670Y637870*
X506200Y636400*
X506164Y636500D02*
X506236D01*
X505983Y637000D02*
X506417D01*
X505803Y637500D02*
X505942D01*
X506458D02*
X506597D01*
X506000Y636954D02*
Y637421D01*
X506500Y637231D02*
Y637557D01*
X423200Y598000D02*
X422670Y596530D01*
X423200Y597250*
X423730Y596530*
X423200Y598000*
X422839Y597000D02*
X423016D01*
X423384D02*
X423561D01*
X423020Y597500D02*
X423380D01*
X423200Y598000D02*
X423200D01*
X423000Y596979D02*
Y597446D01*
X423500Y596843D02*
Y597169D01*
X428100Y661150D02*
X429380Y662566D01*
X428100Y661750*
X426820Y662566*
X428100Y661150*
X427784Y661500D02*
X428416D01*
X427332Y662000D02*
X427708D01*
X428492D02*
X428868D01*
X426879Y662500D02*
X426924D01*
X429276D02*
X429321D01*
X427000Y662367D02*
Y662451D01*
X427500Y661814D02*
Y662133D01*
X428000Y661261D02*
Y661814D01*
X428500Y661592D02*
Y662005D01*
X429000Y662145D02*
Y662324D01*
X433857Y659243D02*
X435350Y655000D01*
X435802Y657298*
X438100Y657750*
X433857Y659243*
X435174Y655500D02*
X435448D01*
X434998Y656000D02*
X435547D01*
X434822Y656500D02*
X435645D01*
X434646Y657000D02*
X435743D01*
X434470Y657500D02*
X436829D01*
X434295Y658000D02*
X437389D01*
X434119Y658500D02*
X435968D01*
X433943Y659000D02*
X434547D01*
X434000Y658837D02*
Y659192D01*
X434500Y657416D02*
Y659017D01*
X435000Y655995D02*
Y658841D01*
X435500Y655763D02*
Y658665D01*
X436000Y657337D02*
Y658489D01*
X436500Y657435D02*
Y658313D01*
X437000Y657534D02*
Y658137D01*
X437500Y657632D02*
Y657961D01*
X438000Y657730D02*
Y657785D01*
X585757Y654243D02*
X587250Y650000D01*
X587702Y652298*
X590000Y652750*
X585757Y654243*
X587074Y650500D02*
X587348D01*
X586898Y651000D02*
X587447D01*
X586722Y651500D02*
X587545D01*
X586546Y652000D02*
X587643D01*
X586370Y652500D02*
X588729D01*
X586195Y653000D02*
X589289D01*
X586019Y653500D02*
X587868D01*
X585843Y654000D02*
X586447D01*
X586000Y653553D02*
Y654157D01*
X586500Y652132D02*
Y653981D01*
X587000Y650711D02*
Y653805D01*
X587500Y651271D02*
Y653630D01*
X588000Y652357D02*
Y653454D01*
X588500Y652455D02*
Y653278D01*
X589000Y652553D02*
Y653102D01*
X589500Y652652D02*
Y652926D01*
X590000Y652750D02*
X590000D01*
X695757Y664243D02*
X697250Y660000D01*
X697702Y662298*
X700000Y662750*
X695757Y664243*
X697074Y660500D02*
X697348D01*
X696898Y661000D02*
X697447D01*
X696722Y661500D02*
X697545D01*
X696546Y662000D02*
X697643D01*
X696370Y662500D02*
X698729D01*
X696195Y663000D02*
X699289D01*
X696019Y663500D02*
X697868D01*
X695843Y664000D02*
X696447D01*
X696000Y663553D02*
Y664157D01*
X696500Y662132D02*
Y663981D01*
X697000Y660711D02*
Y663805D01*
X697500Y661271D02*
Y663630D01*
X698000Y662357D02*
Y663454D01*
X698500Y662455D02*
Y663278D01*
X699000Y662553D02*
Y663102D01*
X699500Y662652D02*
Y662926D01*
X700000Y662750D02*
X700000D01*
X705757Y654243D02*
X707250Y650000D01*
X707702Y652298*
X710000Y652750*
X705757Y654243*
X707074Y650500D02*
X707348D01*
X706898Y651000D02*
X707447D01*
X706722Y651500D02*
X707545D01*
X706546Y652000D02*
X707643D01*
X706370Y652500D02*
X708729D01*
X706195Y653000D02*
X709289D01*
X706019Y653500D02*
X707868D01*
X705843Y654000D02*
X706447D01*
X706000Y653553D02*
Y654157D01*
X706500Y652132D02*
Y653981D01*
X707000Y650711D02*
Y653805D01*
X707500Y651271D02*
Y653630D01*
X708000Y652357D02*
Y653454D01*
X708500Y652455D02*
Y653278D01*
X709000Y652553D02*
Y653102D01*
X709500Y652652D02*
Y652926D01*
X710000Y652750D02*
X710000D01*
X332821Y287750D02*
X334046Y288246D01*
X333550Y287021*
X333218Y287623D02*
X334046Y288246D01*
X333423Y287418*
X332800Y287000D02*
X334800Y289000D01*
Y296400*
X330000Y301200*
X329900*
Y346100*
X327900Y348100*
Y366600*
X323700Y370800*
Y392500*
X325500Y394300*
Y424100*
X328700Y427300*
X324500Y287600D02*
Y305200D01*
X328800Y309500*
Y345500*
X326900Y347400*
Y366100*
X322700Y370300*
Y393000*
X324400Y394700*
Y426000*
X327600Y429200*
Y432400*
X320900Y287700D02*
Y345700D01*
X321700Y346500*
Y378700*
X321100Y379300*
Y392900*
X323400Y395200*
Y407700*
X320600Y410500*
Y427200*
X323000Y429600*
X325000*
X336500Y282300D02*
Y363900D01*
X330300Y370100*
Y401700*
X328500Y403500*
Y415300*
X329500Y416300*
Y418500*
X339800Y279200D02*
Y362800D01*
X331400Y371200*
Y402100*
X329500Y404000*
Y407300*
X330700Y409500*
X379500Y291500D02*
Y391100D01*
X384500Y396100*
Y415755*
X382441Y417815*
X367900Y289300D02*
Y296000D01*
X361200Y302700*
Y343900*
X352400Y352700*
Y410900*
X358000Y416500*
Y419700*
X365800Y281600D02*
Y295700D01*
X359400Y302100*
Y344200*
X351400Y352200*
Y414200*
X355600Y418400*
Y421500*
X565600Y294500D02*
G75*
G03X570046Y292750I4235J4235D01*
G01X567260Y290238D02*
G03X565600Y294500I-5681J241D01*
X569317Y292664I4569J4569*
G01X565600Y294500D02*
G03X568868Y292506I5750J5750D01*
G01X565600Y294500D02*
G03X568523Y292320I8956J8955D01*
G01X565600Y294500D02*
G03X568235Y292109I25945J25945D01*
G01X567985Y291871D02*
G03X565600Y294500I-28237J-23223D01*
G01X567762Y291599D02*
G03X565600Y294500I-11020J-5957D01*
G01X567563Y291274D02*
G03X565600Y294500I-7606J-2417D01*
G01X567388Y290860D02*
G03X565600Y294500I-6227J-799D01*
G01X515815Y510955D02*
G03X515300Y509737I1181J-1218D01*
G01X515300D02*
G03X514785Y510955I-1696J0D01*
G01X515445Y510764D02*
G03X515300Y509737I3566J-1027D01*
G01X515300D02*
G03X515155Y510764I-3711J0D01*
G01X570000Y290000D02*
Y290100D01*
X565600Y294500*
X546500*
X544600Y296400*
Y323000*
X537400Y330200*
Y412000*
X535000Y414400*
X517300*
X513700Y418000*
Y441500*
X510400Y444800*
Y450400*
X512700Y452700*
Y489800*
X515300Y492400*
Y511500*
X298200Y336000D02*
Y416200D01*
X293400Y421000*
Y426200*
X295700Y346300D02*
X291600Y350400D01*
Y360000*
X291900Y360300*
Y371000*
X295400Y374500*
Y387400*
X292100Y390700*
Y406100*
X293400Y407400*
Y413600*
X333700Y355062D02*
G03X334215Y353845I1696J0D01*
G01X333185D02*
G03X333700Y355062I-1181J1217D01*
G01Y355063D02*
G03X333845Y354036I3711J-0D01*
G01X333555D02*
G03X333700Y355063I-3566J1027D01*
G01Y353300D02*
Y364600D01*
X328900Y369400*
Y381100*
X328850Y381150*
X329300Y381600*
Y400976*
X327500Y402776*
Y419200*
X330200Y421900*
X345200Y351500D02*
Y367300D01*
X346500Y368600*
X347800*
X349400Y370200*
Y418400*
X350300Y419300*
Y423500*
X316800Y338300D02*
Y350600D01*
X318300Y352100*
Y364900*
X316100Y367100*
Y376100*
X318800Y378800*
Y394200*
X320200Y395600*
Y397900*
X314515Y347645D02*
X314000Y348862D01*
X314000D02*
X313485Y347645D01*
X314145Y347836D02*
X314000Y348862D01*
X314000D02*
X313855Y347836D01*
X314000Y347100D02*
Y393900D01*
X311000Y396900*
Y399200*
X312800Y401000*
Y432100*
X314000Y433300*
Y435400*
X316700Y438100*
X319900Y349100D02*
Y378800D01*
X320100Y379000*
Y393400*
X322400Y395700*
Y406500*
X319600Y409300*
Y436900*
X326600Y443900*
X370800Y349100D02*
Y379900D01*
X376600Y385700*
Y408037*
X378504Y409941*
X402200Y334600D02*
Y367300D01*
X404100Y369200*
Y391000*
X410300Y397200*
Y424300*
X415200Y429200*
Y431300*
X418100Y434200*
X425700*
X429100Y437600*
X451600*
X453900Y439900*
Y456794*
X458228Y461122*
X408900Y345600D02*
Y350300D01*
X413000Y354400*
Y361700*
X414600Y363300*
Y382800*
X415800Y384000*
Y419100*
X416600Y419900*
X422900*
X423700Y420700*
Y431100*
X424800Y432200*
X426900*
X430300Y435600*
X453600*
X455900Y437900*
Y452200*
X460400Y456700*
Y459357*
X462165Y461122*
X405900Y337700D02*
Y349500D01*
X412000Y355600*
Y422700*
X413100Y423800*
X418900*
X419900Y424800*
Y431500*
X421600Y433200*
X426200*
X429600Y436600*
X453100*
X454900Y438400*
Y453857*
X458228Y457185*
X418400Y317500D02*
Y356300D01*
X419800Y357700*
Y374388*
X421812Y376400*
Y389272*
X422500Y322700D02*
Y349000D01*
X423800Y350300*
Y358000*
X422100Y359700*
Y363300*
X423800Y365000*
Y387323*
X425749Y389272*
X392600Y341700D02*
Y346800D01*
X389600Y349800*
Y367342*
X388442Y368500*
Y387400*
X390314Y389272*
X442300Y318400D02*
Y320500D01*
X441800Y321000*
Y361996*
X441800D02*
X440596Y363200D01*
X440596D02*
Y396100D01*
X440596D02*
X441496Y397000D01*
X441496D02*
Y402067D01*
X446900Y319500D02*
Y332000D01*
X446933Y332033*
X446933D02*
Y364900D01*
X446933D02*
X445433Y366400D01*
X445433D02*
Y402067D01*
X439600Y342600D02*
Y345300D01*
X437800Y347100*
Y361900*
X439400Y363500*
Y383860*
X437560Y385700*
Y389272*
X436500Y325500D02*
Y328000D01*
X436800Y328300*
Y344000*
X434700Y346100*
Y363500*
X433623Y364577*
Y389272*
X426500Y316400D02*
Y332400D01*
X427500Y333400*
Y362200*
X429600Y364300*
Y383400*
X427900Y385100*
Y394200*
X429685Y395985*
X429685D02*
Y402067D01*
X430100Y325000D02*
Y328300D01*
X431500Y329700*
Y357200*
X432200Y357900*
Y361900*
X431200Y362900*
Y383386*
X429686Y384900*
Y389272*
X457000Y320400D02*
Y353400D01*
X452900Y357500*
Y369200*
X455100Y371400*
Y373933*
X454233Y374800*
Y401400*
X454900Y402067*
X458228*
X432500Y316400D02*
Y355000D01*
X433400Y355900*
Y363300*
X432400Y364300*
Y384700*
X431600Y385500*
Y391478*
X431600D02*
X433622Y393500D01*
X433622D02*
Y402067D01*
X462400Y321500D02*
Y348400D01*
X460400Y350400*
Y395235*
X462165Y397000*
Y402067*
X438500Y317400D02*
Y330300D01*
X437800Y331000*
Y345300*
X435700Y347400*
Y394100*
X437559Y395959*
X437559D02*
Y402067D01*
X443600Y322200D02*
Y324400D01*
X443000Y325000*
Y362300*
X441600Y363700*
Y367900*
X443300Y369600*
Y408137*
X441496Y409941*
X464300Y330100D02*
Y339100D01*
X466500Y341300*
Y382600*
X464300Y384800*
Y398800*
X465200Y399700*
Y405900*
X463100Y408000*
X460169*
X458228Y409941*
X451500Y342500D02*
Y355300D01*
X448000Y358800*
Y364700*
X449400Y366100*
Y392137*
X447537Y394000*
Y403900*
X445433Y406004*
X453200Y325900D02*
Y334763D01*
X453250Y334813*
Y355400*
X451850Y356800*
Y362600*
X450400Y364050*
Y382600*
X453089Y385289*
Y402285*
X445433Y409941*
X460000Y343500D02*
X458200Y345300D01*
Y354800*
X459400Y356000*
Y371100*
X455700Y374800*
Y392700*
X460000Y397000*
Y404232*
X458228Y406004*
X464600Y346000D02*
Y383000D01*
X463200Y384400*
Y399400*
X464200Y400400*
Y403969*
X462165Y406004*
X467500Y333600D02*
Y338000D01*
X468700Y339200*
Y405841*
X464600Y409941*
X462165*
X469700Y321500D02*
Y406606D01*
X464400Y411906*
X460200*
X458228Y413878*
X474200Y323900D02*
Y404378D01*
X464700Y413878*
X462165*
X293700Y369100D02*
X296400Y371800D01*
Y398700*
X293900Y401200*
X290800Y379600D02*
Y382300D01*
X291700Y383200*
Y389600*
X291100Y390200*
Y413600*
X291500Y415900*
X290100Y369100D02*
X287900Y371300D01*
Y373200*
X286400Y374700*
Y403500*
X288300Y405400*
Y408900*
X290800Y376700D02*
X288100Y379400D01*
Y385100*
X290100Y387100*
Y412300*
X289200Y413200*
Y418300*
X289700Y418800*
X291900*
X284450Y500579D02*
X283954Y499354D01*
X285179Y499850*
X284577Y500182D02*
X283954Y499354D01*
X284782Y499977*
X280300Y386200D02*
X278700Y387800D01*
Y427700*
X283500Y432500*
Y437900*
X281400Y440000*
Y496800*
X285200Y500600*
X282900Y391200D02*
X280200Y393900D01*
Y426000*
X284600Y430400*
Y440000*
X283400Y441200*
Y468900*
X305700Y366300D02*
X300000Y372000D01*
Y469800*
X304700Y474500*
X307400*
X326200Y370900D02*
X324700Y372400D01*
Y392000*
X326500Y393800*
Y420200*
X327700Y421400*
Y423800*
X316300Y360200D02*
Y363700D01*
X315000Y365000*
Y393800*
X318200Y397000*
Y404500*
X316400Y406300*
Y431200*
X316900Y431700*
Y435300*
X308000Y361200D02*
Y363500D01*
X309100Y364600*
Y374100*
X305800Y377400*
Y382700*
X307600Y384500*
Y398000*
X311800Y402200*
Y433600*
X313000Y434800*
Y445800*
X316500Y449300*
X362200Y359600D02*
X359700Y362100D01*
Y388800*
X360200Y389300*
Y402300*
X362500Y404600*
Y423100*
X367100Y427700*
X380800*
X382726Y429626*
X382726D02*
X386378D01*
X348000Y365700D02*
X350400Y368100D01*
Y416900*
X353200Y419700*
Y423300*
X362300Y362600D02*
Y366800D01*
X360700Y368400*
Y388300*
X361600Y389200*
Y401600*
X363500Y403500*
Y421700*
X365600Y423800*
X384489*
X386378Y425689*
X382400Y358000D02*
Y391000D01*
X388200Y396800*
Y415992*
X386378Y417815*
X392600Y355300D02*
Y366100D01*
X390300Y368400*
Y385317*
X400100Y360300D02*
Y400155D01*
X398189Y402067*
X333000Y404800D02*
X335200D01*
X337200Y406800*
Y422300*
X337800Y422900*
Y425300*
X336300Y426800*
Y445000*
X330700Y450600*
Y479300*
X333400Y482000*
Y511300*
X369800Y547700*
X378000*
X395200Y564900*
Y578800*
X399000Y582600*
X333000Y404800D02*
X331300Y406500D01*
X313415Y569955D02*
X312900Y568737D01*
X312900D02*
X312385Y569955D01*
X313045Y569764D02*
X312900Y568737D01*
X312900D02*
X312755Y569764D01*
X306700Y400000D02*
X310700Y404000D01*
Y410800*
X304000Y417500*
Y467800*
X305700Y469500*
X310000*
X312900Y472400*
Y570500*
X306700Y402700D02*
X309500Y405500D01*
Y410300*
X303000Y416800*
Y468300*
X305300Y470600*
X309000*
X311600Y473200*
Y549600*
X310700Y550500*
Y575500*
X306700Y405500D02*
X308500Y407300D01*
Y409800*
X302000Y416300*
Y468800*
X304800Y471600*
X308500*
X310600Y473700*
Y549100*
X308900Y550800*
Y572900*
X306700Y409100D02*
X301000Y414800D01*
Y469300*
X304300Y472600*
X308000*
X309600Y474200*
Y548600*
X306600Y551600*
Y577900*
X309700Y423500D02*
Y433000D01*
X311700Y435000*
Y461200*
X313200Y462700*
Y468100*
X317600Y472500*
X333600Y409400D02*
X335200Y411000D01*
Y420700*
X333100Y422800*
Y426900*
X334200Y428000*
Y444100*
X327100Y451200*
Y508000*
X368800Y549700*
X377000*
X393100Y565800*
Y587400*
X387700Y592800*
Y609600*
X339600Y423500D02*
Y426100D01*
X337500Y428200*
Y445300*
X331700Y451100*
Y478800*
X334400Y481500*
Y510800*
X370300Y546700*
X378500*
X392400Y560600*
X394900*
X330900Y414900D02*
Y417400D01*
X332000Y418500*
Y427700*
X333200Y428900*
Y443600*
X326100Y450700*
Y508500*
X368300Y550700*
X376500*
X391300Y565500*
Y578500*
X334500Y406600D02*
X336200Y408300D01*
Y422800*
X336800Y423400*
Y424800*
X335200Y426400*
Y444600*
X328100Y451700*
Y507500*
X369300Y548700*
X377500*
X394200Y565400*
Y589800*
X389700Y594300*
Y607200*
X404915Y618155D02*
X404400Y616937D01*
X404400D02*
X403885Y618155D01*
X404545Y617964D02*
X404400Y616937D01*
X404400D02*
X404255Y617964D01*
X359700Y413900D02*
Y417300D01*
X359800Y417400*
Y425400*
X348800Y436400*
Y441700*
X337900Y452600*
X336400*
X333700Y455300*
Y477800*
X336500Y480600*
Y509000*
X371800Y544300*
X379100*
X389800Y555000*
X393500*
X399800Y561300*
Y580900*
X404400Y585500*
Y618700*
X413415Y589355D02*
X412900Y588137D01*
X412900D02*
X412385Y589355D01*
X413045Y589164D02*
X412900Y588137D01*
X412900D02*
X412755Y589164D01*
X406063Y406004D02*
X407900Y407841D01*
Y427900*
X400100Y435700*
X392800*
X388900Y439600*
X368400*
X365600Y442400*
X356800*
X354900Y444300*
Y444800*
X344600Y455100*
Y479800*
X345100Y480300*
Y484700*
X344600Y485200*
Y508100*
X372000Y535500*
X379300*
X392600Y548800*
X396300*
X409900Y562400*
Y582000*
X412900Y585000*
Y589900*
X486115Y494155D02*
G03X485600Y492937I1181J-1218D01*
G01X485600D02*
G03X485085Y494155I-1696J0D01*
G01X485745Y493964D02*
G03X485600Y492937I3566J-1027D01*
G01X485600D02*
G03X485455Y493964I-3711J0D01*
G01X417874Y413878D02*
X419997Y416000D01*
X447600*
X455300Y423700*
X475600*
X477600Y425700*
Y427000*
X477700Y427100*
Y427200*
X486800Y436300*
Y441900*
X486400Y442300*
Y461500*
X486900Y462000*
Y469800*
X486700Y470000*
Y482500*
X485600Y483600*
Y494700*
X394252Y425689D02*
X392500Y427440D01*
Y430000*
X387000Y435500*
X353700*
X350800Y438400*
Y442700*
X338900Y454600*
X337400*
X335700Y456300*
Y476800*
X338500Y479600*
Y508000*
X372700Y542200*
X380000*
X390800Y553000*
X394500*
X401800Y560300*
Y579900*
X407300Y585400*
Y634800*
X408100Y635600*
Y637800*
X398189Y425689D02*
X393600Y430277D01*
Y430400*
X387500Y436500*
X367000*
X364200Y439300*
X355400*
X351800Y442900*
Y443200*
X339300Y455700*
X337800*
X336700Y456800*
Y476300*
X339600Y479200*
Y479300*
X342100Y481800*
Y483200*
X341600Y483700*
Y509600*
X370600Y538600*
X377900*
X391300Y552000*
X395000*
X405400Y562400*
Y565000*
X404000Y566400*
Y580600*
X408300Y584900*
Y630000*
X410200Y631900*
Y635900*
X390315Y417815D02*
X388400Y419729D01*
Y430100*
X386900Y431600*
X356100*
X349800Y437900*
Y442200*
X338400Y453600*
X336900*
X334700Y455800*
Y477300*
X337500Y480100*
Y508500*
X372300Y543300*
X379600*
X390300Y554000*
X394000*
X400800Y560800*
Y580400*
X406300Y585900*
Y651600*
X425600Y670900*
X394252Y417815D02*
X396237Y419800D01*
X398800*
X400000Y421000*
Y430300*
X397000Y433300*
X392200*
X388000Y437500*
X367500*
X364700Y440300*
X355900*
X352800Y443400*
Y443900*
X342600Y454100*
Y480800*
X343100Y481300*
Y483700*
X342600Y484200*
Y509100*
X371100Y537600*
X378400*
X391800Y551000*
X395500*
X406400Y561900*
Y565500*
X405000Y566900*
Y580100*
X409300Y584400*
Y627400*
X412600Y630700*
Y656400*
X426100Y669900*
X390336Y402816D02*
G03X391561Y403313I25J1696D01*
X391064Y402088I1199J-1200*
G01X390732Y402689D02*
G03X391561Y403313I-1795J3248D01*
X390937Y402484I2624J-2624*
G01X390315Y402067D02*
X392348Y404100D01*
X406700*
X408900Y406300*
Y430300*
X408100Y431100*
Y445900*
X402800Y451200*
X378000*
X376600Y452600*
Y455200*
X371100Y460700*
Y485600*
X371500Y486000*
Y510400*
X389800Y528700*
Y529200*
X391900Y531300*
X399200*
X412500Y544600*
X406063Y417815D02*
X404100Y419777D01*
Y430200*
X399700Y434600*
X392400*
X388500Y438500*
X368000*
X365200Y441300*
X356400*
X353800Y443900*
Y444400*
X343600Y454600*
Y480300*
X344100Y480800*
Y484200*
X343600Y484700*
Y508600*
X371600Y536600*
X378900*
X392200Y549900*
X395900*
X407400Y561400*
Y566000*
X406000Y567400*
Y579600*
X411100Y584700*
Y615000*
X440900Y419452D02*
X442900D01*
X442900D02*
X444448Y421000D01*
X444448D02*
X447000D01*
X454900Y428900*
X440900Y419452D02*
X437559Y421752D01*
X461800Y426100D02*
X470600D01*
X484000Y439500*
X461800Y426100D02*
X459000Y428900D01*
X454900*
X448400Y411900D02*
X449800D01*
X457700Y419800*
X460800*
X463300Y422300*
X475700*
X487800Y434400*
Y442500*
X487400Y442900*
Y461000*
X487900Y461500*
Y521900*
X448400Y411900D02*
X427726D01*
X425748Y413878*
X462500Y427200D02*
X470000D01*
X481800Y439000*
Y454000*
X479400Y456400*
Y462200*
X481300Y464100*
Y496600*
X482000Y497300*
Y579700*
X480200Y581500*
Y613200*
X485400Y618400*
Y636500*
X462500Y427200D02*
X459600Y430100D01*
X454600*
X440200Y417700D02*
X442700D01*
X444900Y419900*
X447400*
X455200Y427700*
X440200Y417700D02*
X438000Y419900D01*
X431771*
X461700Y424700D02*
X471200D01*
X475200Y428700*
X477700*
X485800Y436800*
Y441200*
X482800Y444200*
Y458900*
X483100Y459200*
Y462000*
X482900Y462200*
Y495700*
X486000Y498800*
Y522700*
X489400Y526100*
X461700Y424700D02*
X458700Y427700D01*
X455200*
X425748Y417815D02*
X427600Y419666D01*
Y422600*
X428900Y423900*
X448400*
X454600Y430100*
X429685Y417815D02*
X431771Y419900D01*
X433622Y425689D02*
X435634Y427700D01*
X450600*
X454800Y431900*
X473200*
X477500Y436200*
Y462300*
X479500Y464300*
Y467400*
X540000Y420000D02*
X536200Y423800D01*
Y462900*
X540900Y467600*
Y471400*
X527215Y471255D02*
X526700Y470037D01*
X526700D02*
X526185Y471255D01*
X526845Y471064D02*
X526700Y470037D01*
X526700D02*
X526555Y471064D01*
X530000Y420000D02*
X533800Y423800D01*
Y446200*
X526700Y453300*
Y471800*
X580000Y430000D02*
Y504500D01*
Y420000D02*
X575300Y424700D01*
Y502400*
X570000Y436463D02*
G03X571889Y431998I6219J-0D01*
G01X568111D02*
G03X570000Y436463I-4330J4465D01*
G01Y436462D02*
G03X571336Y432404I6833J0D01*
G01X570000Y436462D02*
G03X570909Y432595I8679J1D01*
G01X570000Y436463D02*
G03X570531Y432698I13607J-0D01*
G01X570000Y436462D02*
G03X570175Y432744I39622J0D01*
G01X569825D02*
G03X570000Y436462I-39447J3718D01*
G01X569469Y432698D02*
G03X570000Y436463I-13076J3765D01*
G01X569091Y432595D02*
G03X570000Y436462I-7770J3868D01*
G01X568664Y432404D02*
G03X570000Y436462I-5497J4058D01*
G01Y430000D02*
Y506500D01*
X550000Y430000D02*
Y476400D01*
Y420000D02*
X546200Y423800D01*
Y446800*
X546900Y447500*
Y475400*
X546400Y475900*
Y489100*
X280915Y436845D02*
X280400Y438062D01*
X280400D02*
X279885Y436845D01*
X280545Y437036D02*
X280400Y438062D01*
X280400D02*
X280255Y437036D01*
X280400Y436300D02*
Y500900D01*
X283100Y503000*
X318200Y453300D02*
Y460200D01*
X319700Y461700*
Y501400*
X314900Y506200*
Y537900*
X320100Y455200D02*
Y459900D01*
X320900Y460700*
Y502700*
X317100Y506500*
Y540800*
X314800Y543100*
Y553000*
X316700Y443200D02*
Y445900D01*
X324000Y453200*
Y512600*
X386900Y575500*
X337000Y448400D02*
X332700Y452700D01*
Y478300*
X335500Y481100*
Y510400*
X370800Y545700*
X379000*
X390900Y557600*
X394600*
X398000Y561000*
Y568900*
X356054Y541054D02*
G03X356550Y542279I-1200J1199D01*
G01X357279Y541550D02*
G03X356054Y541054I-26J-1696D01*
X356677Y541882I-2624J2624*
G01X356882Y541677D02*
G03X356054Y541054I1796J-3247D01*
G01X331000Y442300D02*
Y444300D01*
X325100Y450200*
Y510100*
X357300Y542300*
X363200Y459100D02*
X360200D01*
X358200Y461100*
X363200Y459100D02*
X365700Y461600D01*
Y483200*
X369400Y486900*
Y511300*
X387800Y529700*
Y530200*
X390900Y533300*
X396500*
X420000Y556800*
Y572500*
X418700Y573800*
Y581800*
X419700Y582800*
Y610900*
X419500Y612900*
X413415Y623355D02*
G03X412900Y622137I1181J-1218D01*
G01X412900D02*
G03X412385Y623355I-1696J0D01*
G01X413045Y623164D02*
G03X412900Y622137I3566J-1027D01*
G01X412900D02*
G03X412755Y623164I-3711J0D01*
G01X359798Y443400D02*
X357300D01*
X356000Y444700*
Y445200*
X345900Y455300*
Y470500*
X350400Y475000*
Y512400*
X372400Y534400*
X379700*
X393000Y547700*
X396700*
X411000Y562000*
Y581600*
X414700Y585300*
Y590600*
X412100Y593200*
Y612300*
X412900Y613100*
Y623900*
X359798Y443400D02*
X361772Y445374D01*
X357835D02*
Y449065D01*
X346900Y460000*
Y470000*
X351400Y474500*
Y511900*
X372900Y533400*
X380200*
X393400Y546600*
X397100*
X412100Y561600*
Y581200*
X415700Y584800*
Y591100*
X413100Y593700*
Y611800*
X414800Y613500*
Y649000*
X415900Y650100*
Y656600*
X379019Y473478D02*
X378504Y474696D01*
X378504D02*
X377988Y473478D01*
X378648Y473669D02*
X378504Y474696D01*
X378504D02*
X378359Y473669D01*
X423715Y595455D02*
G03X423200Y594237I1181J-1218D01*
G01X423200D02*
G03X422685Y595455I-1696J0D01*
G01X423345Y595264D02*
G03X423200Y594237I3566J-1027D01*
G01X423200D02*
G03X423055Y595264I-3711J0D01*
G01X378504Y472933D02*
Y479400D01*
X378504D02*
X378200Y479704D01*
X378200D02*
Y509000D01*
X380600Y511400*
Y516000*
X387100Y522500*
Y523000*
X391800Y527700*
Y528200*
X392900Y529300*
X400200*
X406500Y535600*
X411600*
X423300Y547300*
Y590300*
X423200Y590400*
Y596000*
X418654Y545154D02*
G03X419150Y546379I-1200J1199D01*
G01X419879Y545650D02*
G03X418654Y545154I-26J-1696D01*
X419277Y545982I-2624J2624*
G01X419482Y545777D02*
G03X418654Y545154I1796J-3247D01*
G01X374567Y472933D02*
Y478867D01*
X374567D02*
X377000Y481300D01*
Y513900*
X386000Y522900*
Y523400*
X390800Y528200*
Y528700*
X392400Y530300*
X399700*
X406800Y537400*
X410900*
X419900Y546400*
X392850Y527479D02*
X392354Y526254D01*
X393579Y526750*
X392977Y527082D02*
X392354Y526254D01*
X393182Y526877*
X382441Y468996D02*
X380500Y470937D01*
Y491400*
X379200Y492700*
Y508500*
X382300Y511600*
X386000*
X391900Y517500*
Y525800*
X393600Y527500*
X378504Y449311D02*
X375989D01*
X375989D02*
X366900Y458400D01*
Y482900*
X370400Y486400*
Y510800*
X388800Y529200*
Y529700*
X391400Y532300*
X397000*
X421000Y556300*
Y573600*
X420500Y574100*
Y578500*
X361772Y449311D02*
X359289D01*
X347900Y460700*
Y469500*
X352500Y474100*
Y511500*
X373400Y532400*
X380700*
X393800Y545500*
X398700*
X410300Y557100*
X361772Y454678D02*
G03X362239Y453834I995J0D01*
G01X361304D02*
G03X361772Y454678I-528J844D01*
X361899Y453987I1934J0*
G01X361644D02*
G03X361772Y454678I-1807J691D01*
G01Y453248D02*
Y454678D01*
X356400Y460050*
Y465500*
X359800Y468900*
Y509700*
X376600Y526500*
X379300*
X389200Y536400*
X395100*
X416200Y557500*
Y570800*
X357835Y453248D02*
Y456965D01*
X355200Y459600*
Y465800*
X358700Y469300*
Y510100*
X376200Y527600*
X378900*
X388700Y537400*
X394600*
X414400Y557200*
Y573200*
X414900Y573700*
Y578400*
X349700Y462300D02*
Y468400D01*
X356400Y475100*
Y513900*
X373900Y531400*
X381200*
X388200Y538400*
X394100*
X413400Y557700*
Y568200*
X413100Y568500*
Y580700*
X416700Y584300*
Y603100*
X414900Y604900*
Y611100*
X361772Y461122D02*
Y473528D01*
X360800Y474500*
Y508200*
X377300Y524700*
X352800Y462300D02*
Y470000D01*
X357500Y474700*
Y510400*
X374600Y527500*
Y529600*
X433115Y633455D02*
X432600Y632237D01*
X432600D02*
X432085Y633455D01*
X432745Y633264D02*
X432600Y632237D01*
X432600D02*
X432455Y633264D01*
X390315Y472933D02*
Y477300D01*
X390315D02*
X396200Y483185D01*
X396200D02*
Y507300D01*
X396900Y508000*
Y513300*
X429000Y545400*
Y600100*
X431900Y603000*
Y613300*
X432600Y614000*
Y634000*
X443415Y647155D02*
X442900Y645937D01*
X442900D02*
X442385Y647155D01*
X443045Y646964D02*
X442900Y645937D01*
X442900D02*
X442755Y646964D01*
X398189Y472933D02*
X400000Y475750D01*
X401600*
X411200Y485350*
Y508150*
X431950Y528900*
Y536550*
X440150Y544750*
Y583700*
X443350Y586900*
Y598750*
X442650Y599450*
Y616650*
X442900Y616900*
Y647700*
X428415Y649955D02*
X427900Y648737D01*
X427900D02*
X427385Y649955D01*
X428045Y649764D02*
X427900Y648737D01*
X427900D02*
X427755Y649764D01*
X386378Y468996D02*
X384600Y470774D01*
Y478500*
X388400Y482300*
Y509500*
X397100Y518200*
Y523400*
X399700Y526000*
X401800*
X402600Y526800*
X407300*
X427000Y546500*
Y614600*
X424300Y617300*
Y630500*
X427900Y634100*
Y650500*
X403855Y525515D02*
X402637Y525000D01*
X402637D02*
X403855Y524485D01*
X403664Y525145D02*
X402637Y525000D01*
X402637D02*
X403664Y524855D01*
X390315Y465059D02*
X388400Y466974D01*
Y478500*
X392400Y482500*
Y489900*
X391400Y491600*
Y511000*
X398150Y517750*
Y522950*
X400200Y525000*
X404400*
X394252Y461122D02*
X396300Y463171D01*
Y474400*
X398800Y476900*
X401300*
X410100Y485700*
Y508500*
X414700Y513100*
Y518000*
X419700Y523000*
X421900*
X445515Y635055D02*
G03X445000Y633837I1181J-1218D01*
G01X445000D02*
G03X444485Y635055I-1696J0D01*
G01X445145Y634864D02*
G03X445000Y633837I3566J-1027D01*
G01X445000D02*
G03X444855Y634864I-3711J0D01*
G01X398189Y461122D02*
X400166Y463100D01*
X402650*
X404100Y464550*
Y465600*
X405500Y467000*
X406550*
X407850Y468300*
Y476950*
X414300Y483400*
Y489050*
X421150Y495900*
Y513750*
X435100Y527700*
Y535350*
X443150Y543400*
Y569900*
X446250Y573000*
Y606750*
X444050Y608950*
Y631650*
X445000Y632600*
Y635600*
X467115Y635455D02*
X466600Y634237D01*
X466600D02*
X466085Y635455D01*
X466745Y635264D02*
X466600Y634237D01*
X466600D02*
X466455Y635264D01*
X413937Y453248D02*
X415889Y455200D01*
X418400*
X419800Y456600*
Y457700*
X421200Y459100*
X430200*
X431600Y460500*
Y461600*
X433000Y463000*
X442100*
X443500Y464400*
Y473500*
X447300Y477300*
X449400*
X453200Y481100*
Y512700*
X456700Y516200*
Y553450*
X458600Y555350*
Y612000*
X463700Y617100*
Y630500*
X466600Y633400*
Y636000*
X462954Y632854D02*
G03X463450Y634079I-1200J1199D01*
G01X464179Y633350D02*
G03X462954Y632854I-26J-1696D01*
X463577Y633682I-2624J2624*
G01X463782Y633477D02*
G03X462954Y632854I1796J-3247D01*
G01X421811Y461122D02*
X423700Y463011D01*
Y465500*
X425200Y467000*
X426300*
X427700Y468400*
Y469500*
X429100Y470900*
X430200*
X431600Y472300*
Y473400*
X437500Y479300*
X437600*
X443300Y485000*
Y490400*
X442200Y491500*
Y511100*
X446900Y515800*
Y530800*
X452000Y535900*
Y543650*
X454500Y546150*
Y554200*
X456500Y556200*
Y580450*
X457600Y581550*
Y612700*
X462600Y617700*
Y632500*
X464200Y634100*
X452315Y587955D02*
G03X451800Y586737I1181J-1218D01*
G01X451800D02*
G03X451285Y587955I-1696J0D01*
G01X451945Y587764D02*
G03X451800Y586737I3566J-1027D01*
G01X451800D02*
G03X451655Y587764I-3711J0D01*
G01X421811Y468996D02*
X423700Y472300D01*
Y473400*
X425000Y474700*
X425700*
X434700Y483700*
Y502700*
X438400Y506400*
Y512700*
X443900Y518200*
Y532300*
X447150Y535550*
Y552550*
X450100Y555500*
Y574400*
X451800Y576100*
Y588500*
X417874Y461122D02*
X419950Y463198D01*
Y473550*
X422100Y475700*
X425150*
X433600Y484150*
Y503150*
X437050Y506600*
Y513250*
X442800Y519000*
Y532800*
X446150Y536150*
Y557900*
X449100Y560850*
Y592250*
X453700Y596850*
Y603500*
X421811Y465059D02*
X423700Y468400D01*
Y469500*
X425100Y470900*
X426200*
X427700Y472400*
Y474300*
X435800Y482400*
Y502300*
X439500Y506000*
Y512300*
X444900Y517700*
Y531800*
X448150Y535050*
Y547500*
X450950Y550300*
Y553100*
X455500Y557650*
Y584600*
X398189Y468996D02*
X400150Y470958D01*
Y473450*
X401400Y474700*
X402000*
X412250Y484950*
Y501750*
X419050Y508550*
Y514550*
X433000Y528500*
Y536150*
X441150Y544300*
Y583250*
X444400Y586500*
Y603900*
X398189Y465059D02*
X400129Y467000D01*
X402650*
X404100Y468450*
Y474650*
X413250Y483800*
Y501300*
X420100Y508150*
Y514150*
X434050Y528100*
Y535750*
X442150Y543850*
Y579950*
X444500Y582300*
X402126Y461122D02*
X405000Y463100D01*
X406600*
X408900Y465400*
Y476550*
X415350Y483000*
Y485700*
X417350Y487700*
X418700*
X420000Y489000*
Y493300*
X422200Y495500*
Y513350*
X436150Y527300*
Y534950*
X444150Y542950*
Y559850*
X445800Y561500*
X390315Y457185D02*
X388550Y458950D01*
Y461850*
X389800Y463100*
X390850*
X392300Y464550*
Y473500*
X396800Y478000*
X400850*
X409050Y486200*
Y509100*
X412600Y512650*
Y518650*
X439150Y545200*
Y584150*
X442350Y587350*
Y598300*
X441650Y599000*
Y617100*
X441850Y617300*
Y638150*
X440300Y639700*
X413937Y457185D02*
X415900Y459148D01*
Y473300*
X419300Y476700*
X424700*
X432600Y484600*
Y503600*
X433200Y504200*
Y512400*
X438200Y517400*
X413937Y461122D02*
X412100Y462960D01*
Y471000*
X418900Y477800*
X424300*
X431500Y485000*
Y490400*
X431200Y490700*
Y504800*
X431400Y505000*
Y508900*
X390315Y453248D02*
X392300Y455234D01*
Y457800*
X393600Y459100*
X406600*
X410000Y462500*
Y475500*
X416100Y481600*
X420200*
X423600Y485000*
Y491100*
X423200Y491500*
Y512600*
X437200Y526600*
Y532600*
X439175Y534575*
X394252Y453248D02*
X396203Y455200D01*
X406600*
X411000Y459600*
Y471400*
X418500Y478900*
X421400*
X427500Y485000*
Y508700*
X426200Y510000*
Y514100*
X438200Y526100*
Y531100*
X441300Y534200*
Y536650*
X454650Y542679D02*
G03X455146Y541454I1696J-26D01*
X453921Y541950I-1199J-1200*
G01X454523Y542282D02*
G03X455146Y541454I3247J1796D01*
X454318Y542077I-2624J-2624*
G01X437559Y465059D02*
X439500Y467000D01*
Y473500*
X443300Y477300*
X445400*
X449400Y481300*
Y510400*
X455700Y516700*
Y540900*
X453900Y542700*
X463515Y528755D02*
G03X463000Y527537I1181J-1218D01*
G01X463000D02*
G03X462485Y528755I-1696J0D01*
G01X463145Y528564D02*
G03X463000Y527537I3566J-1027D01*
G01X463000D02*
G03X462855Y528564I-3711J0D01*
G01X462165Y468996D02*
X464000Y470831D01*
Y473800*
X463000Y474800*
Y529300*
X437559Y441437D02*
X439522Y443400D01*
X442000*
X443400Y444800*
Y445900*
X444800Y447300*
X445900*
X451900Y453300*
Y458800*
X458000Y464900*
X460600*
X465000Y469300*
Y474600*
X464000Y475600*
Y502400*
X464800Y503200*
Y545100*
X466300Y546600*
Y562000*
X465400Y562900*
Y568400*
X464600Y569200*
Y602800*
X468200Y606400*
X441496Y453248D02*
X444850Y455200D01*
X446000*
X449900Y459100*
Y460300*
X454500Y464900*
Y475800*
X455800Y477100*
X457500*
X460800Y480400*
Y525500*
X460200Y526100*
Y530500*
X462700Y533000*
Y545600*
X460700Y547600*
Y597200*
X461700Y598200*
Y605400*
X457797Y449924D02*
G03X458289Y451073I-1092J1149D01*
X458845Y449737I1881J-0*
G01X458145Y450056D02*
G03X458289Y451073I-3516J1017D01*
X458435Y450032I3783J-0*
G01X458228Y449311D02*
X458289Y449372D01*
Y451089*
X469500Y462300*
Y561700*
X471200Y563400*
Y607900*
X475200Y611900*
Y616900*
X445433Y445374D02*
X451000D01*
X451000D02*
X452900Y447274D01*
X452900D02*
Y458300D01*
X458400Y463800*
X461000*
X468500Y471300*
Y562200*
X470100Y563800*
Y615200*
X475200Y620300*
X458228Y445374D02*
X460300Y447446D01*
Y450200*
X470500Y460400*
Y544700*
X473500Y547700*
Y607900*
X478300Y612700*
Y620500*
X441496Y449311D02*
X443385Y451200D01*
X445900*
X450900Y456200*
Y459300*
X457500Y465900*
X457700*
X460200Y468400*
Y477100*
X462000Y478900*
Y525900*
X461200Y526700*
Y530000*
X463700Y532500*
Y545500*
X465300Y547100*
Y561500*
X464400Y562400*
Y567900*
X463500Y568800*
Y604600*
X465200Y606300*
Y610200*
X433622Y449311D02*
X435700Y451389D01*
Y457900*
X436900Y459100*
X442500*
X443500Y460100*
Y462600*
X444200Y463300*
X449500*
X452300Y466100*
Y477100*
X454200Y479000*
Y481400*
X458800Y486000*
Y523500*
X457700Y524600*
Y552000*
X459700Y554000*
Y606800*
X461000Y608100*
Y610200*
X437559Y449311D02*
X439500Y451252D01*
Y453800*
X440900Y455200*
X442000*
X443400Y456600*
Y457700*
X444800Y459100*
X446800*
X453400Y465700*
Y476700*
X455200Y478500*
Y479800*
X459800Y484400*
Y524700*
X459200Y525300*
Y531100*
X459900Y531800*
Y544500*
X461700Y445400D02*
Y450100D01*
X471600Y460000*
Y540000*
X475500Y543900*
Y562400*
X425748Y461122D02*
X427700Y463074D01*
Y465600*
X429100Y467000*
X430200*
X431600Y468400*
Y469500*
X433000Y470900*
X434100*
X435600Y472400*
Y473500*
X441400Y479300*
X441500*
X448300Y486100*
Y510800*
X453900Y516400*
Y539900*
X474400Y453900D02*
Y457200D01*
X474500*
X475200Y457900*
Y530800*
X479600Y535200*
Y544400*
X468700Y444000D02*
Y447900D01*
X472600Y451800*
Y457400*
X474200Y459000*
Y499100*
X473500Y499800*
Y537000*
X498615Y568855D02*
G03X498100Y567637I1181J-1218D01*
G01X498100D02*
G03X497585Y568855I-1696J0D01*
G01X498245Y568664D02*
G03X498100Y567637I3566J-1027D01*
G01X498100D02*
G03X497955Y568664I-3711J0D01*
G01X489200Y446700D02*
Y456200D01*
X492300Y459300*
Y502700*
X494100Y504500*
Y516000*
X495900Y517800*
Y526150*
X498100Y528350*
Y569400*
X501300Y448562D02*
G03X501815Y447345I1696J0D01*
G01X500785D02*
G03X501300Y448562I-1181J1217D01*
G01Y448563D02*
G03X501445Y447536I3711J-0D01*
G01X501155D02*
G03X501300Y448563I-3566J1027D01*
G01Y446800D02*
Y453100D01*
X501000Y453400*
Y499300*
X504000Y502300*
Y521600*
X511200Y528800*
Y553200*
X512300Y554300*
Y557500*
X492400Y446800D02*
Y457200D01*
X493300Y458100*
Y501800*
X495400Y503900*
Y515400*
X497000Y517000*
Y525700*
X499500Y528200*
Y556300*
X500200Y557000*
Y563400*
X495600Y446800D02*
Y502600D01*
X496500Y503500*
Y515000*
X498100Y516600*
Y525300*
X503000Y530200*
Y576000*
X501400Y577600*
Y655000*
X503400Y657000*
Y664700*
X498500Y446800D02*
Y450800D01*
X496600Y452700*
Y500300*
X500900Y504600*
Y521100*
X509800Y530000*
Y593200*
X511100Y594500*
Y653800*
X526700Y471800D02*
Y483200D01*
X531500Y488000*
Y501300*
X533800Y503600*
Y586900*
X530000Y590700*
Y650000*
X514300Y449600D02*
Y463900D01*
X522200Y471800*
Y481600*
X527200Y486600*
Y514600*
X525400Y516400*
Y534500*
X531100Y540200*
Y559300*
X609500Y445962D02*
G03X610015Y444745I1696J0D01*
G01X608985D02*
G03X609500Y445962I-1181J1217D01*
G01Y445963D02*
G03X609645Y444936I3711J-0D01*
G01X609355D02*
G03X609500Y445963I-3566J1027D01*
G01Y444200D02*
Y463200D01*
Y495800*
X605300Y500000*
Y507300*
X737500Y446700D02*
G03X739388Y442250I6190J0D01*
G01X735612D02*
G03X737500Y446700I-4302J4450D01*
X738835Y442654I6798J0*
G01X737500Y446700D02*
G03X738408Y442846I8632J0D01*
G01X737500Y446700D02*
G03X738030Y442948I13531J0D01*
G01X737500Y446700D02*
G03X737675Y442994I39396J0D01*
G01X737325D02*
G03X737500Y446700I-39221J3706D01*
G01X736970Y442948D02*
G03X737500Y446700I-13001J3752D01*
G01X736592Y442846D02*
G03X737500Y446700I-7724J3854D01*
G01X736165Y442654D02*
G03X737500Y446700I-5463J4046D01*
G01Y440250D02*
Y446700D01*
X740000Y449200*
Y457400*
X742300Y459700*
X752700Y472200D02*
Y537000D01*
X763400Y547700*
Y576200*
X762700Y460300D02*
Y519600D01*
X766200Y523100*
Y580200*
X765100Y581300*
X765000*
Y586200*
X770015Y590655D02*
G03X769500Y589437I1181J-1218D01*
G01X769500D02*
G03X768985Y590655I-1696J0D01*
G01X769645Y590464D02*
G03X769500Y589437I3566J-1027D01*
G01X769500D02*
G03X769355Y590464I-3711J0D01*
G01X770500Y448000D02*
Y465700D01*
X771600Y466800*
Y512700*
X769500Y514800*
Y591200*
X767715Y600755D02*
G03X767200Y599537I1181J-1218D01*
G01X767200D02*
G03X766685Y600755I-1696J0D01*
G01X767345Y600564D02*
G03X767200Y599537I3566J-1027D01*
G01X767200D02*
G03X767055Y600564I-3711J0D01*
G01X763800Y447900D02*
Y454800D01*
X765400Y456400*
Y465800*
X763700Y467500*
Y518900*
X767200Y522400*
Y601300*
X762000Y450300D02*
Y453100D01*
X760500Y454600*
Y466000*
X761300Y466800*
Y481700*
X758600Y484400*
Y497800*
X761700Y500900*
Y520100*
X765200Y523600*
Y578500*
X763100Y580600*
Y588000*
X764500Y589400*
Y596300*
X747500Y440250D02*
X742300Y445550D01*
Y456600*
X423315Y641655D02*
X422800Y640437D01*
X422800D02*
X422285Y641655D01*
X422945Y641464D02*
X422800Y640437D01*
X422800D02*
X422655Y641464D01*
X382441Y485728D02*
Y487918D01*
X382200Y488159*
Y508200*
X383900Y509900*
X385800*
X395000Y519100*
Y524300*
X398700Y528000*
X400500*
X401400Y528900*
X406400*
X425000Y547500*
Y613600*
X422300Y616300*
Y636100*
X422800Y636600*
Y642200*
X417215Y645255D02*
X416700Y644037D01*
X416700D02*
X416185Y645255D01*
X416845Y645064D02*
X416700Y644037D01*
X416700D02*
X416555Y645064D01*
X362600Y485800D02*
Y507500D01*
X385700Y530600*
Y531100*
X390000Y535400*
X395600*
X418000Y557800*
Y571500*
X416700Y572800*
Y582800*
X417700Y583800*
Y609800*
X416700Y610800*
Y645800*
X419515Y659155D02*
X419000Y657937D01*
X419000D02*
X418485Y659155D01*
X419145Y658964D02*
X419000Y657937D01*
X419000D02*
X418855Y658964D01*
X365500Y485700D02*
X368300Y488500D01*
Y511700*
X386700Y530100*
Y530600*
X390500Y534400*
X396100*
X419000Y557300*
Y572000*
X417700Y573300*
Y582300*
X418700Y583300*
Y610300*
X417700Y611300*
Y628900*
X419000Y630200*
Y659700*
X425815Y647655D02*
X425300Y646437D01*
X425300D02*
X424785Y647655D01*
X425445Y647464D02*
X425300Y646437D01*
X425300D02*
X425155Y647464D01*
X386378Y485728D02*
X383200Y488906D01*
Y507700*
X384300Y508800*
X386200*
X396000Y518600*
Y523800*
X399200Y527000*
X401100*
X402000Y527900*
X406900*
X426000Y547000*
Y614100*
X423300Y616800*
Y631000*
X425300Y633000*
Y648200*
X406063Y489665D02*
X406950Y491650D01*
Y509900*
X410500Y513450*
Y519450*
X437150Y546100*
Y585050*
X440350Y588250*
Y593050*
X436800Y596600*
Y609100*
X394252Y489665D02*
X392400Y492452D01*
Y510300*
X428000Y545900*
Y601100*
X428800Y601900*
Y607100*
X398189Y485728D02*
X400000Y487539D01*
Y491000*
X399400Y491600*
Y512800*
X431200Y544600*
Y573900*
X434000Y576700*
X402126Y489665D02*
X400400Y492800D01*
Y512300*
X434800Y546700*
Y566100*
X434000Y566900*
Y573700*
X402126Y485728D02*
X404100Y487702D01*
Y490600*
X401400Y493300*
Y506400*
X403900Y508900*
X404500*
X409450Y513850*
Y519850*
X435800Y546200*
Y577800*
X435000Y578600*
Y581500*
X398189Y489665D02*
Y513089D01*
X430100Y545000*
Y575800*
X433000Y578700*
Y600400*
X406063Y485728D02*
X408000Y487665D01*
Y509500*
X411550Y513050*
Y519050*
X438150Y545650*
Y584600*
X441350Y587800*
Y597850*
X438700Y600500*
X441496Y485728D02*
X439700Y487524D01*
Y500700*
X440800Y501800*
Y511200*
X445900Y516300*
Y531300*
X449150Y534550*
Y536500*
X450150Y539950*
X445433Y485728D02*
X447200Y487495D01*
Y511200*
X449700Y513700*
Y527100*
X451900Y529300*
X450654Y531354D02*
G03X451150Y532579I-1200J1199D01*
G01X451879Y531850D02*
G03X450654Y531354I-26J-1696D01*
X451277Y532182I-2624J2624*
G01X451482Y531977D02*
G03X450654Y531354I1796J-3247D01*
G01X445433Y489665D02*
Y493500D01*
X443200Y495733*
Y508700*
X447900Y513400*
Y528600*
X451900Y532600*
X429685Y489665D02*
Y506465D01*
X429650Y506500*
Y510650*
X431500Y512500*
Y517950*
X441750Y528200*
Y533200*
X445150Y536600*
Y558350*
X448100Y561300*
Y597700*
X467215Y543955D02*
G03X466700Y542737I1181J-1218D01*
G01X466700D02*
G03X466185Y543955I-1696J0D01*
G01X466845Y543764D02*
G03X466700Y542737I3566J-1027D01*
G01X466700D02*
G03X466555Y543764I-3711J0D01*
G01X465800Y476300D02*
Y519500D01*
X466700Y520400*
Y544500*
X602205Y496358D02*
X602200Y507600D01*
X737500Y479750D02*
Y487400D01*
X739600Y489500*
Y497200*
X742100Y499700*
X747500Y479750D02*
Y487700D01*
X744600Y490600*
Y494100*
X742200Y496500*
X419900Y546400D02*
X422300Y548800D01*
Y587200*
X421300Y588200*
Y613600*
X420000Y614900*
Y655700*
X422500Y658200*
Y664800*
X426600Y668900*
X486250Y530100D02*
Y549050D01*
X491800Y554600*
Y647800*
X496250Y530450D02*
Y589150D01*
X496700Y589600*
Y602600*
X495500Y603800*
Y624600*
X497400Y626500*
Y665100*
X500800Y668500*
X495815Y645855D02*
G03X495300Y644637I1181J-1218D01*
G01X495300D02*
G03X494785Y645855I-1696J0D01*
G01X495445Y645664D02*
G03X495300Y644637I3566J-1027D01*
G01X495300D02*
G03X495155Y645664I-3711J0D01*
G01X493750Y528450D02*
Y588150D01*
X495700Y590100*
Y596800*
X494500Y598000*
Y642000*
X495300Y642800*
Y646400*
X503392Y529109D02*
G03X504202Y530154I-829J1479D01*
X504388Y528845I1639J-435*
G01X503799Y529198D02*
G03X504202Y530154I-3184J1907D01*
X504079Y529124I3587J-952*
G01X503750Y528450D02*
X504400Y530900D01*
Y534500*
X504000Y534900*
Y588700*
X505400Y590100*
Y591500*
X504400Y592500*
Y654000*
X514200Y663800*
X506250Y530950D02*
Y537100D01*
X505000Y538350*
Y570900*
X506400Y572300*
Y599700*
X505800Y600300*
Y629000*
X506200Y629400*
Y638400*
X423200Y596000D02*
Y613900D01*
X421000Y616100*
Y653300*
X428100Y660400*
Y665000*
X431300Y668900D02*
X426600D01*
X438100Y655000D02*
X433200Y659900D01*
Y667000*
X431300Y668900*
X575430Y664570D02*
G03X579923Y662749I4398J4397D01*
G01X577251Y660077D02*
G03X575430Y664570I-6218J95D01*
X579245Y662644I4832J4832*
G01X575430Y664570D02*
G03X578808Y662478I6137J6136D01*
G01X575430Y664570D02*
G03X578468Y662283I9622J9622D01*
G01X575430Y664570D02*
G03X578183Y662064I28017J28017D01*
G01X577936Y661817D02*
G03X575430Y664570I-30523J-25264D01*
G01X577717Y661532D02*
G03X575430Y664570I-11909J-6584D01*
G01X577522Y661192D02*
G03X575430Y664570I-8228J-2759D01*
G01X577356Y660755D02*
G03X575430Y664570I-6758J-1017D01*
G01X580000Y660000D02*
X571500Y668500D01*
X500800*
X590000Y650000D02*
X585000Y655000D01*
X579600*
X575000Y659600*
Y660400*
X571600Y663800*
X514200*
X700000Y660000D02*
X689100Y670900D01*
X425600*
X710000Y650000D02*
X705000Y655000D01*
X699600*
X695000Y659600*
Y660400*
X685500Y669900*
X426100*
G54D11*
X423000Y209891D02*
Y203000D01*
X425352Y209891D02*
Y203000D01*
Y209891D02*
X429011Y203000D01*
Y209891D02*
Y203000D01*
X433193Y209891D02*
Y203000D01*
X431364Y209891D02*
X435023D01*
X437375D02*
Y203000D01*
Y209891D02*
X440773D01*
X437375Y206609D02*
X439466D01*
X437375Y203000D02*
X440773D01*
X443125Y209891D02*
Y203000D01*
Y209891D02*
X445477D01*
X446261Y209562*
X446261D02*
X446523Y209234D01*
X446784Y208578*
Y207922*
X446523Y207266*
X446261Y206937*
X446261D02*
X445477Y206609D01*
X443125*
X444955D02*
X446784Y203000D01*
X449136Y209891D02*
Y203000D01*
Y209891D02*
X452795Y203000D01*
Y209891D02*
Y203000D01*
X457239Y209891D02*
X455148Y203000D01*
X457239Y209891D02*
X459330Y203000D01*
X455932Y205297D02*
X458545D01*
X461682Y209891D02*
Y203000D01*
X464818*
X476841Y208906D02*
X476318Y209562D01*
X476318D02*
X475534Y209891D01*
X474489*
X473705Y209562*
X473705D02*
X473182Y208906D01*
Y208250*
X473443Y207594*
X473705Y207266*
X474227Y206937*
X474227D02*
X475795Y206281D01*
X476318Y205953*
X476580Y205625*
X476841Y204969*
Y203984*
X476318Y203328*
X475534Y203000*
X474489*
X473705Y203328*
X473182Y203984*
X479193Y209891D02*
Y203000D01*
X485466Y208250D02*
X485205Y208906D01*
X484682Y209562*
X484682D02*
X484159Y209891D01*
X483114*
X482591Y209562*
X482591D02*
X482068Y208906D01*
X481807Y208250*
X481545Y207266*
Y205625*
X481807Y204641*
X482068Y203984*
X482591Y203328*
X483114Y203000*
X484159*
X484682Y203328*
X485205Y203984*
X485466Y204641*
Y205625*
X484159D02*
X485466D01*
X487818Y209891D02*
Y203000D01*
Y209891D02*
X491477Y203000D01*
Y209891D02*
Y203000D01*
X495920Y209891D02*
X493830Y203000D01*
X495920Y209891D02*
X498011Y203000D01*
X494614Y205297D02*
X497227D01*
X500364Y209891D02*
Y203000D01*
X503500*
X513693Y211203D02*
X513170Y210547D01*
X512648Y209562*
X512648D02*
X512125Y208250D01*
X511864Y206609*
Y205297*
X512125Y203656*
X512648Y202344*
X513170Y201359*
X513693Y200703*
X516045Y209891D02*
Y203000D01*
X519182*
X523625Y209891D02*
X521534Y203000D01*
X523625Y209891D02*
X525716Y203000D01*
X522318Y205297D02*
X524932D01*
X528068Y209891D02*
X530159Y206609D01*
Y203000*
X532250Y209891D02*
X530159Y206609D01*
X534602Y209891D02*
Y203000D01*
Y209891D02*
X538000D01*
X534602Y206609D02*
X536693D01*
X534602Y203000D02*
X538000D01*
X540352Y209891D02*
Y203000D01*
Y209891D02*
X542705D01*
X543489Y209562*
X543489D02*
X543750Y209234D01*
X544011Y208578*
Y207922*
X543750Y207266*
X543489Y206937*
X543489D02*
X542705Y206609D01*
X540352*
X542182D02*
X544011Y203000D01*
X554989Y209891D02*
X552375Y205297D01*
X556295*
X554989Y209891D02*
Y203000D01*
X558648Y211203D02*
X559170Y210547D01*
X559693Y209562*
X559693D02*
X560216Y208250D01*
X560477Y206609*
Y205297*
X560216Y203656*
X559693Y202344*
X559170Y201359*
X558648Y200703*
X370000Y145000D02*
X680000D01*
Y230000*
X370000*
Y145000*
Y200000D02*
X680000D01*
Y212500D02*
X370000D01*
Y175000D02*
X680000D01*
X617500Y200000D02*
Y145000D01*
X570000Y175000D02*
Y145000D01*
X495000Y200000D02*
Y175000D01*
X626864Y171406D02*
X626409Y171125D01*
X625955Y170562*
X625955D02*
X625727Y170000D01*
X625500Y169156*
Y167750*
X625727Y166906*
X625955Y166344*
X626409Y165781*
X626864Y165500*
X627773*
X628227Y165781*
X628682Y166344*
X628909Y166906*
X629136Y167750*
Y169156*
X628909Y170000*
X628682Y170562*
X628682D02*
X628227Y171125D01*
X627773Y171406*
X626864*
X627545Y166625D02*
X628909Y164937D01*
X634591Y170000D02*
X634364Y170562D01*
X634364D02*
X633909Y171125D01*
X633455Y171406*
X632545*
X632091Y171125*
X631636Y170562*
X631636D02*
X631409Y170000D01*
X631182Y169156*
Y167750*
X631409Y166906*
X631636Y166344*
X632091Y165781*
X632545Y165500*
X633455*
X633909Y165781*
X634364Y166344*
X634591Y166906*
X636636Y171406D02*
Y165500D01*
Y171406D02*
X638227D01*
X638909Y171125*
X639364Y170562*
X639364D02*
X639591Y170000D01*
X639818Y169156*
Y167750*
X639591Y166906*
X639364Y166344*
X638909Y165781*
X638227Y165500*
X636636*
X649364Y171406D02*
Y166906D01*
X649136Y166062*
X649136D02*
X648909Y165781D01*
X648455Y165500*
X648000*
X647545Y165781*
X647318Y166062*
X647318D02*
X647091Y166906D01*
Y167469*
X652773Y171406D02*
X652318Y171125D01*
X651864Y170562*
X651864D02*
X651636Y170000D01*
X651409Y169156*
Y167750*
X651636Y166906*
X651864Y166344*
X652318Y165781*
X652773Y165500*
X653682*
X654136Y165781*
X654591Y166344*
X654818Y166906*
X655045Y167750*
Y169156*
X654818Y170000*
X654591Y170562*
X654591D02*
X654136Y171125D01*
X653682Y171406*
X652773*
X657091D02*
Y165500D01*
Y171406D02*
X659136D01*
X659818Y171125*
X660045Y170844*
X660273Y170281*
Y169719*
X660045Y169156*
X659818Y168875*
X659136Y168594*
X657091D02*
X659136D01*
X659818Y168312*
X659818D02*
X660045Y168031D01*
X660273Y167469*
Y166625*
X660045Y166062*
X660045D02*
X659818Y165781D01*
X659136Y165500*
X657091*
X669364Y172531D02*
X667773Y163531D01*
X670727Y172531D02*
X669136Y163531D01*
X667773Y168875D02*
X670955D01*
X667545Y167187D02*
X670727D01*
X375500Y154219D02*
X375864Y154437D01*
X375864D02*
X376409Y155094D01*
Y150500*
X380591Y155094D02*
X378773Y150500D01*
X378045Y155094D02*
X380591D01*
X383318D02*
X382773Y154875D01*
X382409Y154219*
X382227Y153125*
Y152469*
X382409Y151375*
X382773Y150719*
X383318Y150500*
X383682*
X384227Y150719*
X384591Y151375*
X384773Y152469*
Y153125*
X384591Y154219*
X384227Y154875*
X383682Y155094*
X383318*
X387500D02*
X386955Y154875D01*
X386591Y154219*
X386409Y153125*
Y152469*
X386591Y151375*
X386955Y150719*
X387500Y150500*
X387864*
X388409Y150719*
X388773Y151375*
X388955Y152469*
Y153125*
X388773Y154219*
X388409Y154875*
X387864Y155094*
X387500*
X396045D02*
Y150500D01*
X394773Y155094D02*
X397318D01*
X398955D02*
Y150500D01*
X401500Y155094D02*
Y150500D01*
X398955Y152906D02*
X401500D01*
X404227Y155094D02*
X403864Y154875D01*
X403500Y154437*
X403500D02*
X403318Y154000D01*
X403136Y153344*
Y152250*
X403318Y151594*
X403500Y151156*
X403864Y150719*
X404227Y150500*
X404955*
X405318Y150719*
X405682Y151156*
X405864Y151594*
X406045Y152250*
Y153344*
X405864Y154000*
X405682Y154437*
X405682D02*
X405318Y154875D01*
X404955Y155094*
X404227*
X407682D02*
Y150500D01*
Y155094D02*
X409136Y150500D01*
X410591Y155094D02*
X409136Y150500D01*
X410591Y155094D02*
Y150500D01*
X413682Y155094D02*
X412227Y150500D01*
X413682Y155094D02*
X415136Y150500D01*
X412773Y152031D02*
X414591D01*
X419318Y154437D02*
X418955Y154875D01*
X418409Y155094*
X417682*
X417136Y154875*
X416773Y154437*
X416773D02*
Y154000D01*
X416955Y153562*
X416955D02*
X417136Y153344D01*
X417500Y153125*
X418591Y152687*
X418591D02*
X418955Y152469D01*
X419136Y152250*
X419318Y151812*
X419318D02*
Y151156D01*
X418955Y150719*
X418409Y150500*
X417682*
X417136Y150719*
X416773Y151156*
X425136Y155094D02*
Y150500D01*
Y155094D02*
X426773D01*
X427318Y154875*
X427500Y154656*
X427682Y154219*
Y153562*
X427682D02*
X427500Y153125D01*
X427318Y152906*
X426773Y152687*
X426773D02*
X425136D01*
X430773Y155094D02*
X429318Y150500D01*
X430773Y155094D02*
X432227Y150500D01*
X429864Y152031D02*
X431682D01*
X433864Y155094D02*
Y150500D01*
X435500Y155094D02*
Y150500D01*
Y155094D02*
X438045Y150500D01*
Y155094D02*
Y150500D01*
X439682Y155094D02*
Y150500D01*
Y155094D02*
X442045D01*
X439682Y152906D02*
X441136D01*
X439682Y150500D02*
X442045D01*
X447864Y155094D02*
Y150500D01*
Y155094D02*
X449500D01*
X450045Y154875*
X450227Y154656*
X450409Y154219*
Y153562*
X450409D02*
X450227Y153125D01*
X450045Y152906*
X449500Y152687*
X449500D02*
X447864D01*
X453500Y155094D02*
X452045Y150500D01*
X453500Y155094D02*
X454955Y150500D01*
X452591Y152031D02*
X454409D01*
X456591Y155094D02*
Y150500D01*
Y155094D02*
X458227D01*
X458773Y154875*
X458955Y154656*
X459136Y154219*
Y153781*
X458955Y153344*
X458773Y153125*
X458227Y152906*
X456591*
X457864D02*
X459136Y150500D01*
X460773Y155094D02*
Y150500D01*
X463318Y155094D02*
X460773Y152031D01*
X461682Y153125D02*
X463318Y150500D01*
X464955Y155094D02*
X465864Y150500D01*
X466773Y155094D02*
X465864Y150500D01*
X466773Y155094D02*
X467682Y150500D01*
X468591Y155094D02*
X467682Y150500D01*
X471682Y155094D02*
X470227Y150500D01*
X471682Y155094D02*
X473136Y150500D01*
X470773Y152031D02*
X472591D01*
X474773Y155094D02*
X476227Y152906D01*
Y150500*
X477682Y155094D02*
X476227Y152906D01*
X486227Y154000D02*
X486045Y154437D01*
X486045D02*
X485682Y154875D01*
X485318Y155094*
X484591*
X484227Y154875*
X483864Y154437*
X483864D02*
X483682Y154000D01*
X483500Y153344*
Y152250*
X483682Y151594*
X483864Y151156*
X484227Y150719*
X484591Y150500*
X485318*
X485682Y150719*
X486045Y151156*
X486227Y151594*
X487864Y155094D02*
Y150500D01*
Y155094D02*
X490227D01*
X487864Y152906D02*
X489318D01*
X487864Y150500D02*
X490227D01*
X491864Y155094D02*
Y150500D01*
Y155094D02*
X494409Y150500D01*
Y155094D02*
Y150500D01*
X497318Y155094D02*
Y150500D01*
X496045Y155094D02*
X498591D01*
X500227D02*
Y150500D01*
Y155094D02*
X502591D01*
X500227Y152906D02*
X501682D01*
X500227Y150500D02*
X502591D01*
X504227Y155094D02*
Y150500D01*
Y155094D02*
X505864D01*
X506409Y154875*
X506591Y154656*
X506773Y154219*
Y153781*
X506591Y153344*
X506409Y153125*
X505864Y152906*
X504227*
X505500D02*
X506773Y150500D01*
X508409Y155094D02*
X509864Y150500D01*
X511318Y155094D02*
X509864Y150500D01*
X512955Y155094D02*
Y150500D01*
X514591Y155094D02*
Y150500D01*
X516773*
X518409Y155094D02*
Y150500D01*
X520591*
X522227Y155094D02*
Y150500D01*
Y155094D02*
X524591D01*
X522227Y152906D02*
X523682D01*
X522227Y150500D02*
X524591D01*
X526591Y150719D02*
X526409Y150500D01*
X526227Y150719*
X526409Y150937*
X526409D02*
X526591Y150719D01*
Y150281*
X526409Y149844*
X526227Y149625*
X533500Y155094D02*
X533136Y154875D01*
X532773Y154437*
X532773D02*
X532591Y154000D01*
X532409Y153344*
Y152250*
X532591Y151594*
X532773Y151156*
X533136Y150719*
X533500Y150500*
X534227*
X534591Y150719*
X534955Y151156*
X535136Y151594*
X535318Y152250*
Y153344*
X535136Y154000*
X534955Y154437*
X534955D02*
X534591Y154875D01*
X534227Y155094*
X533500*
X536955D02*
Y150500D01*
X539500Y155094D02*
Y150500D01*
X536955Y152906D02*
X539500D01*
X547136Y155094D02*
X545318Y152031D01*
X548045*
X547136Y155094D02*
Y150500D01*
X552045Y155094D02*
X550227D01*
X550045Y153125*
X550227Y153344*
X550773Y153562*
X550773D02*
X551318D01*
X551318D02*
X551864Y153344D01*
X552227Y152906*
X552409Y152250*
X552227Y151812*
X552227D02*
X552045Y151156D01*
X551682Y150719*
X551136Y150500*
X550591*
X550045Y150719*
X549864Y150937*
X549864D02*
X549682Y151375D01*
X555864Y155094D02*
X554045Y152031D01*
X556773*
X555864Y155094D02*
Y150500D01*
X560773Y155094D02*
X558955D01*
X558773Y153125*
X558955Y153344*
X559500Y153562*
X559500D02*
X560045D01*
X560045D02*
X560591Y153344D01*
X560955Y152906*
X561136Y152250*
X560955Y151812*
X560955D02*
X560773Y151156D01*
X560409Y150719*
X559864Y150500*
X559318*
X558773Y150719*
X558591Y150937*
X558591D02*
X558409Y151375D01*
X565136Y153562D02*
X564955Y152906D01*
X564591Y152469*
X564045Y152250*
X563864*
X563318Y152469*
X562955Y152906*
X562773Y153562*
X562773D02*
Y153781D01*
X562955Y154437*
X562955D02*
X563318Y154875D01*
X563864Y155094*
X564045*
X564591Y154875*
X564955Y154437*
X564955D02*
X565136Y153562D01*
X565136D02*
Y152469D01*
X564955Y151375*
X564591Y150719*
X564045Y150500*
X563682*
X563136Y150719*
X562955Y151156*
X377318Y208906D02*
X375500Y203000D01*
X377318Y208906D02*
X379136Y203000D01*
X376182Y204969D02*
X378455D01*
X381182Y208906D02*
Y203000D01*
Y208906D02*
X383227D01*
X383909Y208625*
X384136Y208344*
X384364Y207781*
Y207219*
X384136Y206656*
X383909Y206375*
X383227Y206094*
X381182*
X382773D02*
X384364Y203000D01*
X388000Y208906D02*
Y203000D01*
X386409Y208906D02*
X389591D01*
X391636D02*
X392773Y203000D01*
X393909Y208906D02*
X392773Y203000D01*
X393909Y208906D02*
X395045Y203000D01*
X396182Y208906D02*
X395045Y203000D01*
X399591Y208906D02*
X399136Y208625D01*
X398682Y208062*
X398682D02*
X398455Y207500D01*
X398227Y206656*
Y205250*
X398455Y204406*
X398682Y203844*
X399136Y203281*
X399591Y203000*
X400500*
X400955Y203281*
X401409Y203844*
X401636Y204406*
X401864Y205250*
Y206656*
X401636Y207500*
X401409Y208062*
X401409D02*
X400955Y208625D01*
X400500Y208906*
X399591*
X403909D02*
Y203000D01*
Y208906D02*
X405955D01*
X406636Y208625*
X406864Y208344*
X407091Y207781*
Y207219*
X406864Y206656*
X406636Y206375*
X405955Y206094*
X403909*
X405500D02*
X407091Y203000D01*
X409136Y208906D02*
Y203000D01*
X412318Y208906D02*
X409136Y204969D01*
X410273Y206375D02*
X412318Y203000D01*
X414591Y206937D02*
X414364Y206656D01*
X414591Y206375*
X414818Y206656*
X414591Y206937*
Y203562D02*
X414364Y203281D01*
X414591Y203000*
X414818Y203281*
X414591Y203562*
X375500Y198047D02*
Y190500D01*
Y198047D02*
X379193D01*
X375500Y194453D02*
X377773D01*
X375500Y190500D02*
X379193D01*
X383739Y198047D02*
Y190500D01*
X381750Y198047D02*
X385727D01*
X388284D02*
Y190500D01*
X392261Y198047D02*
Y190500D01*
X388284Y194453D02*
X392261D01*
X394818Y198047D02*
Y190500D01*
Y198047D02*
X398511D01*
X394818Y194453D02*
X397091D01*
X394818Y190500D02*
X398511D01*
X401068Y198047D02*
Y190500D01*
Y198047D02*
X403625D01*
X404477Y197687*
X404477D02*
X404761Y197328D01*
X405045Y196609*
Y195891*
X404761Y195172*
X404477Y194812*
X404477D02*
X403625Y194453D01*
X401068*
X403057D02*
X405045Y190500D01*
X407602Y198047D02*
Y190500D01*
Y198047D02*
X411580Y190500D01*
Y198047D02*
Y190500D01*
X414136Y198047D02*
Y190500D01*
Y198047D02*
X417830D01*
X414136Y194453D02*
X416409D01*
X414136Y190500D02*
X417830D01*
X422375Y198047D02*
Y190500D01*
X420386Y198047D02*
X424364D01*
X433455D02*
Y190500D01*
Y198047D02*
X435727Y190500D01*
X438000Y198047D02*
X435727Y190500D01*
X438000Y198047D02*
Y190500D01*
X442261Y198047D02*
X441693Y197687D01*
X441693D02*
X441125Y196969D01*
X440841Y196250*
X440557Y195172*
Y193375*
X440841Y192297*
X441125Y191578*
X441693Y190859*
X442261Y190500*
X443398*
X443966Y190859*
X444534Y191578*
X444818Y192297*
X445102Y193375*
Y195172*
X444818Y196250*
X444534Y196969*
X443966Y197687*
X443966D02*
X443398Y198047D01*
X442261*
X447659D02*
Y190500D01*
Y198047D02*
X451636Y190500D01*
Y198047D02*
Y190500D01*
X454193Y198047D02*
Y190500D01*
X458739Y198047D02*
Y190500D01*
X456750Y198047D02*
X460727D01*
X464989D02*
X464420Y197687D01*
X464420D02*
X463852Y196969D01*
X463568Y196250*
X463284Y195172*
Y193375*
X463568Y192297*
X463852Y191578*
X464420Y190859*
X464989Y190500*
X466125*
X466693Y190859*
X467261Y191578*
X467545Y192297*
X467830Y193375*
Y195172*
X467545Y196250*
X467261Y196969*
X466693Y197687*
X466693D02*
X466125Y198047D01*
X464989*
X470386D02*
Y190500D01*
Y198047D02*
X472943D01*
X473795Y197687*
X473795D02*
X474080Y197328D01*
X474364Y196609*
Y195891*
X474080Y195172*
X473795Y194812*
X473795D02*
X472943Y194453D01*
X470386*
X472375D02*
X474364Y190500D01*
X489136Y194812D02*
Y195172D01*
X488852Y195531*
X488568*
X488284Y195172*
X488000Y194453*
X487432Y192656*
X486864Y191578*
X486295Y190859*
X485727Y190500*
X484591*
X484023Y190859*
X483739Y191219*
X483455Y191937*
X483455D02*
Y192656D01*
X483739Y193375*
X484023Y193734*
X486011Y195172*
X486295Y195531*
X486580Y196250*
Y196969*
X486295Y197687*
X486295D02*
X485727Y198047D01*
X485159Y197687*
X485159D02*
X484875Y196969D01*
Y196250*
X485159Y195172*
X485727Y194094*
X487148Y191578*
X487716Y190859*
X488284Y190500*
X488852*
X489136Y190859*
Y191219*
X379761Y183750D02*
X379477Y184469D01*
X378909Y185187*
X378909D02*
X378341Y185547D01*
X377205*
X376636Y185187*
X376636D02*
X376068Y184469D01*
X375784Y183750*
X375500Y182672*
Y180875*
X375784Y179797*
X376068Y179078*
X376636Y178359*
X377205Y178000*
X378341*
X378909Y178359*
X379477Y179078*
X379761Y179797*
X384023Y185547D02*
X383455Y185187D01*
X383455D02*
X382886Y184469D01*
X382602Y183750*
X382318Y182672*
Y180875*
X382602Y179797*
X382886Y179078*
X383455Y178359*
X384023Y178000*
X385159*
X385727Y178359*
X386295Y179078*
X386580Y179797*
X386864Y180875*
Y182672*
X386580Y183750*
X386295Y184469*
X385727Y185187*
X385727D02*
X385159Y185547D01*
X384023*
X389420D02*
Y178000D01*
Y185547D02*
X393398Y178000D01*
Y185547D02*
Y178000D01*
X397943Y185547D02*
Y178000D01*
X395955Y185547D02*
X399932D01*
X402489D02*
Y178000D01*
Y185547D02*
X405045D01*
X405898Y185187*
X405898D02*
X406182Y184828D01*
X406466Y184109*
Y183391*
X406182Y182672*
X405898Y182312*
X405898D02*
X405045Y181953D01*
X402489*
X404477D02*
X406466Y178000D01*
X410727Y185547D02*
X410159Y185187D01*
X410159D02*
X409591Y184469D01*
X409307Y183750*
X409023Y182672*
Y180875*
X409307Y179797*
X409591Y179078*
X410159Y178359*
X410727Y178000*
X411864*
X412432Y178359*
X413000Y179078*
X413284Y179797*
X413568Y180875*
Y182672*
X413284Y183750*
X413000Y184469*
X412432Y185187*
X412432D02*
X411864Y185547D01*
X410727*
X416125D02*
Y178000D01*
X419534*
X428625Y185547D02*
Y178000D01*
Y185547D02*
X431182D01*
X432034Y185187*
X432034D02*
X432318Y184828D01*
X432602Y184109*
Y183391*
X432318Y182672*
X432034Y182312*
X432034D02*
X431182Y181953D01*
X428625D02*
X431182D01*
X432034Y181594*
X432318Y181234*
X432602Y180516*
Y179437*
X432602D02*
X432318Y178719D01*
X432034Y178359*
X431182Y178000*
X428625*
X435159Y185547D02*
Y178000D01*
Y185547D02*
X437148D01*
X438000Y185187*
X438000D02*
X438568Y184469D01*
X438852Y183750*
X439136Y182672*
Y180875*
X438852Y179797*
X438568Y179078*
X438000Y178359*
X437148Y178000*
X435159*
X625500Y196406D02*
Y190500D01*
Y196406D02*
X627091D01*
X627773Y196125*
X628227Y195562*
X628227D02*
X628455Y195000D01*
X628682Y194156*
Y192750*
X628455Y191906*
X628227Y191344*
X627773Y190781*
X627091Y190500*
X625500*
X632545Y196406D02*
X630727Y190500D01*
X632545Y196406D02*
X634364Y190500D01*
X631409Y192469D02*
X633682D01*
X638000Y196406D02*
Y190500D01*
X636409Y196406D02*
X639591D01*
X641636D02*
Y190500D01*
Y196406D02*
X644591D01*
X641636Y193594D02*
X643455D01*
X641636Y190500D02*
X644591D01*
X646864Y194437D02*
X646636Y194156D01*
X646864Y193875*
X647091Y194156*
X646864Y194437*
Y191062D02*
X646636Y190781D01*
X646864Y190500*
X647091Y190781*
X646864Y191062*
X623000Y184109D02*
X623568Y184469D01*
X624420Y185547*
Y178000*
X628682Y185547D02*
X627830Y185187D01*
X627830D02*
X627261Y184109D01*
X626977Y182312*
X626977D02*
Y181234D01*
X627261Y179437*
X627261D02*
X627830Y178359D01*
X628682Y178000*
X629250*
X630102Y178359*
X630670Y179437*
X630670D02*
X630955Y181234D01*
Y182312*
X630955D02*
X630670Y184109D01*
X630102Y185187*
X630102D02*
X629250Y185547D01*
X628682*
X638625Y186984D02*
X633511Y175484D01*
X641182Y184109D02*
X641750Y184469D01*
X642602Y185547*
Y178000*
X649136Y185547D02*
X646295Y178000D01*
X645159Y185547D02*
X649136D01*
X656807Y186984D02*
X651693Y175484D01*
X661068Y185547D02*
X660216Y185187D01*
X660216D02*
X659648Y184109D01*
X659364Y182312*
X659364D02*
Y181234D01*
X659648Y179437*
X659648D02*
X660216Y178359D01*
X661068Y178000*
X661636*
X662489Y178359*
X663057Y179437*
X663057D02*
X663341Y181234D01*
Y182312*
X663341D02*
X663057Y184109D01*
X662489Y185187*
X662489D02*
X661636Y185547D01*
X661068*
X669307Y184469D02*
X669023Y185187D01*
X669023D02*
X668170Y185547D01*
X667602*
X666750Y185187*
X666750D02*
X666182Y184109D01*
X665898Y182312*
X665898D02*
Y180516D01*
X666182Y179078*
X666750Y178359*
X667602Y178000*
X667886*
X668739Y178359*
X669307Y179078*
X669591Y180156*
Y180516*
X669307Y181594*
X668739Y182312*
X668739D02*
X667886Y182672D01*
X667602*
X666750Y182312*
X666750D02*
X666182Y181594D01*
X665898Y180516*
X625841Y160547D02*
Y154797D01*
X625557Y153719*
X625273Y153359*
X624705Y153000*
X624136*
X623568Y153359*
X623284Y153719*
X623000Y154797*
Y155516*
X632091Y160547D02*
X629250D01*
X628966Y157312*
X628966D02*
X629250Y157672D01*
X630102Y158031*
X630955*
X631807Y157672*
X632375Y156953*
X632659Y155875*
X632375Y155156*
X632091Y154078*
X631523Y153359*
X630670Y153000*
X629818*
X628966Y153359*
X628682Y153719*
X628398Y154437*
X638057Y160547D02*
X635216Y155516D01*
X639477*
X638057Y160547D02*
Y153000D01*
X645727Y160547D02*
X642886D01*
X642602Y157312*
X642602D02*
X642886Y157672D01*
X643739Y158031*
X644591*
X645443Y157672*
X646011Y156953*
X646295Y155875*
X646011Y155156*
X645727Y154078*
X645159Y153359*
X644307Y153000*
X643455*
X642602Y153359*
X642318Y153719*
X642034Y154437*
X650273Y160547D02*
X649420Y160187D01*
X649420D02*
X649136Y159469D01*
Y158750*
X649420Y158031*
X649989Y157672*
X651125Y157312*
X651125D02*
X651977Y156953D01*
X652545Y156234*
X652830Y155516*
Y154437*
X652830D02*
X652545Y153719D01*
X652261Y153359*
X651409Y153000*
X650273*
X649420Y153359*
X649136Y153719*
X648852Y154437*
X648852D02*
Y155516D01*
X649136Y156234*
X649705Y156953*
X650557Y157312*
X650557D02*
X651693Y157672D01*
X652261Y158031*
X652545Y158750*
Y159469*
X652261Y160187*
X652261D02*
X651409Y160547D01*
X650273*
X655386Y156234D02*
X660500D01*
X664761Y160547D02*
X663909Y160187D01*
X663909D02*
X663341Y159109D01*
X663057Y157312*
X663057D02*
Y156234D01*
X663341Y154437*
X663341D02*
X663909Y153359D01*
X664761Y153000*
X665330*
X666182Y153359*
X666750Y154437*
X666750D02*
X667034Y156234D01*
Y157312*
X667034D02*
X666750Y159109D01*
X666182Y160187*
X666182D02*
X665330Y160547D01*
X664761*
X671295D02*
X670443Y160187D01*
X670443D02*
X669875Y159109D01*
X669591Y157312*
X669591D02*
Y156234D01*
X669875Y154437*
X669875D02*
X670443Y153359D01*
X671295Y153000*
X671864*
X672716Y153359*
X673284Y154437*
X673284D02*
X673568Y156234D01*
Y157312*
X673568D02*
X673284Y159109D01*
X672716Y160187*
X672716D02*
X671864Y160547D01*
X671295*
X575500Y171406D02*
Y165500D01*
Y171406D02*
X577091D01*
X577773Y171125*
X578227Y170562*
X578227D02*
X578455Y170000D01*
X578682Y169156*
Y167750*
X578455Y166906*
X578227Y166344*
X577773Y165781*
X577091Y165500*
X575500*
X580727Y171406D02*
Y165500D01*
Y171406D02*
X583682D01*
X580727Y168594D02*
X582545D01*
X580727Y165500D02*
X583682D01*
X588909Y170562D02*
X588455Y171125D01*
X587773Y171406*
X586864*
X586182Y171125*
X585727Y170562*
X585727D02*
Y170000D01*
X585955Y169437*
X585955D02*
X586182Y169156D01*
X586636Y168875*
X588000Y168312*
X588000D02*
X588455Y168031D01*
X588682Y167750*
X588909Y167187*
X588909D02*
Y166344D01*
X588455Y165781*
X587773Y165500*
X586864*
X586182Y165781*
X585727Y166344*
X590955Y171406D02*
Y165500D01*
X596409Y170000D02*
X596182Y170562D01*
X596182D02*
X595727Y171125D01*
X595273Y171406*
X594364*
X593909Y171125*
X593455Y170562*
X593455D02*
X593227Y170000D01*
X593000Y169156*
Y167750*
X593227Y166906*
X593455Y166344*
X593909Y165781*
X594364Y165500*
X595273*
X595727Y165781*
X596182Y166344*
X596409Y166906*
Y167750*
X595273D02*
X596409D01*
X598455Y171406D02*
Y165500D01*
Y171406D02*
X601636Y165500D01*
Y171406D02*
Y165500D01*
X603682Y171406D02*
Y165500D01*
Y171406D02*
X606636D01*
X603682Y168594D02*
X605500D01*
X603682Y165500D02*
X606636D01*
X608682Y171406D02*
Y165500D01*
Y171406D02*
X610727D01*
X611409Y171125*
X611636Y170844*
X611864Y170281*
Y169719*
X611636Y169156*
X611409Y168875*
X610727Y168594*
X608682*
X610273D02*
X611864Y165500D01*
X614136Y169437D02*
X613909Y169156D01*
X614136Y168875*
X614364Y169156*
X614136Y169437*
Y166062D02*
X613909Y165781D01*
X614136Y165500*
X614364Y165781*
X614136Y166062*
X592261Y158750D02*
X591977Y159469D01*
X591409Y160187*
X591409D02*
X590841Y160547D01*
X589705*
X589136Y160187*
X589136D02*
X588568Y159469D01*
X588284Y158750*
X588000Y157672*
Y155875*
X588284Y154797*
X588568Y154078*
X589136Y153359*
X589705Y153000*
X590841*
X591409Y153359*
X591977Y154078*
X592261Y154797*
Y155875*
X590841D02*
X592261D01*
X594818Y160547D02*
Y153000D01*
X598795Y160547D02*
Y153000D01*
X594818Y156953D02*
X598795D01*
X605330Y159469D02*
X604761Y160187D01*
X604761D02*
X603909Y160547D01*
X602773*
X601920Y160187*
X601920D02*
X601352Y159469D01*
Y158750*
X601636Y158031*
X601920Y157672*
X602489Y157312*
X602489D02*
X604193Y156594D01*
X604761Y156234*
X605045Y155875*
X605330Y155156*
Y154078*
X604761Y153359*
X603909Y153000*
X602773*
X601920Y153359*
X601352Y154078*
X500500Y198047D02*
X504477Y190500D01*
Y198047D02*
X500500Y190500D01*
X509875Y198047D02*
X507034Y193016D01*
X511295*
X509875Y198047D02*
Y190500D01*
X513852Y196609D02*
X514420Y196969D01*
X515273Y198047*
Y190500*
X517830Y193734D02*
X522943D01*
X525784Y196250D02*
Y196609D01*
X526068Y197328*
X526352Y197687*
X526352D02*
X526920Y198047D01*
X528057*
X528625Y197687*
X528625D02*
X528909Y197328D01*
X529193Y196609*
Y195891*
X528909Y195172*
X528341Y194094*
X525500Y190500*
X529477*
X533739Y198047D02*
X532886Y197687D01*
X532886D02*
X532318Y196609D01*
X532034Y194812*
X532034D02*
Y193734D01*
X532318Y191937*
X532318D02*
X532886Y190859D01*
X533739Y190500*
X534307*
X535159Y190859*
X535727Y191937*
X535727D02*
X536011Y193734D01*
Y194812*
X536011D02*
X535727Y196609D01*
X535159Y197687*
X535159D02*
X534307Y198047D01*
X533739*
X540273D02*
X539420Y197687D01*
X539420D02*
X538852Y196609D01*
X538568Y194812*
X538568D02*
Y193734D01*
X538852Y191937*
X538852D02*
X539420Y190859D01*
X540273Y190500*
X540841*
X541693Y190859*
X542261Y191937*
X542261D02*
X542545Y193734D01*
Y194812*
X542545D02*
X542261Y196609D01*
X541693Y197687*
X541693D02*
X540841Y198047D01*
X540273*
X545102Y196609D02*
X545670Y196969D01*
X546523Y198047*
Y190500*
X550784Y198047D02*
X549932Y197687D01*
X549932D02*
X549364Y196609D01*
X549080Y194812*
X549080D02*
Y193734D01*
X549364Y191937*
X549364D02*
X549932Y190859D01*
X550784Y190500*
X551352*
X552205Y190859*
X552773Y191937*
X552773D02*
X553057Y193734D01*
Y194812*
X553057D02*
X552773Y196609D01*
X552205Y197687*
X552205D02*
X551352Y198047D01*
X550784*
X500500Y185547D02*
Y178000D01*
Y185547D02*
X503057D01*
X503909Y185187*
X503909D02*
X504193Y184828D01*
X504477Y184109*
Y183391*
X504193Y182672*
X503909Y182312*
X503909D02*
X503057Y181953D01*
X500500*
X502489D02*
X504477Y178000D01*
X507034Y185547D02*
Y178000D01*
Y185547D02*
X510727D01*
X507034Y181953D02*
X509307D01*
X507034Y178000D02*
X510727D01*
X513284Y185547D02*
X515557Y178000D01*
X517830Y185547D02*
X515557Y178000D01*
X529193Y185547D02*
X526920Y178000D01*
X529193Y185547D02*
X531466Y178000D01*
X527773Y180516D02*
X530614D01*
X367318Y138906D02*
X365500Y133000D01*
X367318Y138906D02*
X369136Y133000D01*
X366182Y134969D02*
X368455D01*
X371182Y138906D02*
Y133000D01*
X373909*
X375955Y138906D02*
Y133000D01*
X378682*
X389364Y137500D02*
X389136Y138062D01*
X389136D02*
X388682Y138625D01*
X388227Y138906*
X387318*
X386864Y138625*
X386409Y138062*
X386409D02*
X386182Y137500D01*
X385955Y136656*
Y135250*
X386182Y134406*
X386409Y133844*
X386864Y133281*
X387318Y133000*
X388227*
X388682Y133281*
X389136Y133844*
X389364Y134406*
Y135250*
X388227D02*
X389364D01*
X391409Y138906D02*
Y133000D01*
Y138906D02*
X394364D01*
X391409Y136094D02*
X393227D01*
X391409Y133000D02*
X394364D01*
X396409Y138906D02*
Y133000D01*
Y138906D02*
X398455D01*
X399136Y138625*
X399364Y138344*
X399591Y137781*
Y137219*
X399364Y136656*
X399136Y136375*
X398455Y136094*
X396409*
X398000D02*
X399591Y133000D01*
X401636Y138906D02*
Y133000D01*
Y138906D02*
X403682D01*
X404364Y138625*
X404591Y138344*
X404818Y137781*
Y137219*
X404591Y136656*
X404364Y136375*
X403682Y136094*
X401636D02*
X403682D01*
X404364Y135812*
X404364D02*
X404591Y135531D01*
X404818Y134969*
Y134125*
X404591Y133562*
X404591D02*
X404364Y133281D01*
X403682Y133000*
X401636*
X406864Y138906D02*
Y133000D01*
Y138906D02*
X409818D01*
X406864Y136094D02*
X408682D01*
X406864Y133000D02*
X409818D01*
X411864Y138906D02*
Y133000D01*
Y138906D02*
X413909D01*
X414591Y138625*
X414818Y138344*
X415045Y137781*
Y137219*
X414818Y136656*
X414591Y136375*
X413909Y136094*
X411864*
X413455D02*
X415045Y133000D01*
X420273Y138062D02*
X419818Y138625D01*
X419136Y138906*
X418227*
X417545Y138625*
X417091Y138062*
X417091D02*
Y137500D01*
X417318Y136937*
X417318D02*
X417545Y136656D01*
X418000Y136375*
X419364Y135812*
X419364D02*
X419818Y135531D01*
X420045Y135250*
X420273Y134687*
X420273D02*
Y133844D01*
X419818Y133281*
X419136Y133000*
X418227*
X417545Y133281*
X417091Y133844*
X429364Y138906D02*
X427545Y133000D01*
X429364Y138906D02*
X431182Y133000D01*
X428227Y134969D02*
X430500D01*
X433227Y138906D02*
Y133000D01*
Y138906D02*
X435273D01*
X435955Y138625*
X436182Y138344*
X436409Y137781*
Y137219*
X436182Y136656*
X435955Y136375*
X435273Y136094*
X433227*
X434818D02*
X436409Y133000D01*
X438455Y138906D02*
Y133000D01*
Y138906D02*
X441409D01*
X438455Y136094D02*
X440273D01*
X438455Y133000D02*
X441409D01*
X448682Y138906D02*
X450500Y133000D01*
X452318Y138906D02*
X450500Y133000D01*
X454364Y138906D02*
Y133000D01*
X456409Y138906D02*
Y133000D01*
Y138906D02*
X459364D01*
X456409Y136094D02*
X458227D01*
X456409Y133000D02*
X459364D01*
X461409Y138906D02*
X462545Y133000D01*
X463682Y138906D02*
X462545Y133000D01*
X463682Y138906D02*
X464818Y133000D01*
X465955Y138906D02*
X464818Y133000D01*
X468000Y138906D02*
Y133000D01*
Y138906D02*
X470955D01*
X468000Y136094D02*
X469818D01*
X468000Y133000D02*
X470955D01*
X473000Y138906D02*
Y133000D01*
Y138906D02*
X474591D01*
X475273Y138625*
X475727Y138062*
X475727D02*
X475955Y137500D01*
X476182Y136656*
Y135250*
X475955Y134406*
X475727Y133844*
X475273Y133281*
X474591Y133000*
X473000*
X483455Y138906D02*
Y133000D01*
Y138906D02*
X486409D01*
X483455Y136094D02*
X485273D01*
X488455Y138906D02*
Y133000D01*
Y138906D02*
X490500D01*
X491182Y138625*
X491409Y138344*
X491636Y137781*
Y137219*
X491409Y136656*
X491182Y136375*
X490500Y136094*
X488455*
X490045D02*
X491636Y133000D01*
X495045Y138906D02*
X494591Y138625D01*
X494136Y138062*
X494136D02*
X493909Y137500D01*
X493682Y136656*
Y135250*
X493909Y134406*
X494136Y133844*
X494591Y133281*
X495045Y133000*
X495955*
X496409Y133281*
X496864Y133844*
X497091Y134406*
X497318Y135250*
Y136656*
X497091Y137500*
X496864Y138062*
X496864D02*
X496409Y138625D01*
X495955Y138906*
X495045*
X499364D02*
Y133000D01*
Y138906D02*
X501182Y133000D01*
X503000Y138906D02*
X501182Y133000D01*
X503000Y138906D02*
Y133000D01*
X511864Y138906D02*
Y133000D01*
X510273Y138906D02*
X513455D01*
X515500D02*
Y133000D01*
X518682Y138906D02*
Y133000D01*
X515500Y136094D02*
X518682D01*
X520727Y138906D02*
Y133000D01*
Y138906D02*
X523682D01*
X520727Y136094D02*
X522545D01*
X520727Y133000D02*
X523682D01*
X530955Y138906D02*
Y133000D01*
Y138906D02*
X533000D01*
X533682Y138625*
X533909Y138344*
X534136Y137781*
Y136937*
X534136D02*
X533909Y136375D01*
X533682Y136094*
X533000Y135812*
X533000D02*
X530955D01*
X536182Y138906D02*
Y133000D01*
Y138906D02*
X538227D01*
X538909Y138625*
X539136Y138344*
X539364Y137781*
Y137219*
X539136Y136656*
X538909Y136375*
X538227Y136094*
X536182*
X537773D02*
X539364Y133000D01*
X541409Y138906D02*
Y133000D01*
X543455Y138906D02*
Y133000D01*
Y138906D02*
X545273Y133000D01*
X547091Y138906D02*
X545273Y133000D01*
X547091Y138906D02*
Y133000D01*
X550955Y138906D02*
X549136Y133000D01*
X550955Y138906D02*
X552773Y133000D01*
X549818Y134969D02*
X552091D01*
X554818Y138906D02*
Y133000D01*
Y138906D02*
X556864D01*
X557545Y138625*
X557773Y138344*
X558000Y137781*
Y137219*
X557773Y136656*
X557545Y136375*
X556864Y136094*
X554818*
X556409D02*
X558000Y133000D01*
X560045Y138906D02*
X561864Y136094D01*
Y133000*
X563682Y138906D02*
X561864Y136094D01*
X574136Y138062D02*
X573682Y138625D01*
X573000Y138906*
X572091*
X571409Y138625*
X570955Y138062*
X570955D02*
Y137500D01*
X571182Y136937*
X571182D02*
X571409Y136656D01*
X571864Y136375*
X573227Y135812*
X573227D02*
X573682Y135531D01*
X573909Y135250*
X574136Y134687*
X574136D02*
Y133844D01*
X573682Y133281*
X573000Y133000*
X572091*
X571409Y133281*
X570955Y133844*
X576182Y138906D02*
Y133000D01*
X578227Y138906D02*
Y133000D01*
Y138906D02*
X579818D01*
X580500Y138625*
X580955Y138062*
X580955D02*
X581182Y137500D01*
X581409Y136656*
Y135250*
X581182Y134406*
X580955Y133844*
X580500Y133281*
X579818Y133000*
X578227*
X583455Y138906D02*
Y133000D01*
Y138906D02*
X586409D01*
X583455Y136094D02*
X585273D01*
X583455Y133000D02*
X586409D01*
X595273Y140031D02*
X594818Y139469D01*
X594364Y138625*
X593909Y137500*
X593682Y136094*
Y134969*
X593909Y133562*
X593909D02*
X594364Y132437D01*
X594364D02*
X594818Y131594D01*
X595273Y131031*
X598909Y138906D02*
Y133000D01*
X597318Y138906D02*
X600500D01*
X602545D02*
Y133000D01*
X605727Y138906D02*
Y133000D01*
X602545Y136094D02*
X605727D01*
X607773Y138906D02*
Y133000D01*
Y138906D02*
X609818D01*
X610500Y138625*
X610727Y138344*
X610955Y137781*
Y137219*
X610727Y136656*
X610500Y136375*
X609818Y136094*
X607773*
X609364D02*
X610955Y133000D01*
X614364Y138906D02*
X613909Y138625D01*
X613455Y138062*
X613455D02*
X613227Y137500D01*
X613000Y136656*
Y135250*
X613227Y134406*
X613455Y133844*
X613909Y133281*
X614364Y133000*
X615273*
X615727Y133281*
X616182Y133844*
X616409Y134406*
X616636Y135250*
Y136656*
X616409Y137500*
X616182Y138062*
X616182D02*
X615727Y138625D01*
X615273Y138906*
X614364*
X618682D02*
Y134687D01*
X618682D02*
X618909Y133844D01*
X619364Y133281*
X620045Y133000*
X620500*
X621182Y133281*
X621636Y133844*
X621864Y134687*
X621864D02*
Y138906D01*
X627318Y137500D02*
X627091Y138062D01*
X627091D02*
X626636Y138625D01*
X626182Y138906*
X625273*
X624818Y138625*
X624364Y138062*
X624364D02*
X624136Y137500D01*
X623909Y136656*
Y135250*
X624136Y134406*
X624364Y133844*
X624818Y133281*
X625273Y133000*
X626182*
X626636Y133281*
X627091Y133844*
X627318Y134406*
Y135250*
X626182D02*
X627318D01*
X629364Y138906D02*
Y133000D01*
X632545Y138906D02*
Y133000D01*
X629364Y136094D02*
X632545D01*
X641409Y138906D02*
Y133000D01*
X639818Y138906D02*
X643000D01*
X645045D02*
Y133000D01*
X648227Y138906D02*
Y133000D01*
X645045Y136094D02*
X648227D01*
X650273Y138906D02*
Y133000D01*
Y138906D02*
X653227D01*
X650273Y136094D02*
X652091D01*
X650273Y133000D02*
X653227D01*
X660500Y138906D02*
Y133000D01*
Y138906D02*
X662545D01*
X663227Y138625*
X663455Y138344*
X663682Y137781*
Y137219*
X663455Y136656*
X663227Y136375*
X662545Y136094*
X660500D02*
X662545D01*
X663227Y135812*
X663227D02*
X663455Y135531D01*
X663682Y134969*
Y134125*
X663455Y133562*
X663455D02*
X663227Y133281D01*
X662545Y133000*
X660500*
X667091Y138906D02*
X666636Y138625D01*
X666182Y138062*
X666182D02*
X665955Y137500D01*
X665727Y136656*
Y135250*
X665955Y134406*
X666182Y133844*
X666636Y133281*
X667091Y133000*
X668000*
X668455Y133281*
X668909Y133844*
X669136Y134406*
X669364Y135250*
Y136656*
X669136Y137500*
X668909Y138062*
X668909D02*
X668455Y138625D01*
X668000Y138906*
X667091*
X673227D02*
X671409Y133000D01*
X673227Y138906D02*
X675045Y133000D01*
X672091Y134969D02*
X674364D01*
X677091Y138906D02*
Y133000D01*
Y138906D02*
X679136D01*
X679818Y138625*
X680045Y138344*
X680273Y137781*
Y137219*
X680045Y136656*
X679818Y136375*
X679136Y136094*
X677091*
X678682D02*
X680273Y133000D01*
X682318Y138906D02*
Y133000D01*
Y138906D02*
X683909D01*
X684591Y138625*
X685045Y138062*
X685045D02*
X685273Y137500D01*
X685500Y136656*
Y135250*
X685273Y134406*
X685045Y133844*
X684591Y133281*
X683909Y133000*
X682318*
X687545Y140031D02*
X688000Y139469D01*
X688455Y138625*
X688909Y137500*
X689136Y136094*
Y134969*
X688909Y133562*
X688909D02*
X688455Y132437D01*
X688455D02*
X688000Y131594D01*
X687545Y131031*
G54D17*
X737500Y479750D03*
X747500D03*
X737500Y440250D03*
X747500D03*
X438100Y655000D03*
X428100Y665000D03*
X530000Y420000D03*
X540000D03*
X550000D03*
Y430000D03*
X570000D03*
X580000Y420000D03*
Y430000D03*
X570000Y290000D03*
X530000Y650000D03*
X580000Y660000D03*
X590000Y650000D03*
X700000Y660000D03*
X710000Y650000D03*
G54D19*
X602205Y496358D03*
G54D28*
X332800Y287000D03*
X324500Y287600D03*
X320900Y287700D03*
X336500Y282300D03*
X339800Y279200D03*
X379500Y291500D03*
X367900Y289300D03*
X365800Y281600D03*
X298200Y336000D03*
X295700Y346300D03*
X333700Y353300D03*
X345200Y351500D03*
X316800Y338300D03*
X314000Y347100D03*
X319900Y349100D03*
X370800D03*
X402200Y334600D03*
X408900Y345600D03*
X405900Y337700D03*
X418400Y317500D03*
X422500Y322700D03*
X392600Y341700D03*
X442300Y318400D03*
X446900Y319500D03*
X439600Y342600D03*
X436500Y325500D03*
X426500Y316400D03*
X430100Y325000D03*
X457000Y320400D03*
X432500Y316400D03*
X462400Y321500D03*
X438500Y317400D03*
X443600Y322200D03*
X464300Y330100D03*
X451500Y342500D03*
X453200Y325900D03*
X460000Y343500D03*
X464600Y346000D03*
X467500Y333600D03*
X469700Y321500D03*
X474200Y323900D03*
X293700Y369100D03*
X290800Y379600D03*
X290100Y369100D03*
X290800Y376700D03*
X280300Y386200D03*
X282900Y391200D03*
X305700Y366300D03*
X326200Y370900D03*
X316300Y360200D03*
X308000Y361200D03*
X344800Y373400D03*
X341500Y376300D03*
X362200Y359600D03*
X348000Y365700D03*
X362300Y362600D03*
X382400Y358000D03*
X347400Y370700D03*
X347100Y389900D03*
X390300Y385317D03*
X392600Y355300D03*
X400100Y360300D03*
X421812Y389272D03*
X390314D03*
X437560D03*
X433623D03*
X429686D03*
X425749D03*
X293900Y401200D03*
X291500Y415900D03*
X293400Y426200D03*
X288300Y408900D03*
X293400Y413600D03*
X291900Y418800D03*
X306700Y400000D03*
Y402700D03*
Y405500D03*
Y409100D03*
X309700Y423500D03*
X327700Y423800D03*
X330200Y421900D03*
X320200Y397900D03*
X328700Y427300D03*
X333600Y409400D03*
X331300Y406500D03*
X339600Y423500D03*
X330900Y414900D03*
X334500Y406600D03*
X327600Y432400D03*
X325000Y429600D03*
X329500Y418500D03*
X330700Y409500D03*
X340800Y397500D03*
Y407500D03*
Y427500D03*
X378504Y409941D03*
X353200Y423300D03*
X350300Y423500D03*
X359700Y413900D03*
X382441Y417815D03*
X358000Y419700D03*
X355600Y421500D03*
X347100Y423500D03*
X386378Y429626D03*
Y425689D03*
Y417815D03*
X398189Y402067D03*
X406063Y406004D03*
X417874Y413878D03*
X394252Y425689D03*
X398189D03*
X390315Y417815D03*
X394252D03*
X390315Y402067D03*
X406063Y417815D03*
X437559Y421752D03*
X425748Y413878D03*
Y417815D03*
X429685D03*
X441496Y402067D03*
X445433D03*
X429685D03*
X458228D03*
X433622D03*
X462165D03*
X437559D03*
X441496Y409941D03*
X462165D03*
X458228Y413878D03*
Y409941D03*
X445433Y406004D03*
Y409941D03*
X458228Y406004D03*
X462165D03*
Y413878D03*
X433622Y425689D03*
X280400Y436300D03*
X283400Y468900D03*
X307400Y474500D03*
X317600Y472500D03*
X316900Y435300D03*
X316500Y449300D03*
X318200Y453300D03*
X320100Y455200D03*
X316700Y443200D03*
X337000Y448400D03*
X316700Y438100D03*
X331000Y442300D03*
X326600Y443900D03*
X342300Y441600D03*
X340500Y437500D03*
X357835Y445374D03*
X378504Y472933D03*
X374567D03*
X382441Y468996D03*
X378504Y449311D03*
X361772D03*
Y453248D03*
X357835D03*
X349700Y462300D03*
X361772Y461122D03*
X352800Y462300D03*
X358200Y461100D03*
X361772Y445374D03*
X390315Y472933D03*
X398189D03*
X386378Y468996D03*
X390315Y465059D03*
X394252Y461122D03*
X398189D03*
X413937Y453248D03*
X421811Y461122D03*
Y468996D03*
X417874Y461122D03*
X421811Y465059D03*
X398189Y468996D03*
Y465059D03*
X402126Y461122D03*
X390315Y457185D03*
X413937D03*
Y461122D03*
X390315Y453248D03*
X394252D03*
X437559Y465059D03*
X458228Y461122D03*
X462165D03*
X458228Y457185D03*
X462165Y468996D03*
X437559Y441437D03*
X441496Y453248D03*
X458228Y449311D03*
X445433Y445374D03*
X458228D03*
X441496Y449311D03*
X433622D03*
X437559D03*
X461700Y445400D03*
X425748Y461122D03*
X484000Y439500D03*
X474400Y453900D03*
X468700Y444000D03*
X489200Y446700D03*
X501300Y446800D03*
X492400D03*
X495600D03*
X498500D03*
X479500Y467400D03*
X540900Y471400D03*
X526700Y471800D03*
X514300Y449600D03*
X609500Y444200D03*
Y463200D03*
X742300Y456600D03*
Y459700D03*
X752700Y472200D03*
X762700Y460300D03*
X770500Y448000D03*
X763800Y447900D03*
X762000Y450300D03*
X283100Y503000D03*
X285200Y500600D03*
X382441Y485728D03*
X362600Y485800D03*
X365500Y485700D03*
X386378Y485728D03*
X406063Y489665D03*
X394252D03*
X398189Y485728D03*
X402126Y489665D03*
Y485728D03*
X398189Y489665D03*
X406063Y485728D03*
X441496D03*
X445433D03*
Y489665D03*
X429685D03*
X431400Y508900D03*
X465800Y476300D03*
X485600Y494700D03*
X515300Y511500D03*
X546400Y489100D03*
X550000Y476400D03*
X570000Y506500D03*
X575300Y502400D03*
X580000Y504500D03*
X605300Y507300D03*
X602200Y507600D03*
X742200Y496500D03*
X742100Y499700D03*
X314900Y537900D03*
X314800Y553000D03*
X377300Y524700D03*
X374600Y529600D03*
X357300Y542300D03*
X419900Y546400D03*
X393600Y527500D03*
X404400Y525000D03*
X421900Y523000D03*
X412500Y544600D03*
X453900Y542700D03*
X450150Y539950D03*
X451900Y529300D03*
Y532600D03*
X438200Y517400D03*
X463000Y529300D03*
X459900Y544500D03*
X439175Y534575D03*
X453900Y539900D03*
X441300Y536650D03*
X479600Y544400D03*
X473500Y537000D03*
X466700Y544500D03*
X487900Y521900D03*
X486250Y530100D03*
X496250Y530450D03*
X493750Y528450D03*
X503750D03*
X489400Y526100D03*
X506250Y530950D03*
X312900Y570500D03*
X310700Y575500D03*
X308900Y572900D03*
X306600Y577900D03*
X412900Y589900D03*
X399000Y582600D03*
X420500Y578500D03*
X394900Y560600D03*
X410300Y557100D03*
X416200Y570800D03*
X414900Y578400D03*
X386900Y575500D03*
X391300Y578500D03*
X398000Y568900D03*
X451800Y588500D03*
X455500Y584600D03*
X444500Y582300D03*
X434000Y576700D03*
X445800Y561500D03*
X434000Y573700D03*
X435000Y581500D03*
X498100Y569400D03*
X475500Y562400D03*
X500200Y563400D03*
X531100Y559300D03*
X512300Y557500D03*
X763400Y576200D03*
X765000Y586200D03*
X769500Y591200D03*
X423200Y596000D03*
X404400Y618700D03*
X387700Y609600D03*
X389700Y607200D03*
X414900Y611100D03*
X419500Y612900D03*
X411100Y615000D03*
X412900Y623900D03*
X432600Y634000D03*
X464200Y634100D03*
X453700Y603500D03*
X448100Y597700D03*
X436800Y609100D03*
X444400Y603900D03*
X428800Y607100D03*
X433000Y600400D03*
X438700Y600500D03*
X461700Y605400D03*
X465200Y610200D03*
X461000D03*
X468200Y606400D03*
X475200Y616900D03*
Y620300D03*
X478300Y620500D03*
X767200Y601300D03*
X764500Y596300D03*
X415900Y656600D03*
X422800Y642200D03*
X425300Y648200D03*
X416700Y645800D03*
X419000Y659700D03*
X408100Y637800D03*
X410200Y635900D03*
X442900Y647700D03*
X427900Y650500D03*
X445000Y635600D03*
X440300Y639700D03*
X466600Y636000D03*
X491800Y647800D03*
X495300Y646400D03*
X485400Y636500D03*
X503400Y664700D03*
X506200Y638400D03*
X511100Y653800D03*
G54D31*
X344800Y375400D02*
X344376Y373824D01*
X344800Y374800*
X345224Y373824*
X344800Y375400*
X344531Y374400D02*
X344626D01*
X344974D02*
X345069D01*
X344746Y375200D02*
X344854D01*
X344800Y374800D02*
Y375400D01*
X343714Y440186D02*
X342900Y441600D01*
X343290Y440610*
X342300Y441000*
X343714Y440186*
X342647Y440800D02*
X342808D01*
X343215D02*
X343361D01*
X342900Y441600D02*
X342900D01*
X342400Y440942D02*
Y440961D01*
X343200Y440482D02*
Y440645D01*
Y440838D02*
Y441079D01*
X344800Y373400D02*
Y439100D01*
X342300Y441600*
G54D32*
X341500Y376300D02*
X342800Y377600D01*
Y395100*
X340900Y397000*
Y397400*
X340800Y397500*
X347400Y370700D02*
Y380700D01*
X347100Y381000*
Y389900*
X347400Y370700D02*
X342800D01*
X341500Y372000*
Y376300*
X347100Y389900D02*
Y423500D01*
X340800Y397500D02*
Y407500D01*
X342800Y409500*
Y425800*
X341100Y427500*
X340800*
X342800Y429500*
Y437500*
X340500*
X347100Y423500D02*
Y440900D01*
X343600Y444400*
X347100Y423500D02*
Y440900D01*
X343600Y444400*
X340800*
X340500Y437500D02*
X339200Y438800D01*
Y442800*
X340800Y444400*
X343600*
X340500Y437500D02*
X339200Y438800D01*
Y442800*
X340800Y444400*
X443665Y226750D02*
X446847Y216250D01*
X450028Y226750D02*
X446847Y216250D01*
X453608Y226750D02*
Y216250D01*
X462756Y225250D02*
X461960Y226250D01*
X460767Y226750*
X459176*
X457983Y226250*
X457188Y225250*
X457188D02*
Y224250D01*
X457188D02*
X457585Y223250D01*
X457983Y222750*
X458778Y222250*
X461165Y221250*
X461960Y220750*
X462358Y220250*
X462756Y219250*
Y217750*
X461960Y216750*
X460767Y216250*
X459176*
X457983Y216750*
X457188Y217750*
X466335Y226750D02*
Y216250D01*
X469915Y220750D02*
X477074D01*
X483438Y226750D02*
Y216250D01*
X480653Y226750D02*
X486222D01*
X489801D02*
Y216250D01*
Y226750D02*
X493381D01*
X494574Y226250*
X494972Y225750*
X495369Y224750*
Y223750*
X494972Y222750*
X494574Y222250*
X493381Y221750*
X489801*
X492585D02*
X495369Y216250D01*
X502131Y226750D02*
X498949Y216250D01*
X502131Y226750D02*
X505313Y216250D01*
X500142Y219750D02*
X504119D01*
X508892Y226750D02*
Y216250D01*
X514460Y226750D02*
X508892Y219750D01*
X510881Y222250D02*
X514460Y216250D01*
X527188Y226750D02*
X529176Y216250D01*
X531165Y226750D02*
X529176Y216250D01*
X531165Y226750D02*
X533153Y216250D01*
X535142Y226750D02*
X533153Y216250D01*
X541108Y226750D02*
X540313Y226250D01*
X540313D02*
X539517Y225250D01*
X539119Y224250*
X538722Y222750*
Y220250*
X539119Y218750*
X539517Y217750*
X540313Y216750*
X540313D02*
X541108Y216250D01*
X542699*
X543494Y216750*
X544290Y217750*
X544688Y218750*
X544688D02*
X545085Y220250D01*
Y222750*
X544688Y224250*
X544688D02*
X544290Y225250D01*
X543494Y226250*
X542699Y226750*
X541108*
X548665D02*
Y216250D01*
Y226750D02*
X552244D01*
X553438Y226250*
X553438D02*
X553835Y225750D01*
X554233Y224750*
Y223750*
X553835Y222750*
X553438Y222250*
X553438D02*
X552244Y221750D01*
X548665*
X551449D02*
X554233Y216250D01*
X557813Y226750D02*
Y216250D01*
X557813D02*
X562585D01*
X566165Y226750D02*
Y216250D01*
Y226750D02*
X568949D01*
X570142Y226250*
X570938Y225250*
X570938D02*
X571335Y224250D01*
X571733Y222750*
Y220250*
X571335Y218750*
X570938Y217750*
X570938D02*
X570142Y216750D01*
X568949Y216250*
X566165*
X575313Y226750D02*
X577301Y216250D01*
X579290Y226750D02*
X577301Y216250D01*
X579290Y226750D02*
X581278Y216250D01*
X583267Y226750D02*
X581278Y216250D01*
X586847Y226750D02*
Y216250D01*
X590426Y226750D02*
Y216250D01*
Y226750D02*
X593210D01*
X594403Y226250*
X595199Y225250*
X595597Y224250*
X595994Y222750*
Y220250*
X595597Y218750*
X595199Y217750*
X594403Y216750*
X593210Y216250*
X590426*
X599574Y226750D02*
Y216250D01*
Y226750D02*
X604744D01*
X599574Y221750D02*
X602756D01*
X599574Y216250D02*
X604744D01*
G54D76*
X275000Y275000D02*
X775000D01*
Y675000*
X275000*
Y275000*
G74*
X0Y0D02*
M02*
