%
T1C.01F095S3
X-000175Y000264
X-000018Y00036
X-000043Y000463
X-00011Y000506
X-000066Y000512
X-000111Y000537
X-000136Y000562
X-000209Y000613
X-000107Y000643
X-0002Y000663
X-000099Y000691
X-000063Y000691
X-000173Y000713
X-000092Y000737
X-000152Y000738
X-000092Y000767
X-000092Y000796
X-000064Y000802
X-000173Y000821
X-000101Y000839
X-000197Y000862
X-000171Y000912
X-000172Y000939
X-000061Y000963
X-000061Y001012
X-000172Y001037
X-000169Y001081
X-000117Y001089
X-000169Y001112
X-000066Y001136
X-000085Y001159
X-000081Y001188
X-000124Y001213
X-000066Y001262
X-000079Y001312
X-000196Y001363
X-000122Y001454
X-000095Y001493
X-000065Y001513
X-000166Y001689
X-000144Y001734
X-000148Y002006
X-000169Y00203
X000066Y002779
X000107Y002755
X000089Y002729
X000129Y002705
X000149Y00268
X000191Y002655
X000149Y00263
X000191Y002604
X000148Y00258
X00019Y002554
X000148Y00253
X00019Y002504
X000078Y002479
X000189Y002454
X000078Y002429
X00019Y002406
X000149Y002379
X00019Y002355
X000147Y001998
X000046Y001972
X000147Y001952
X000066Y00193
X000074Y001745
X000176Y001725
X000062Y00167
X000103Y001651
X000081Y001624
X000201Y001552
X000182Y001533
X000061Y001514
X000165Y001493
X000061Y001462
X000266Y001439
X000167Y001432
X000288Y001384
X000167Y001381
X000099Y001363
X000169Y001353
X000256Y001348
X000058Y001343
X000276Y001324
X00025Y001296
X000287Y001273
X000224Y001265
X000277Y001238
X000097Y001235
X000225Y001115
X000067Y001091
X000183Y001076
X000143Y001076
X000067Y001055
X000067Y001027
X000164Y001003
X000067Y001
X000202Y000979
X000129Y000978
X000152Y000965
X000114Y000934
X000095Y000912
X000269Y000877
X000107Y000875
X000058Y000863
X000122Y000808
X0001Y00079
X00011Y000747
X000181Y00074
X000072Y000728
X000262Y000709
X000057Y000663
X00008Y000612
X000163Y000602
X000199Y000491
X00014Y000471
X000168Y000383
X000209Y-000123
X000245Y-000124
X000398Y-000208
X000365Y-000177
X000328Y-00013
X000452Y000515
X000337Y000533
X00048Y000553
X00048Y000628
X00048Y000657
X000474Y000707
X000448Y000734
X000415Y000763
X000471Y000899
X000408Y000975
X000313Y001065
X000345Y001066
X000408Y001075
X000336Y001094
X000307Y001095
X000309Y001149
X00039Y001175
X000295Y001185
X000302Y001219
X000532Y001233
X000396Y001235
X000503Y001235
X000471Y001235
X00035Y001241
X000408Y001275
X000405Y001375
X000423Y001416
X00031Y001423
X000405Y001475
X00037Y001484
X000385Y001575
X000497Y001623
X000528Y001623
X000405Y001681
X000403Y001825
X000338Y002755
X000573Y002423
X000735Y002404
X000746Y002296
X000773Y002247
X00075Y002085
X000655Y002067
X00064724Y00192618
X00074566Y00192618
X000626Y001858
X00074566Y00185728
X000655Y001857
X00072898Y00183759
X000543Y001825
X00068661Y00181791
X0006374Y00178838
X0006374Y00174901
X00078503Y00172933
X00074566Y00172933
X00078503Y00168996
X00074566Y00168996
X00054881Y00168011
X00074566Y00165059
X00078503Y00165059
X00078503Y00161122
X00074566Y00161122
X00061771Y00161122
X000582Y001611
X00078503Y00157185
X00054881Y00157185
X00078503Y00153248
X00074566Y00153248
X00061771Y00153248
X00057834Y00153248
X00078503Y00149311
X00061771Y00149311
X00054881Y00149311
X00078503Y00145374
X00074566Y00145374
X00057834Y00145374
X00061771Y00145374
X00074566Y00141437
X00070629Y00141437
X000542Y001375
X000636Y001374
X00066692Y00133562
X00078503Y00133562
X00070629Y00133562
X00074566Y00133562
X00074566Y00129625
X00078503Y00129625
X000542Y001275
X00074566Y00125688
X00078503Y00121751
X00074566Y00121751
X000556Y001215
X00058Y001197
X00074566Y00117814
X000597Y001139
X00074566Y00113877
X00078503Y00113877
X00078503Y0010994
X00074566Y0010994
X00078503Y00106003
X00074566Y00106003
X00078503Y00102066
X00074566Y00102066
X0006374Y00100098
X00078503Y00098129
X0006374Y00096161
X00072598Y0009124
X000542Y000851
X000632Y000832
X000556Y000757
X000729Y000725
X000675Y00068
X000775Y00068
X000551Y000672
X000623Y000626
X000622Y000596
X000628Y000549
X000708Y000491
X000679Y-000107
X000658Y-000184
X000795Y-000085
X001022Y000346
X000926Y000417
X000875Y00042
X000926Y000553
X000875Y00058
X000824Y00058
X001001Y000603
X000945Y000629
X000875Y000665
X000975Y00068
X000927Y000725
X000975Y000817
X000903Y00085317
X00098188Y00085334
X00094251Y00085334
X00102125Y00085334
X00102125Y00089271
X00090314Y00089271
X00098188Y00089271
X00094251Y00089271
X00086377Y00102066
X00098188Y00102066
X00102125Y00102066
X00090314Y00102066
X00094251Y00102066
X0008244Y00102066
X00086377Y00106003
X00098188Y00106003
X00102125Y00106003
X00090314Y00106003
X00094251Y00106003
X0008244Y00106003
X00102125Y0010994
X00094251Y0010994
X00090314Y0010994
X00086377Y0010994
X0008244Y0010994
X00098188Y0010994
X00090314Y00113877
X00086377Y00113877
X00098188Y00113877
X00094251Y00113877
X0008244Y00113877
X00102125Y00113877
X00090314Y00117814
X00094251Y00117814
X00086377Y00117814
X00098188Y00117814
X00102125Y00117814
X0008244Y00117814
X00094251Y00121751
X00102125Y00121751
X00086377Y00121751
X00098188Y00121751
X00090314Y00121751
X0008244Y00121751
X00086377Y00125688
X00098188Y00125688
X00102125Y00125688
X00090314Y00125688
X0008244Y00125688
X00094251Y00125688
X00102125Y00129625
X00090314Y00129625
X00098188Y00129625
X00086377Y00129625
X00086377Y00133562
X0008244Y00133562
X00094251Y001375
X00090314Y00141437
X0008244Y00141437
X00094251Y00141437
X00086377Y00141437
X00090314Y00145374
X00086377Y00145374
X00098188Y00145374
X0008244Y00145374
X00102125Y00145374
X00102125Y00149311
X00086377Y00153248
X0008244Y00153248
X00102125Y00153248
X00098188Y00153248
X00090314Y00153248
X00094251Y00153248
X00094251Y00157185
X00098188Y00157185
X0008244Y00157185
X00086377Y00157185
X00090314Y00157185
X00102125Y00157185
X00094251Y00161122
X00098188Y00161122
X00102125Y00161122
X0008244Y00161122
X00090314Y00161122
X00086377Y00161122
X00102125Y00165059
X00098188Y00165059
X00094251Y00165059
X00086377Y00165059
X00090314Y00165059
X0008244Y00165059
X00086377Y00168996
X00090314Y00168996
X00094251Y00168996
X00098188Y00168996
X00102125Y00168996
X0008244Y00168996
X00102125Y00172933
X00090314Y00172933
X00086377Y00172933
X00098188Y00172933
X00094251Y00172933
X0008244Y00172933
X0008244Y00185728
X00086377Y00185728
X00090314Y00185728
X00094251Y00185728
X00098188Y00185728
X00102125Y00185728
X00094251Y00189665
X00102125Y00189665
X00090314Y00189665
X00098188Y00189665
X00086377Y00189665
X00086377Y00192618
X000942Y001933
X00085Y00207
X00095Y00209
X000936Y002275
X000949Y002606
X001036Y002643
X00089Y002657
X00098Y002689
X000869Y002755
X000971Y002774
X000913Y002785
X00099Y002826
X000981Y002854
X000897Y003072
X000877Y003096
X00119Y003597
X001159Y003566
X001279Y003505
X001253Y003482
X001167Y003458
X001228Y003422
X001081Y003378
X001102Y003359
X001129Y003239
X001044Y003187
X001111Y00315
X001195Y003129
X001149Y003111
X001288Y003071
X001232Y00296
X001129Y002899
X0010775Y002785
X001205Y002785
X001149Y002784
X001162Y002708
X001103Y002571
X001199Y002464
X001125Y002446
X001267Y002283
X001044Y00225
X001219Y00223
X00128Y002125
X001173Y002097
X00125Y00207
X00115Y00207
X00105Y00207
X00115Y001933
X00125Y00193
X00105Y00193
X00118174Y00189665
X00106062Y00189665
X00121811Y00189665
X00125748Y00189665
X00121811Y00185728
X00117874Y00185728
X00106062Y00185728
X00125748Y00185728
X00113937Y0017687
X00106062Y00172933
X00118074Y00172933
X00121811Y00172933
X00125748Y00172933
X00121811Y00168996
X00106062Y00168996
X00117874Y00168996
X00113937Y00168996
X00125748Y00168996
X00106062Y00165059
X00117874Y00165059
X00121811Y00165059
X00125748Y00165059
X00113937Y00165059
X00106062Y00161122
X00113937Y00161122
X00117874Y00161122
X00125748Y00161122
X00121811Y00161122
X00106062Y00157185
X00113937Y00157185
X00117874Y00157185
X00125748Y00157185
X00121811Y00157185
X00121811Y00153248
X00125748Y00153248
X00117874Y00153248
X00106062Y00153248
X00113937Y00153248
X00117874Y00149311
X00125748Y00149311
X00121811Y00149311
X00117874Y00145374
X00121811Y00145374
X00106062Y00141437
X00113937Y00141437
X0011Y00141437
X0011Y001375
X00106062Y001375
X00125748Y001375
X00113937Y001375
X0011Y00133562
X00106062Y00133562
X00113937Y00133562
X00121811Y00129625
X00125748Y00129625
X00117874Y00129625
X00117874Y00125688
X00125748Y00125688
X00106062Y00121751
X00113937Y00121751
X00125748Y00121751
X00117874Y00121751
X00121811Y00121751
X00125748Y00117814
X00121811Y00117814
X00117874Y00117814
X00106062Y00117814
X00125748Y00113877
X00117874Y00113877
X00106062Y00113877
X00113937Y00113877
X00121811Y00113877
X00106062Y0010994
X00125748Y0010994
X00117874Y0010994
X00113937Y0010994
X00121811Y0010994
X00125748Y00106003
X00106062Y00106003
X00113937Y00106003
X00121811Y00106003
X00117874Y00106003
X00125748Y00102066
X00106062Y00102066
X00117874Y00102066
X00121811Y00102066
X0011Y00089271
X00113937Y00089271
X00106062Y00089271
X00125748Y00089271
X00117874Y00089271
X00121811Y00089271
X00125748Y00085334
X00106062Y00085334
X00117874Y00085334
X00113937Y00085334
X001175Y000824
X001278Y000824
X001075Y00082
X001075Y00068
X001175Y00068
X001275Y000665
X001042Y000657
X001175Y000632
X00125Y000618
X001151Y000612
X001211Y000555
X001203Y000477
X001166Y000477
X00125Y000475
X001089Y000456
X001115Y000455
X001164Y000385
X001205Y000385
X001059Y000377
X001203Y000315
X001225Y000227
X001184Y000175
X001265Y000164
X001325Y000164
X001385Y000174
X001423Y000184
X001469Y000195
X001346Y000208
X001436Y000222
X001301Y00025
X001365Y000255
X001532Y000259
X00145Y0002685
X001344Y000273
X00145Y000425
X00135Y000425
X001515Y000425
X001396Y000426
X001495Y000472
X0013Y000603
X0014Y000608
X0015Y000612
X00145Y000625
X001434Y000652
X001475Y000675
X001375Y000675
X001529Y000725
X001375Y000824
X001474Y000825
X00133622Y00089271
X00129685Y00089271
X00137559Y00089271
X00147401Y0009124
X00151338Y00093208
X00141496Y00102066
X00145433Y00102066
X00129685Y00102066
X00133622Y00102066
X00137559Y00102066
X00145433Y00106003
X00141496Y00106003
X00129685Y00106003
X00133622Y00106003
X00141496Y0010994
X00145433Y0010994
X00137559Y0010994
X00133622Y0010994
X00129685Y0010994
X00141496Y00113877
X00137559Y00113877
X00145433Y00113877
X00133622Y00113877
X00129685Y00113877
X00129685Y00117814
X00145433Y00117814
X00133622Y00117814
X00137559Y00117814
X00129685Y00121751
X00133622Y00121751
X00137559Y00121751
X00141496Y00121751
X00137559Y00125688
X00133622Y00125688
X00129685Y00125688
X00141496Y00125688
X0014937Y00129625
X00141496Y00129625
X00129685Y00129625
X00145433Y00129625
X00137559Y00129625
X00133622Y00129625
X00145433Y00133562
X00141496Y00133562
X00137559Y00133562
X0014937Y00133562
X00133622Y00133562
X00153307Y00133562
X00137559Y00141437
X0014937Y00141437
X00141496Y00141437
X00145433Y00141437
X00145433Y00145374
X00141496Y00145374
X00129685Y00145374
X00129685Y00149311
X00141496Y00149311
X00133622Y00149311
X00137559Y00149311
X00145433Y00149311
X00141496Y00153248
X00133622Y00153248
X00145433Y00153248
X00129685Y00153248
X00137559Y00153248
X00129685Y00157185
X00145433Y00157185
X00141496Y00157185
X00133622Y00157185
X00137559Y00157185
X00137559Y00161122
X00129685Y00161122
X00141496Y00161122
X00145433Y00161122
X00133622Y00161122
X00133622Y00165059
X00141496Y00165059
X00137559Y00165059
X00129685Y00165059
X00145433Y00165059
X00133622Y00168996
X00141496Y00168996
X00129685Y00168996
X00137559Y00168996
X00145433Y00168996
X00129685Y00172933
X00133622Y00172933
X00141496Y00172933
X00145433Y00172933
X00137559Y00172933
X00151338Y00181791
X001474Y001818
X00137559Y00185728
X00129685Y00185728
X00141496Y00185728
X00145433Y00185728
X00137659Y00189665
X00141496Y00189665
X00129685Y00189665
X00145433Y00189665
X00145Y0020675
X00135Y002085
X001314Y002089
X001382Y002174
X00135Y002175
X001519Y002293
X0014Y002297
X001519Y002326
X00139175Y00234575
X001413Y0023665
X001539Y002399
X0015015Y0023995
X001539Y002427
X001489Y002518
X001458Y002615
X001525Y00263
X00133Y002635
X00134Y002737
X00134Y002767
X001311Y002804
X00135Y002815
X001445Y002823
X001312Y002879
X001518Y002885
X001386Y00289
X001349Y002926
X001481Y002977
X00133Y003004
X001387Y003005
X001537Y003035
X001444Y003039
X001387Y003053
X001368Y003091
X001342Y00311
X001458Y003119
X001326Y00334
X00145Y003356
X00152Y003395
X001403Y003397
X00134Y003401
X001335Y00344
X001513Y003466
X001429Y003477
X001666Y00336
X001642Y003341
X001775Y003296
X001783Y003205
X001752Y003203
X001752Y003169
X001652Y003102
X00161Y003102
X001682Y003064
X001617Y003054
X001555Y002846
X00167Y002693
X001625Y002635
X001673Y002635
X001755Y002624
X001625Y002483
X001716Y002483
X001599Y002445
X001667Y002445
X001763Y002384
X001735Y00237
X001763Y002357
X00163Y002293
X00155Y0020675
X00157Y001791
X001658Y001763
X001563Y001751
X00158228Y00172933
X00162165Y00172933
X00158228Y00168996
X00162165Y00168996
X001659Y001651
X00177Y00165
X001659Y001612
X00158228Y00161122
X00162165Y00161122
X00158228Y00157185
X001744Y001539
X001658Y0015
X00158228Y00149311
X001617Y001454
X00158228Y00145374
X001687Y00144
X001655Y001439
X001653Y0014
X00162Y001337
X001658Y0013
X001627Y001297
X001757Y001263
X001583Y001256
X00158228Y00121751
X00166Y0012
X00158228Y00117814
X00162165Y00117814
X00162165Y00113877
X00158228Y00113877
X001694Y001138
X00158228Y0010994
X00162165Y0010994
X00158228Y00106003
X00162165Y00106003
X00162165Y00102066
X00158228Y00102066
X001563Y000998
X001669Y000988
X00156259Y00096161
X001583Y000915
X00172Y000888
X001668Y000863
X001575Y000826
X001575Y000675
X001625Y00065
X001576Y000635
X00155Y000625
X001625Y000622
X0016Y000473
X001646Y00046
X0016Y000435
X00155Y000425
X0016Y00039
X001675Y000336
X001643Y000301
X001742Y000239
X001624Y000215
X001697Y000215
X00157Y000204
X002026Y000725
X00201Y00077
X00201Y00083
X001956Y000868
X00193Y000894
X00201Y0009675
X002014Y00103
X001795Y0011
X00193Y0012
X00181Y0012
X001985Y001203
X001956Y001356
X001973Y00138
X00184Y001395
X001795Y0014
X001892Y001467
X001924Y001468
X002013Y001468
X001985Y001468
X001956Y001468
X001795Y001504
X0019Y001609
X001812Y001609
X001795Y001674
X001795Y0018
X002033Y001926
X001856Y001947
X002017Y002029
X001913Y002048
X001987Y002049
X0018375Y0021975
X0019375Y0022005
X001879Y002219
X001894Y002261
X001799Y002283
X0019375Y0022845
X0020375Y0022845
X0018625Y002301
X0019625Y0023045
X0020125Y0023095
X001796Y002444
X002002Y002634
X001981Y002694
X00187Y002695
X0019Y002831
X001825Y002831
X002036Y002908
X001939Y002908
X001825Y002971
X00185Y002971
X001883Y002971
X001973Y003045
X001995Y003178
X001995Y003241
X001995Y003272
X001819Y003296
X001854Y003365
X00184Y00345
X001953Y003464
X001918Y003478
X001995Y003553
X001995Y003584
X00184Y003585
X002034Y003647
X001995Y003647
X002111Y003538
X002062Y003384
X002281Y00320979
X00228Y003174
X002281Y00314279
X00228Y003111
X002076Y0031
X00216Y003005
X002145Y002945
X002281Y00289079
X002242Y002859
X002145Y002811
X002145Y002745
X002254Y002744
X0022725Y002659
X0022725Y0026275
X0022415Y00260729
X002123Y002575
X002281Y002575
X002068Y002529
X002192Y002396
X002225Y002393
X0020625Y0023095
X002201Y002206
X002062Y002196
X002153Y002115
X00206Y002049
X002197Y001925
X002247Y001925
X00215Y00186
X002094Y001825
X002093Y001775
X002247Y001744
X002094Y001725
X002267Y001718
X002095Y001675
X002233Y001643
X002213Y00162
X002055Y001615
X002143Y001496
X002124Y001468
X002085Y001404
X002105Y001294
X002162Y001271
X002213Y001271
X002113Y001074
X0021625Y0010725
X0020625Y0010725
X0022875Y0010725
X002089Y001056
X002263Y001055
X002088Y000936
X002175Y0009275
X002175Y0008725
X0022375Y000855
X002133Y000854
X002058Y00073
X0021625Y00073
X0022625Y00073
X002119Y000663
X002074Y000658
X002119Y000477
X002074Y000361
X002119Y000007
X002136Y-000112
X002074Y-000112
X002098Y-000142
X002312Y000634
X002343Y000734
X002425Y000771
X002425Y000817
X002347Y001092
X002397Y0014275
X002405Y001514
X002425Y001647
X002451Y001647
X002409Y001714
X002295Y00174
X0025Y001764
X002295Y00181
X002464Y001891
X002508Y001948
X002401Y002007
X002372Y002007
X002403Y002037
X002446Y002414
X002539Y002486
X002292Y002533
X002311Y002593
X002465Y002669
X002316Y002669
X0024855Y0027785
X002463Y002977
X002492Y002986
X002518Y003087
X002348Y003105
X002569Y00320579
X0026085Y00317429
X002728Y003161
X002603Y00311429
X002555Y00308
X002571Y003032
X002695Y00301
X002695Y002944
X002779Y002922
X002712Y002922
X002745Y002922
X0026085Y00285929
X0026085Y00279629
X002569Y00276779
X0026085Y00273629
X002763Y00262
X002706Y002608
X002569Y002562
X0026085Y00254429
X002678Y002368
X002704Y002104
X00267Y002103
X002545Y00207
X0027Y002065
X002753Y002024
X002601Y001957
X002555Y0018965
X002549Y001775
X002727Y001675
X00255Y001507
X00258Y001506
X002663Y00145
X002602Y001432
X002727Y001432
X002546Y0014275
X002576Y001422
X00262Y0014
X002663Y001399
X002778Y001389
X002551Y001274
X00275Y00097
X002776Y-000154
X002776Y-000206
X003025Y000275
X002825Y000275
X002875Y000275
X002925Y000275
X002975Y000275
X002925Y000325
X003025Y000325
X002875Y000325
X002975Y000325
X002825Y000325
X002825Y000375
X002875Y000375
X003025Y000375
X002925Y000375
X002975Y000375
X003025Y000425
X002975Y000425
X002925Y000425
X002875Y000425
X002825Y000425
X002825Y000475
X002875Y000475
X003025Y000475
X002975Y000475
X002925Y000475
X002925Y000525
X002825Y000525
X002975Y000525
X002875Y000525
X003025Y000525
X002975Y000575
X002825Y000575
X003025Y000575
X002875Y000575
X002925Y000575
X00295Y00097
X00285Y00097
X0029Y001403
X002855Y001575
X002945Y001625
X002855Y001675
X002945Y001725
X002855Y001775
X002945Y001825
X002855Y001875
X002945Y001925
X0028Y002045
X003022Y002076
X002979Y0021
X002818Y00267
X002893Y002745
X002941Y002746
X0030085Y002859
X00299Y002945
X00295Y002945
X00299Y003005
X002927Y003036
X003047Y003384
X0031Y003361
X003152Y003322
X003051Y003259
X00315Y003174
X003106Y0031425
X00315Y003111
X003106Y0030795
X00315Y003051
X00315Y002985
X003228Y002962
X0031055Y002891
X003207Y002885
X00315Y00287
X0031055Y0027965
X00315Y002702
X0031055Y00267
X00315Y002639
X0031055Y0026075
X00315Y0025765
X0031055Y0025445
X003248Y002414
X003258Y002368
X0030525Y002225
X003085Y002225
X003115Y002225
X0031475Y002225
X00311574Y002074
X003053Y002073
X003084Y001996
X003095Y001632
X003202Y001631
X003095Y001442
X00305Y00097
X00315Y00097
X00315Y00083
X00305Y00083
X003125Y000575
X003075Y000575
X003075Y000525
X003125Y000525
X003075Y000475
X003125Y000475
X003125Y000425
X003075Y000425
X003125Y000375
X003075Y000375
X003125Y000325
X003075Y000325
X003125Y000275
X003075Y000275
X003411Y-000205
X003412Y-000154
X003499Y001111
X00345Y001521
X003338Y002074
X00345Y002544
X003419Y00257579
X00345Y002607
X003419Y00263879
X00345Y00267
X003419Y00270179
X00345Y002733
X003419Y00276479
X00345Y002796
X003419Y00282779
X0034585Y00285929
X003419Y00289079
X003349Y002954
X00345Y002985
X003419Y003028
X003419Y00307979
X00345Y003111
X003419Y00314279
X00345Y003174
X003419Y00320579
X003301Y003242
X003399Y003249
X003501Y003258
X003661Y003395
X0039625Y0033525
X0039375Y0033525
X0037625Y0032345
X0036Y003221
X0037375Y0032095
X00382Y003163
X0036875Y0031155
X0038375Y00301
X0037625Y0030095
X003911Y002999
X003862Y002991
X003737Y002948
X003936Y001716
X003771Y001577
X003549Y001116
X004048Y001387
X004237Y001534
X004087Y001703
X004176Y001719
X00421Y001746
X004216Y001785
X004068Y001843
X004141Y00185
X00412Y001888
X004204Y001932
X004272Y001997
X004115Y002006
X004197Y002024
X004226Y002038
X004282Y002421
X004115Y002544
X004158Y002581
X004373Y003013
X004382Y002863
X004355Y002813
X004335Y002787
X004426Y002663
X004326Y00243
X00447Y00205
X004494Y002027
X004475Y001997
X004421Y001997
X004422Y001965
X004436Y001883
X004315Y001869
X004508Y001848
X004423Y001764
X004527Y001722
X004423Y001597
X004423Y001566
X004417Y001087
X004419Y001037
X004419Y000987
X004419Y000937
X004419Y000887
X004419Y000837
X004418Y000787
X004419Y000737
X004419Y000687
X004549Y000487
X00455Y000537
X00455Y000587
X00455Y000637
X00455Y000687
X004549Y000737
X004549Y000787
X004548Y000837
X00455Y000887
X004549Y000937
X004549Y000987
X004548Y001037
X00455Y001087
X004638Y001479
X004705Y00148
X00462Y001503
X004627Y001603
X004549Y001849
X004557Y002462
X004556Y002563
X004557Y002612
X004634Y002762
X00465Y002862
X004695Y002912
X004645Y002963
X004672Y003013
T2C.02F197S55
X000245Y00055
X000245Y00065
X-00011Y0015625
X-0000675Y0015625
X-0000675Y0016125
X-00011Y0016125
X-0000675Y0016625
X-00011Y0016625
X-0000675Y0017125
X-0000275Y001755
X0000225Y001755
X000155Y001825
X-00006Y00283
X-00006Y00288
X-00006Y00293
X-00006Y00298
X-00002Y0030175
X00003Y0030175
X00073Y0033
X00062Y0033
X00073Y003145
X00062Y003145
X00045Y00265
X00055Y00265
X0003Y00265
X000625Y0025625
X00047Y0019
X000305Y001825
X00047Y00175
X00083Y00215
X00107Y00215
X001006Y00222
X000895Y00222
X000975Y003565
X00087Y00365
X00109Y00365
X00167Y00276
X00187Y002755
X001783Y000995
X001783Y000855
X001985Y000575
X001885Y000575
X001985Y000375
X001885Y000375
X0022Y000075
X002385Y00025
X0025Y000335
X002325Y000385
X00225Y000445
X002195Y001745
X002425Y00279
X002425Y002956
X002145Y00316
X002795Y0033
X002905Y0033
X002735Y003225
X00297Y003225
X00299Y00316
X00299Y002805
X002705Y002805
X00299Y002745
X002705Y002745
X002675Y000425
X002677Y00032
X002556Y000319
X002676Y000279
X00262Y000276
X0035Y000075
X0034Y000075
X0033Y000075
X0037Y000075
X0036Y000075
X00345Y000135
X00355Y000135
X00315Y00149
X00356Y002745
X003275Y00279
X00356Y002805
X00356Y002945
X003275Y00296
X00356Y003005
X00369Y00322
X004005Y00324
X00395Y00316
X003995Y00307
X00395Y002995
X004215Y002735
X00422Y002665
X00422Y002627
X00415Y00196
X00415Y001645
X00415Y00153
X004Y000075
X0041Y000075
X0042Y000075
X0039Y000075
X0038Y000075
X00442Y000485
X00442Y000535
X00442Y000585
X00442Y000635
X004425Y00237
X004465Y00237
X00442Y002565
X00438Y002565
X004314Y002818
T3C.036F197S55
X00025Y000225
X00055Y000225
X00025Y000325
X00055Y000325
X00025Y000425
X00055Y000425
X00255Y00105
X00255Y00075
X00285Y00075
X00285Y00105
X004275Y0014025
X004275Y0017025
X004275Y0017975
X004275Y0020975
X004475Y0020975
X004375Y0020975
X004675Y0020975
X004575Y0020975
X004675Y0017975
X004375Y0017975
X004475Y0017975
X004575Y0017975
X004575Y0017025
X004475Y0017025
X004375Y0017025
X004675Y0017025
X004575Y0014025
X004675Y0014025
X004475Y0014025
X004375Y0014025
T4C.04F139S55
X0007Y00035
X001281Y003189
X00025Y003225
X001281Y003289
X001281Y00355
X001281Y00365
X001381Y00365
X001481Y00365
X001581Y00365
X001681Y00365
X001381Y00355
X001481Y00355
X001581Y00355
X001681Y00355
X001681Y003289
X001581Y003289
X001481Y003289
X001381Y003289
X001681Y003189
X001581Y003189
X001481Y003189
X001381Y003189
X0023Y-0001
X0024Y-0001
X0025Y-0001
X0023Y0
X0024Y0
X0025Y0
X0023Y0012
X0024Y0012
X0025Y0012
X0024Y0013
X0023Y0013
X0025Y0013
X0025Y0022
X0024Y0022
X0023Y0022
X0023Y0023
X0025Y0023
X0024Y0023
X0023Y0035
X0024Y0035
X0025Y0035
X0024Y0036
X0023Y0036
X0025Y0036
X0026Y0036
X0027Y0036
X0026Y0035
X0027Y0035
X0027Y0023
X0026Y0023
X0027Y0022
X0026Y0022
X0027Y0013
X0026Y0013
X0027Y0012
X0026Y0012
X0027Y0
X0026Y0
X0027Y-0001
X0026Y-0001
X0028Y-0001
X0029Y-0001
X0028Y0
X0029Y0
X003Y0012
X0028Y0012
X0029Y0012
X003Y0013
X0028Y0013
X0029Y0013
X00302205Y00148642
X00302205Y00166358
X00302205Y00178642
X00302205Y00196358
X0029Y0022
X0028Y0022
X0029Y0023
X0028Y0023
X0028Y0035
X0029Y0035
X003Y0035
X0028Y0036
X0029Y0036
X003Y0036
X0031Y0036
X0032Y0036
X0033Y0036
X0034Y0036
X0035Y0036
X0032Y0035
X0033Y0035
X0034Y0035
X0035Y0035
X0031Y0035
X0035Y0023
X0034Y0023
X0033Y0023
X0034Y0022
X0033Y0022
X0035Y0022
X00327795Y00196358
X00339705Y00196358
X00327795Y00178642
X00339705Y00178642
X00327795Y00166358
X00339705Y00166358
X00327795Y00148642
X00339705Y00148642
X0033Y0013
X0034Y0013
X0035Y0013
X0031Y0013
X0032Y0013
X0034Y0012
X0031Y0012
X0032Y0012
X0033Y0012
X0035Y0012
X0034Y0
X0033Y0
X0035Y0
X0033Y-0001
X0035Y-0001
X0034Y-0001
X0036Y-0001
X0037Y-0001
X0036Y0
X0037Y0
X0036Y0012
X0037Y0012
X0036Y0013
X0037Y0013
X00365295Y00148642
X00377205Y00148642
X00365295Y00166358
X00377205Y00166358
X00365295Y00178642
X00377205Y00178642
X00365295Y00196358
X00377205Y00196358
X0037Y0022
X0036Y0022
X0037Y0023
X0036Y0023
X0036Y0035
X0037Y0035
X0036Y0036
X0037Y0036
X0038Y0036
X0039Y0036
X004Y0036
X0038Y0035
X0039Y0035
X004Y0035
X004Y0023
X0038Y0023
X0039Y0023
X004Y0022
X0038Y0022
X0039Y0022
X00402795Y00196358
X00402795Y00178642
X00402795Y00166358
X00402795Y00148642
X0039Y0013
X004Y0013
X0038Y0013
X004Y0012
X0039Y0012
X0038Y0012
X004Y0
X0038Y0
X0039Y0
X0039Y-0001
X0038Y-0001
X004Y-0001
X0041Y-0001
X0042Y-0001
X0041Y0
X0042Y0
X0042875Y000175
X0042Y0012
X0041Y0012
X0042Y0013
X0041Y0013
X0041Y0022
X0042Y0022
X0042Y0023
X0041Y0023
X0041Y0035
X0042Y0035
X0042Y0036
X0041Y0036
X0045Y00325
T5C.042F139S55
X0012755Y-000006
X0012215Y000106
X000725Y002875
X000625Y002875
X000525Y002875
X0013295Y000106
X0014375Y000106
X0016535Y000106
X0015455Y000106
X0014915Y-000006
X0013835Y-000006
X0015995Y-000006
T6C.048F139S55
X0003Y-000075
X00045Y-000075
X0006Y-000075
X000568Y003575
X000418Y003575
T7C.065F089S55
X-00010674Y00042549
X-00010674Y00179951
X-00009974Y00229249
X-00009974Y00306651
X00459124Y00309951
X00459124Y00232549
X00459124Y00117451
X00459124Y00040049
T8C.094F066S55
X000275Y003
X000975Y003
T9C.125F035S794
X0009455Y00005
X0019295Y00005
T10C.187F035S1033
X0Y0
X0Y0035
X0045Y0035
X0045Y0
M30
