G04 CAM350 V9.1.1 (Build 181) Date:  Tue Oct 17 14:30:11 2006 *
G04 Database: C:\Documents and Settings\George\My Documents\PADS Projects\Files\J5458-00-Visi-Trak\CAM350\J5458-00-CHECK.cam *
G04 Layer 12: J5458-SP1.PHO *
%FSLAX35Y35*%
%MOIN*%
%SFA1.000B1.000*%

%MIA0B0*%
%IPPOS*%
%ADD11C,0.01000*%
%ADD70R,0.01575X0.01575*%
%ADD71R,0.33900X0.33900*%
%ADD72R,0.02400X0.02400*%
%ADD73R,0.02200X0.02200*%
%ADD32C,0.01500*%
%ADD58R,0.04550X0.04550*%
%ADD59R,0.09300X0.09300*%
%ADD60R,0.07100X0.07100*%
%ADD61R,0.03200X0.03200*%
%ADD63R,0.04800X0.04800*%
%ADD64R,0.03550X0.03550*%
%ADD65R,0.02750X0.02750*%
%ADD66R,0.02000X0.02000*%
%ADD68R,0.04950X0.04950*%
%ADD69C,0.01775*%
%ADD77R,0.03950X0.03950*%
%ADD78R,0.02600X0.02600*%
%ADD106R,0.02950X0.02950*%
%LNJ5458-SP1.PHO*%
%LPD*%
G36*
X496143Y168000D02*
G01X496429Y168429D01*
X496857Y168714*
X497143Y168429*
X497286Y168143*
X497429Y168000*
X497143Y167571*
X497000Y167286*
X496571*
X496429Y167571*
X496143Y168000*
G37*
G36*
X513143Y160714D02*
G01X513286Y161000D01*
X513571Y161143*
X513857Y161571*
X514000*
X514429Y161429*
X514714Y161143*
X515000Y160571*
Y160143*
X514857Y159286*
X514286Y158429*
X513857Y158000*
X513429Y157857*
X513286Y158000*
X513429Y158143*
X513857Y158714*
X514143Y159286*
X514000Y160000*
X513286Y160429*
X513143Y160714*
G37*
G36*
X495429Y165143D02*
G01Y165286D01*
X495571*
X495714Y165429*
X496714Y165857*
X497143Y166000*
X497286Y165857*
Y161143*
Y160714*
X497429Y160571*
X497857Y160286*
X498143*
X498429Y160143*
X498286Y160000*
X495714*
X495571Y160143*
X495714Y160286*
X495857*
X496143Y160571*
X496286Y161143*
Y164714*
X496143Y165000*
X496000Y165143*
X495429*
G37*
G36*
X490429Y160429D02*
G01Y161857D01*
X490714Y162000*
X491429Y160571*
X492000Y160286*
X492571Y160143*
X493000*
X493429Y160429*
X493714Y161286*
X493429Y161857*
X492714Y162286*
X492143Y162571*
X491429Y163000*
X491000Y163286*
X490714Y163714*
X490571Y164286*
X490714Y164857*
X491143Y165429*
X491714Y165714*
X492571Y165857*
X493429Y165714*
X493857Y165571*
X494000Y165429*
Y164286*
X493857*
X493571Y164429*
X493000Y165286*
X492143Y165571*
X491429Y165286*
X491143Y164714*
X491286Y164286*
X491429Y164000*
X492000Y163714*
X493429Y163143*
X494000Y162714*
X494143Y162286*
X494286Y161714*
X494143Y161000*
X493714Y160429*
X493000Y160000*
X492286Y159857*
X491714Y160000*
X491000Y160143*
X490857Y160286*
X490571*
X490429Y160429*
G37*
G36*
X415143Y165143D02*
G01X415286Y165286D01*
X415429*
X416143Y165429*
X417000Y166000*
X417143*
X417286Y165714*
Y164571*
X417714Y165143*
X418000Y165571*
X418429Y165714*
X418714Y165857*
X419286Y165571*
X419714Y165143*
X419143Y164571*
X418857Y164714*
X418286Y164857*
X417857Y164714*
X417571Y164571*
X417286Y163714*
Y160857*
X417429Y160571*
X418000Y160286*
X418286*
X418571Y160143*
X418429Y160000*
X415714*
X415571Y160143*
X415857Y160286*
X416143Y160571*
X416286Y160857*
Y164286*
X416143Y164857*
X415571Y165000*
X415286*
X415143Y165143*
G37*
G36*
X399857D02*
G01X400000Y165286D01*
X400143*
X400857Y165429*
X401714Y166000*
X401857*
X402000Y165714*
Y164571*
X402429Y165143*
X402714Y165571*
X403143Y165714*
X403429Y165857*
X404000Y165571*
X404429Y165143*
X403857Y164571*
X403571Y164714*
X403000Y164857*
X402571Y164714*
X402286Y164571*
X402000Y163714*
Y160857*
X402143Y160571*
X402714Y160286*
X403000*
X403286Y160143*
X403143Y160000*
X400429*
X400286Y160143*
X400571Y160286*
X400857Y160571*
X401000Y160857*
Y164286*
X400857Y164857*
X400286Y165000*
X400000*
X399857Y165143*
G37*
G36*
X459571D02*
G01X459714Y165286D01*
X459857*
X460571Y165429*
X461429Y166000*
X461571*
X461714Y165714*
Y164571*
X462143Y165143*
X462429Y165571*
X462857Y165714*
X463143Y165857*
X463714Y165571*
X464143Y165143*
X463571Y164571*
X463286Y164714*
X462714Y164857*
X462286Y164714*
X462000Y164571*
X461714Y163714*
Y160857*
X461857Y160571*
X462429Y160286*
X462714*
X463000Y160143*
X462857Y160000*
X460143*
X460000Y160143*
X460286Y160286*
X460571Y160571*
X460714Y160857*
Y164286*
X460571Y164857*
X460000Y165000*
X459714*
X459571Y165143*
G37*
G36*
X404857D02*
G01X405000Y165429D01*
X405857Y166143*
X406429Y166857*
X406714Y167143*
Y165714*
X408571*
X408714Y165857*
X408857Y165714*
X408714Y165571*
X408571Y165143*
X408286Y165000*
X406714*
Y160857*
X406857Y160571*
X407286Y160286*
X407714*
X408429Y160429*
X408714Y160571*
X408857Y160429*
X408714Y160286*
X408286Y160143*
X407286Y159857*
X406571Y160000*
X406143Y160286*
X405857Y160714*
X405714Y161571*
Y165000*
X405000*
X404857Y165143*
G37*
G36*
X447714D02*
G01X447857Y165429D01*
X448714Y166143*
X449286Y166857*
X449571Y167143*
Y165714*
X451429*
X451571Y165857*
X451714Y165714*
X451571Y165571*
X451429Y165143*
X451143Y165000*
X449571*
Y160857*
X449714Y160571*
X450143Y160286*
X450571*
X451286Y160429*
X451571Y160571*
X451714Y160429*
X451571Y160286*
X451143Y160143*
X450143Y159857*
X449429Y160000*
X449000Y160286*
X448714Y160714*
X448571Y161571*
Y165000*
X447857*
X447714Y165143*
G37*
G36*
X409286Y162857D02*
G01X409429Y164000D01*
X410143Y165000*
X411000Y165571*
X411857Y165857*
X413000Y165571*
X413714Y164857*
X414143Y164143*
X414286Y163571*
X414143Y163429*
X410286*
Y163286*
X410429Y162143*
X410857Y161286*
X411571Y160571*
X412429Y160429*
X413286Y160571*
X414143Y161143*
X414286Y161000*
X414143Y160857*
X413857Y160429*
X412857Y160000*
X411857Y159857*
X410857Y160000*
X410000Y160714*
X409429Y161714*
X409286Y162857*
G37*
G36*
X434000D02*
G01X434143Y164000D01*
X434857Y165000*
X435714Y165571*
X436571Y165857*
X437714Y165571*
X438429Y164857*
X438857Y164143*
X439000Y163571*
X438857Y163429*
X435000*
Y163286*
X435143Y162143*
X435571Y161286*
X436286Y160571*
X437143Y160429*
X438000Y160571*
X438857Y161143*
X439000Y161000*
X438857Y160857*
X438571Y160429*
X437571Y160000*
X436571Y159857*
X435571Y160000*
X434714Y160714*
X434143Y161714*
X434000Y162857*
G37*
G36*
X484429D02*
G01X484571Y164000D01*
X485286Y165000*
X486143Y165571*
X487000Y165857*
X488143Y165571*
X488857Y164857*
X489286Y164143*
X489429Y163571*
X489286Y163429*
X485429*
Y163286*
X485571Y162143*
X486000Y161286*
X486714Y160571*
X487571Y160429*
X488429Y160571*
X489286Y161143*
X489429Y161000*
X489286Y160857*
X489000Y160429*
X488000Y160000*
X487000Y159857*
X486000Y160000*
X485143Y160714*
X484571Y161714*
X484429Y162857*
G37*
G36*
X394143Y161143D02*
G01X394286Y161857D01*
X394857Y162429*
X395857Y162857*
X397286Y163143*
Y164714*
X397000Y165143*
X396571Y165429*
X395857Y165571*
X395286Y165429*
X395000Y164714*
X395143Y164143*
Y164000*
X395000Y163857*
X394429Y164000*
X394143Y164286*
X394286Y164714*
X394571Y165143*
X395286Y165714*
X396286Y165857*
X397143Y165714*
X397714Y165429*
X398143Y164857*
X398286Y164143*
Y160857*
X398429Y160429*
X398714Y160143*
X399000*
X399286Y160429*
X399429Y160286*
X399143Y160000*
X398429Y159857*
X397857Y160000*
X397429Y160571*
X396429Y160000*
X395571Y159857*
X395000Y160000*
X394571Y160143*
X394286Y160571*
X394143Y161143*
G37*
G36*
X386286Y165714D02*
G01X386429Y165857D01*
X387286*
X387857Y166000*
X388000*
X388143Y165857*
Y162143*
X388286Y161286*
X388714Y160571*
X389143Y160286*
X389571*
X390714Y160571*
X391000Y161000*
X391143Y161429*
Y164857*
X391000Y165429*
X390571Y165571*
X390286Y165714*
X390571Y165857*
X391286*
X391857Y166000*
X392000*
X392143Y165714*
Y160857*
X392286Y160571*
X392714Y160429*
X393000*
X393143Y160286*
X393000Y160143*
X392286*
X391857Y160000*
X391429*
X391143Y160143*
Y160857*
X390286Y160143*
X389143Y159857*
X388286Y160000*
X387714Y160429*
X387286Y161143*
X387143Y162143*
Y164857*
X387000Y165429*
X386429Y165571*
X386286Y165714*
G37*
G36*
X452000D02*
G01X452143Y165857D01*
X453000*
X453571Y166000*
X453714*
X453857Y165857*
Y162143*
X454000Y161286*
X454429Y160571*
X454857Y160286*
X455286*
X456429Y160571*
X456714Y161000*
X456857Y161429*
Y164857*
X456714Y165429*
X456286Y165571*
X456000Y165714*
X456286Y165857*
X457000*
X457571Y166000*
X457714*
X457857Y165714*
Y160857*
X458000Y160571*
X458429Y160429*
X458714*
X458857Y160286*
X458714Y160143*
X458000*
X457571Y160000*
X457143*
X456857Y160143*
Y160857*
X456000Y160143*
X454857Y159857*
X454000Y160000*
X453429Y160429*
X453000Y161143*
X452857Y162143*
Y164857*
X452714Y165429*
X452143Y165571*
X452000Y165714*
G37*
G36*
X440000Y165000D02*
G01Y165143D01*
X440143Y165286*
X441143Y165571*
X441429Y165857*
X441714Y166000*
X441857*
X442000Y165714*
Y164714*
X443000Y165571*
X444000Y165857*
X445000Y165571*
X445714Y165000*
X446000Y164143*
X446143Y163000*
Y160857*
X446429Y160429*
X446714Y160286*
X447143*
X447286Y160143*
X447000Y160000*
X444571*
Y160143*
X444714Y160286*
X444857*
X445143Y160429*
Y163286*
X445000Y164143*
X444714Y164714*
X444143Y165143*
X443429Y165286*
X442857Y165143*
X442429Y164857*
X442143Y164571*
X442000Y164143*
Y160857*
X442286Y160429*
X442857Y160286*
X443143Y160143*
X443000Y160000*
X440429*
X440286Y160143*
X440429Y160286*
X440857Y160571*
X441000Y161143*
Y164571*
X440857Y164857*
X440429Y165000*
X440000*
G37*
G36*
X505000D02*
G01Y165143D01*
X505143Y165286*
X506143Y165571*
X506429Y165857*
X506714Y166000*
X506857*
X507000Y165714*
Y164714*
X508000Y165571*
X509000Y165857*
X510000Y165571*
X510714Y165000*
X511000Y164143*
X511143Y163000*
Y160857*
X511429Y160429*
X511714Y160286*
X512143*
X512286Y160143*
X512000Y160000*
X509571*
Y160143*
X509714Y160286*
X509857*
X510143Y160429*
Y163286*
X510000Y164143*
X509714Y164714*
X509143Y165143*
X508429Y165286*
X507857Y165143*
X507429Y164857*
X507143Y164571*
X507000Y164143*
Y160857*
X507286Y160429*
X507857Y160286*
X508143Y160143*
X508000Y160000*
X505429*
X505286Y160143*
X505429Y160286*
X505857Y160571*
X506000Y161143*
Y164571*
X505857Y164857*
X505429Y165000*
X505000*
G37*
G36*
X498857Y158571D02*
G01X499143Y159286D01*
X499857Y159714*
X499571Y160143*
X499429Y160571*
X499714Y161286*
X500286Y162000*
X499571Y162714*
X499286Y163714*
X499429Y164571*
X499857Y165286*
X500571Y165714*
X501429Y165857*
X502143Y165714*
X502857Y165429*
X503286Y165286*
X503857Y165429*
X504143Y165857*
X504286Y166000*
Y166143*
X504429Y166000*
X504286Y165429*
Y165143*
X504143Y164857*
X503714Y164571*
X503571Y164429*
X503714Y164286*
Y163714*
X503571Y163000*
X503143Y162286*
X502429Y161857*
X501571Y161714*
X500857Y161857*
X500571*
X500143Y161571*
X499857Y161143*
X500000Y160714*
X500286Y160571*
X500714Y160429*
X501571*
X502714Y160286*
X503571Y160143*
X504000Y159714*
X504143Y159143*
X504000Y158429*
X503286Y157857*
X502429Y157429*
X501429Y157286*
X500429Y157429*
X499571Y157714*
X499000Y158143*
X498857Y158571*
G37*
G36*
X464143Y165571D02*
G01X464286Y165714D01*
X466714*
X466857Y165571*
X466714Y165429*
X466429*
X466143Y165286*
X466000Y165143*
X466286Y164286*
X467571Y161143*
X468857Y163857*
X469000Y164714*
X468857Y165143*
X468286Y165429*
X468143Y165571*
X468286Y165714*
X470000*
X470143Y165571*
X469714Y165143*
X469429Y164714*
X466857Y157714*
X466714Y157571*
X466571Y157286*
X465857*
X465714Y157429*
X465857Y157571*
X466571Y158714*
X466857Y159429*
X467000Y159857*
Y160143*
X466714Y160714*
X465000Y164714*
X464714Y165143*
X464286Y165429*
X464143Y165571*
G37*
G36*
X520000Y169429D02*
G01X520286Y169571D01*
X523143*
X523286Y169429*
X523143Y169286*
X522857*
X522429Y168857*
X522286Y168000*
Y161857*
Y160857*
X522429Y160571*
X522857Y160429*
X524714*
X525714Y160714*
X526571Y161000*
X527000Y161571*
X527143Y161714*
X527286Y161571*
X527143Y161143*
X526857Y160714*
X526000Y160143*
X524857Y160000*
X520286*
X520143Y160143*
X520429Y160286*
X520857Y160429*
X521143Y160714*
X521286Y161143*
Y168143*
X521143Y168857*
X520571Y169286*
X520143*
X520000Y169429*
G37*
G36*
X527714D02*
G01X528000Y169571D01*
X530857*
X531000Y169429*
X530857Y169286*
X530571*
X530143Y168857*
X530000Y168000*
Y161857*
Y160857*
X530143Y160571*
X530571Y160429*
X532429*
X533429Y160714*
X534286Y161000*
X534714Y161571*
X534857Y161714*
X535000Y161571*
X534857Y161143*
X534571Y160714*
X533714Y160143*
X532571Y160000*
X528000*
X527857Y160143*
X528143Y160286*
X528571Y160429*
X528857Y160714*
X529000Y161143*
Y168143*
X528857Y168857*
X528286Y169286*
X527857*
X527714Y169429*
G37*
G36*
X424143Y164714D02*
G01X424286Y165714D01*
X424571Y166571*
X425000Y167429*
X425571Y168286*
X426286Y168857*
X427143Y169286*
X428143Y169571*
X429143Y169714*
X430571Y169571*
X431857Y169000*
X432143Y168857*
X432571*
X432714Y169000*
X432857Y168714*
X433143Y167000*
Y166714*
X432857*
X432714Y167000*
X432000Y168000*
X431143Y168857*
X430143Y169286*
X429143Y169429*
X427429Y169143*
X426143Y168286*
X425429Y167000*
X425143Y165286*
X425286Y164143*
X425429Y163143*
X425857Y162286*
X426286Y161571*
X427000Y160857*
X427714Y160429*
X428429Y160286*
X429286Y160143*
X430429Y160286*
X431429Y160714*
X432286Y161429*
X432857Y162286*
X433000Y162571*
X433143Y162714*
X433286Y162571*
Y162286*
X433000Y161429*
Y161286*
X432857Y161143*
X432714Y160857*
X431000Y160143*
X429143Y159857*
X428000Y160000*
X427143Y160143*
X426286Y160571*
X425571Y161143*
X424857Y161857*
X424429Y162714*
X424286Y163571*
X424143Y164714*
G37*
G36*
X535571D02*
G01X535714Y165714D01*
X536000Y166571*
X536429Y167429*
X537000Y168286*
X537714Y168857*
X538571Y169286*
X539571Y169571*
X540571Y169714*
X542000Y169571*
X543286Y169000*
X543571Y168857*
X544000*
X544143Y169000*
X544286Y168714*
X544571Y167000*
Y166714*
X544286*
X544143Y167000*
X543429Y168000*
X542571Y168857*
X541571Y169286*
X540571Y169429*
X538857Y169143*
X537571Y168286*
X536857Y167000*
X536571Y165286*
X536714Y164143*
X536857Y163143*
X537286Y162286*
X537714Y161571*
X538429Y160857*
X539143Y160429*
X539857Y160286*
X540714Y160143*
X541857Y160286*
X542857Y160714*
X543714Y161429*
X544286Y162286*
X544429Y162571*
X544571Y162714*
X544714Y162571*
Y162286*
X544429Y161429*
Y161286*
X544286Y161143*
X544143Y160857*
X542429Y160143*
X540571Y159857*
X539429Y160000*
X538571Y160143*
X537714Y160571*
X537000Y161143*
X536286Y161857*
X535857Y162714*
X535714Y163571*
X535571Y164714*
G37*
G36*
X474000Y169429D02*
G01X474143Y169571D01*
X477857*
X479286Y169429*
X480429Y169143*
X481429Y168714*
X482286Y168143*
X482857Y167429*
X483286Y166714*
X483429Y165857*
X483571Y164857*
X483429Y163571*
X483000Y162429*
X482286Y161571*
X481429Y160714*
X480000Y160143*
X478571Y160000*
X474571*
X474286Y160143*
X474429Y160286*
X474857Y160429*
X475143Y160571*
X475286Y161000*
Y167857*
Y168429*
X475000Y168857*
X474714Y169143*
X474286Y169286*
X474000Y169429*
G37*
G36*
X375571Y164714D02*
G01X375714Y165571D01*
X375857Y166571*
X376714Y168000*
X377429Y168714*
X378286Y169286*
X379286Y169571*
X380571Y169714*
X381571Y169571*
X382429Y169429*
X383286Y169000*
X384714Y167571*
X385143Y166714*
X385286Y165857*
X385429Y164714*
X385286Y163429*
X384857Y162143*
X384000Y161143*
X383000Y160429*
X381429Y159857*
X382000Y159571*
X382286Y159286*
X383000Y158857*
X384143Y158286*
X384571Y158143*
X385571Y158286*
X385714Y158429*
X385857Y158286*
X385714Y158143*
X385286Y157857*
X384571Y157571*
X384000*
X383000Y157714*
X382000Y158143*
X381286Y158714*
X380857Y158857*
X378857Y159857*
X378143Y160000*
X377857Y159857*
X377429Y159714*
X377143Y159286*
X377000Y158857*
X376857Y158571*
X376571Y158857*
X376714Y159286*
X376857Y159857*
X377143Y160286*
X377571Y160571*
X376714Y161429*
X376000Y162429*
X375714Y163429*
X375571Y164714*
G37*
%LPC*%
G36*
X410286Y163714D02*
G01X410429Y164429D01*
X410714Y165000*
X411286Y165429*
X411714Y165571*
X412286Y165429*
X412857Y165000*
X413143Y164571*
X413286Y164000*
X413143Y163714*
X410286*
G37*
G36*
X435000D02*
G01X435143Y164429D01*
X435429Y165000*
X436000Y165429*
X436429Y165571*
X437000Y165429*
X437571Y165000*
X437857Y164571*
X438000Y164000*
X437857Y163714*
X435000*
G37*
G36*
X485429D02*
G01X485571Y164429D01*
X485857Y165000*
X486429Y165429*
X486857Y165571*
X487429Y165429*
X488000Y165000*
X488286Y164571*
X488429Y164000*
X488286Y163714*
X485429*
G37*
G36*
X395143Y161286D02*
G01X395286Y161857D01*
X395714Y162286*
X396429Y162714*
X397286Y162857*
Y160857*
X397000Y160571*
X396571Y160286*
X396143Y160143*
X395714*
X395429Y160429*
X395143Y161286*
G37*
G36*
X500286Y164000D02*
G01X500571Y165143D01*
X501000Y165429*
X501429Y165571*
X502000Y165429*
X502286Y165000*
X502571Y164429*
X502714Y163571*
X502429Y162429*
X502000Y162143*
X501571Y162000*
X501000Y162143*
X500714Y162571*
X500429Y163143*
X500286Y164000*
G37*
G36*
X499429Y158714D02*
G01X499714Y159286D01*
X500286Y159571*
X501143Y159429*
X502571*
X503286Y159286*
X503571Y158714*
X503429Y158286*
X502857Y157857*
X502143Y157714*
X501286Y157571*
X500429*
X499857Y157857*
X499571Y158286*
X499429Y158714*
G37*
G36*
X476286Y161286D02*
G01Y168429D01*
Y168857*
X476429Y169000*
X477000Y169143*
X477857Y169286*
X479429Y169143*
X480571Y168429*
X481429Y167714*
X482000Y166714*
X482429Y165571*
X482571Y164286*
X482429Y163143*
X482143Y162286*
X481571Y161429*
X480857Y160857*
X479857Y160429*
X478714Y160286*
X476714Y160571*
X476429Y160857*
X476286Y161286*
G37*
G36*
X376571Y165429D02*
G01X376857Y167000D01*
X377571Y168286*
X378714Y169143*
X380000Y169429*
X380857Y169286*
X381714Y169000*
X382429Y168571*
X383143Y167857*
X383714Y167000*
X384143Y166143*
X384429Y164143*
X384143Y162429*
X383429Y161286*
X382429Y160429*
X381000Y160143*
X380143*
X379571Y160429*
X378143Y161286*
X377429Y162000*
X377000Y163000*
X376714Y164143*
X376571Y165429*
G37*
%LPD*%
G54D61*
X751250Y408750D03*
X746250D03*
X751250Y403750D03*
X746250D03*
X751250Y398750D03*
X746250D03*
X751250Y393750D03*
X746250D03*
X751250Y388750D03*
X746250D03*
X751250Y383750D03*
X746250D03*
X751250Y378750D03*
X746250D03*
X751250Y373750D03*
X746250D03*
X751250Y368750D03*
X746250D03*
X751250Y363750D03*
X746250D03*
X751250Y358750D03*
X746250D03*
X751250Y353750D03*
X746250D03*
X751250Y348750D03*
X746250D03*
X751250Y601250D03*
X746250D03*
X751250Y596250D03*
X746250D03*
X751250Y591250D03*
X746250D03*
X751250Y586250D03*
X746250D03*
X751250Y581250D03*
X746250D03*
X751250Y576250D03*
X746250D03*
X751250Y571250D03*
X746250D03*
X751250Y566250D03*
X746250D03*
X751250Y561250D03*
X746250D03*
X751250Y556250D03*
X746250D03*
X751250Y551250D03*
X746250D03*
X751250Y546250D03*
X746250D03*
X751250Y541250D03*
X746250D03*
X297200Y351250D03*
X302200D03*
X297200Y356250D03*
X302200D03*
X297200Y361250D03*
X302200D03*
X297200Y366250D03*
X302200D03*
X297200Y371250D03*
X302200D03*
X297200Y376250D03*
X302200D03*
X297200Y381250D03*
X302200D03*
X297200Y386250D03*
X302200D03*
X297200Y391250D03*
X302200D03*
X297200Y396250D03*
X302200D03*
X297200Y401250D03*
X302200D03*
X297200Y406250D03*
X302200D03*
X297200Y411250D03*
X302200D03*
X297200Y416250D03*
X302200D03*
X297200Y421250D03*
X302200D03*
X297200Y426250D03*
X302200D03*
X297200Y431250D03*
X302200D03*
X297200Y436250D03*
X302200D03*
X297200Y441250D03*
X302200D03*
X297200Y446250D03*
X302200D03*
X297200Y451250D03*
X302200D03*
X297200Y456250D03*
X302200D03*
X297200Y461250D03*
X302200D03*
X297200Y466250D03*
X302200D03*
X297200Y471250D03*
X302200D03*
X297900Y537950D03*
X302900D03*
X297900Y542950D03*
X302900D03*
X297900Y547950D03*
X302900D03*
X297900Y552950D03*
X302900D03*
X297900Y557950D03*
X302900D03*
X297900Y562950D03*
X302900D03*
X297900Y567950D03*
X302900D03*
X297900Y572950D03*
X302900D03*
X297900Y577950D03*
X302900D03*
X297900Y582950D03*
X302900D03*
X297900Y587950D03*
X302900D03*
X297900Y592950D03*
X302900D03*
X297900Y597950D03*
X302900D03*
G54D69*
X368661Y478839D03*
X372598D03*
X376535D03*
X380472D03*
X384409D03*
X388346D03*
X392283D03*
X396220D03*
X400157D03*
X404094D03*
X408031D03*
X411969D03*
X415906D03*
X419843D03*
X423780D03*
X427717D03*
X431654D03*
X435591D03*
X439528D03*
X443465D03*
X447402D03*
X451339D03*
X368661Y474902D03*
X372598D03*
X376535D03*
X380472D03*
X384409D03*
X388346D03*
X392283D03*
X396220D03*
X400157D03*
X404094D03*
X408031D03*
X411969D03*
X415906D03*
X419843D03*
X423780D03*
X427717D03*
X431654D03*
X435591D03*
X439528D03*
X443465D03*
X447402D03*
X451339D03*
X368661Y470965D03*
X372598D03*
X376535D03*
X380472D03*
X384409D03*
X388346D03*
X392283D03*
X396220D03*
X400157D03*
X404094D03*
X408031D03*
X411969D03*
X415906D03*
X419843D03*
X423780D03*
X427717D03*
X431654D03*
X435591D03*
X439528D03*
X443465D03*
X447402D03*
X451339D03*
X368661Y467028D03*
X372598D03*
X376535D03*
X380472D03*
X384409D03*
X388346D03*
X392283D03*
X396220D03*
X400157D03*
X404094D03*
X408031D03*
X411969D03*
X415906D03*
X419843D03*
X423780D03*
X427717D03*
X431654D03*
X435591D03*
X439528D03*
X443465D03*
X447402D03*
X451339D03*
X368661Y463091D03*
X372598D03*
X376535D03*
X380472D03*
X384409D03*
X388346D03*
X392283D03*
X396220D03*
X400157D03*
X404094D03*
X408031D03*
X411969D03*
X415906D03*
X419843D03*
X423780D03*
X427717D03*
X431654D03*
X435591D03*
X439528D03*
X443465D03*
X447402D03*
X451339D03*
X368661Y459154D03*
X372598D03*
X376535D03*
X380472D03*
X384409D03*
X388346D03*
X392283D03*
X396220D03*
X400157D03*
X404094D03*
X408031D03*
X411969D03*
X415906D03*
X419843D03*
X423780D03*
X427717D03*
X431654D03*
X435591D03*
X439528D03*
X443465D03*
X447402D03*
X451339D03*
X368661Y455217D03*
X372598D03*
X376535D03*
X380472D03*
X384409D03*
X388346D03*
X392283D03*
X396220D03*
X400157D03*
X404094D03*
X408031D03*
X411969D03*
X415906D03*
X419843D03*
X423780D03*
X427717D03*
X431654D03*
X435591D03*
X439528D03*
X443465D03*
X447402D03*
X451339D03*
X368661Y451280D03*
X372598D03*
X376535D03*
X380472D03*
X384409D03*
X388346D03*
X392283D03*
X396220D03*
X400157D03*
X404094D03*
X408031D03*
X411969D03*
X415906D03*
X419843D03*
X423780D03*
X427717D03*
X431654D03*
X435591D03*
X439528D03*
X443465D03*
X447402D03*
X451339D03*
X368661Y447343D03*
X372598D03*
X376535D03*
X380472D03*
X384409D03*
X388346D03*
X392283D03*
X396220D03*
X400157D03*
X404094D03*
X408031D03*
X411969D03*
X415906D03*
X419843D03*
X423780D03*
X427717D03*
X431654D03*
X435591D03*
X439528D03*
X443465D03*
X447402D03*
X451339D03*
X368661Y443406D03*
X372598D03*
X376535D03*
X380472D03*
X384409D03*
X388346D03*
X392283D03*
X396220D03*
X400157D03*
X404094D03*
X408031D03*
X411969D03*
X415906D03*
X419843D03*
X423780D03*
X427717D03*
X431654D03*
X435591D03*
X439528D03*
X443465D03*
X447402D03*
X451339D03*
X368661Y439469D03*
X372598D03*
X376535D03*
X380472D03*
X384409D03*
X388346D03*
X392283D03*
X396220D03*
X400157D03*
X404094D03*
X408031D03*
X411969D03*
X415906D03*
X419843D03*
X423780D03*
X427717D03*
X431654D03*
X435591D03*
X439528D03*
X443465D03*
X447402D03*
X451339D03*
X368661Y435531D03*
X372598D03*
X376535D03*
X380472D03*
X384409D03*
X388346D03*
X392283D03*
X396220D03*
X400157D03*
X404094D03*
X408031D03*
X411969D03*
X415906D03*
X419843D03*
X423780D03*
X427717D03*
X431654D03*
X435591D03*
X439528D03*
X443465D03*
X447402D03*
X451339D03*
X368661Y431594D03*
X372598D03*
X376535D03*
X380472D03*
X384409D03*
X388346D03*
X392283D03*
X396220D03*
X400157D03*
X404094D03*
X408031D03*
X411969D03*
X415906D03*
X419843D03*
X423780D03*
X427717D03*
X431654D03*
X435591D03*
X439528D03*
X443465D03*
X447402D03*
X451339D03*
X368661Y427657D03*
X372598D03*
X376535D03*
X380472D03*
X384409D03*
X388346D03*
X392283D03*
X396220D03*
X400157D03*
X404094D03*
X408031D03*
X411969D03*
X415906D03*
X419843D03*
X423780D03*
X427717D03*
X431654D03*
X435591D03*
X439528D03*
X443465D03*
X447402D03*
X451339D03*
X368661Y423720D03*
X372598D03*
X376535D03*
X380472D03*
X384409D03*
X388346D03*
X392283D03*
X396220D03*
X400157D03*
X404094D03*
X408031D03*
X411969D03*
X415906D03*
X419843D03*
X423780D03*
X427717D03*
X431654D03*
X435591D03*
X439528D03*
X443465D03*
X447402D03*
X451339D03*
X368661Y419783D03*
X372598D03*
X376535D03*
X380472D03*
X384409D03*
X388346D03*
X392283D03*
X396220D03*
X400157D03*
X404094D03*
X408031D03*
X411969D03*
X415906D03*
X419843D03*
X423780D03*
X427717D03*
X431654D03*
X435591D03*
X439528D03*
X443465D03*
X447402D03*
X451339D03*
X368661Y415846D03*
X372598D03*
X376535D03*
X380472D03*
X384409D03*
X388346D03*
X392283D03*
X396220D03*
X400157D03*
X404094D03*
X408031D03*
X411969D03*
X415906D03*
X419843D03*
X423780D03*
X427717D03*
X431654D03*
X435591D03*
X439528D03*
X443465D03*
X447402D03*
X451339D03*
X368661Y411909D03*
X372598D03*
X376535D03*
X380472D03*
X384409D03*
X388346D03*
X392283D03*
X396220D03*
X400157D03*
X404094D03*
X408031D03*
X411969D03*
X415906D03*
X419843D03*
X423780D03*
X427717D03*
X431654D03*
X435591D03*
X439528D03*
X443465D03*
X447402D03*
X451339D03*
X368661Y407972D03*
X372598D03*
X376535D03*
X380472D03*
X384409D03*
X388346D03*
X392283D03*
X396220D03*
X400157D03*
X404094D03*
X408031D03*
X411969D03*
X415906D03*
X419843D03*
X423780D03*
X427717D03*
X431654D03*
X435591D03*
X439528D03*
X443465D03*
X447402D03*
X451339D03*
X368661Y404035D03*
X372598D03*
X376535D03*
X380472D03*
X384409D03*
X388346D03*
X392283D03*
X396220D03*
X400157D03*
X404094D03*
X408031D03*
X411969D03*
X415906D03*
X419843D03*
X423780D03*
X427717D03*
X431654D03*
X435591D03*
X439528D03*
X443465D03*
X447402D03*
X451339D03*
X368661Y400098D03*
X372598D03*
X376535D03*
X380472D03*
X384409D03*
X388346D03*
X392283D03*
X396220D03*
X400157D03*
X404094D03*
X408031D03*
X411969D03*
X415906D03*
X419843D03*
X423780D03*
X427717D03*
X431654D03*
X435591D03*
X439528D03*
X443465D03*
X447402D03*
X451339D03*
X368661Y396161D03*
X372598D03*
X376535D03*
X380472D03*
X384409D03*
X388346D03*
X392283D03*
X396220D03*
X400157D03*
X404094D03*
X408031D03*
X411969D03*
X415906D03*
X419843D03*
X423780D03*
X427717D03*
X431654D03*
X435591D03*
X439528D03*
X443465D03*
X447402D03*
X451339D03*
G54D11*
X370000Y145000D02*
G01X680000D01*
Y230000*
X370000*
Y145000*
Y200000D02*
G01X680000D01*
Y212500D02*
G01X370000D01*
Y175000D02*
G01X680000D01*
X617500Y200000D02*
G01Y145000D01*
X570000Y175000D02*
G01Y145000D01*
X495000Y200000D02*
G01Y175000D01*
X626864Y171406D02*
G01X626409Y171125D01*
X625955Y170562*
Y170562D02*
G01X625727Y170000D01*
X625500Y169156*
Y167750*
X625727Y166906*
X625955Y166344*
X626409Y165781*
X626864Y165500*
X627773*
X628227Y165781*
X628682Y166344*
X628909Y166906*
X629136Y167750*
Y169156*
X628909Y170000*
X628682Y170562*
Y170562D02*
G01X628227Y171125D01*
X627773Y171406*
X626864*
X627545Y166625D02*
G01X628909Y164937D01*
X634591Y170000D02*
G01X634364Y170562D01*
Y170562D02*
G01X633909Y171125D01*
X633455Y171406*
X632545*
X632091Y171125*
X631636Y170562*
Y170562D02*
G01X631409Y170000D01*
X631182Y169156*
Y167750*
X631409Y166906*
X631636Y166344*
X632091Y165781*
X632545Y165500*
X633455*
X633909Y165781*
X634364Y166344*
X634591Y166906*
X636636Y171406D02*
G01Y165500D01*
Y171406D02*
G01X638227D01*
X638909Y171125*
X639364Y170562*
Y170562D02*
G01X639591Y170000D01*
X639818Y169156*
Y167750*
X639591Y166906*
X639364Y166344*
X638909Y165781*
X638227Y165500*
X636636*
X649364Y171406D02*
G01Y166906D01*
X649136Y166062*
Y166062D02*
G01X648909Y165781D01*
X648455Y165500*
X648000*
X647545Y165781*
X647318Y166062*
Y166062D02*
G01X647091Y166906D01*
Y167469*
X652773Y171406D02*
G01X652318Y171125D01*
X651864Y170562*
Y170562D02*
G01X651636Y170000D01*
X651409Y169156*
Y167750*
X651636Y166906*
X651864Y166344*
X652318Y165781*
X652773Y165500*
X653682*
X654136Y165781*
X654591Y166344*
X654818Y166906*
X655045Y167750*
Y169156*
X654818Y170000*
X654591Y170562*
Y170562D02*
G01X654136Y171125D01*
X653682Y171406*
X652773*
X657091D02*
G01Y165500D01*
Y171406D02*
G01X659136D01*
X659818Y171125*
X660045Y170844*
X660273Y170281*
Y169719*
X660045Y169156*
X659818Y168875*
X659136Y168594*
X657091D02*
G01X659136D01*
X659818Y168312*
Y168312D02*
G01X660045Y168031D01*
X660273Y167469*
Y166625*
X660045Y166062*
Y166062D02*
G01X659818Y165781D01*
X659136Y165500*
X657091*
X669364Y172531D02*
G01X667773Y163531D01*
X670727Y172531D02*
G01X669136Y163531D01*
X667773Y168875D02*
G01X670955D01*
X667545Y167187D02*
G01X670727D01*
X375500Y154219D02*
G01X375864Y154437D01*
Y154437D02*
G01X376409Y155094D01*
Y150500*
X380591Y155094D02*
G01X378773Y150500D01*
X378045Y155094D02*
G01X380591D01*
X383318D02*
G01X382773Y154875D01*
X382409Y154219*
X382227Y153125*
Y152469*
X382409Y151375*
X382773Y150719*
X383318Y150500*
X383682*
X384227Y150719*
X384591Y151375*
X384773Y152469*
Y153125*
X384591Y154219*
X384227Y154875*
X383682Y155094*
X383318*
X387500D02*
G01X386955Y154875D01*
X386591Y154219*
X386409Y153125*
Y152469*
X386591Y151375*
X386955Y150719*
X387500Y150500*
X387864*
X388409Y150719*
X388773Y151375*
X388955Y152469*
Y153125*
X388773Y154219*
X388409Y154875*
X387864Y155094*
X387500*
X396045D02*
G01Y150500D01*
X394773Y155094D02*
G01X397318D01*
X398955D02*
G01Y150500D01*
X401500Y155094D02*
G01Y150500D01*
X398955Y152906D02*
G01X401500D01*
X404227Y155094D02*
G01X403864Y154875D01*
X403500Y154437*
Y154437D02*
G01X403318Y154000D01*
X403136Y153344*
Y152250*
X403318Y151594*
X403500Y151156*
X403864Y150719*
X404227Y150500*
X404955*
X405318Y150719*
X405682Y151156*
X405864Y151594*
X406045Y152250*
Y153344*
X405864Y154000*
X405682Y154437*
Y154437D02*
G01X405318Y154875D01*
X404955Y155094*
X404227*
X407682D02*
G01Y150500D01*
Y155094D02*
G01X409136Y150500D01*
X410591Y155094D02*
G01X409136Y150500D01*
X410591Y155094D02*
G01Y150500D01*
X413682Y155094D02*
G01X412227Y150500D01*
X413682Y155094D02*
G01X415136Y150500D01*
X412773Y152031D02*
G01X414591D01*
X419318Y154437D02*
G01X418955Y154875D01*
X418409Y155094*
X417682*
X417136Y154875*
X416773Y154437*
Y154437D02*
G01Y154000D01*
X416955Y153562*
Y153562D02*
G01X417136Y153344D01*
X417500Y153125*
X418591Y152687*
Y152687D02*
G01X418955Y152469D01*
X419136Y152250*
X419318Y151812*
Y151812D02*
G01Y151156D01*
X418955Y150719*
X418409Y150500*
X417682*
X417136Y150719*
X416773Y151156*
X425136Y155094D02*
G01Y150500D01*
Y155094D02*
G01X426773D01*
X427318Y154875*
X427500Y154656*
X427682Y154219*
Y153562*
Y153562D02*
G01X427500Y153125D01*
X427318Y152906*
X426773Y152687*
Y152687D02*
G01X425136D01*
X430773Y155094D02*
G01X429318Y150500D01*
X430773Y155094D02*
G01X432227Y150500D01*
X429864Y152031D02*
G01X431682D01*
X433864Y155094D02*
G01Y150500D01*
X435500Y155094D02*
G01Y150500D01*
Y155094D02*
G01X438045Y150500D01*
Y155094D02*
G01Y150500D01*
X439682Y155094D02*
G01Y150500D01*
Y155094D02*
G01X442045D01*
X439682Y152906D02*
G01X441136D01*
X439682Y150500D02*
G01X442045D01*
X447864Y155094D02*
G01Y150500D01*
Y155094D02*
G01X449500D01*
X450045Y154875*
X450227Y154656*
X450409Y154219*
Y153562*
Y153562D02*
G01X450227Y153125D01*
X450045Y152906*
X449500Y152687*
Y152687D02*
G01X447864D01*
X453500Y155094D02*
G01X452045Y150500D01*
X453500Y155094D02*
G01X454955Y150500D01*
X452591Y152031D02*
G01X454409D01*
X456591Y155094D02*
G01Y150500D01*
Y155094D02*
G01X458227D01*
X458773Y154875*
X458955Y154656*
X459136Y154219*
Y153781*
X458955Y153344*
X458773Y153125*
X458227Y152906*
X456591*
X457864D02*
G01X459136Y150500D01*
X460773Y155094D02*
G01Y150500D01*
X463318Y155094D02*
G01X460773Y152031D01*
X461682Y153125D02*
G01X463318Y150500D01*
X464955Y155094D02*
G01X465864Y150500D01*
X466773Y155094D02*
G01X465864Y150500D01*
X466773Y155094D02*
G01X467682Y150500D01*
X468591Y155094D02*
G01X467682Y150500D01*
X471682Y155094D02*
G01X470227Y150500D01*
X471682Y155094D02*
G01X473136Y150500D01*
X470773Y152031D02*
G01X472591D01*
X474773Y155094D02*
G01X476227Y152906D01*
Y150500*
X477682Y155094D02*
G01X476227Y152906D01*
X486227Y154000D02*
G01X486045Y154437D01*
Y154437D02*
G01X485682Y154875D01*
X485318Y155094*
X484591*
X484227Y154875*
X483864Y154437*
Y154437D02*
G01X483682Y154000D01*
X483500Y153344*
Y152250*
X483682Y151594*
X483864Y151156*
X484227Y150719*
X484591Y150500*
X485318*
X485682Y150719*
X486045Y151156*
X486227Y151594*
X487864Y155094D02*
G01Y150500D01*
Y155094D02*
G01X490227D01*
X487864Y152906D02*
G01X489318D01*
X487864Y150500D02*
G01X490227D01*
X491864Y155094D02*
G01Y150500D01*
Y155094D02*
G01X494409Y150500D01*
Y155094D02*
G01Y150500D01*
X497318Y155094D02*
G01Y150500D01*
X496045Y155094D02*
G01X498591D01*
X500227D02*
G01Y150500D01*
Y155094D02*
G01X502591D01*
X500227Y152906D02*
G01X501682D01*
X500227Y150500D02*
G01X502591D01*
X504227Y155094D02*
G01Y150500D01*
Y155094D02*
G01X505864D01*
X506409Y154875*
X506591Y154656*
X506773Y154219*
Y153781*
X506591Y153344*
X506409Y153125*
X505864Y152906*
X504227*
X505500D02*
G01X506773Y150500D01*
X508409Y155094D02*
G01X509864Y150500D01*
X511318Y155094D02*
G01X509864Y150500D01*
X512955Y155094D02*
G01Y150500D01*
X514591Y155094D02*
G01Y150500D01*
X516773*
X518409Y155094D02*
G01Y150500D01*
X520591*
X522227Y155094D02*
G01Y150500D01*
Y155094D02*
G01X524591D01*
X522227Y152906D02*
G01X523682D01*
X522227Y150500D02*
G01X524591D01*
X526591Y150719D02*
G01X526409Y150500D01*
X526227Y150719*
X526409Y150937*
Y150937D02*
G01X526591Y150719D01*
Y150281*
X526409Y149844*
X526227Y149625*
X533500Y155094D02*
G01X533136Y154875D01*
X532773Y154437*
Y154437D02*
G01X532591Y154000D01*
X532409Y153344*
Y152250*
X532591Y151594*
X532773Y151156*
X533136Y150719*
X533500Y150500*
X534227*
X534591Y150719*
X534955Y151156*
X535136Y151594*
X535318Y152250*
Y153344*
X535136Y154000*
X534955Y154437*
Y154437D02*
G01X534591Y154875D01*
X534227Y155094*
X533500*
X536955D02*
G01Y150500D01*
X539500Y155094D02*
G01Y150500D01*
X536955Y152906D02*
G01X539500D01*
X547136Y155094D02*
G01X545318Y152031D01*
X548045*
X547136Y155094D02*
G01Y150500D01*
X552045Y155094D02*
G01X550227D01*
X550045Y153125*
X550227Y153344*
X550773Y153562*
Y153562D02*
G01X551318D01*
Y153562D02*
G01X551864Y153344D01*
X552227Y152906*
X552409Y152250*
X552227Y151812*
Y151812D02*
G01X552045Y151156D01*
X551682Y150719*
X551136Y150500*
X550591*
X550045Y150719*
X549864Y150937*
Y150937D02*
G01X549682Y151375D01*
X555864Y155094D02*
G01X554045Y152031D01*
X556773*
X555864Y155094D02*
G01Y150500D01*
X560773Y155094D02*
G01X558955D01*
X558773Y153125*
X558955Y153344*
X559500Y153562*
Y153562D02*
G01X560045D01*
Y153562D02*
G01X560591Y153344D01*
X560955Y152906*
X561136Y152250*
X560955Y151812*
Y151812D02*
G01X560773Y151156D01*
X560409Y150719*
X559864Y150500*
X559318*
X558773Y150719*
X558591Y150937*
Y150937D02*
G01X558409Y151375D01*
X565136Y153562D02*
G01X564955Y152906D01*
X564591Y152469*
X564045Y152250*
X563864*
X563318Y152469*
X562955Y152906*
X562773Y153562*
Y153562D02*
G01Y153781D01*
X562955Y154437*
Y154437D02*
G01X563318Y154875D01*
X563864Y155094*
X564045*
X564591Y154875*
X564955Y154437*
Y154437D02*
G01X565136Y153562D01*
Y153562D02*
G01Y152469D01*
X564955Y151375*
X564591Y150719*
X564045Y150500*
X563682*
X563136Y150719*
X562955Y151156*
X377318Y208906D02*
G01X375500Y203000D01*
X377318Y208906D02*
G01X379136Y203000D01*
X376182Y204969D02*
G01X378455D01*
X381182Y208906D02*
G01Y203000D01*
Y208906D02*
G01X383227D01*
X383909Y208625*
X384136Y208344*
X384364Y207781*
Y207219*
X384136Y206656*
X383909Y206375*
X383227Y206094*
X381182*
X382773D02*
G01X384364Y203000D01*
X388000Y208906D02*
G01Y203000D01*
X386409Y208906D02*
G01X389591D01*
X391636D02*
G01X392773Y203000D01*
X393909Y208906D02*
G01X392773Y203000D01*
X393909Y208906D02*
G01X395045Y203000D01*
X396182Y208906D02*
G01X395045Y203000D01*
X399591Y208906D02*
G01X399136Y208625D01*
X398682Y208062*
Y208062D02*
G01X398455Y207500D01*
X398227Y206656*
Y205250*
X398455Y204406*
X398682Y203844*
X399136Y203281*
X399591Y203000*
X400500*
X400955Y203281*
X401409Y203844*
X401636Y204406*
X401864Y205250*
Y206656*
X401636Y207500*
X401409Y208062*
Y208062D02*
G01X400955Y208625D01*
X400500Y208906*
X399591*
X403909D02*
G01Y203000D01*
Y208906D02*
G01X405955D01*
X406636Y208625*
X406864Y208344*
X407091Y207781*
Y207219*
X406864Y206656*
X406636Y206375*
X405955Y206094*
X403909*
X405500D02*
G01X407091Y203000D01*
X409136Y208906D02*
G01Y203000D01*
X412318Y208906D02*
G01X409136Y204969D01*
X410273Y206375D02*
G01X412318Y203000D01*
X414591Y206937D02*
G01X414364Y206656D01*
X414591Y206375*
X414818Y206656*
X414591Y206937*
Y203562D02*
G01X414364Y203281D01*
X414591Y203000*
X414818Y203281*
X414591Y203562*
X375500Y198047D02*
G01Y190500D01*
Y198047D02*
G01X379193D01*
X375500Y194453D02*
G01X377773D01*
X375500Y190500D02*
G01X379193D01*
X383739Y198047D02*
G01Y190500D01*
X381750Y198047D02*
G01X385727D01*
X388284D02*
G01Y190500D01*
X392261Y198047D02*
G01Y190500D01*
X388284Y194453D02*
G01X392261D01*
X394818Y198047D02*
G01Y190500D01*
Y198047D02*
G01X398511D01*
X394818Y194453D02*
G01X397091D01*
X394818Y190500D02*
G01X398511D01*
X401068Y198047D02*
G01Y190500D01*
Y198047D02*
G01X403625D01*
X404477Y197687*
Y197687D02*
G01X404761Y197328D01*
X405045Y196609*
Y195891*
X404761Y195172*
X404477Y194812*
Y194812D02*
G01X403625Y194453D01*
X401068*
X403057D02*
G01X405045Y190500D01*
X407602Y198047D02*
G01Y190500D01*
Y198047D02*
G01X411580Y190500D01*
Y198047D02*
G01Y190500D01*
X414136Y198047D02*
G01Y190500D01*
Y198047D02*
G01X417830D01*
X414136Y194453D02*
G01X416409D01*
X414136Y190500D02*
G01X417830D01*
X422375Y198047D02*
G01Y190500D01*
X420386Y198047D02*
G01X424364D01*
X433455D02*
G01Y190500D01*
Y198047D02*
G01X435727Y190500D01*
X438000Y198047D02*
G01X435727Y190500D01*
X438000Y198047D02*
G01Y190500D01*
X442261Y198047D02*
G01X441693Y197687D01*
Y197687D02*
G01X441125Y196969D01*
X440841Y196250*
X440557Y195172*
Y193375*
X440841Y192297*
X441125Y191578*
X441693Y190859*
X442261Y190500*
X443398*
X443966Y190859*
X444534Y191578*
X444818Y192297*
X445102Y193375*
Y195172*
X444818Y196250*
X444534Y196969*
X443966Y197687*
Y197687D02*
G01X443398Y198047D01*
X442261*
X447659D02*
G01Y190500D01*
Y198047D02*
G01X451636Y190500D01*
Y198047D02*
G01Y190500D01*
X454193Y198047D02*
G01Y190500D01*
X458739Y198047D02*
G01Y190500D01*
X456750Y198047D02*
G01X460727D01*
X464989D02*
G01X464420Y197687D01*
Y197687D02*
G01X463852Y196969D01*
X463568Y196250*
X463284Y195172*
Y193375*
X463568Y192297*
X463852Y191578*
X464420Y190859*
X464989Y190500*
X466125*
X466693Y190859*
X467261Y191578*
X467545Y192297*
X467830Y193375*
Y195172*
X467545Y196250*
X467261Y196969*
X466693Y197687*
Y197687D02*
G01X466125Y198047D01*
X464989*
X470386D02*
G01Y190500D01*
Y198047D02*
G01X472943D01*
X473795Y197687*
Y197687D02*
G01X474080Y197328D01*
X474364Y196609*
Y195891*
X474080Y195172*
X473795Y194812*
Y194812D02*
G01X472943Y194453D01*
X470386*
X472375D02*
G01X474364Y190500D01*
X489136Y194812D02*
G01Y195172D01*
X488852Y195531*
X488568*
X488284Y195172*
X488000Y194453*
X487432Y192656*
X486864Y191578*
X486295Y190859*
X485727Y190500*
X484591*
X484023Y190859*
X483739Y191219*
X483455Y191937*
Y191937D02*
G01Y192656D01*
X483739Y193375*
X484023Y193734*
X486011Y195172*
X486295Y195531*
X486580Y196250*
Y196969*
X486295Y197687*
Y197687D02*
G01X485727Y198047D01*
X485159Y197687*
Y197687D02*
G01X484875Y196969D01*
Y196250*
X485159Y195172*
X485727Y194094*
X487148Y191578*
X487716Y190859*
X488284Y190500*
X488852*
X489136Y190859*
Y191219*
X379761Y183750D02*
G01X379477Y184469D01*
X378909Y185187*
Y185187D02*
G01X378341Y185547D01*
X377205*
X376636Y185187*
Y185187D02*
G01X376068Y184469D01*
X375784Y183750*
X375500Y182672*
Y180875*
X375784Y179797*
X376068Y179078*
X376636Y178359*
X377205Y178000*
X378341*
X378909Y178359*
X379477Y179078*
X379761Y179797*
X384023Y185547D02*
G01X383455Y185187D01*
Y185187D02*
G01X382886Y184469D01*
X382602Y183750*
X382318Y182672*
Y180875*
X382602Y179797*
X382886Y179078*
X383455Y178359*
X384023Y178000*
X385159*
X385727Y178359*
X386295Y179078*
X386580Y179797*
X386864Y180875*
Y182672*
X386580Y183750*
X386295Y184469*
X385727Y185187*
Y185187D02*
G01X385159Y185547D01*
X384023*
X389420D02*
G01Y178000D01*
Y185547D02*
G01X393398Y178000D01*
Y185547D02*
G01Y178000D01*
X397943Y185547D02*
G01Y178000D01*
X395955Y185547D02*
G01X399932D01*
X402489D02*
G01Y178000D01*
Y185547D02*
G01X405045D01*
X405898Y185187*
Y185187D02*
G01X406182Y184828D01*
X406466Y184109*
Y183391*
X406182Y182672*
X405898Y182312*
Y182312D02*
G01X405045Y181953D01*
X402489*
X404477D02*
G01X406466Y178000D01*
X410727Y185547D02*
G01X410159Y185187D01*
Y185187D02*
G01X409591Y184469D01*
X409307Y183750*
X409023Y182672*
Y180875*
X409307Y179797*
X409591Y179078*
X410159Y178359*
X410727Y178000*
X411864*
X412432Y178359*
X413000Y179078*
X413284Y179797*
X413568Y180875*
Y182672*
X413284Y183750*
X413000Y184469*
X412432Y185187*
Y185187D02*
G01X411864Y185547D01*
X410727*
X416125D02*
G01Y178000D01*
X419534*
X428625Y185547D02*
G01Y178000D01*
Y185547D02*
G01X431182D01*
X432034Y185187*
Y185187D02*
G01X432318Y184828D01*
X432602Y184109*
Y183391*
X432318Y182672*
X432034Y182312*
Y182312D02*
G01X431182Y181953D01*
X428625D02*
G01X431182D01*
X432034Y181594*
X432318Y181234*
X432602Y180516*
Y179437*
Y179437D02*
G01X432318Y178719D01*
X432034Y178359*
X431182Y178000*
X428625*
X435159Y185547D02*
G01Y178000D01*
Y185547D02*
G01X437148D01*
X438000Y185187*
Y185187D02*
G01X438568Y184469D01*
X438852Y183750*
X439136Y182672*
Y180875*
X438852Y179797*
X438568Y179078*
X438000Y178359*
X437148Y178000*
X435159*
X625500Y196406D02*
G01Y190500D01*
Y196406D02*
G01X627091D01*
X627773Y196125*
X628227Y195562*
Y195562D02*
G01X628455Y195000D01*
X628682Y194156*
Y192750*
X628455Y191906*
X628227Y191344*
X627773Y190781*
X627091Y190500*
X625500*
X632545Y196406D02*
G01X630727Y190500D01*
X632545Y196406D02*
G01X634364Y190500D01*
X631409Y192469D02*
G01X633682D01*
X638000Y196406D02*
G01Y190500D01*
X636409Y196406D02*
G01X639591D01*
X641636D02*
G01Y190500D01*
Y196406D02*
G01X644591D01*
X641636Y193594D02*
G01X643455D01*
X641636Y190500D02*
G01X644591D01*
X646864Y194437D02*
G01X646636Y194156D01*
X646864Y193875*
X647091Y194156*
X646864Y194437*
Y191062D02*
G01X646636Y190781D01*
X646864Y190500*
X647091Y190781*
X646864Y191062*
X623000Y184109D02*
G01X623568Y184469D01*
X624420Y185547*
Y178000*
X628682Y185547D02*
G01X627830Y185187D01*
Y185187D02*
G01X627261Y184109D01*
X626977Y182312*
Y182312D02*
G01Y181234D01*
X627261Y179437*
Y179437D02*
G01X627830Y178359D01*
X628682Y178000*
X629250*
X630102Y178359*
X630670Y179437*
Y179437D02*
G01X630955Y181234D01*
Y182312*
Y182312D02*
G01X630670Y184109D01*
X630102Y185187*
Y185187D02*
G01X629250Y185547D01*
X628682*
X638625Y186984D02*
G01X633511Y175484D01*
X641182Y184109D02*
G01X641750Y184469D01*
X642602Y185547*
Y178000*
X649136Y185547D02*
G01X646295Y178000D01*
X645159Y185547D02*
G01X649136D01*
X656807Y186984D02*
G01X651693Y175484D01*
X661068Y185547D02*
G01X660216Y185187D01*
Y185187D02*
G01X659648Y184109D01*
X659364Y182312*
Y182312D02*
G01Y181234D01*
X659648Y179437*
Y179437D02*
G01X660216Y178359D01*
X661068Y178000*
X661636*
X662489Y178359*
X663057Y179437*
Y179437D02*
G01X663341Y181234D01*
Y182312*
Y182312D02*
G01X663057Y184109D01*
X662489Y185187*
Y185187D02*
G01X661636Y185547D01*
X661068*
X669307Y184469D02*
G01X669023Y185187D01*
Y185187D02*
G01X668170Y185547D01*
X667602*
X666750Y185187*
Y185187D02*
G01X666182Y184109D01*
X665898Y182312*
Y182312D02*
G01Y180516D01*
X666182Y179078*
X666750Y178359*
X667602Y178000*
X667886*
X668739Y178359*
X669307Y179078*
X669591Y180156*
Y180516*
X669307Y181594*
X668739Y182312*
Y182312D02*
G01X667886Y182672D01*
X667602*
X666750Y182312*
Y182312D02*
G01X666182Y181594D01*
X665898Y180516*
X625841Y160547D02*
G01Y154797D01*
X625557Y153719*
X625273Y153359*
X624705Y153000*
X624136*
X623568Y153359*
X623284Y153719*
X623000Y154797*
Y155516*
X632091Y160547D02*
G01X629250D01*
X628966Y157312*
Y157312D02*
G01X629250Y157672D01*
X630102Y158031*
X630955*
X631807Y157672*
X632375Y156953*
X632659Y155875*
X632375Y155156*
X632091Y154078*
X631523Y153359*
X630670Y153000*
X629818*
X628966Y153359*
X628682Y153719*
X628398Y154437*
X638057Y160547D02*
G01X635216Y155516D01*
X639477*
X638057Y160547D02*
G01Y153000D01*
X645727Y160547D02*
G01X642886D01*
X642602Y157312*
Y157312D02*
G01X642886Y157672D01*
X643739Y158031*
X644591*
X645443Y157672*
X646011Y156953*
X646295Y155875*
X646011Y155156*
X645727Y154078*
X645159Y153359*
X644307Y153000*
X643455*
X642602Y153359*
X642318Y153719*
X642034Y154437*
X650273Y160547D02*
G01X649420Y160187D01*
Y160187D02*
G01X649136Y159469D01*
Y158750*
X649420Y158031*
X649989Y157672*
X651125Y157312*
Y157312D02*
G01X651977Y156953D01*
X652545Y156234*
X652830Y155516*
Y154437*
Y154437D02*
G01X652545Y153719D01*
X652261Y153359*
X651409Y153000*
X650273*
X649420Y153359*
X649136Y153719*
X648852Y154437*
Y154437D02*
G01Y155516D01*
X649136Y156234*
X649705Y156953*
X650557Y157312*
Y157312D02*
G01X651693Y157672D01*
X652261Y158031*
X652545Y158750*
Y159469*
X652261Y160187*
Y160187D02*
G01X651409Y160547D01*
X650273*
X655386Y156234D02*
G01X660500D01*
X664761Y160547D02*
G01X663909Y160187D01*
Y160187D02*
G01X663341Y159109D01*
X663057Y157312*
Y157312D02*
G01Y156234D01*
X663341Y154437*
Y154437D02*
G01X663909Y153359D01*
X664761Y153000*
X665330*
X666182Y153359*
X666750Y154437*
Y154437D02*
G01X667034Y156234D01*
Y157312*
Y157312D02*
G01X666750Y159109D01*
X666182Y160187*
Y160187D02*
G01X665330Y160547D01*
X664761*
X671295D02*
G01X670443Y160187D01*
Y160187D02*
G01X669875Y159109D01*
X669591Y157312*
Y157312D02*
G01Y156234D01*
X669875Y154437*
Y154437D02*
G01X670443Y153359D01*
X671295Y153000*
X671864*
X672716Y153359*
X673284Y154437*
Y154437D02*
G01X673568Y156234D01*
Y157312*
Y157312D02*
G01X673284Y159109D01*
X672716Y160187*
Y160187D02*
G01X671864Y160547D01*
X671295*
X575500Y171406D02*
G01Y165500D01*
Y171406D02*
G01X577091D01*
X577773Y171125*
X578227Y170562*
Y170562D02*
G01X578455Y170000D01*
X578682Y169156*
Y167750*
X578455Y166906*
X578227Y166344*
X577773Y165781*
X577091Y165500*
X575500*
X580727Y171406D02*
G01Y165500D01*
Y171406D02*
G01X583682D01*
X580727Y168594D02*
G01X582545D01*
X580727Y165500D02*
G01X583682D01*
X588909Y170562D02*
G01X588455Y171125D01*
X587773Y171406*
X586864*
X586182Y171125*
X585727Y170562*
Y170562D02*
G01Y170000D01*
X585955Y169437*
Y169437D02*
G01X586182Y169156D01*
X586636Y168875*
X588000Y168312*
Y168312D02*
G01X588455Y168031D01*
X588682Y167750*
X588909Y167187*
Y167187D02*
G01Y166344D01*
X588455Y165781*
X587773Y165500*
X586864*
X586182Y165781*
X585727Y166344*
X590955Y171406D02*
G01Y165500D01*
X596409Y170000D02*
G01X596182Y170562D01*
Y170562D02*
G01X595727Y171125D01*
X595273Y171406*
X594364*
X593909Y171125*
X593455Y170562*
Y170562D02*
G01X593227Y170000D01*
X593000Y169156*
Y167750*
X593227Y166906*
X593455Y166344*
X593909Y165781*
X594364Y165500*
X595273*
X595727Y165781*
X596182Y166344*
X596409Y166906*
Y167750*
X595273D02*
G01X596409D01*
X598455Y171406D02*
G01Y165500D01*
Y171406D02*
G01X601636Y165500D01*
Y171406D02*
G01Y165500D01*
X603682Y171406D02*
G01Y165500D01*
Y171406D02*
G01X606636D01*
X603682Y168594D02*
G01X605500D01*
X603682Y165500D02*
G01X606636D01*
X608682Y171406D02*
G01Y165500D01*
Y171406D02*
G01X610727D01*
X611409Y171125*
X611636Y170844*
X611864Y170281*
Y169719*
X611636Y169156*
X611409Y168875*
X610727Y168594*
X608682*
X610273D02*
G01X611864Y165500D01*
X614136Y169437D02*
G01X613909Y169156D01*
X614136Y168875*
X614364Y169156*
X614136Y169437*
Y166062D02*
G01X613909Y165781D01*
X614136Y165500*
X614364Y165781*
X614136Y166062*
X592261Y158750D02*
G01X591977Y159469D01*
X591409Y160187*
Y160187D02*
G01X590841Y160547D01*
X589705*
X589136Y160187*
Y160187D02*
G01X588568Y159469D01*
X588284Y158750*
X588000Y157672*
Y155875*
X588284Y154797*
X588568Y154078*
X589136Y153359*
X589705Y153000*
X590841*
X591409Y153359*
X591977Y154078*
X592261Y154797*
Y155875*
X590841D02*
G01X592261D01*
X594818Y160547D02*
G01Y153000D01*
X598795Y160547D02*
G01Y153000D01*
X594818Y156953D02*
G01X598795D01*
X605330Y159469D02*
G01X604761Y160187D01*
Y160187D02*
G01X603909Y160547D01*
X602773*
X601920Y160187*
Y160187D02*
G01X601352Y159469D01*
Y158750*
X601636Y158031*
X601920Y157672*
X602489Y157312*
Y157312D02*
G01X604193Y156594D01*
X604761Y156234*
X605045Y155875*
X605330Y155156*
Y154078*
X604761Y153359*
X603909Y153000*
X602773*
X601920Y153359*
X601352Y154078*
X500500Y198047D02*
G01X504477Y190500D01*
Y198047D02*
G01X500500Y190500D01*
X509875Y198047D02*
G01X507034Y193016D01*
X511295*
X509875Y198047D02*
G01Y190500D01*
X513852Y196609D02*
G01X514420Y196969D01*
X515273Y198047*
Y190500*
X517830Y193734D02*
G01X522943D01*
X525784Y196250D02*
G01Y196609D01*
X526068Y197328*
X526352Y197687*
Y197687D02*
G01X526920Y198047D01*
X528057*
X528625Y197687*
Y197687D02*
G01X528909Y197328D01*
X529193Y196609*
Y195891*
X528909Y195172*
X528341Y194094*
X525500Y190500*
X529477*
X533739Y198047D02*
G01X532886Y197687D01*
Y197687D02*
G01X532318Y196609D01*
X532034Y194812*
Y194812D02*
G01Y193734D01*
X532318Y191937*
Y191937D02*
G01X532886Y190859D01*
X533739Y190500*
X534307*
X535159Y190859*
X535727Y191937*
Y191937D02*
G01X536011Y193734D01*
Y194812*
Y194812D02*
G01X535727Y196609D01*
X535159Y197687*
Y197687D02*
G01X534307Y198047D01*
X533739*
X540273D02*
G01X539420Y197687D01*
Y197687D02*
G01X538852Y196609D01*
X538568Y194812*
Y194812D02*
G01Y193734D01*
X538852Y191937*
Y191937D02*
G01X539420Y190859D01*
X540273Y190500*
X540841*
X541693Y190859*
X542261Y191937*
Y191937D02*
G01X542545Y193734D01*
Y194812*
Y194812D02*
G01X542261Y196609D01*
X541693Y197687*
Y197687D02*
G01X540841Y198047D01*
X540273*
X545102Y196609D02*
G01X545670Y196969D01*
X546523Y198047*
Y190500*
X550784Y198047D02*
G01X549932Y197687D01*
Y197687D02*
G01X549364Y196609D01*
X549080Y194812*
Y194812D02*
G01Y193734D01*
X549364Y191937*
Y191937D02*
G01X549932Y190859D01*
X550784Y190500*
X551352*
X552205Y190859*
X552773Y191937*
Y191937D02*
G01X553057Y193734D01*
Y194812*
Y194812D02*
G01X552773Y196609D01*
X552205Y197687*
Y197687D02*
G01X551352Y198047D01*
X550784*
X500500Y185547D02*
G01Y178000D01*
Y185547D02*
G01X503057D01*
X503909Y185187*
Y185187D02*
G01X504193Y184828D01*
X504477Y184109*
Y183391*
X504193Y182672*
X503909Y182312*
Y182312D02*
G01X503057Y181953D01*
X500500*
X502489D02*
G01X504477Y178000D01*
X507034Y185547D02*
G01Y178000D01*
Y185547D02*
G01X510727D01*
X507034Y181953D02*
G01X509307D01*
X507034Y178000D02*
G01X510727D01*
X513284Y185547D02*
G01X515557Y178000D01*
X517830Y185547D02*
G01X515557Y178000D01*
X529193Y185547D02*
G01X526920Y178000D01*
X529193Y185547D02*
G01X531466Y178000D01*
X527773Y180516D02*
G01X530614D01*
X367318Y138906D02*
G01X365500Y133000D01*
X367318Y138906D02*
G01X369136Y133000D01*
X366182Y134969D02*
G01X368455D01*
X371182Y138906D02*
G01Y133000D01*
X373909*
X375955Y138906D02*
G01Y133000D01*
X378682*
X389364Y137500D02*
G01X389136Y138062D01*
Y138062D02*
G01X388682Y138625D01*
X388227Y138906*
X387318*
X386864Y138625*
X386409Y138062*
Y138062D02*
G01X386182Y137500D01*
X385955Y136656*
Y135250*
X386182Y134406*
X386409Y133844*
X386864Y133281*
X387318Y133000*
X388227*
X388682Y133281*
X389136Y133844*
X389364Y134406*
Y135250*
X388227D02*
G01X389364D01*
X391409Y138906D02*
G01Y133000D01*
Y138906D02*
G01X394364D01*
X391409Y136094D02*
G01X393227D01*
X391409Y133000D02*
G01X394364D01*
X396409Y138906D02*
G01Y133000D01*
Y138906D02*
G01X398455D01*
X399136Y138625*
X399364Y138344*
X399591Y137781*
Y137219*
X399364Y136656*
X399136Y136375*
X398455Y136094*
X396409*
X398000D02*
G01X399591Y133000D01*
X401636Y138906D02*
G01Y133000D01*
Y138906D02*
G01X403682D01*
X404364Y138625*
X404591Y138344*
X404818Y137781*
Y137219*
X404591Y136656*
X404364Y136375*
X403682Y136094*
X401636D02*
G01X403682D01*
X404364Y135812*
Y135812D02*
G01X404591Y135531D01*
X404818Y134969*
Y134125*
X404591Y133562*
Y133562D02*
G01X404364Y133281D01*
X403682Y133000*
X401636*
X406864Y138906D02*
G01Y133000D01*
Y138906D02*
G01X409818D01*
X406864Y136094D02*
G01X408682D01*
X406864Y133000D02*
G01X409818D01*
X411864Y138906D02*
G01Y133000D01*
Y138906D02*
G01X413909D01*
X414591Y138625*
X414818Y138344*
X415045Y137781*
Y137219*
X414818Y136656*
X414591Y136375*
X413909Y136094*
X411864*
X413455D02*
G01X415045Y133000D01*
X420273Y138062D02*
G01X419818Y138625D01*
X419136Y138906*
X418227*
X417545Y138625*
X417091Y138062*
Y138062D02*
G01Y137500D01*
X417318Y136937*
Y136937D02*
G01X417545Y136656D01*
X418000Y136375*
X419364Y135812*
Y135812D02*
G01X419818Y135531D01*
X420045Y135250*
X420273Y134687*
Y134687D02*
G01Y133844D01*
X419818Y133281*
X419136Y133000*
X418227*
X417545Y133281*
X417091Y133844*
X429364Y138906D02*
G01X427545Y133000D01*
X429364Y138906D02*
G01X431182Y133000D01*
X428227Y134969D02*
G01X430500D01*
X433227Y138906D02*
G01Y133000D01*
Y138906D02*
G01X435273D01*
X435955Y138625*
X436182Y138344*
X436409Y137781*
Y137219*
X436182Y136656*
X435955Y136375*
X435273Y136094*
X433227*
X434818D02*
G01X436409Y133000D01*
X438455Y138906D02*
G01Y133000D01*
Y138906D02*
G01X441409D01*
X438455Y136094D02*
G01X440273D01*
X438455Y133000D02*
G01X441409D01*
X448682Y138906D02*
G01X450500Y133000D01*
X452318Y138906D02*
G01X450500Y133000D01*
X454364Y138906D02*
G01Y133000D01*
X456409Y138906D02*
G01Y133000D01*
Y138906D02*
G01X459364D01*
X456409Y136094D02*
G01X458227D01*
X456409Y133000D02*
G01X459364D01*
X461409Y138906D02*
G01X462545Y133000D01*
X463682Y138906D02*
G01X462545Y133000D01*
X463682Y138906D02*
G01X464818Y133000D01*
X465955Y138906D02*
G01X464818Y133000D01*
X468000Y138906D02*
G01Y133000D01*
Y138906D02*
G01X470955D01*
X468000Y136094D02*
G01X469818D01*
X468000Y133000D02*
G01X470955D01*
X473000Y138906D02*
G01Y133000D01*
Y138906D02*
G01X474591D01*
X475273Y138625*
X475727Y138062*
Y138062D02*
G01X475955Y137500D01*
X476182Y136656*
Y135250*
X475955Y134406*
X475727Y133844*
X475273Y133281*
X474591Y133000*
X473000*
X483455Y138906D02*
G01Y133000D01*
Y138906D02*
G01X486409D01*
X483455Y136094D02*
G01X485273D01*
X488455Y138906D02*
G01Y133000D01*
Y138906D02*
G01X490500D01*
X491182Y138625*
X491409Y138344*
X491636Y137781*
Y137219*
X491409Y136656*
X491182Y136375*
X490500Y136094*
X488455*
X490045D02*
G01X491636Y133000D01*
X495045Y138906D02*
G01X494591Y138625D01*
X494136Y138062*
Y138062D02*
G01X493909Y137500D01*
X493682Y136656*
Y135250*
X493909Y134406*
X494136Y133844*
X494591Y133281*
X495045Y133000*
X495955*
X496409Y133281*
X496864Y133844*
X497091Y134406*
X497318Y135250*
Y136656*
X497091Y137500*
X496864Y138062*
Y138062D02*
G01X496409Y138625D01*
X495955Y138906*
X495045*
X499364D02*
G01Y133000D01*
Y138906D02*
G01X501182Y133000D01*
X503000Y138906D02*
G01X501182Y133000D01*
X503000Y138906D02*
G01Y133000D01*
X511864Y138906D02*
G01Y133000D01*
X510273Y138906D02*
G01X513455D01*
X515500D02*
G01Y133000D01*
X518682Y138906D02*
G01Y133000D01*
X515500Y136094D02*
G01X518682D01*
X520727Y138906D02*
G01Y133000D01*
Y138906D02*
G01X523682D01*
X520727Y136094D02*
G01X522545D01*
X520727Y133000D02*
G01X523682D01*
X530955Y138906D02*
G01Y133000D01*
Y138906D02*
G01X533000D01*
X533682Y138625*
X533909Y138344*
X534136Y137781*
Y136937*
Y136937D02*
G01X533909Y136375D01*
X533682Y136094*
X533000Y135812*
Y135812D02*
G01X530955D01*
X536182Y138906D02*
G01Y133000D01*
Y138906D02*
G01X538227D01*
X538909Y138625*
X539136Y138344*
X539364Y137781*
Y137219*
X539136Y136656*
X538909Y136375*
X538227Y136094*
X536182*
X537773D02*
G01X539364Y133000D01*
X541409Y138906D02*
G01Y133000D01*
X543455Y138906D02*
G01Y133000D01*
Y138906D02*
G01X545273Y133000D01*
X547091Y138906D02*
G01X545273Y133000D01*
X547091Y138906D02*
G01Y133000D01*
X550955Y138906D02*
G01X549136Y133000D01*
X550955Y138906D02*
G01X552773Y133000D01*
X549818Y134969D02*
G01X552091D01*
X554818Y138906D02*
G01Y133000D01*
Y138906D02*
G01X556864D01*
X557545Y138625*
X557773Y138344*
X558000Y137781*
Y137219*
X557773Y136656*
X557545Y136375*
X556864Y136094*
X554818*
X556409D02*
G01X558000Y133000D01*
X560045Y138906D02*
G01X561864Y136094D01*
Y133000*
X563682Y138906D02*
G01X561864Y136094D01*
X574136Y138062D02*
G01X573682Y138625D01*
X573000Y138906*
X572091*
X571409Y138625*
X570955Y138062*
Y138062D02*
G01Y137500D01*
X571182Y136937*
Y136937D02*
G01X571409Y136656D01*
X571864Y136375*
X573227Y135812*
Y135812D02*
G01X573682Y135531D01*
X573909Y135250*
X574136Y134687*
Y134687D02*
G01Y133844D01*
X573682Y133281*
X573000Y133000*
X572091*
X571409Y133281*
X570955Y133844*
X576182Y138906D02*
G01Y133000D01*
X578227Y138906D02*
G01Y133000D01*
Y138906D02*
G01X579818D01*
X580500Y138625*
X580955Y138062*
Y138062D02*
G01X581182Y137500D01*
X581409Y136656*
Y135250*
X581182Y134406*
X580955Y133844*
X580500Y133281*
X579818Y133000*
X578227*
X583455Y138906D02*
G01Y133000D01*
Y138906D02*
G01X586409D01*
X583455Y136094D02*
G01X585273D01*
X583455Y133000D02*
G01X586409D01*
X595273Y140031D02*
G01X594818Y139469D01*
X594364Y138625*
X593909Y137500*
X593682Y136094*
Y134969*
X593909Y133562*
Y133562D02*
G01X594364Y132437D01*
Y132437D02*
G01X594818Y131594D01*
X595273Y131031*
X598909Y138906D02*
G01Y133000D01*
X597318Y138906D02*
G01X600500D01*
X602545D02*
G01Y133000D01*
X605727Y138906D02*
G01Y133000D01*
X602545Y136094D02*
G01X605727D01*
X607773Y138906D02*
G01Y133000D01*
Y138906D02*
G01X609818D01*
X610500Y138625*
X610727Y138344*
X610955Y137781*
Y137219*
X610727Y136656*
X610500Y136375*
X609818Y136094*
X607773*
X609364D02*
G01X610955Y133000D01*
X614364Y138906D02*
G01X613909Y138625D01*
X613455Y138062*
Y138062D02*
G01X613227Y137500D01*
X613000Y136656*
Y135250*
X613227Y134406*
X613455Y133844*
X613909Y133281*
X614364Y133000*
X615273*
X615727Y133281*
X616182Y133844*
X616409Y134406*
X616636Y135250*
Y136656*
X616409Y137500*
X616182Y138062*
Y138062D02*
G01X615727Y138625D01*
X615273Y138906*
X614364*
X618682D02*
G01Y134687D01*
Y134687D02*
G01X618909Y133844D01*
X619364Y133281*
X620045Y133000*
X620500*
X621182Y133281*
X621636Y133844*
X621864Y134687*
Y134687D02*
G01Y138906D01*
X627318Y137500D02*
G01X627091Y138062D01*
Y138062D02*
G01X626636Y138625D01*
X626182Y138906*
X625273*
X624818Y138625*
X624364Y138062*
Y138062D02*
G01X624136Y137500D01*
X623909Y136656*
Y135250*
X624136Y134406*
X624364Y133844*
X624818Y133281*
X625273Y133000*
X626182*
X626636Y133281*
X627091Y133844*
X627318Y134406*
Y135250*
X626182D02*
G01X627318D01*
X629364Y138906D02*
G01Y133000D01*
X632545Y138906D02*
G01Y133000D01*
X629364Y136094D02*
G01X632545D01*
X641409Y138906D02*
G01Y133000D01*
X639818Y138906D02*
G01X643000D01*
X645045D02*
G01Y133000D01*
X648227Y138906D02*
G01Y133000D01*
X645045Y136094D02*
G01X648227D01*
X650273Y138906D02*
G01Y133000D01*
Y138906D02*
G01X653227D01*
X650273Y136094D02*
G01X652091D01*
X650273Y133000D02*
G01X653227D01*
X660500Y138906D02*
G01Y133000D01*
Y138906D02*
G01X662545D01*
X663227Y138625*
X663455Y138344*
X663682Y137781*
Y137219*
X663455Y136656*
X663227Y136375*
X662545Y136094*
X660500D02*
G01X662545D01*
X663227Y135812*
Y135812D02*
G01X663455Y135531D01*
X663682Y134969*
Y134125*
X663455Y133562*
Y133562D02*
G01X663227Y133281D01*
X662545Y133000*
X660500*
X667091Y138906D02*
G01X666636Y138625D01*
X666182Y138062*
Y138062D02*
G01X665955Y137500D01*
X665727Y136656*
Y135250*
X665955Y134406*
X666182Y133844*
X666636Y133281*
X667091Y133000*
X668000*
X668455Y133281*
X668909Y133844*
X669136Y134406*
X669364Y135250*
Y136656*
X669136Y137500*
X668909Y138062*
Y138062D02*
G01X668455Y138625D01*
X668000Y138906*
X667091*
X673227D02*
G01X671409Y133000D01*
X673227Y138906D02*
G01X675045Y133000D01*
X672091Y134969D02*
G01X674364D01*
X677091Y138906D02*
G01Y133000D01*
Y138906D02*
G01X679136D01*
X679818Y138625*
X680045Y138344*
X680273Y137781*
Y137219*
X680045Y136656*
X679818Y136375*
X679136Y136094*
X677091*
X678682D02*
G01X680273Y133000D01*
X682318Y138906D02*
G01Y133000D01*
Y138906D02*
G01X683909D01*
X684591Y138625*
X685045Y138062*
Y138062D02*
G01X685273Y137500D01*
X685500Y136656*
Y135250*
X685273Y134406*
X685045Y133844*
X684591Y133281*
X683909Y133000*
X682318*
X687545Y140031D02*
G01X688000Y139469D01*
X688455Y138625*
X688909Y137500*
X689136Y136094*
Y134969*
X688909Y133562*
Y133562D02*
G01X688455Y132437D01*
Y132437D02*
G01X688000Y131594D01*
X687545Y131031*
X426659Y208906D02*
G01X426136Y209562D01*
Y209562D02*
G01X425352Y209891D01*
X424307*
X423523Y209562*
Y209562D02*
G01X423000Y208906D01*
Y208250*
X423261Y207594*
X423523Y207266*
X424045Y206937*
Y206937D02*
G01X425614Y206281D01*
X426136Y205953*
X426398Y205625*
X426659Y204969*
Y203984*
X426136Y203328*
X425352Y203000*
X424307*
X423523Y203328*
X423000Y203984*
X430580Y209891D02*
G01X430057Y209562D01*
Y209562D02*
G01X429534Y208906D01*
X429273Y208250*
X429011Y207266*
Y205625*
X429273Y204641*
X429534Y203984*
X430057Y203328*
X430580Y203000*
X431625*
X432148Y203328*
X432670Y203984*
X432932Y204641*
X433193Y205625*
Y207266*
X432932Y208250*
X432670Y208906*
X432148Y209562*
Y209562D02*
G01X431625Y209891D01*
X430580*
X435545D02*
G01Y203000D01*
X438682*
X441034Y209891D02*
G01Y203000D01*
Y209891D02*
G01X442864D01*
X443648Y209562*
Y209562D02*
G01X444170Y208906D01*
X444432Y208250*
X444693Y207266*
Y205625*
X444432Y204641*
X444170Y203984*
X443648Y203328*
X442864Y203000*
X441034*
X447045Y209891D02*
G01Y203000D01*
Y209891D02*
G01X450443D01*
X447045Y206609D02*
G01X449136D01*
X447045Y203000D02*
G01X450443D01*
X452795Y209891D02*
G01Y203000D01*
Y209891D02*
G01X455148D01*
X455932Y209562*
Y209562D02*
G01X456193Y209234D01*
X456455Y208578*
Y207922*
X456193Y207266*
X455932Y206937*
Y206937D02*
G01X455148Y206609D01*
X452795*
X454625D02*
G01X456455Y203000D01*
X464818Y209891D02*
G01Y203000D01*
Y209891D02*
G01X467170D01*
X467955Y209562*
Y209562D02*
G01X468216Y209234D01*
X468477Y208578*
Y207594*
X468216Y206937*
Y206937D02*
G01X467955Y206609D01*
X467170Y206281*
X464818*
X472920Y209891D02*
G01X470830Y203000D01*
X472920Y209891D02*
G01X475011Y203000D01*
X471614Y205297D02*
G01X474227D01*
X481023Y208906D02*
G01X480500Y209562D01*
Y209562D02*
G01X479716Y209891D01*
X478670*
X477886Y209562*
Y209562D02*
G01X477364Y208906D01*
Y208250*
X477625Y207594*
X477886Y207266*
X478409Y206937*
Y206937D02*
G01X479977Y206281D01*
X480500Y205953*
X480761Y205625*
X481023Y204969*
Y203984*
X480500Y203328*
X479716Y203000*
X478670*
X477886Y203328*
X477364Y203984*
X485205Y209891D02*
G01Y203000D01*
X483375Y209891D02*
G01X487034D01*
X489386D02*
G01Y203000D01*
Y209891D02*
G01X492784D01*
X489386Y206609D02*
G01X491477D01*
X489386Y203000D02*
G01X492784D01*
X495136Y205953D02*
G01X499841D01*
X502193Y209891D02*
G01Y203000D01*
Y209891D02*
G01X504545D01*
X505330Y209562*
Y209562D02*
G01X505591Y209234D01*
X505852Y208578*
Y207594*
X505591Y206937*
Y206937D02*
G01X505330Y206609D01*
X504545Y206281*
X502193*
X508205Y209891D02*
G01Y203000D01*
Y209891D02*
G01X510557D01*
X511341Y209562*
Y209562D02*
G01X511602Y209234D01*
X511864Y208578*
Y207922*
X511602Y207266*
X511341Y206937*
Y206937D02*
G01X510557Y206609D01*
X508205*
X510034D02*
G01X511864Y203000D01*
X514216Y209891D02*
G01Y203000D01*
X516568Y209891D02*
G01Y203000D01*
Y209891D02*
G01X518659Y203000D01*
X520750Y209891D02*
G01X518659Y203000D01*
X520750Y209891D02*
G01Y203000D01*
X525193Y209891D02*
G01X523102Y203000D01*
X525193Y209891D02*
G01X527284Y203000D01*
X523886Y205297D02*
G01X526500D01*
X529636Y209891D02*
G01Y203000D01*
Y209891D02*
G01X531989D01*
X532773Y209562*
Y209562D02*
G01X533034Y209234D01*
X533295Y208578*
Y207922*
X533034Y207266*
X532773Y206937*
Y206937D02*
G01X531989Y206609D01*
X529636*
X531466D02*
G01X533295Y203000D01*
X535648Y209891D02*
G01X537739Y206609D01*
Y203000*
X539830Y209891D02*
G01X537739Y206609D01*
X551852Y208906D02*
G01X551330Y209562D01*
Y209562D02*
G01X550545Y209891D01*
X549500*
X548716Y209562*
Y209562D02*
G01X548193Y208906D01*
Y208250*
X548455Y207594*
X548716Y207266*
X549239Y206937*
Y206937D02*
G01X550807Y206281D01*
X551330Y205953*
X551591Y205625*
X551852Y204969*
Y203984*
X551330Y203328*
X550545Y203000*
X549500*
X548716Y203328*
X548193Y203984*
X554205Y209891D02*
G01Y203000D01*
X556557Y209891D02*
G01Y203000D01*
Y209891D02*
G01X558386D01*
X559170Y209562*
Y209562D02*
G01X559693Y208906D01*
X559955Y208250*
X560216Y207266*
Y205625*
X559955Y204641*
X559693Y203984*
X559170Y203328*
X558386Y203000*
X556557*
X562568Y209891D02*
G01Y203000D01*
Y209891D02*
G01X565966D01*
X562568Y206609D02*
G01X564659D01*
X562568Y203000D02*
G01X565966D01*
G54D32*
X443665Y226750D02*
G01X446847Y216250D01*
X450028Y226750D02*
G01X446847Y216250D01*
X453608Y226750D02*
G01Y216250D01*
X462756Y225250D02*
G01X461960Y226250D01*
X460767Y226750*
X459176*
X457983Y226250*
X457188Y225250*
Y225250D02*
G01Y224250D01*
Y224250D02*
G01X457585Y223250D01*
X457983Y222750*
X458778Y222250*
X461165Y221250*
X461960Y220750*
X462358Y220250*
X462756Y219250*
Y217750*
X461960Y216750*
X460767Y216250*
X459176*
X457983Y216750*
X457188Y217750*
X466335Y226750D02*
G01Y216250D01*
X469915Y220750D02*
G01X477074D01*
X483438Y226750D02*
G01Y216250D01*
X480653Y226750D02*
G01X486222D01*
X489801D02*
G01Y216250D01*
Y226750D02*
G01X493381D01*
X494574Y226250*
X494972Y225750*
X495369Y224750*
Y223750*
X494972Y222750*
X494574Y222250*
X493381Y221750*
X489801*
X492585D02*
G01X495369Y216250D01*
X502131Y226750D02*
G01X498949Y216250D01*
X502131Y226750D02*
G01X505313Y216250D01*
X500142Y219750D02*
G01X504119D01*
X508892Y226750D02*
G01Y216250D01*
X514460Y226750D02*
G01X508892Y219750D01*
X510881Y222250D02*
G01X514460Y216250D01*
X527188Y226750D02*
G01X529176Y216250D01*
X531165Y226750D02*
G01X529176Y216250D01*
X531165Y226750D02*
G01X533153Y216250D01*
X535142Y226750D02*
G01X533153Y216250D01*
X541108Y226750D02*
G01X540313Y226250D01*
Y226250D02*
G01X539517Y225250D01*
X539119Y224250*
X538722Y222750*
Y220250*
X539119Y218750*
X539517Y217750*
X540313Y216750*
Y216750D02*
G01X541108Y216250D01*
X542699*
X543494Y216750*
X544290Y217750*
X544688Y218750*
Y218750D02*
G01X545085Y220250D01*
Y222750*
X544688Y224250*
Y224250D02*
G01X544290Y225250D01*
X543494Y226250*
X542699Y226750*
X541108*
X548665D02*
G01Y216250D01*
Y226750D02*
G01X552244D01*
X553438Y226250*
Y226250D02*
G01X553835Y225750D01*
X554233Y224750*
Y223750*
X553835Y222750*
X553438Y222250*
Y222250D02*
G01X552244Y221750D01*
X548665*
X551449D02*
G01X554233Y216250D01*
X557813Y226750D02*
G01Y216250D01*
Y216250D02*
G01X562585D01*
X566165Y226750D02*
G01Y216250D01*
Y226750D02*
G01X568949D01*
X570142Y226250*
X570938Y225250*
Y225250D02*
G01X571335Y224250D01*
X571733Y222750*
Y220250*
X571335Y218750*
X570938Y217750*
Y217750D02*
G01X570142Y216750D01*
X568949Y216250*
X566165*
X575313Y226750D02*
G01X577301Y216250D01*
X579290Y226750D02*
G01X577301Y216250D01*
X579290Y226750D02*
G01X581278Y216250D01*
X583267Y226750D02*
G01X581278Y216250D01*
X586847Y226750D02*
G01Y216250D01*
X590426Y226750D02*
G01Y216250D01*
Y226750D02*
G01X593210D01*
X594403Y226250*
X595199Y225250*
X595597Y224250*
X595994Y222750*
Y220250*
X595597Y218750*
X595199Y217750*
X594403Y216750*
X593210Y216250*
X590426*
X599574Y226750D02*
G01Y216250D01*
Y226750D02*
G01X604744D01*
X599574Y221750D02*
G01X602756D01*
X599574Y216250D02*
G01X604744D01*
G54D58*
X553543Y348100D02*
G01Y346900D01*
X546457Y348100D02*
G01Y346900D01*
X553543Y358100D02*
G01Y356900D01*
X546457Y358100D02*
G01Y356900D01*
G54D59*
X362205Y565175D02*
G01Y564825D01*
X337795Y565175D02*
G01Y564825D01*
X347205Y482675D02*
G01Y482325D01*
X322795Y482675D02*
G01Y482325D01*
G54D60*
X373209Y623400D02*
G01Y621600D01*
X361791Y623400D02*
G01Y621600D01*
X555709Y325900D02*
G01Y324100D01*
X544291Y325900D02*
G01Y324100D01*
X531600Y355709D02*
G01X533400D01*
X531600Y344291D02*
G01X533400D01*
X466791Y391600D02*
G01Y393400D01*
X478209Y391600D02*
G01Y393400D01*
X590709Y623400D02*
G01Y621600D01*
X579291Y623400D02*
G01Y621600D01*
X389291Y514100D02*
G01Y515900D01*
X400709Y514100D02*
G01Y515900D01*
G54D63*
X766563Y418632D02*
G01X771763D01*
X746485D02*
G01X751685D01*
X766563Y338868D02*
G01X771763D01*
X746485D02*
G01X751685D01*
X766563Y611132D02*
G01X771763D01*
X746485D02*
G01X751685D01*
X766563Y531368D02*
G01X771763D01*
X746485D02*
G01X751685D01*
X281887Y341368D02*
G01X276687D01*
X301965D02*
G01X296765D01*
X281887Y481132D02*
G01X276687D01*
X301965D02*
G01X296765D01*
X282587Y528068D02*
G01X277387D01*
X302665D02*
G01X297465D01*
X282587Y607832D02*
G01X277387D01*
X302665D02*
G01X297465D01*
G54D64*
X571827Y355886D02*
G01X575377D01*
X571827Y349193D02*
G01X575377D01*
X571827Y342500D02*
G01X575377D01*
X571827Y335807D02*
G01X575377D01*
X571827Y329114D02*
G01X575377D01*
G54D65*
X551446Y497776D02*
G01X550246D01*
X551446Y507224D02*
G01X550246D01*
X544754D02*
G01X543554D01*
X544754Y497776D02*
G01X543554D01*
X551446Y442776D02*
G01X550246D01*
X551446Y452224D02*
G01X550246D01*
X544754D02*
G01X543554D01*
X544754Y442776D02*
G01X543554D01*
X614724Y518946D02*
G01Y517746D01*
X605276Y518946D02*
G01Y517746D01*
Y512254D02*
G01Y511054D01*
X614724Y512254D02*
G01Y511054D01*
X496446Y655276D02*
G01X495246D01*
X496446Y664724D02*
G01X495246D01*
X489754D02*
G01X488554D01*
X489754Y655276D02*
G01X488554D01*
X496446Y617776D02*
G01X495246D01*
X496446Y627224D02*
G01X495246D01*
X489754D02*
G01X488554D01*
X489754Y617776D02*
G01X488554D01*
X351054Y364724D02*
G01X352254D01*
X351054Y355276D02*
G01X352254D01*
X357746D02*
G01X358946D01*
X357746Y364724D02*
G01X358946D01*
G54D66*
X551821Y500925D02*
G01X549871D01*
X551821Y504075D02*
G01X549871D01*
X545129D02*
G01X543179D01*
X545129Y500925D02*
G01X543179D01*
X551821Y445925D02*
G01X549871D01*
X551821Y449075D02*
G01X549871D01*
X545129D02*
G01X543179D01*
X545129Y445925D02*
G01X543179D01*
X611575Y519321D02*
G01Y517371D01*
X608425Y519321D02*
G01Y517371D01*
Y512629D02*
G01Y510679D01*
X611575Y512629D02*
G01Y510679D01*
X496821Y658425D02*
G01X494871D01*
X496821Y661575D02*
G01X494871D01*
X490129D02*
G01X488179D01*
X490129Y658425D02*
G01X488179D01*
X496821Y620925D02*
G01X494871D01*
X496821Y624075D02*
G01X494871D01*
X490129D02*
G01X488179D01*
X490129Y620925D02*
G01X488179D01*
X350679Y361575D02*
G01X352629D01*
X350679Y358425D02*
G01X352629D01*
X357371D02*
G01X359321D01*
X357371Y361575D02*
G01X359321D01*
G54D68*
X516614Y361825D02*
G01Y353175D01*
X493386Y361825D02*
G01Y353175D01*
X516614Y341825D02*
G01Y333175D01*
X493386Y341825D02*
G01Y333175D01*
G54D70*
X478750Y512107D02*
G01Y516633D01*
X481250Y512107D02*
G01Y516633D01*
X483750Y512107D02*
G01Y516633D01*
X486250Y512107D02*
G01Y516633D01*
X488750Y512107D02*
G01Y516633D01*
X491250Y512107D02*
G01Y516633D01*
X493750Y512107D02*
G01Y516633D01*
X496250Y512107D02*
G01Y516633D01*
X498750Y512107D02*
G01Y516633D01*
X501250Y512107D02*
G01Y516633D01*
X503750Y512107D02*
G01Y516633D01*
X506250Y512107D02*
G01Y516633D01*
Y533367D02*
G01Y537893D01*
X503750Y533367D02*
G01Y537893D01*
X501250Y533367D02*
G01Y537893D01*
X498750Y533367D02*
G01Y537893D01*
X496250Y533367D02*
G01Y537893D01*
X493750Y533367D02*
G01Y537893D01*
X491250Y533367D02*
G01Y537893D01*
X488750Y533367D02*
G01Y537893D01*
X486250Y533367D02*
G01Y537893D01*
X483750Y533367D02*
G01Y537893D01*
X481250Y533367D02*
G01Y537893D01*
X478750Y533367D02*
G01Y537893D01*
X696250Y630393D02*
G01Y625867D01*
X693750Y630393D02*
G01Y625867D01*
X691250Y630393D02*
G01Y625867D01*
X688750Y630393D02*
G01Y625867D01*
X686250Y630393D02*
G01Y625867D01*
X683750Y630393D02*
G01Y625867D01*
X681250Y630393D02*
G01Y625867D01*
X678750Y630393D02*
G01Y625867D01*
X676250Y630393D02*
G01Y625867D01*
X673750Y630393D02*
G01Y625867D01*
X671250Y630393D02*
G01Y625867D01*
X668750Y630393D02*
G01Y625867D01*
Y609133D02*
G01Y604607D01*
X671250Y609133D02*
G01Y604607D01*
X673750Y609133D02*
G01Y604607D01*
X676250Y609133D02*
G01Y604607D01*
X678750Y609133D02*
G01Y604607D01*
X681250Y609133D02*
G01Y604607D01*
X683750Y609133D02*
G01Y604607D01*
X686250Y609133D02*
G01Y604607D01*
X688750Y609133D02*
G01Y604607D01*
X691250Y609133D02*
G01Y604607D01*
X693750Y609133D02*
G01Y604607D01*
X696250Y609133D02*
G01Y604607D01*
X506250Y377107D02*
G01Y381633D01*
X508750Y377107D02*
G01Y381633D01*
X511250Y377107D02*
G01Y381633D01*
X513750Y377107D02*
G01Y381633D01*
X516250Y377107D02*
G01Y381633D01*
X518750Y377107D02*
G01Y381633D01*
X521250Y377107D02*
G01Y381633D01*
X523750Y377107D02*
G01Y381633D01*
X526250Y377107D02*
G01Y381633D01*
X528750Y377107D02*
G01Y381633D01*
Y398367D02*
G01Y402893D01*
X526250Y398367D02*
G01Y402893D01*
X523750Y398367D02*
G01Y402893D01*
X521250Y398367D02*
G01Y402893D01*
X518750Y398367D02*
G01Y402893D01*
X516250Y398367D02*
G01Y402893D01*
X513750Y398367D02*
G01Y402893D01*
X511250Y398367D02*
G01Y402893D01*
X508750Y398367D02*
G01Y402893D01*
X506250Y398367D02*
G01Y402893D01*
G54D71*
X598012Y341200D02*
G01Y343800D01*
G54D72*
X512520Y482500D02*
G01X516220D01*
X512520Y477500D02*
G01X516220D01*
X512520Y472500D02*
G01X516220D01*
X512520Y467500D02*
G01X516220D01*
X533780D02*
G01X537480D01*
X533780Y472500D02*
G01X537480D01*
X533780Y477500D02*
G01X537480D01*
X533780Y482500D02*
G01X537480D01*
X425000Y332520D02*
G01Y336220D01*
X430000Y332520D02*
G01Y336220D01*
X435000Y332520D02*
G01Y336220D01*
X440000Y332520D02*
G01Y336220D01*
X445000Y332520D02*
G01Y336220D01*
X450000Y332520D02*
G01Y336220D01*
X455000Y332520D02*
G01Y336220D01*
X460000Y332520D02*
G01Y336220D01*
Y353780D02*
G01Y357480D01*
X455000Y353780D02*
G01Y357480D01*
X450000Y353780D02*
G01Y357480D01*
X445000Y353780D02*
G01Y357480D01*
X440000Y353780D02*
G01Y357480D01*
X435000Y353780D02*
G01Y357480D01*
X430000Y353780D02*
G01Y357480D01*
X425000Y353780D02*
G01Y357480D01*
X455000Y551343D02*
G01Y557043D01*
X460000Y551343D02*
G01Y557043D01*
X465000Y551343D02*
G01Y557043D01*
X470000Y551343D02*
G01Y557043D01*
X475000Y551343D02*
G01Y557043D01*
X480000Y551343D02*
G01Y557043D01*
X485000Y551343D02*
G01Y557043D01*
X490000Y551343D02*
G01Y557043D01*
Y587957D02*
G01Y593657D01*
X485000Y587957D02*
G01Y593657D01*
X480000Y587957D02*
G01Y593657D01*
X475000Y587957D02*
G01Y593657D01*
X470000Y587957D02*
G01Y593657D01*
X465000Y587957D02*
G01Y593657D01*
X460000Y587957D02*
G01Y593657D01*
X455000Y587957D02*
G01Y593657D01*
G54D73*
X518684Y620571D02*
G01X521434D01*
X518684Y617421D02*
G01X521434D01*
X518684Y614272D02*
G01X521434D01*
X518684Y611122D02*
G01X521434D01*
X518684Y607972D02*
G01X521434D01*
X518684Y604823D02*
G01X521434D01*
X518684Y601673D02*
G01X521434D01*
X518684Y598524D02*
G01X521434D01*
X518684Y595374D02*
G01X521434D01*
X518684Y592224D02*
G01X521434D01*
X518684Y589075D02*
G01X521434D01*
X518684Y585925D02*
G01X521434D01*
X518684Y582776D02*
G01X521434D01*
X518684Y579626D02*
G01X521434D01*
X518684Y576476D02*
G01X521434D01*
X518684Y573327D02*
G01X521434D01*
X518684Y570177D02*
G01X521434D01*
X518684Y567028D02*
G01X521434D01*
X518684Y563878D02*
G01X521434D01*
X518684Y560728D02*
G01X521434D01*
X518684Y557579D02*
G01X521434D01*
X518684Y554429D02*
G01X521434D01*
X563566D02*
G01X566316D01*
X563566Y557579D02*
G01X566316D01*
X563566Y560728D02*
G01X566316D01*
X563566Y563878D02*
G01X566316D01*
X563566Y567028D02*
G01X566316D01*
X563566Y570177D02*
G01X566316D01*
X563566Y573327D02*
G01X566316D01*
X563566Y576476D02*
G01X566316D01*
X563566Y579626D02*
G01X566316D01*
X563566Y582776D02*
G01X566316D01*
X563566Y585925D02*
G01X566316D01*
X563566Y589075D02*
G01X566316D01*
X563566Y592224D02*
G01X566316D01*
X563566Y595374D02*
G01X566316D01*
X563566Y598524D02*
G01X566316D01*
X563566Y601673D02*
G01X566316D01*
X563566Y604823D02*
G01X566316D01*
X563566Y607972D02*
G01X566316D01*
X563566Y611122D02*
G01X566316D01*
X563566Y614272D02*
G01X566316D01*
X563566Y617421D02*
G01X566316D01*
X563566Y620571D02*
G01X566316D01*
X603684D02*
G01X606434D01*
X603684Y617421D02*
G01X606434D01*
X603684Y614272D02*
G01X606434D01*
X603684Y611122D02*
G01X606434D01*
X603684Y607972D02*
G01X606434D01*
X603684Y604823D02*
G01X606434D01*
X603684Y601673D02*
G01X606434D01*
X603684Y598524D02*
G01X606434D01*
X603684Y595374D02*
G01X606434D01*
X603684Y592224D02*
G01X606434D01*
X603684Y589075D02*
G01X606434D01*
X603684Y585925D02*
G01X606434D01*
X603684Y582776D02*
G01X606434D01*
X603684Y579626D02*
G01X606434D01*
X603684Y576476D02*
G01X606434D01*
X603684Y573327D02*
G01X606434D01*
X603684Y570177D02*
G01X606434D01*
X603684Y567028D02*
G01X606434D01*
X603684Y563878D02*
G01X606434D01*
X603684Y560728D02*
G01X606434D01*
X603684Y557579D02*
G01X606434D01*
X603684Y554429D02*
G01X606434D01*
X648566D02*
G01X651316D01*
X648566Y557579D02*
G01X651316D01*
X648566Y560728D02*
G01X651316D01*
X648566Y563878D02*
G01X651316D01*
X648566Y567028D02*
G01X651316D01*
X648566Y570177D02*
G01X651316D01*
X648566Y573327D02*
G01X651316D01*
X648566Y576476D02*
G01X651316D01*
X648566Y579626D02*
G01X651316D01*
X648566Y582776D02*
G01X651316D01*
X648566Y585925D02*
G01X651316D01*
X648566Y589075D02*
G01X651316D01*
X648566Y592224D02*
G01X651316D01*
X648566Y595374D02*
G01X651316D01*
X648566Y598524D02*
G01X651316D01*
X648566Y601673D02*
G01X651316D01*
X648566Y604823D02*
G01X651316D01*
X648566Y607972D02*
G01X651316D01*
X648566Y611122D02*
G01X651316D01*
X648566Y614272D02*
G01X651316D01*
X648566Y617421D02*
G01X651316D01*
X648566Y620571D02*
G01X651316D01*
G54D77*
X391594Y663525D02*
G01Y666475D01*
X403406Y663525D02*
G01Y666475D01*
X329094Y363525D02*
G01Y366475D01*
X340906Y363525D02*
G01Y366475D01*
X329094Y353525D02*
G01Y356475D01*
X340906Y353525D02*
G01Y356475D01*
G54D78*
X558564Y492500D02*
G01X561514D01*
X558564Y487500D02*
G01X561514D01*
X558564Y482500D02*
G01X561514D01*
X558564Y477500D02*
G01X561514D01*
X558564Y472500D02*
G01X561514D01*
X558564Y467500D02*
G01X561514D01*
X558564Y462500D02*
G01X561514D01*
X558564Y457500D02*
G01X561514D01*
X588486D02*
G01X591436D01*
X588486Y462500D02*
G01X591436D01*
X588486Y467500D02*
G01X591436D01*
X588486Y472500D02*
G01X591436D01*
X588486Y477500D02*
G01X591436D01*
X588486Y482500D02*
G01X591436D01*
X588486Y487500D02*
G01X591436D01*
X588486Y492500D02*
G01X591436D01*
G54D106*
X727500Y577683D02*
G01Y576883D01*
Y563117D02*
G01Y562317D01*
M02*
